G04*
G04 #@! TF.GenerationSoftware,Altium Limited,Altium Designer,22.6.1 (34)*
G04*
G04 Layer_Color=37055*
%FSLAX25Y25*%
%MOIN*%
G70*
G04*
G04 #@! TF.SameCoordinates,8414C9FA-97DA-49A9-B933-D5EF8910B524*
G04*
G04*
G04 #@! TF.FilePolarity,Positive*
G04*
G01*
G75*
%ADD10C,0.00787*%
%ADD15C,0.00394*%
%ADD16C,0.00984*%
%ADD17C,0.00591*%
%ADD180C,0.00077*%
G36*
X291929Y60630D02*
X294291Y58268D01*
X294488D01*
Y62992D01*
X291929Y60630D01*
D02*
G37*
D10*
X300268Y120669D02*
G03*
X300268Y120669I-4402J0D01*
G01*
X331589Y5709D02*
G03*
X329828Y5709I-880J0D01*
G01*
X312008Y87795D02*
G03*
X318307Y87795I3150J0D01*
G01*
X328346Y5709D02*
Y16732D01*
X333071D01*
Y5709D02*
Y16732D01*
X328346Y5709D02*
X329828D01*
X331589D02*
X333071D01*
X286221Y8071D02*
Y50000D01*
Y8071D02*
X300787D01*
Y50000D01*
X286221D02*
X300787D01*
X307677Y87795D02*
X312008D01*
X318307D02*
X322638D01*
Y52559D02*
Y87598D01*
X307677Y52559D02*
X322638D01*
X307677D02*
Y87795D01*
X307874D01*
D15*
X335212Y55315D02*
X336221D01*
X332283D02*
X333292D01*
X335212Y66339D02*
X336221D01*
X332283D02*
X333292D01*
X336221Y58218D02*
Y63435D01*
X332283Y58218D02*
Y63435D01*
X336221Y55315D02*
Y58218D01*
Y63435D02*
Y66339D01*
X333292Y55315D02*
X335212D01*
X332283D02*
Y58218D01*
X333292Y66339D02*
X335212D01*
X332283Y63435D02*
Y66339D01*
X338386Y63435D02*
Y66339D01*
X339395D02*
X341314D01*
X338386Y55315D02*
Y58218D01*
X339395Y55315D02*
X341314D01*
X342323Y63435D02*
Y66339D01*
Y55315D02*
Y58218D01*
X338386D02*
Y63435D01*
X342323Y58218D02*
Y63435D01*
X338386Y66339D02*
X339395D01*
X341314D02*
X342323D01*
X338386Y55315D02*
X339395D01*
X341314D02*
X342323D01*
X335212Y66929D02*
X336221D01*
X332283D02*
X333292D01*
X335212Y77953D02*
X336221D01*
X332283D02*
X333292D01*
X336221Y69833D02*
Y75049D01*
X332283Y69833D02*
Y75049D01*
X336221Y66929D02*
Y69833D01*
Y75049D02*
Y77953D01*
X333292Y66929D02*
X335212D01*
X332283D02*
Y69833D01*
X333292Y77953D02*
X335212D01*
X332283Y75049D02*
Y77953D01*
X342323Y67126D02*
Y70029D01*
X339395Y67126D02*
X341314D01*
X342323Y75246D02*
Y78150D01*
X339395D02*
X341314D01*
X338386Y67126D02*
Y70029D01*
Y75246D02*
Y78150D01*
X342323Y70029D02*
Y75246D01*
X338386Y70029D02*
Y75246D01*
X341314Y67126D02*
X342323D01*
X338386D02*
X339395D01*
X341314Y78150D02*
X342323D01*
X338386D02*
X339395D01*
X335433Y87253D02*
Y90157D01*
X336442D02*
X338361D01*
X335433Y79133D02*
Y82037D01*
X336442Y79133D02*
X338361D01*
X339370Y87253D02*
Y90157D01*
Y79133D02*
Y82037D01*
X335433D02*
Y87253D01*
X339370Y82037D02*
Y87253D01*
X335433Y90157D02*
X336442D01*
X338361D02*
X339370D01*
X335433Y79133D02*
X336442D01*
X338361D02*
X339370D01*
X333243D02*
X334252D01*
X330315D02*
X331324D01*
X333243Y90157D02*
X334252D01*
X330315D02*
X331324D01*
X334252Y82037D02*
Y87253D01*
X330315Y82037D02*
Y87253D01*
X334252Y79133D02*
Y82037D01*
Y87253D02*
Y90157D01*
X331324Y79133D02*
X333243D01*
X330315D02*
Y82037D01*
X331324Y90157D02*
X333243D01*
X330315Y87253D02*
Y90157D01*
X340551D02*
X341560D01*
X343479D02*
X344488D01*
X340551Y79133D02*
X341560D01*
X343479D02*
X344488D01*
X340551Y82037D02*
Y87253D01*
X344488Y82037D02*
Y87253D01*
X340551D02*
Y90157D01*
Y79133D02*
Y82037D01*
X341560Y90157D02*
X343479D01*
X344488Y87253D02*
Y90157D01*
X341560Y79133D02*
X343479D01*
X344488D02*
Y82037D01*
X331299Y50197D02*
X334203D01*
X331299Y51206D02*
Y53125D01*
X339419Y50197D02*
X342323D01*
Y51206D02*
Y53125D01*
X331299Y54134D02*
X334203D01*
X339419D02*
X342323D01*
X334203Y50197D02*
X339419D01*
X334203Y54134D02*
X339419D01*
X331299Y50197D02*
Y51206D01*
Y53125D02*
Y54134D01*
X342323Y50197D02*
Y51206D01*
Y53125D02*
Y54134D01*
X354134Y53125D02*
Y54134D01*
Y50197D02*
Y51206D01*
X343110Y53125D02*
Y54134D01*
Y50197D02*
Y51206D01*
X346014Y54134D02*
X351230D01*
X346014Y50197D02*
X351230D01*
Y54134D02*
X354134D01*
X343110D02*
X346014D01*
X354134Y51206D02*
Y53125D01*
X351230Y50197D02*
X354134D01*
X343110Y51206D02*
Y53125D01*
Y50197D02*
X346014D01*
X352756Y61811D02*
Y68898D01*
X346457Y61811D02*
Y68898D01*
X352756Y78543D02*
Y85630D01*
X346457Y78543D02*
Y85630D01*
X316535Y13435D02*
Y16339D01*
X317544D02*
X319464D01*
X316535Y5315D02*
Y8219D01*
X317544Y5315D02*
X319464D01*
X320472Y13435D02*
Y16339D01*
Y5315D02*
Y8219D01*
X316535D02*
Y13435D01*
X320472Y8219D02*
Y13435D01*
X316535Y16339D02*
X317544D01*
X319464D02*
X320472D01*
X316535Y5315D02*
X317544D01*
X319464D02*
X320472D01*
X311024Y10827D02*
Y15945D01*
X308268Y10827D02*
Y15945D01*
X304528Y41339D02*
X309646D01*
X304528Y38583D02*
X309646D01*
X311221Y41339D02*
X316339D01*
X311221Y38583D02*
X316339D01*
X317913Y41339D02*
X323031D01*
X317913Y38583D02*
X323031D01*
X304528Y24213D02*
X309646D01*
X304528Y21457D02*
X309646D01*
X311221Y25443D02*
Y28346D01*
X312229D02*
X314149D01*
X311221Y17323D02*
Y20226D01*
X312229Y17323D02*
X314149D01*
X315158Y25443D02*
Y28346D01*
Y17323D02*
Y20226D01*
X311221D02*
Y25443D01*
X315158Y20226D02*
Y25443D01*
X311221Y28346D02*
X312229D01*
X314149D02*
X315158D01*
X311221Y17323D02*
X312229D01*
X314149D02*
X315158D01*
X316535Y25443D02*
Y28346D01*
X317544D02*
X319464D01*
X316535Y17323D02*
Y20226D01*
X317544Y17323D02*
X319464D01*
X320472Y25443D02*
Y28346D01*
Y17323D02*
Y20226D01*
X316535D02*
Y25443D01*
X320472Y20226D02*
Y25443D01*
X316535Y28346D02*
X317544D01*
X319464D02*
X320472D01*
X316535Y17323D02*
X317544D01*
X319464D02*
X320472D01*
X339173Y16339D02*
X340182D01*
X342101D02*
X343110D01*
X339173Y5315D02*
X340182D01*
X342101D02*
X343110D01*
X339173Y8219D02*
Y13435D01*
X343110Y8219D02*
Y13435D01*
X339173D02*
Y16339D01*
Y5315D02*
Y8219D01*
X340182Y16339D02*
X342101D01*
X343110Y13435D02*
Y16339D01*
X340182Y5315D02*
X342101D01*
X343110D02*
Y8219D01*
X334055Y21038D02*
Y22047D01*
Y18110D02*
Y19119D01*
X323031Y21038D02*
Y22047D01*
Y18110D02*
Y19119D01*
X325935Y22047D02*
X331152D01*
X325935Y18110D02*
X331152D01*
Y22047D02*
X334055D01*
X323031D02*
X325935D01*
X334055Y19119D02*
Y21038D01*
X331152Y18110D02*
X334055D01*
X323031Y19119D02*
Y21038D01*
Y18110D02*
X325935D01*
X327362Y23425D02*
X334449D01*
X327362Y29724D02*
X334449D01*
X295915Y56890D02*
X298819D01*
Y53962D02*
Y55881D01*
X287795Y56890D02*
X290699D01*
X287795Y53962D02*
Y55881D01*
X295915Y52953D02*
X298819D01*
X287795D02*
X290699D01*
Y56890D02*
X295915D01*
X290699Y52953D02*
X295915D01*
X298819Y55881D02*
Y56890D01*
Y52953D02*
Y53962D01*
X287795Y55881D02*
Y56890D01*
Y52953D02*
Y53962D01*
X291929Y58268D02*
Y62992D01*
X294488Y58268D02*
Y62992D01*
X291929Y60630D02*
X294488Y58268D01*
X291929Y60630D02*
X294488Y62992D01*
X287992Y68504D02*
X290896D01*
X287992Y69513D02*
Y71432D01*
X296112Y68504D02*
X299016D01*
Y69513D02*
Y71432D01*
X287992Y72441D02*
X290896D01*
X296112D02*
X299016D01*
X290896Y68504D02*
X296112D01*
X290896Y72441D02*
X296112D01*
X287992Y68504D02*
Y69513D01*
Y71432D02*
Y72441D01*
X299016Y68504D02*
Y69513D01*
Y71432D02*
Y72441D01*
X287992Y73622D02*
X290896D01*
X287992Y74631D02*
Y76550D01*
X296112Y73622D02*
X299016D01*
Y74631D02*
Y76550D01*
X287992Y77559D02*
X290896D01*
X296112D02*
X299016D01*
X290896Y73622D02*
X296112D01*
X290896Y77559D02*
X296112D01*
X287992Y73622D02*
Y74631D01*
Y76550D02*
Y77559D01*
X299016Y73622D02*
Y74631D01*
Y76550D02*
Y77559D01*
X289961Y89567D02*
X290969D01*
X292889D02*
X293898D01*
X289961Y78543D02*
X290969D01*
X292889D02*
X293898D01*
X289961Y81447D02*
Y86663D01*
X293898Y81447D02*
Y86663D01*
X289961D02*
Y89567D01*
Y78543D02*
Y81447D01*
X290969Y89567D02*
X292889D01*
X293898Y86663D02*
Y89567D01*
X290969Y78543D02*
X292889D01*
X293898D02*
Y81447D01*
X298007Y78543D02*
X299016D01*
X295079D02*
X296088D01*
X298007Y89567D02*
X299016D01*
X295079D02*
X296088D01*
X299016Y81447D02*
Y86663D01*
X295079Y81447D02*
Y86663D01*
X299016Y78543D02*
Y81447D01*
Y86663D02*
Y89567D01*
X296088Y78543D02*
X298007D01*
X295079D02*
Y81447D01*
X296088Y89567D02*
X298007D01*
X295079Y86663D02*
Y89567D01*
X302329Y89728D02*
X305233D01*
X302329Y90737D02*
Y92656D01*
X310449Y89728D02*
X313353D01*
Y90737D02*
Y92656D01*
X302329Y93665D02*
X305233D01*
X310449D02*
X313353D01*
X305233Y89728D02*
X310449D01*
X305233Y93665D02*
X310449D01*
X302329Y89728D02*
Y90737D01*
Y92656D02*
Y93665D01*
X313353Y89728D02*
Y90737D01*
Y92656D02*
Y93665D01*
X308858Y95079D02*
Y100197D01*
X306102Y95079D02*
Y100197D01*
D16*
X284646Y50984D02*
Y52952D01*
Y51968D01*
X290549D01*
X289565Y50984D01*
D17*
X337500Y91732D02*
Y104331D01*
Y91732D02*
X338779Y92913D01*
X337500Y104331D02*
X339961D01*
X345079D01*
X339173Y110236D02*
Y122638D01*
Y110236D02*
X345276D01*
Y91929D02*
Y110236D01*
Y91929D02*
X357480D01*
Y122638D01*
X339173D02*
X357480D01*
X336417Y93110D02*
X337500Y91732D01*
X338779Y92913D01*
X329528Y54724D02*
X345472D01*
Y90945D01*
X329528Y54724D02*
Y90945D01*
X345472D01*
X302756Y4544D02*
Y30118D01*
Y4544D02*
X321654D01*
X354528Y31496D02*
Y33071D01*
Y31496D02*
Y35433D01*
X345996Y31496D02*
X354528D01*
X360827Y10433D02*
Y31496D01*
X354921Y10433D02*
X360827D01*
X354528Y31496D02*
X360827D01*
X354921Y10433D02*
Y15945D01*
X345813D02*
X354921D01*
X345813D02*
X345996Y31496D01*
X312402Y35433D02*
X354528D01*
X312303Y30118D02*
X312402Y35433D01*
X311221Y31299D02*
X312303Y30118D01*
X313779Y31299D01*
X302756Y30118D02*
X321654D01*
Y4544D02*
Y30118D01*
X302953Y128673D02*
X300854D01*
X301903D01*
Y125525D01*
X299804D02*
Y128673D01*
X298230D01*
X297705Y128149D01*
Y127099D01*
X298230Y126574D01*
X299804D01*
X296656Y125000D02*
X294556D01*
X291408Y128149D02*
X291933Y128673D01*
X292982D01*
X293507Y128149D01*
Y126049D01*
X292982Y125525D01*
X291933D01*
X291408Y126049D01*
Y127099D01*
X292458D01*
X290358Y125525D02*
Y128673D01*
X288259Y125525D01*
Y128673D01*
X287210D02*
Y125525D01*
X285635D01*
X285111Y126049D01*
Y128149D01*
X285635Y128673D01*
X287210D01*
X298228Y4527D02*
Y7283D01*
X297310Y6364D01*
X296392Y7283D01*
Y4527D01*
X295473D02*
Y6364D01*
X294555Y7283D01*
X293637Y6364D01*
Y4527D01*
Y5905D01*
X295473D01*
X292718Y7283D02*
X291800D01*
X292259D01*
Y4527D01*
X292718D01*
X291800D01*
X290423D02*
Y7283D01*
X288586Y4527D01*
Y7283D01*
X354790Y94948D02*
X355314Y94423D01*
Y93374D01*
X354790Y92849D01*
X352691D01*
X352166Y93374D01*
Y94423D01*
X352691Y94948D01*
X352166Y97572D02*
X355314D01*
X353740Y95998D01*
Y98097D01*
X352166Y100721D02*
X355314D01*
X353740Y99146D01*
Y101245D01*
X338319Y48687D02*
X338844Y49212D01*
X339894D01*
X340419Y48687D01*
Y46588D01*
X339894Y46064D01*
X338844D01*
X338319Y46588D01*
X335696Y46064D02*
Y49212D01*
X337270Y47638D01*
X335171D01*
X334121Y48687D02*
X333597Y49212D01*
X332547D01*
X332022Y48687D01*
Y48163D01*
X332547Y47638D01*
X333072D01*
X332547D01*
X332022Y47113D01*
Y46588D01*
X332547Y46064D01*
X333597D01*
X334121Y46588D01*
X333332Y4330D02*
Y1706D01*
X332808Y1182D01*
X331758D01*
X331233Y1706D01*
Y4330D01*
X330184Y1706D02*
X329659Y1182D01*
X328610D01*
X328085Y1706D01*
Y3805D01*
X328610Y4330D01*
X329659D01*
X330184Y3805D01*
Y3281D01*
X329659Y2756D01*
X328085D01*
X317781Y51377D02*
Y48754D01*
X317256Y48229D01*
X316207D01*
X315682Y48754D01*
Y51377D01*
X314633Y50853D02*
X314108Y51377D01*
X313058D01*
X312534Y50853D01*
Y50328D01*
X313058Y49803D01*
X312534Y49278D01*
Y48754D01*
X313058Y48229D01*
X314108D01*
X314633Y48754D01*
Y49278D01*
X314108Y49803D01*
X314633Y50328D01*
Y50853D01*
X314108Y49803D02*
X313058D01*
X334776Y30906D02*
Y34055D01*
X333201D01*
X332677Y33530D01*
Y32480D01*
X333201Y31956D01*
X334776D01*
X333726D02*
X332677Y30906D01*
X331627Y34055D02*
X329528D01*
X330578D01*
Y30906D01*
X328479D02*
X327429D01*
X327954D01*
Y34055D01*
X328479Y33530D01*
X343765Y18308D02*
Y21456D01*
X342191D01*
X341666Y20931D01*
Y19882D01*
X342191Y19357D01*
X343765D01*
X342716D02*
X341666Y18308D01*
X340616Y20931D02*
X340092Y21456D01*
X339042D01*
X338517Y20931D01*
Y20407D01*
X339042Y19882D01*
X339567D01*
X339042D01*
X338517Y19357D01*
Y18832D01*
X339042Y18308D01*
X340092D01*
X340616Y18832D01*
X337468Y21456D02*
X335369D01*
Y20931D01*
X337468Y18832D01*
Y18308D01*
X352166Y21392D02*
X355314D01*
Y22967D01*
X354790Y23492D01*
X353740D01*
X353215Y22967D01*
Y21392D01*
Y22442D02*
X352166Y23492D01*
X354790Y24541D02*
X355314Y25066D01*
Y26115D01*
X354790Y26640D01*
X354265D01*
X353740Y26115D01*
Y25591D01*
Y26115D01*
X353215Y26640D01*
X352691D01*
X352166Y26115D01*
Y25066D01*
X352691Y24541D01*
X355314Y29789D02*
X354790Y28739D01*
X353740Y27690D01*
X352691D01*
X352166Y28214D01*
Y29264D01*
X352691Y29789D01*
X353215D01*
X353740Y29264D01*
Y27690D01*
X356300Y11550D02*
X359448D01*
Y13124D01*
X358924Y13649D01*
X357874D01*
X357349Y13124D01*
Y11550D01*
Y12599D02*
X356300Y13649D01*
X358924Y14698D02*
X359448Y15223D01*
Y16273D01*
X358924Y16798D01*
X358399D01*
X357874Y16273D01*
Y15748D01*
Y16273D01*
X357349Y16798D01*
X356824D01*
X356300Y16273D01*
Y15223D01*
X356824Y14698D01*
X359448Y19946D02*
Y17847D01*
X357874D01*
X358399Y18897D01*
Y19421D01*
X357874Y19946D01*
X356824D01*
X356300Y19421D01*
Y18372D01*
X356824Y17847D01*
X356300Y21392D02*
X359448D01*
Y22967D01*
X358924Y23492D01*
X357874D01*
X357349Y22967D01*
Y21392D01*
Y22442D02*
X356300Y23492D01*
X358924Y24541D02*
X359448Y25066D01*
Y26115D01*
X358924Y26640D01*
X358399D01*
X357874Y26115D01*
Y25591D01*
Y26115D01*
X357349Y26640D01*
X356824D01*
X356300Y26115D01*
Y25066D01*
X356824Y24541D01*
X356300Y29264D02*
X359448D01*
X357874Y27690D01*
Y29789D01*
X352098Y45670D02*
Y48818D01*
X350524D01*
X349999Y48294D01*
Y47244D01*
X350524Y46719D01*
X352098D01*
X351049D02*
X349999Y45670D01*
X348950Y48294D02*
X348425Y48818D01*
X347376D01*
X346851Y48294D01*
Y47769D01*
X347376Y47244D01*
X347900D01*
X347376D01*
X346851Y46719D01*
Y46195D01*
X347376Y45670D01*
X348425D01*
X348950Y46195D01*
X345801Y45670D02*
X344752D01*
X345277D01*
Y48818D01*
X345801Y48294D01*
X347441Y92849D02*
X350590D01*
Y94423D01*
X350065Y94948D01*
X349016D01*
X348491Y94423D01*
Y92849D01*
Y93899D02*
X347441Y94948D01*
X350065Y95998D02*
X350590Y96522D01*
Y97572D01*
X350065Y98097D01*
X349540D01*
X349016Y97572D01*
Y97047D01*
Y97572D01*
X348491Y98097D01*
X347966D01*
X347441Y97572D01*
Y96522D01*
X347966Y95998D01*
X350065Y99146D02*
X350590Y99671D01*
Y100721D01*
X350065Y101245D01*
X347966D01*
X347441Y100721D01*
Y99671D01*
X347966Y99146D01*
X350065D01*
X298096Y90552D02*
Y93700D01*
X296521D01*
X295997Y93176D01*
Y92126D01*
X296521Y91601D01*
X298096D01*
X297046D02*
X295997Y90552D01*
X292848D02*
X294947D01*
X292848Y92651D01*
Y93176D01*
X293373Y93700D01*
X294422D01*
X294947Y93176D01*
X291799Y91076D02*
X291274Y90552D01*
X290224D01*
X289700Y91076D01*
Y93176D01*
X290224Y93700D01*
X291274D01*
X291799Y93176D01*
Y92651D01*
X291274Y92126D01*
X289700D01*
X298096Y94882D02*
Y98031D01*
X296521D01*
X295997Y97506D01*
Y96457D01*
X296521Y95932D01*
X298096D01*
X297046D02*
X295997Y94882D01*
X292848D02*
X294947D01*
X292848Y96982D01*
Y97506D01*
X293373Y98031D01*
X294422D01*
X294947Y97506D01*
X291799D02*
X291274Y98031D01*
X290224D01*
X289700Y97506D01*
Y96982D01*
X290224Y96457D01*
X289700Y95932D01*
Y95407D01*
X290224Y94882D01*
X291274D01*
X291799Y95407D01*
Y95932D01*
X291274Y96457D01*
X291799Y96982D01*
Y97506D01*
X291274Y96457D02*
X290224D01*
X347245Y102495D02*
X350393D01*
Y104069D01*
X349868Y104594D01*
X348819D01*
X348294Y104069D01*
Y102495D01*
Y103544D02*
X347245Y104594D01*
Y107742D02*
Y105643D01*
X349344Y107742D01*
X349868D01*
X350393Y107218D01*
Y106168D01*
X349868Y105643D01*
X350393Y108792D02*
Y110891D01*
X349868D01*
X347769Y108792D01*
X347245D01*
X283859Y55054D02*
X287007D01*
Y56628D01*
X286483Y57153D01*
X285433D01*
X284908Y56628D01*
Y55054D01*
Y56103D02*
X283859Y57153D01*
Y60302D02*
Y58202D01*
X285958Y60302D01*
X286483D01*
X287007Y59777D01*
Y58727D01*
X286483Y58202D01*
X287007Y63450D02*
X286483Y62401D01*
X285433Y61351D01*
X284384D01*
X283859Y61876D01*
Y62925D01*
X284384Y63450D01*
X284908D01*
X285433Y62925D01*
Y61351D01*
X352363Y112731D02*
X355511D01*
Y114305D01*
X354987Y114830D01*
X353937D01*
X353412Y114305D01*
Y112731D01*
Y113780D02*
X352363Y114830D01*
Y117979D02*
Y115880D01*
X354462Y117979D01*
X354987D01*
X355511Y117454D01*
Y116404D01*
X354987Y115880D01*
X355511Y121127D02*
Y119028D01*
X353937D01*
X354462Y120078D01*
Y120603D01*
X353937Y121127D01*
X352888D01*
X352363Y120603D01*
Y119553D01*
X352888Y119028D01*
X347048Y112731D02*
X350196D01*
Y114305D01*
X349672Y114830D01*
X348622D01*
X348097Y114305D01*
Y112731D01*
Y113780D02*
X347048Y114830D01*
Y117979D02*
Y115880D01*
X349147Y117979D01*
X349672D01*
X350196Y117454D01*
Y116404D01*
X349672Y115880D01*
X347048Y120603D02*
X350196D01*
X348622Y119028D01*
Y121127D01*
X295079Y99345D02*
X298228D01*
Y100919D01*
X297703Y101444D01*
X296654D01*
X296129Y100919D01*
Y99345D01*
Y100395D02*
X295079Y101444D01*
Y104593D02*
Y102494D01*
X297178Y104593D01*
X297703D01*
X298228Y104068D01*
Y103018D01*
X297703Y102494D01*
Y105642D02*
X298228Y106167D01*
Y107217D01*
X297703Y107741D01*
X297178D01*
X296654Y107217D01*
Y106692D01*
Y107217D01*
X296129Y107741D01*
X295604D01*
X295079Y107217D01*
Y106167D01*
X295604Y105642D01*
X293438Y3543D02*
X294488D01*
X293963D01*
Y919D01*
X294488Y394D01*
X295012D01*
X295537Y919D01*
X292389Y3018D02*
X291864Y3543D01*
X290814D01*
X290290Y3018D01*
Y2493D01*
X290814Y1969D01*
X290290Y1444D01*
Y919D01*
X290814Y394D01*
X291864D01*
X292389Y919D01*
Y1444D01*
X291864Y1969D01*
X292389Y2493D01*
Y3018D01*
X291864Y1969D02*
X290814D01*
X295537Y67519D02*
Y64371D01*
X293963D01*
X293438Y64895D01*
Y66994D01*
X293963Y67519D01*
X295537D01*
X290290D02*
X291339Y66994D01*
X292389Y65945D01*
Y64895D01*
X291864Y64371D01*
X290814D01*
X290290Y64895D01*
Y65420D01*
X290814Y65945D01*
X292389D01*
X350656Y23492D02*
X351181Y22967D01*
Y21917D01*
X350656Y21392D01*
X348557D01*
X348032Y21917D01*
Y22967D01*
X348557Y23492D01*
X348032Y26115D02*
X351181D01*
X349606Y24541D01*
Y26640D01*
X351181Y27690D02*
Y29789D01*
X350656D01*
X348557Y27690D01*
X348032D01*
X353477Y19750D02*
X354002Y20275D01*
X355051D01*
X355576Y19750D01*
Y17651D01*
X355051Y17127D01*
X354002D01*
X353477Y17651D01*
X350853Y17127D02*
Y20275D01*
X352428Y18701D01*
X350328D01*
X347180Y20275D02*
X348229Y19750D01*
X349279Y18701D01*
Y17651D01*
X348754Y17127D01*
X347705D01*
X347180Y17651D01*
Y18176D01*
X347705Y18701D01*
X349279D01*
X346916Y8728D02*
X347440Y8203D01*
Y7153D01*
X346916Y6629D01*
X344817D01*
X344292Y7153D01*
Y8203D01*
X344817Y8728D01*
X344292Y11351D02*
X347440D01*
X345866Y9777D01*
Y11876D01*
X347440Y15025D02*
Y12926D01*
X345866D01*
X346391Y13975D01*
Y14500D01*
X345866Y15025D01*
X344817D01*
X344292Y14500D01*
Y13451D01*
X344817Y12926D01*
X357546Y62862D02*
X358070Y62337D01*
Y61287D01*
X357546Y60763D01*
X355447D01*
X354922Y61287D01*
Y62337D01*
X355447Y62862D01*
X354922Y65485D02*
X358070D01*
X356496Y63911D01*
Y66010D01*
X354922Y69159D02*
Y67060D01*
X357021Y69159D01*
X357546D01*
X358070Y68634D01*
Y67585D01*
X357546Y67060D01*
X336876Y38780D02*
X337401Y38255D01*
Y37206D01*
X336876Y36681D01*
X334777D01*
X334253Y37206D01*
Y38255D01*
X334777Y38780D01*
X334253Y41404D02*
X337401D01*
X335827Y39830D01*
Y41929D01*
X334253Y42978D02*
Y44028D01*
Y43503D01*
X337401D01*
X336876Y42978D01*
X332546Y38649D02*
X333070Y38124D01*
Y37075D01*
X332546Y36550D01*
X330447D01*
X329922Y37075D01*
Y38124D01*
X330447Y38649D01*
X329922Y41273D02*
X333070D01*
X331496Y39698D01*
Y41798D01*
X332546Y42847D02*
X333070Y43372D01*
Y44421D01*
X332546Y44946D01*
X330447D01*
X329922Y44421D01*
Y43372D01*
X330447Y42847D01*
X332546D01*
X328412Y38846D02*
X328937Y38321D01*
Y37271D01*
X328412Y36747D01*
X326313D01*
X325788Y37271D01*
Y38321D01*
X326313Y38846D01*
X328412Y39895D02*
X328937Y40420D01*
Y41470D01*
X328412Y41994D01*
X327887D01*
X327362Y41470D01*
Y40945D01*
Y41470D01*
X326837Y41994D01*
X326313D01*
X325788Y41470D01*
Y40420D01*
X326313Y39895D01*
Y43044D02*
X325788Y43569D01*
Y44618D01*
X326313Y45143D01*
X328412D01*
X328937Y44618D01*
Y43569D01*
X328412Y43044D01*
X327887D01*
X327362Y43569D01*
Y45143D01*
X354790Y104594D02*
X355314Y104069D01*
Y103020D01*
X354790Y102495D01*
X352691D01*
X352166Y103020D01*
Y104069D01*
X352691Y104594D01*
X354790Y105643D02*
X355314Y106168D01*
Y107218D01*
X354790Y107742D01*
X354265D01*
X353740Y107218D01*
Y106693D01*
Y107218D01*
X353215Y107742D01*
X352691D01*
X352166Y107218D01*
Y106168D01*
X352691Y105643D01*
X354790Y108792D02*
X355314Y109317D01*
Y110366D01*
X354790Y110891D01*
X354265D01*
X353740Y110366D01*
X353215Y110891D01*
X352691D01*
X352166Y110366D01*
Y109317D01*
X352691Y108792D01*
X353215D01*
X353740Y109317D01*
X354265Y108792D01*
X354790D01*
X353740Y109317D02*
Y110366D01*
X292585Y101444D02*
X293110Y100919D01*
Y99870D01*
X292585Y99345D01*
X290486D01*
X289961Y99870D01*
Y100919D01*
X290486Y101444D01*
X292585Y102494D02*
X293110Y103018D01*
Y104068D01*
X292585Y104593D01*
X292060D01*
X291535Y104068D01*
Y103543D01*
Y104068D01*
X291011Y104593D01*
X290486D01*
X289961Y104068D01*
Y103018D01*
X290486Y102494D01*
X293110Y105642D02*
Y107741D01*
X292585D01*
X290486Y105642D01*
X289961D01*
X357349Y80184D02*
X357874Y79660D01*
Y78610D01*
X357349Y78085D01*
X355250D01*
X354725Y78610D01*
Y79660D01*
X355250Y80184D01*
X357349Y81234D02*
X357874Y81759D01*
Y82808D01*
X357349Y83333D01*
X356824D01*
X356299Y82808D01*
Y82284D01*
Y82808D01*
X355774Y83333D01*
X355250D01*
X354725Y82808D01*
Y81759D01*
X355250Y81234D01*
X357874Y86482D02*
X357349Y85432D01*
X356299Y84382D01*
X355250D01*
X354725Y84907D01*
Y85957D01*
X355250Y86482D01*
X355774D01*
X356299Y85957D01*
Y84382D01*
X344750Y114830D02*
X345275Y114305D01*
Y113256D01*
X344750Y112731D01*
X342651D01*
X342126Y113256D01*
Y114305D01*
X342651Y114830D01*
X344750Y115880D02*
X345275Y116404D01*
Y117454D01*
X344750Y117979D01*
X344226D01*
X343701Y117454D01*
Y116929D01*
Y117454D01*
X343176Y117979D01*
X342651D01*
X342126Y117454D01*
Y116404D01*
X342651Y115880D01*
X345275Y121127D02*
Y119028D01*
X343701D01*
X344226Y120078D01*
Y120603D01*
X343701Y121127D01*
X342651D01*
X342126Y120603D01*
Y119553D01*
X342651Y119028D01*
X309579Y103609D02*
X310104Y104133D01*
X311154D01*
X311678Y103609D01*
Y101509D01*
X311154Y100985D01*
X310104D01*
X309579Y101509D01*
X308530Y103609D02*
X308005Y104133D01*
X306956D01*
X306431Y103609D01*
Y103084D01*
X306956Y102559D01*
X307480D01*
X306956D01*
X306431Y102034D01*
Y101509D01*
X306956Y100985D01*
X308005D01*
X308530Y101509D01*
X303807Y100985D02*
Y104133D01*
X305381Y102559D01*
X303282D01*
X320603Y92585D02*
X321128Y93110D01*
X322177D01*
X322702Y92585D01*
Y90486D01*
X322177Y89961D01*
X321128D01*
X320603Y90486D01*
X319553Y92585D02*
X319029Y93110D01*
X317979D01*
X317454Y92585D01*
Y92060D01*
X317979Y91535D01*
X318504D01*
X317979D01*
X317454Y91011D01*
Y90486D01*
X317979Y89961D01*
X319029D01*
X319553Y90486D01*
X316405Y92585D02*
X315880Y93110D01*
X314831D01*
X314306Y92585D01*
Y92060D01*
X314831Y91535D01*
X315355D01*
X314831D01*
X314306Y91011D01*
Y90486D01*
X314831Y89961D01*
X315880D01*
X316405Y90486D01*
D180*
X95443Y257814D02*
X132049D01*
X95289Y257968D02*
X131895D01*
X95366Y257892D02*
X131972D01*
X95520Y257737D02*
X132049D01*
X94596Y260435D02*
X130354D01*
X94596Y260357D02*
X130431D01*
X94519Y260203D02*
X130508D01*
X94519Y260126D02*
X130508D01*
X94519Y259972D02*
X130662D01*
X94519Y260280D02*
X130431D01*
X94519Y260049D02*
X130662D01*
X94673Y258816D02*
X131279D01*
X94750Y258508D02*
X131433D01*
X94673Y258893D02*
X131202D01*
X94827Y258354D02*
X131587D01*
X94673Y258662D02*
X131356D01*
X94750Y258585D02*
X131433D01*
X94673Y259047D02*
X131047D01*
X94673Y258739D02*
X131279D01*
X94750Y258431D02*
X131510D01*
X94673Y258970D02*
X131124D01*
X94673Y260589D02*
X130277D01*
X94750Y260974D02*
X130123D01*
X94750Y260897D02*
X130123D01*
X94596Y260512D02*
X130277D01*
X94750Y260743D02*
X130123D01*
X94673Y260666D02*
X130277D01*
X94750Y260820D02*
X130123D01*
X98063Y256813D02*
X132820D01*
X98063Y256735D02*
X132820D01*
X97447Y257198D02*
X132435D01*
X97755Y257044D02*
X132589D01*
X98063Y256658D02*
X132897D01*
X97601Y257121D02*
X132435D01*
X97832Y256967D02*
X132666D01*
X97986Y256890D02*
X132666D01*
X94596Y259741D02*
X130739D01*
X94673Y259124D02*
X131047D01*
X94519Y259895D02*
X130662D01*
X94596Y259664D02*
X130816D01*
X94673Y259510D02*
X130893D01*
X94673Y259356D02*
X130970D01*
X94596Y259818D02*
X130739D01*
X94596Y259587D02*
X130816D01*
X94673Y259279D02*
X130970D01*
X94673Y259202D02*
X131047D01*
X94673Y259433D02*
X130893D01*
X94827Y258277D02*
X131664D01*
X94981Y258200D02*
X131741D01*
X95135Y258046D02*
X131818D01*
X95058Y258123D02*
X131741D01*
X98372Y256273D02*
X133205D01*
X98295Y256350D02*
X133128D01*
X98449Y256119D02*
X133205D01*
X98372Y256196D02*
X133205D01*
X98218Y256581D02*
X132974D01*
X98218Y256504D02*
X133051D01*
X98295Y256427D02*
X133051D01*
X94981Y262130D02*
X130046D01*
X94981Y262053D02*
X129969D01*
X94981Y262207D02*
X130046D01*
X94904Y261976D02*
X129969D01*
X94981Y262284D02*
X130123D01*
X94904Y261745D02*
X129969D01*
X94904Y261822D02*
X129892D01*
X94904Y261899D02*
X129892D01*
X95058Y262361D02*
X130123D01*
X97370Y257275D02*
X132358D01*
X96368Y257506D02*
X132203D01*
X97216Y257352D02*
X132281D01*
X95675Y257660D02*
X132126D01*
X96830Y257429D02*
X132281D01*
X95983Y257583D02*
X132126D01*
X94827Y261128D02*
X130046D01*
X94904Y261668D02*
X129969D01*
X94904Y261359D02*
X129969D01*
X94904Y261205D02*
X130046D01*
X94904Y261591D02*
X129969D01*
X94904Y261513D02*
X129969D01*
X94904Y261282D02*
X129969D01*
X94904Y261437D02*
X129969D01*
X94827Y261051D02*
X130046D01*
X95212Y262978D02*
X131895D01*
X95212Y263055D02*
X131895D01*
X95135Y262592D02*
X130277D01*
X95212Y263132D02*
X132126D01*
X95366Y263594D02*
X132589D01*
X95289Y263440D02*
X132435D01*
X95135Y262747D02*
X131433D01*
X95289Y263286D02*
X132358D01*
X95289Y263363D02*
X132435D01*
X95212Y263209D02*
X132358D01*
X95135Y262901D02*
X131664D01*
X95058Y262438D02*
X130200D01*
X95135Y262824D02*
X131433D01*
X95289Y263517D02*
X132512D01*
X95058Y262515D02*
X130200D01*
X95135Y262669D02*
X131047D01*
X95135Y266137D02*
X133282D01*
X95058Y266292D02*
X133282D01*
X94827Y266677D02*
X133437D01*
X94981Y266446D02*
X133359D01*
X94750Y266754D02*
X133514D01*
X94981Y266523D02*
X133359D01*
X94904Y266600D02*
X133437D01*
X94750Y266831D02*
X133514D01*
X95058Y266369D02*
X133359D01*
X95135Y266214D02*
X133282D01*
X95366Y264288D02*
X132897D01*
X95366Y264673D02*
X132897D01*
X95366Y264596D02*
X132897D01*
X95366Y264365D02*
X132897D01*
X95366Y264519D02*
X132897D01*
X95366Y264750D02*
X132897D01*
X95366Y264442D02*
X132897D01*
X95366Y264827D02*
X132897D01*
X94596Y266985D02*
X133591D01*
X94519Y267062D02*
X133591D01*
X94364Y267216D02*
X133668D01*
X94596Y266908D02*
X133591D01*
X94287Y267371D02*
X133745D01*
X94441Y267139D02*
X133668D01*
X94364Y267293D02*
X133668D01*
X94133Y267602D02*
X133745D01*
X95212Y265983D02*
X133205D01*
X95289Y265906D02*
X133205D01*
X95366Y265290D02*
X132974D01*
X95366Y265598D02*
X133051D01*
X95366Y265675D02*
X133128D01*
X95366Y265367D02*
X132974D01*
X95289Y265752D02*
X133128D01*
X95289Y265829D02*
X133128D01*
X95366Y265521D02*
X133051D01*
X95366Y265444D02*
X133051D01*
X95212Y266060D02*
X133205D01*
X95366Y264904D02*
X132897D01*
X95366Y265058D02*
X132974D01*
X95366Y265213D02*
X132974D01*
X95366Y265136D02*
X132974D01*
X95366Y264982D02*
X132897D01*
X93979Y267833D02*
X133745D01*
X94056Y267756D02*
X133745D01*
X93902Y267910D02*
X133745D01*
X94210Y267525D02*
X133745D01*
X93902Y267987D02*
X133745D01*
X94056Y267679D02*
X133745D01*
X94287Y267448D02*
X133745D01*
X93825Y268064D02*
X133745D01*
X95366Y264211D02*
X132820D01*
X95366Y264134D02*
X132820D01*
X95366Y263903D02*
X132743D01*
X95366Y263825D02*
X132666D01*
X95366Y264057D02*
X132820D01*
X95366Y263748D02*
X132589D01*
X95366Y263980D02*
X132820D01*
X95366Y263671D02*
X132589D01*
X150083Y273228D02*
X151547D01*
X150083Y273536D02*
X151624D01*
X150083Y273459D02*
X151547D01*
X150083Y273305D02*
X151547D01*
X150083Y273150D02*
X151547D01*
X150160Y275308D02*
X151701D01*
X150160Y274769D02*
X151624D01*
X150160Y275462D02*
X151701D01*
X150160Y274923D02*
X151701D01*
X150160Y274846D02*
X151624D01*
X150160Y275385D02*
X151701D01*
X150160Y275077D02*
X151701D01*
X150237Y275539D02*
X151701D01*
X150160Y275154D02*
X151701D01*
X150160Y275000D02*
X151701D01*
X150160Y274692D02*
X151624D01*
X150160Y275231D02*
X151701D01*
X150160Y274538D02*
X151624D01*
X150006Y272611D02*
X151547D01*
X150083Y279778D02*
X151547D01*
X150237Y276772D02*
X151701D01*
X150237Y276850D02*
X151701D01*
X150237Y276156D02*
X151701D01*
X150237Y275925D02*
X151701D01*
X150237Y276002D02*
X151701D01*
X150237Y276464D02*
X151701D01*
X150237Y276541D02*
X151701D01*
X150237Y276310D02*
X151701D01*
X150237Y275848D02*
X151701D01*
X150237Y275771D02*
X151701D01*
X150237Y276233D02*
X151701D01*
X150237Y276618D02*
X151701D01*
X150237Y276079D02*
X151701D01*
X150237Y276695D02*
X151701D01*
X150237Y275694D02*
X151701D01*
X150237Y276387D02*
X151701D01*
X150237Y275617D02*
X151701D01*
X150160Y277620D02*
X151701D01*
X150237Y277158D02*
X151701D01*
X150237Y277004D02*
X151701D01*
X150160Y277697D02*
X151701D01*
X150237Y277312D02*
X151701D01*
X150160Y277466D02*
X151701D01*
X150237Y276927D02*
X151701D01*
X150237Y277235D02*
X151701D01*
X150237Y277081D02*
X151701D01*
X150160Y277543D02*
X151701D01*
X150160Y277389D02*
X151701D01*
X150160Y277774D02*
X151701D01*
X150160Y278545D02*
X151624D01*
X150160Y278699D02*
X151624D01*
X150160Y278930D02*
X151624D01*
X150160Y278237D02*
X151624D01*
X150160Y278776D02*
X151624D01*
X150083Y279007D02*
X151624D01*
X150160Y278468D02*
X151624D01*
X150160Y278160D02*
X151624D01*
X150160Y278853D02*
X151624D01*
X150160Y278314D02*
X151624D01*
X150083Y279084D02*
X151624D01*
X150160Y278083D02*
X151624D01*
X150160Y278622D02*
X151624D01*
X150083Y279162D02*
X151624D01*
X150006Y279855D02*
X151547D01*
X150006Y279932D02*
X151547D01*
X150006Y280086D02*
X151547D01*
X150160Y278391D02*
X151624D01*
X150006Y280163D02*
X151547D01*
X150160Y274383D02*
X151624D01*
X150160Y274461D02*
X151624D01*
X150160Y274152D02*
X151624D01*
X150160Y274229D02*
X151624D01*
X150083Y273844D02*
X151624D01*
X150160Y273998D02*
X151624D01*
X150160Y274075D02*
X151624D01*
X150083Y273690D02*
X151624D01*
X150083Y273767D02*
X151624D01*
X150160Y274306D02*
X151624D01*
X150160Y273921D02*
X151624D01*
X150160Y274615D02*
X151624D01*
X83421Y284017D02*
X133128D01*
X83344Y284248D02*
X132974D01*
X83344Y284171D02*
X132974D01*
X83421Y284094D02*
X133128D01*
X83421Y283940D02*
X133205D01*
X83421Y283862D02*
X133205D01*
X83190Y286020D02*
X131433D01*
X83113Y285250D02*
X132049D01*
X83190Y285866D02*
X131587D01*
X83344Y286329D02*
X131202D01*
X83113Y285481D02*
X131895D01*
X83113Y285635D02*
X131741D01*
X83113Y285712D02*
X131664D01*
X83113Y285404D02*
X131895D01*
X83267Y286174D02*
X131356D01*
X83113Y285327D02*
X131972D01*
X83113Y285558D02*
X131818D01*
X83267Y286251D02*
X131279D01*
X83421Y286406D02*
X131202D01*
X83113Y285173D02*
X132049D01*
X149928Y281628D02*
X151393D01*
X149928Y281705D02*
X151316D01*
X149928Y281551D02*
X151393D01*
X149928Y281473D02*
X151393D01*
X149928Y281319D02*
X151393D01*
X149928Y281396D02*
X151393D01*
X149928Y281242D02*
X151393D01*
X149851Y281782D02*
X151316D01*
X149774Y282090D02*
X151316D01*
X149774Y282013D02*
X151316D01*
X149774Y282167D02*
X151316D01*
X149774Y281936D02*
X151316D01*
X149774Y282398D02*
X151239D01*
X149774Y282321D02*
X151239D01*
X149774Y281859D02*
X151316D01*
X149774Y282244D02*
X151316D01*
X149697Y282475D02*
X151239D01*
X149312Y284710D02*
X150853D01*
X149466Y284248D02*
X150930D01*
X149389Y284556D02*
X150853D01*
X149466Y284094D02*
X151007D01*
X149389Y284402D02*
X150930D01*
X149312Y284787D02*
X150853D01*
X149312Y284941D02*
X150776D01*
X149312Y284633D02*
X150853D01*
X149389Y284479D02*
X150930D01*
X149389Y284325D02*
X150930D01*
X149466Y284017D02*
X151007D01*
X148927Y286483D02*
X150468D01*
X148850Y286945D02*
X150314D01*
X148850Y286868D02*
X150391D01*
X148927Y286714D02*
X150391D01*
X148927Y286637D02*
X150391D01*
X148927Y286406D02*
X150468D01*
X148927Y286329D02*
X150468D01*
X148850Y286791D02*
X150391D01*
X149466Y284171D02*
X150930D01*
X149543Y283940D02*
X151007D01*
X149312Y285018D02*
X150776D01*
X149543Y283862D02*
X151007D01*
X149312Y284864D02*
X150853D01*
X149543Y283708D02*
X151084D01*
X82265Y281319D02*
X132974D01*
X83113Y283169D02*
X133437D01*
X82959Y283092D02*
X133437D01*
X82342Y281551D02*
X133051D01*
X82496Y282090D02*
X133128D01*
X82265Y281473D02*
X133051D01*
X82496Y282167D02*
X133205D01*
X82265Y281396D02*
X132974D01*
X82265Y281242D02*
X133051D01*
X82882Y283015D02*
X133359D01*
X82650Y282552D02*
X133282D01*
X82650Y282398D02*
X133282D01*
X149697Y283015D02*
X151162D01*
X149697Y282552D02*
X151239D01*
X82650Y282784D02*
X133359D01*
X82650Y282475D02*
X133282D01*
X149697Y282938D02*
X151162D01*
X82650Y282629D02*
X133359D01*
X82496Y282321D02*
X133282D01*
X82650Y282706D02*
X133359D01*
X82727Y282861D02*
X133359D01*
X82805Y282938D02*
X133359D01*
X82496Y282244D02*
X133205D01*
X149697Y282784D02*
X151239D01*
X149697Y282629D02*
X151239D01*
X149697Y282861D02*
X151162D01*
X149697Y282706D02*
X151239D01*
X149620Y283092D02*
X151162D01*
X149620Y283169D02*
X151162D01*
X83190Y285943D02*
X131510D01*
X83190Y286097D02*
X131433D01*
X83190Y285789D02*
X131664D01*
X70859Y290336D02*
X72478D01*
X149004Y286020D02*
X150545D01*
X149235Y285096D02*
X150776D01*
X149235Y285481D02*
X150699D01*
X149081Y285866D02*
X150622D01*
X149235Y285404D02*
X150699D01*
X149235Y285250D02*
X150776D01*
X149081Y285943D02*
X150622D01*
X149235Y285173D02*
X150776D01*
X149158Y285558D02*
X150699D01*
X149004Y286097D02*
X150545D01*
X149235Y285327D02*
X150699D01*
X149081Y285712D02*
X150622D01*
X149081Y285789D02*
X150622D01*
X149158Y285635D02*
X150622D01*
X149004Y286174D02*
X150545D01*
X149004Y286251D02*
X150545D01*
X83190Y284402D02*
X132820D01*
X83113Y284787D02*
X132358D01*
X83267Y284325D02*
X132897D01*
X83113Y284556D02*
X132666D01*
X83190Y284479D02*
X132743D01*
X83113Y284710D02*
X132512D01*
X83113Y284864D02*
X132358D01*
X83113Y284633D02*
X132589D01*
X83113Y285018D02*
X132203D01*
X83113Y284941D02*
X132203D01*
X83113Y285096D02*
X132126D01*
X149620Y283400D02*
X151084D01*
X149620Y283246D02*
X151162D01*
X83421Y283708D02*
X133282D01*
X83344Y283400D02*
X133359D01*
X83344Y283477D02*
X133359D01*
X149620Y283631D02*
X151084D01*
X149620Y283323D02*
X151084D01*
X83421Y283785D02*
X133282D01*
X149620Y283477D02*
X151084D01*
X83421Y283554D02*
X133282D01*
X83190Y283246D02*
X133437D01*
X83267Y283323D02*
X133359D01*
X83421Y283631D02*
X133282D01*
X149620Y283554D02*
X151084D01*
X149543Y283785D02*
X151007D01*
X82419Y281782D02*
X133051D01*
X82496Y281936D02*
X133051D01*
X82496Y282013D02*
X133128D01*
X82419Y281859D02*
X133051D01*
X82419Y281705D02*
X133051D01*
X82419Y281628D02*
X133051D01*
X86349Y270838D02*
X133359D01*
X86349Y270607D02*
X133205D01*
X86504Y270530D02*
X133128D01*
X93748Y268141D02*
X133668D01*
X85810Y271378D02*
X133591D01*
X85656Y271532D02*
X133745D01*
X86349Y270761D02*
X133282D01*
X86118Y271147D02*
X133437D01*
X85733Y271455D02*
X133668D01*
X86195Y270993D02*
X133359D01*
X86195Y271070D02*
X133437D01*
X85964Y271301D02*
X133591D01*
X86349Y270684D02*
X133205D01*
X86273Y270916D02*
X133359D01*
X85964Y271224D02*
X133514D01*
X85116Y272072D02*
X134053D01*
X84808Y272688D02*
X134130D01*
X92977Y270299D02*
X133128D01*
X92900Y270376D02*
X133128D01*
X93285Y270145D02*
X133128D01*
X93208Y270222D02*
X133128D01*
X92592Y270453D02*
X133128D01*
X93285Y269991D02*
X133128D01*
X93285Y270068D02*
X133128D01*
X93440Y269683D02*
X133205D01*
X93362Y269759D02*
X133205D01*
X93362Y269837D02*
X133128D01*
X93440Y269605D02*
X133205D01*
X93440Y269528D02*
X133205D01*
X93362Y269914D02*
X133128D01*
X93517Y269220D02*
X133359D01*
X93517Y269143D02*
X133437D01*
X93517Y269066D02*
X133437D01*
X93594Y268758D02*
X133591D01*
X93440Y269451D02*
X133282D01*
X93440Y269374D02*
X133282D01*
X93517Y269297D02*
X133359D01*
X93594Y268835D02*
X133591D01*
X93594Y268989D02*
X133514D01*
X93594Y268912D02*
X133514D01*
X93671Y268449D02*
X133668D01*
X93748Y268295D02*
X133668D01*
X93671Y268372D02*
X133668D01*
X93671Y268527D02*
X133668D01*
X93671Y268681D02*
X133668D01*
X93671Y268603D02*
X133668D01*
X93748Y268218D02*
X133668D01*
X83806Y274538D02*
X133514D01*
X84346Y273998D02*
X133668D01*
X84500Y273844D02*
X133745D01*
X84500Y273767D02*
X133822D01*
X84423Y273921D02*
X133745D01*
X82111Y281088D02*
X133051D01*
X82188Y280934D02*
X133051D01*
X82188Y280703D02*
X133128D01*
X82188Y280549D02*
X133205D01*
X82188Y280626D02*
X133128D01*
X82188Y280857D02*
X133128D01*
X82188Y280780D02*
X133128D01*
X83267Y275925D02*
X133745D01*
X82188Y281011D02*
X133051D01*
X82188Y281165D02*
X133051D01*
X82419Y278391D02*
X133668D01*
X82342Y278314D02*
X133745D01*
X82496Y278853D02*
X133514D01*
X82419Y278545D02*
X133591D01*
X82342Y278160D02*
X133822D01*
X82265Y277774D02*
X133976D01*
X82265Y278083D02*
X133822D01*
X82265Y277851D02*
X133976D01*
X82265Y277928D02*
X133976D01*
X82419Y278468D02*
X133668D01*
X82342Y278237D02*
X133745D01*
X82265Y277697D02*
X134053D01*
X83884Y274461D02*
X133514D01*
X84115Y274229D02*
X133591D01*
X84192Y274152D02*
X133668D01*
X83960Y274383D02*
X133591D01*
X84038Y274306D02*
X133591D01*
X84269Y274075D02*
X133668D01*
X82265Y278006D02*
X133899D01*
X82265Y277235D02*
X134207D01*
X82265Y277004D02*
X134207D01*
X82342Y276850D02*
X134207D01*
X83421Y275771D02*
X133668D01*
X83190Y276002D02*
X133822D01*
X82496Y276541D02*
X134207D01*
X83344Y275848D02*
X133668D01*
X82650Y276310D02*
X133976D01*
X82650Y276156D02*
X133899D01*
X83498Y275694D02*
X133591D01*
X82959Y276079D02*
X133822D01*
X82650Y276233D02*
X133899D01*
X83575Y275617D02*
X133591D01*
X82573Y276387D02*
X134053D01*
X82496Y276464D02*
X134130D01*
X83652Y275539D02*
X133591D01*
X150006Y280549D02*
X151470D01*
X150160Y277928D02*
X151701D01*
X150160Y278006D02*
X151624D01*
X150160Y277851D02*
X151701D01*
X82496Y279162D02*
X133514D01*
X82496Y279007D02*
X133514D01*
X82496Y278699D02*
X133591D01*
X82496Y278622D02*
X133591D01*
X82573Y279239D02*
X133514D01*
X82496Y278776D02*
X133514D01*
X82496Y279084D02*
X133514D01*
X82496Y278930D02*
X133514D01*
X82573Y279316D02*
X133514D01*
X83806Y274692D02*
X133437D01*
X83806Y274769D02*
X133437D01*
X83806Y274615D02*
X133437D01*
X83806Y274923D02*
X133359D01*
X83652Y275308D02*
X133437D01*
X83806Y274846D02*
X133437D01*
X83652Y275385D02*
X133514D01*
X83652Y275231D02*
X133437D01*
X83806Y275077D02*
X133359D01*
X83806Y275000D02*
X133359D01*
X83806Y275154D02*
X133437D01*
X83652Y275462D02*
X133514D01*
X82419Y276618D02*
X134207D01*
X82419Y276695D02*
X134207D01*
X82265Y277312D02*
X134207D01*
X82265Y277389D02*
X134130D01*
X82342Y276927D02*
X134207D01*
X82265Y277543D02*
X134130D01*
X82419Y276772D02*
X134207D01*
X82265Y277158D02*
X134207D01*
X82265Y277466D02*
X134130D01*
X82265Y277081D02*
X134207D01*
X82265Y277620D02*
X134053D01*
X82573Y279547D02*
X133514D01*
X82342Y280395D02*
X133205D01*
X82496Y279778D02*
X133514D01*
X82496Y279932D02*
X133437D01*
X82496Y279855D02*
X133437D01*
X82419Y280163D02*
X133359D01*
X82342Y280317D02*
X133282D01*
X82573Y279470D02*
X133514D01*
X82419Y280086D02*
X133359D01*
X82573Y279393D02*
X133514D01*
X82342Y280240D02*
X133282D01*
X82573Y279624D02*
X133514D01*
X82573Y279701D02*
X133514D01*
X82419Y280009D02*
X133437D01*
X82265Y280472D02*
X133205D01*
X150083Y279624D02*
X151547D01*
X150083Y279470D02*
X151547D01*
X150006Y280009D02*
X151547D01*
X150006Y280472D02*
X151470D01*
X150006Y280395D02*
X151470D01*
X150083Y279393D02*
X151547D01*
X150006Y280317D02*
X151470D01*
X150083Y279547D02*
X151547D01*
X150083Y279239D02*
X151624D01*
X150083Y279701D02*
X151547D01*
X150006Y280240D02*
X151547D01*
X150083Y279316D02*
X151624D01*
X150006Y280626D02*
X151470D01*
X115326Y245638D02*
X138060D01*
X115557Y246178D02*
X138677D01*
X115711Y246794D02*
X139294D01*
X115480Y246100D02*
X138600D01*
X115403Y245715D02*
X138137D01*
X115326Y245561D02*
X137983D01*
X115711Y246640D02*
X139139D01*
X115480Y246023D02*
X138523D01*
X115634Y246332D02*
X138831D01*
X115634Y246409D02*
X138908D01*
X115711Y246563D02*
X139062D01*
X115403Y245792D02*
X138215D01*
X115557Y246255D02*
X138754D01*
X115249Y245484D02*
X137906D01*
X141683Y251726D02*
X143532D01*
X141451Y251418D02*
X143301D01*
X141605Y251649D02*
X143532D01*
X141297Y251187D02*
X143147D01*
X141605Y251495D02*
X143378D01*
X141605Y251572D02*
X143455D01*
X140989Y250879D02*
X142915D01*
X141220Y251110D02*
X143070D01*
X140989Y250801D02*
X142839D01*
Y253345D02*
X144688D01*
X142993Y253499D02*
X144765D01*
X101377Y253345D02*
X136904D01*
X142993Y253422D02*
X144765D01*
X101377Y253499D02*
X136442D01*
X101377Y253422D02*
X136750D01*
X142839Y253268D02*
X144611D01*
X101454Y252882D02*
X137675D01*
X113400Y242555D02*
X134284D01*
X113477Y242633D02*
X134361D01*
X112860Y242016D02*
X133437D01*
X113322Y242478D02*
X134130D01*
X112860Y242093D02*
X133591D01*
X113014Y242247D02*
X133822D01*
X112937Y242170D02*
X133668D01*
X113168Y242324D02*
X133899D01*
X113245Y242401D02*
X134053D01*
X112783Y241939D02*
X133359D01*
X101377Y253576D02*
X136288D01*
X143224Y253807D02*
X144996D01*
X143070Y253576D02*
X144842D01*
X143301Y253884D02*
X145073D01*
X143224Y253730D02*
X144919D01*
X143147Y253653D02*
X144919D01*
X101377Y253730D02*
X135826D01*
X101377Y253807D02*
X135671D01*
X101377Y253653D02*
X136057D01*
X101377Y253884D02*
X135440D01*
X115480Y248489D02*
X140912D01*
X115788Y247411D02*
X139910D01*
X115634Y248181D02*
X140604D01*
X115326Y248875D02*
X141297D01*
X115480Y248567D02*
X140989D01*
X115788Y247334D02*
X139833D01*
X115711Y247565D02*
X140064D01*
X115095Y249260D02*
X141605D01*
X115711Y247488D02*
X139987D01*
X115403Y248721D02*
X141143D01*
X143455Y254115D02*
X145228D01*
X143378Y253961D02*
X145073D01*
X101300D02*
X135286D01*
X143455Y254192D02*
X145228D01*
X143532Y254269D02*
X145305D01*
X143378Y254038D02*
X145150D01*
X115095Y245176D02*
X137521D01*
X115172Y245330D02*
X137752D01*
X115095Y245253D02*
X137675D01*
X114941Y245022D02*
X137367D01*
X143840Y254732D02*
X145613D01*
X100992D02*
X134361D01*
X100838Y254886D02*
X134284D01*
X100915Y254809D02*
X134284D01*
X100761Y254963D02*
X134207D01*
X113862Y243018D02*
X134901D01*
X114710Y244559D02*
X136827D01*
X114093Y243403D02*
X135363D01*
X114401Y243866D02*
X135980D01*
X114556Y244251D02*
X136442D01*
X114401Y243943D02*
X136057D01*
X113939Y243172D02*
X135055D01*
X114324Y243789D02*
X135903D01*
X114016Y243249D02*
X135209D01*
X114247Y243557D02*
X135594D01*
X114632Y244328D02*
X136519D01*
X114556Y244174D02*
X136365D01*
X114787Y244636D02*
X136904D01*
X141837Y251957D02*
X143763D01*
X142530Y252805D02*
X144303D01*
X142376Y252651D02*
X144226D01*
X141914Y252034D02*
X143763D01*
X142068Y252189D02*
X143917D01*
X141991Y252112D02*
X143840D01*
X142607Y252882D02*
X144380D01*
X142145Y252266D02*
X143994D01*
X142839Y253190D02*
X144611D01*
X115711Y246717D02*
X139216D01*
X115711Y246948D02*
X139448D01*
X115711Y247102D02*
X139602D01*
X115788Y247179D02*
X139679D01*
X114632Y249800D02*
X142068D01*
X114710Y249645D02*
X141914D01*
X115249Y249029D02*
X141374D01*
X114170Y250185D02*
X142376D01*
X114941Y249414D02*
X141760D01*
X115711Y247796D02*
X140295D01*
X114556Y249877D02*
X142145D01*
X140604Y250416D02*
X142530D01*
X114710Y249723D02*
X141991D01*
X114787Y249568D02*
X141837D01*
X115711Y247642D02*
X140141D01*
X115403Y248798D02*
X141220D01*
X115634Y248104D02*
X140526D01*
X115172Y249106D02*
X141451D01*
X114478Y249954D02*
X142145D01*
X140681Y250493D02*
X142607D01*
X103612Y251649D02*
X139371D01*
X102379Y251880D02*
X139062D01*
X103998Y251264D02*
X139756D01*
X101763Y252034D02*
X138908D01*
X101686Y252112D02*
X138754D01*
X104229Y251033D02*
X139987D01*
X101994Y251957D02*
X138985D01*
X104229Y250956D02*
X139987D01*
X101609Y252266D02*
X138600D01*
X101609Y252343D02*
X138446D01*
X104306Y250801D02*
X140218D01*
X103920Y251341D02*
X139602D01*
X103150Y251803D02*
X139139D01*
X101531Y252574D02*
X138137D01*
X101069Y254655D02*
X134438D01*
X101223Y254346D02*
X134747D01*
X143609D02*
X145382D01*
X143686Y254501D02*
X145459D01*
X143763Y254578D02*
X145459D01*
X101300Y254038D02*
X135132D01*
X101300Y254269D02*
X134901D01*
X101069Y254578D02*
X134515D01*
X101300Y254115D02*
X135055D01*
X101300Y254192D02*
X134978D01*
X143686Y254423D02*
X145382D01*
X101146D02*
X134669D01*
X101146Y254501D02*
X134592D01*
X143763Y254655D02*
X145536D01*
X99220Y255271D02*
X133899D01*
X100684Y255040D02*
X134130D01*
X99528Y255117D02*
X134130D01*
X98988Y255425D02*
X133822D01*
X98988Y255502D02*
X133745D01*
X98834Y255579D02*
X133668D01*
X98834Y255657D02*
X133591D01*
X99296Y255194D02*
X133976D01*
X99142Y255348D02*
X133822D01*
X98757Y255734D02*
X133514D01*
X150006Y272842D02*
X151547D01*
X150083Y273073D02*
X151547D01*
X150083Y273382D02*
X151547D01*
X150006Y272919D02*
X151547D01*
X150006Y272996D02*
X151547D01*
X150006Y272765D02*
X151547D01*
X150083Y273613D02*
X151624D01*
X150006Y272534D02*
X151470D01*
X84962Y272303D02*
X134053D01*
X84962Y272534D02*
X134130D01*
X85348Y271917D02*
X133976D01*
X85348Y271840D02*
X133976D01*
X85194Y271994D02*
X133976D01*
X85425Y271763D02*
X133822D01*
X85039Y272148D02*
X134053D01*
X84962Y272226D02*
X134053D01*
X85502Y271686D02*
X133822D01*
X84962Y272380D02*
X134053D01*
X84962Y272457D02*
X134130D01*
X85579Y271609D02*
X133745D01*
X84731Y273382D02*
X133899D01*
X84808Y272996D02*
X134130D01*
X84808Y272765D02*
X134130D01*
X84577Y273536D02*
X133899D01*
X84731Y273150D02*
X134053D01*
X84808Y272842D02*
X134130D01*
X84808Y272919D02*
X134130D01*
X84808Y272611D02*
X134130D01*
X84654Y273459D02*
X133899D01*
X84731Y273305D02*
X133976D01*
X84731Y273228D02*
X134053D01*
X84731Y273073D02*
X134053D01*
X84577Y273613D02*
X133822D01*
X84577Y273690D02*
X133822D01*
X150006Y272380D02*
X151470D01*
X149928Y271609D02*
X151393D01*
X150006Y272148D02*
X151470D01*
X149928Y271917D02*
X151470D01*
X149928Y271686D02*
X151393D01*
X150006Y272457D02*
X151470D01*
X150006Y272688D02*
X151547D01*
X149928Y271840D02*
X151470D01*
X150006Y272072D02*
X151470D01*
X150006Y272226D02*
X151470D01*
X149928Y271763D02*
X151393D01*
X147694Y290490D02*
X149235D01*
X147925Y289720D02*
X149543D01*
X147154Y291877D02*
X148695D01*
X146692Y292956D02*
X148233D01*
X148079Y289257D02*
X149697D01*
X146692Y292879D02*
X148310D01*
X149928Y271301D02*
X151393D01*
X149928Y271455D02*
X151393D01*
X149928Y271378D02*
X151393D01*
X149928Y271147D02*
X151316D01*
X149851Y271070D02*
X151316D01*
X149928Y271532D02*
X151393D01*
X149774Y270838D02*
X151316D01*
X149851Y270916D02*
X151316D01*
X149851Y270993D02*
X151316D01*
X149928Y271224D02*
X151393D01*
X149928Y271994D02*
X151470D01*
X150006Y272303D02*
X151470D01*
X149774Y270761D02*
X151316D01*
X149697Y270068D02*
X151239D01*
X149620Y269759D02*
X151162D01*
X149620Y269605D02*
X151162D01*
X149697Y269837D02*
X151162D01*
X149620Y269683D02*
X151162D01*
X149774Y270376D02*
X151239D01*
X149774Y270530D02*
X151239D01*
X149774Y270299D02*
X151239D01*
X149774Y270607D02*
X151316D01*
X149697Y270222D02*
X151239D01*
X149774Y270453D02*
X151239D01*
X149697Y270145D02*
X151239D01*
X149697Y269991D02*
X151162D01*
X149697Y269914D02*
X151162D01*
X149774Y270684D02*
X151316D01*
X149466Y268527D02*
X150930D01*
X149389Y268449D02*
X150930D01*
X149466Y268758D02*
X151007D01*
X149466Y268603D02*
X150930D01*
X149466Y268681D02*
X150930D01*
X149389Y268372D02*
X150930D01*
X149543Y268835D02*
X151007D01*
X149543Y269220D02*
X151084D01*
X149620Y269374D02*
X151084D01*
X149620Y269528D02*
X151084D01*
X149543Y269143D02*
X151084D01*
X149543Y268912D02*
X151007D01*
X149543Y269066D02*
X151007D01*
X149620Y269297D02*
X151084D01*
X149543Y268989D02*
X151007D01*
X149620Y269451D02*
X151084D01*
X143917Y254809D02*
X145613D01*
X98603Y255888D02*
X133437D01*
X98526Y255965D02*
X133359D01*
X98680Y255811D02*
X133437D01*
X98449Y256042D02*
X133282D01*
X146384Y259279D02*
X148002D01*
X146075Y258662D02*
X147694D01*
X144611Y255888D02*
X146229D01*
X145767Y258123D02*
X147462D01*
X145767Y258046D02*
X147385D01*
X145998Y258508D02*
X147617D01*
X144303Y255425D02*
X145998D01*
X144688Y296732D02*
X146384D01*
X145921Y294420D02*
X147617D01*
X145998Y294343D02*
X147617D01*
X142376Y300277D02*
X144149D01*
X140758Y302281D02*
X142684D01*
X145844Y294652D02*
X147462D01*
X140526Y302589D02*
X142453D01*
X145536Y295114D02*
X147231D01*
X144688Y296810D02*
X146384D01*
X140372Y302744D02*
X142299D01*
X149928Y281165D02*
X151393D01*
X150006Y280703D02*
X151470D01*
X149928Y280857D02*
X151470D01*
X149928Y280780D02*
X151470D01*
X149928Y281011D02*
X151470D01*
X149928Y280934D02*
X151470D01*
X149928Y281088D02*
X151393D01*
X144071Y255040D02*
X145767D01*
X144226Y255348D02*
X145921D01*
X144149Y255194D02*
X145844D01*
X144226Y255271D02*
X145921D01*
X144071Y255117D02*
X145844D01*
X143994Y254963D02*
X145690D01*
X143994Y254886D02*
X145690D01*
X145536Y257660D02*
X147231D01*
X145921Y258431D02*
X147617D01*
X145921Y258354D02*
X147539D01*
X145690Y257892D02*
X147308D01*
X145844Y258277D02*
X147539D01*
X145613Y257737D02*
X147231D01*
X145459Y257429D02*
X147077D01*
X145459Y257506D02*
X147154D01*
X145844Y258200D02*
X147462D01*
X145536Y257583D02*
X147154D01*
X145613Y257814D02*
X147308D01*
X145767Y257968D02*
X147385D01*
X145459Y257352D02*
X147077D01*
X147848Y262901D02*
X149466D01*
X147848Y262824D02*
X149389D01*
X147771Y262669D02*
X149312D01*
X147694Y262438D02*
X149235D01*
X147925Y263055D02*
X149466D01*
X147694Y262361D02*
X149235D01*
X147694Y262515D02*
X149312D01*
X147848Y262747D02*
X149389D01*
X147925Y262978D02*
X149466D01*
X147771Y262592D02*
X149312D01*
X147694Y262284D02*
X149235D01*
X146615Y259741D02*
X148233D01*
X146538Y259510D02*
X148079D01*
X146692Y260049D02*
X148310D01*
X146460Y259356D02*
X148002D01*
X146306Y259202D02*
X147925D01*
X146615Y259818D02*
X148233D01*
X146460Y259433D02*
X148079D01*
X146692Y259972D02*
X148310D01*
X146306Y259124D02*
X147925D01*
X146692Y259895D02*
X148233D01*
X146538Y259664D02*
X148156D01*
X146538Y259587D02*
X148156D01*
X146229Y259047D02*
X147925D01*
X146229Y258970D02*
X147848D01*
X147154Y261051D02*
X148773D01*
X147308Y261359D02*
X148850D01*
X147077Y260820D02*
X148618D01*
X147000Y260666D02*
X148618D01*
X147231Y261205D02*
X148773D01*
X147231Y261282D02*
X148850D01*
X147077Y260743D02*
X148618D01*
X147154Y261128D02*
X148773D01*
X147154Y260897D02*
X148695D01*
X147154Y260974D02*
X148695D01*
X147000Y260589D02*
X148541D01*
X145150Y256967D02*
X146846D01*
X145382Y257275D02*
X147000D01*
X145150Y256890D02*
X146846D01*
X145073Y256813D02*
X146769D01*
X145228Y257044D02*
X146923D01*
X144842Y256350D02*
X146538D01*
X144919Y256427D02*
X146538D01*
X145305Y257121D02*
X146923D01*
X145073Y256658D02*
X146692D01*
X144996Y256581D02*
X146615D01*
X145073Y256735D02*
X146769D01*
X145305Y257198D02*
X147000D01*
X144919Y256504D02*
X146615D01*
X148541Y265058D02*
X150083D01*
X148464Y264596D02*
X150006D01*
X148541Y264982D02*
X150083D01*
X148541Y264827D02*
X150006D01*
X148541Y264750D02*
X150006D01*
X148387Y264519D02*
X149928D01*
X148464Y264673D02*
X150006D01*
X148541Y264904D02*
X150083D01*
X148387Y264442D02*
X149928D01*
X148310Y264365D02*
X149928D01*
X148233Y263825D02*
X149774D01*
X148233Y264057D02*
X149774D01*
X148310Y264134D02*
X149851D01*
X148310Y264211D02*
X149851D01*
X148387Y264288D02*
X149851D01*
X148233Y263903D02*
X149774D01*
X149081Y266908D02*
X150622D01*
X149081Y266985D02*
X150622D01*
X148927Y266214D02*
X150391D01*
X149004Y266600D02*
X150545D01*
X149081Y267139D02*
X150622D01*
X148927Y266137D02*
X150391D01*
X148927Y266523D02*
X150468D01*
X149004Y266831D02*
X150545D01*
X148927Y266369D02*
X150468D01*
X149004Y266754D02*
X150545D01*
X149081Y267062D02*
X150622D01*
X148927Y266446D02*
X150468D01*
X149004Y266677D02*
X150545D01*
X148927Y266292D02*
X150468D01*
X144457Y255734D02*
X146152D01*
X144457Y255657D02*
X146152D01*
X144380Y255502D02*
X146075D01*
X144611Y255965D02*
X146306D01*
X144688Y256042D02*
X146384D01*
X144688Y256119D02*
X146384D01*
X144380Y255579D02*
X146075D01*
X144534Y255811D02*
X146229D01*
X144765Y256196D02*
X146460D01*
X144765Y256273D02*
X146460D01*
X146846Y260280D02*
X148464D01*
X146846Y260435D02*
X148464D01*
X146769Y260126D02*
X148387D01*
X146846Y260357D02*
X148464D01*
X146846Y260203D02*
X148387D01*
X146923Y260512D02*
X148541D01*
X148156Y263748D02*
X149697D01*
X148079Y263363D02*
X149620D01*
X147925Y263132D02*
X149543D01*
X148002Y263209D02*
X149543D01*
X148156Y263594D02*
X149697D01*
X148079Y263517D02*
X149620D01*
X148002Y263286D02*
X149543D01*
X148079Y263440D02*
X149620D01*
X148156Y263671D02*
X149697D01*
X146152Y258816D02*
X147771D01*
X146075Y258585D02*
X147694D01*
X146152Y258739D02*
X147771D01*
X146152Y258893D02*
X147848D01*
X148618Y265367D02*
X150160D01*
X148618Y265444D02*
X150237D01*
X148850Y265906D02*
X150314D01*
X148695Y265521D02*
X150237D01*
X148773Y265829D02*
X150314D01*
X148618Y265213D02*
X150160D01*
X148850Y265983D02*
X150391D01*
X148618Y265136D02*
X150160D01*
X148618Y265290D02*
X150160D01*
X148773Y265675D02*
X150314D01*
X148773Y265598D02*
X150237D01*
X148773Y265752D02*
X150314D01*
X148850Y266060D02*
X150391D01*
X147385Y261591D02*
X148927D01*
X147539Y261899D02*
X149081D01*
X147385Y261668D02*
X149004D01*
X147385Y261745D02*
X149004D01*
X147539Y262130D02*
X149158D01*
X147539Y261976D02*
X149081D01*
X147462Y261822D02*
X149081D01*
X147308Y261437D02*
X148927D01*
X147385Y261513D02*
X148927D01*
X147539Y262053D02*
X149158D01*
X147617Y262207D02*
X149158D01*
X149235Y267525D02*
X150699D01*
X149235Y267448D02*
X150699D01*
X149312Y267833D02*
X150776D01*
X149312Y267987D02*
X150853D01*
X149389Y268218D02*
X150853D01*
X149389Y268141D02*
X150853D01*
X149312Y268064D02*
X150853D01*
X149158Y267216D02*
X150622D01*
X149312Y267910D02*
X150776D01*
X149158Y267293D02*
X150699D01*
X149235Y267371D02*
X150699D01*
X149235Y267756D02*
X150776D01*
X149235Y267602D02*
X150776D01*
X149235Y267679D02*
X150776D01*
X149389Y268295D02*
X150853D01*
X110625Y237855D02*
X125653D01*
X110548Y237623D02*
X125113D01*
X110933Y238548D02*
X127271D01*
X110933Y238625D02*
X127503D01*
X110779Y238163D02*
X126424D01*
X110933Y238702D02*
X127657D01*
X110625Y237777D02*
X125499D01*
X110548Y237700D02*
X125268D01*
X110856Y238471D02*
X127117D01*
X110779Y238240D02*
X126578D01*
X110856Y238394D02*
X126963D01*
X110702Y238086D02*
X126269D01*
X110702Y238009D02*
X126038D01*
X110779Y238317D02*
X126809D01*
X110471Y237469D02*
X124728D01*
X111165Y239242D02*
X128735D01*
X111088Y238933D02*
X128119D01*
X111242Y239319D02*
X128890D01*
X111088Y239088D02*
X128427D01*
X111242Y239396D02*
X129044D01*
X111011Y238779D02*
X127811D01*
X111011Y238856D02*
X127965D01*
X111473Y239781D02*
X129814D01*
X111473Y239858D02*
X129892D01*
X111242Y239473D02*
X129198D01*
X111319Y239550D02*
X129352D01*
X110702Y237931D02*
X125884D01*
X111088Y239010D02*
X128273D01*
X111396Y239627D02*
X129506D01*
X111550Y239935D02*
X130046D01*
X114787Y244713D02*
X136981D01*
X115711Y247025D02*
X139525D01*
X115403Y245869D02*
X138292D01*
X115788Y247256D02*
X139756D01*
X115480Y245946D02*
X138369D01*
X115634Y246486D02*
X138985D01*
X114941Y244945D02*
X137290D01*
X115249Y245407D02*
X137829D01*
X115018Y245099D02*
X137444D01*
X115711Y246871D02*
X139371D01*
X114864Y244867D02*
X137213D01*
X114864Y244790D02*
X137136D01*
X112552Y241631D02*
X132897D01*
X112629Y241708D02*
X132974D01*
X112321Y241322D02*
X132435D01*
X112706Y241862D02*
X133205D01*
X112398Y241400D02*
X132512D01*
X112167Y241014D02*
X131895D01*
X112475Y241476D02*
X132666D01*
X112167Y241091D02*
X132049D01*
X112629Y241785D02*
X133128D01*
X112475Y241554D02*
X132743D01*
X112243Y241245D02*
X132281D01*
X112243Y241168D02*
X132203D01*
X114324Y250108D02*
X142299D01*
X113631Y250570D02*
X140372D01*
X114324Y250031D02*
X142222D01*
X113477Y250724D02*
X140218D01*
X113862Y250416D02*
X140526D01*
X140912Y250724D02*
X142839D01*
X113554Y250647D02*
X140295D01*
X140835D02*
X142761D01*
X113785Y250493D02*
X140449D01*
X140758Y250570D02*
X142684D01*
X113939Y250339D02*
X142530D01*
X114093Y250262D02*
X142453D01*
X110471Y237315D02*
X124266D01*
X110317Y237084D02*
X123649D01*
X110471Y237392D02*
X124497D01*
X110317Y237007D02*
X123418D01*
X111396Y239704D02*
X129660D01*
X101223Y235774D02*
X118948D01*
X110086Y236390D02*
X121414D01*
X110394Y237238D02*
X124035D01*
X141066Y250956D02*
X142993D01*
X141143Y251033D02*
X143070D01*
X103458Y251726D02*
X139216D01*
X104152Y251110D02*
X139910D01*
X141374Y251264D02*
X143224D01*
X103843Y251418D02*
X139602D01*
X103689Y251572D02*
X139371D01*
X104229Y250879D02*
X140064D01*
X141374Y251341D02*
X143301D01*
X104152Y251187D02*
X139833D01*
X103766Y251495D02*
X139448D01*
X101686Y252189D02*
X138677D01*
X101377Y253113D02*
X137290D01*
X101454Y252805D02*
X137752D01*
X101377Y253190D02*
X137136D01*
X101609Y252420D02*
X138369D01*
X101531Y252497D02*
X138292D01*
X101377Y252959D02*
X137521D01*
X101454Y252728D02*
X137906D01*
X101531Y252651D02*
X138060D01*
X101377Y253036D02*
X137367D01*
X101377Y253268D02*
X137059D01*
X142222Y252420D02*
X144071D01*
X142376Y252574D02*
X144149D01*
X142684Y253036D02*
X144457D01*
X142299Y252497D02*
X144149D01*
X141760Y251803D02*
X143609D01*
X142453Y252728D02*
X144303D01*
X141837Y251880D02*
X143686D01*
X142222Y252343D02*
X143994D01*
X142684Y252959D02*
X144457D01*
X142761Y253113D02*
X144534D01*
X115711Y247719D02*
X140218D01*
X115326Y248952D02*
X141297D01*
X115480Y248644D02*
X141066D01*
X114864Y249491D02*
X141760D01*
X115557Y248412D02*
X140835D01*
X115711Y247873D02*
X140372D01*
X115095Y249183D02*
X141528D01*
X115634Y248027D02*
X140526D01*
X115634Y248258D02*
X140681D01*
X115634Y247950D02*
X140449D01*
X115557Y248335D02*
X140758D01*
X115018Y249337D02*
X141683D01*
X99605Y236159D02*
X120567D01*
X110394Y237161D02*
X123803D01*
X110163Y236544D02*
X121954D01*
X111550Y240012D02*
X130200D01*
X114324Y243711D02*
X135826D01*
X113631Y242787D02*
X134592D01*
X113631Y242710D02*
X134438D01*
X113708Y242864D02*
X134669D01*
X114401Y244020D02*
X136211D01*
X114247Y243480D02*
X135517D01*
X113785Y242941D02*
X134747D01*
X114093Y243326D02*
X135286D01*
X114247Y243634D02*
X135671D01*
X113939Y243095D02*
X134978D01*
X114478Y244097D02*
X136288D01*
X114632Y244405D02*
X136673D01*
X114632Y244482D02*
X136750D01*
X111550Y240089D02*
X130354D01*
X112089Y240937D02*
X131818D01*
X111627Y240166D02*
X130508D01*
X111781Y240475D02*
X131047D01*
X111858Y240629D02*
X131279D01*
X111704Y240244D02*
X130585D01*
X111935Y240706D02*
X131433D01*
X112012Y240783D02*
X131510D01*
X111858Y240552D02*
X131124D01*
X111781Y240398D02*
X130893D01*
X112012Y240860D02*
X131664D01*
X100221Y236005D02*
X119950D01*
X110163Y236621D02*
X122185D01*
X110240Y236853D02*
X122956D01*
X100530Y235928D02*
X119642D01*
X100915Y235851D02*
X119256D01*
X99913Y236082D02*
X120258D01*
X110086Y236467D02*
X121645D01*
X110240Y236699D02*
X122416D01*
X110317Y236930D02*
X123187D01*
X109546Y236313D02*
X121106D01*
X110240Y236775D02*
X122724D01*
X101609Y235697D02*
X118563D01*
X138292Y304978D02*
X140372D01*
X138137Y305133D02*
X140218D01*
X138677Y304593D02*
X140681D01*
X138600Y304670D02*
X140604D01*
X138523Y304747D02*
X140526D01*
X137829Y305364D02*
X139987D01*
X137675Y305518D02*
X139833D01*
X137752Y305441D02*
X139910D01*
X138446Y304824D02*
X140526D01*
X138369Y304901D02*
X140449D01*
X137906Y305287D02*
X140064D01*
X138754Y304516D02*
X140758D01*
X137521Y305672D02*
X139679D01*
X136904Y306211D02*
X139139D01*
X138215Y305055D02*
X140295D01*
X136750Y306366D02*
X138985D01*
X136827Y306289D02*
X139062D01*
X137983Y305210D02*
X140141D01*
X133128Y309217D02*
X135671D01*
X133822Y308755D02*
X136288D01*
X134053Y308600D02*
X136442D01*
X132358Y309756D02*
X134978D01*
X129583Y311452D02*
X132512D01*
X129814Y311298D02*
X132743D01*
X128735Y311914D02*
X131818D01*
X128504Y312068D02*
X131510D01*
X129121Y311760D02*
X132049D01*
X129814Y311375D02*
X132666D01*
X128581Y311991D02*
X131664D01*
X129198Y311683D02*
X132203D01*
X129429Y311529D02*
X132435D01*
X128890Y311837D02*
X131895D01*
X129352Y311606D02*
X132281D01*
X128273Y312145D02*
X131433D01*
X135671Y307290D02*
X137983D01*
X136288Y306828D02*
X138523D01*
X136057Y306982D02*
X138292D01*
X136211Y306905D02*
X138369D01*
X135903Y307136D02*
X138137D01*
X136442Y306674D02*
X138677D01*
X136519Y306597D02*
X138754D01*
X135980Y307059D02*
X138215D01*
X135749Y307213D02*
X138060D01*
X136288Y306751D02*
X138600D01*
X135594Y307367D02*
X137906D01*
X136596Y306520D02*
X138831D01*
X130585Y310912D02*
X133359D01*
X130123Y311144D02*
X132974D01*
X130354Y311067D02*
X133128D01*
X130123Y310912D02*
X130200D01*
X130662Y310835D02*
X133437D01*
X127194Y312685D02*
X130508D01*
X127734Y312454D02*
X130893D01*
X127503Y312531D02*
X130739D01*
X127811Y312377D02*
X131047D01*
X127965Y312300D02*
X131124D01*
X127348Y312608D02*
X130585D01*
X135517Y307445D02*
X137829D01*
X135363Y307522D02*
X137752D01*
X132512Y309679D02*
X135055D01*
X132589Y309602D02*
X135209D01*
X132743Y309525D02*
X135286D01*
X136981Y306134D02*
X139216D01*
X134130Y308523D02*
X136519D01*
X133591Y308909D02*
X136057D01*
X136673Y306443D02*
X138908D01*
X131895Y310065D02*
X134592D01*
X132974Y309371D02*
X135517D01*
X137598Y305595D02*
X139756D01*
X139525Y303668D02*
X141528D01*
X139294Y303900D02*
X141297D01*
X139216Y303977D02*
X141297D01*
X139371Y303822D02*
X141374D01*
X138985Y304208D02*
X141066D01*
X139448Y303745D02*
X141451D01*
X139062Y304131D02*
X141143D01*
X138908Y304362D02*
X140912D01*
X138831Y304439D02*
X140835D01*
X138908Y304285D02*
X140989D01*
X139139Y304054D02*
X141220D01*
X139602Y303591D02*
X141605D01*
X131279Y310450D02*
X134053D01*
X131047Y310604D02*
X133822D01*
X131202Y310527D02*
X133899D01*
X130970Y310681D02*
X133668D01*
X130046Y311221D02*
X132897D01*
X130431Y310989D02*
X133205D01*
X128119Y312223D02*
X131279D01*
X130739Y310758D02*
X133591D01*
X137213Y305980D02*
X139371D01*
X137367Y305826D02*
X139525D01*
X137444Y305749D02*
X139602D01*
X137290Y305903D02*
X139448D01*
X137136Y306057D02*
X139294D01*
X135132Y307753D02*
X137444D01*
X134515Y308215D02*
X136904D01*
X134824Y307984D02*
X137213D01*
X134978Y307830D02*
X137367D01*
X135286Y307599D02*
X137675D01*
X134901Y307907D02*
X137290D01*
X134284Y308369D02*
X136750D01*
X135209Y307676D02*
X137521D01*
X134747Y308061D02*
X137136D01*
X134669Y308138D02*
X136981D01*
X134438Y308292D02*
X136827D01*
X134207Y308446D02*
X136673D01*
X131433Y310373D02*
X134130D01*
X131664Y310219D02*
X134361D01*
X133051Y309294D02*
X135594D01*
X133976Y308678D02*
X136365D01*
X131741Y310142D02*
X134438D01*
X132049Y309988D02*
X134669D01*
X133745Y308832D02*
X136211D01*
X133514Y308986D02*
X135980D01*
X133282Y309140D02*
X135826D01*
X132281Y309834D02*
X134901D01*
X132126Y309911D02*
X134747D01*
X133359Y309063D02*
X135903D01*
X132820Y309448D02*
X135363D01*
X131587Y310296D02*
X134284D01*
X126886Y312839D02*
X130200D01*
X126578Y312993D02*
X129892D01*
X127117Y312762D02*
X130354D01*
X125499Y313456D02*
X129044D01*
X125268Y313533D02*
X128890D01*
X125961Y313224D02*
X129506D01*
X126655Y312916D02*
X130046D01*
X126424Y313070D02*
X129814D01*
X126269Y313147D02*
X129660D01*
X125807Y313301D02*
X129352D01*
X125653Y313379D02*
X129198D01*
X148927Y286560D02*
X150468D01*
X148773Y287022D02*
X150314D01*
X148695Y287253D02*
X150237D01*
X148773Y287176D02*
X150314D01*
X148695Y287407D02*
X150237D01*
X148695Y287330D02*
X150237D01*
X148773Y287099D02*
X150314D01*
X83884Y287253D02*
X130508D01*
X83575Y286791D02*
X130816D01*
X83960Y287330D02*
X130431D01*
X84115Y287562D02*
X130277D01*
X83806Y287099D02*
X130585D01*
X84038Y287485D02*
X130277D01*
X83960Y287407D02*
X130354D01*
X83652Y286868D02*
X130816D01*
X83652Y286945D02*
X130739D01*
X83729Y287022D02*
X130662D01*
X83498Y286637D02*
X130970D01*
X148541Y288101D02*
X150006D01*
X148464Y288178D02*
X150006D01*
X148387Y288332D02*
X149928D01*
X148618Y287485D02*
X150160D01*
X148387Y288409D02*
X149928D01*
X148618Y287639D02*
X150160D01*
X148541Y288024D02*
X150006D01*
X148618Y287562D02*
X150160D01*
X148387Y288255D02*
X150006D01*
X148541Y287870D02*
X150083D01*
X148541Y287793D02*
X150083D01*
X148618Y287716D02*
X150160D01*
X148541Y287947D02*
X150083D01*
X148310Y288486D02*
X149928D01*
X84808Y288255D02*
X129737D01*
X84885Y288332D02*
X129737D01*
X84577Y288101D02*
X129892D01*
X84500Y288024D02*
X129892D01*
X84423Y287947D02*
X129969D01*
X84654Y288178D02*
X129814D01*
X84962Y288409D02*
X129660D01*
X84192Y287639D02*
X130200D01*
X84269Y287716D02*
X130123D01*
X84269Y287793D02*
X130123D01*
X84346Y287870D02*
X129969D01*
X85116Y288486D02*
X129660D01*
X146075Y294189D02*
X147694D01*
X146152Y293958D02*
X147848D01*
X146229Y293804D02*
X147925D01*
X145998Y294266D02*
X147694D01*
X146152Y294112D02*
X147771D01*
X146384Y293573D02*
X148002D01*
X145073Y296039D02*
X146769D01*
X145073Y296193D02*
X146692D01*
X145228Y295731D02*
X146923D01*
X145073Y296116D02*
X146769D01*
X145228Y295808D02*
X146923D01*
X145150Y295885D02*
X146846D01*
X145305Y295654D02*
X147000D01*
X145073Y295962D02*
X146846D01*
X145305Y295576D02*
X147000D01*
X147539Y290798D02*
X149158D01*
X147385Y291261D02*
X148927D01*
X147539Y290721D02*
X149158D01*
X147694Y290567D02*
X149235D01*
X147462Y290952D02*
X149081D01*
X147308Y291338D02*
X148927D01*
X147385Y291184D02*
X149004D01*
X147385Y291030D02*
X149081D01*
X147539Y290875D02*
X149081D01*
X147308Y291415D02*
X148927D01*
X147385Y291107D02*
X149004D01*
X147617Y290644D02*
X149158D01*
X143763Y298197D02*
X145536D01*
X143532Y298582D02*
X145305D01*
X143224Y298967D02*
X145073D01*
X143147Y299121D02*
X144919D01*
X143455Y298736D02*
X145228D01*
X143070Y299276D02*
X144842D01*
X143070Y299199D02*
X144919D01*
X143455Y298659D02*
X145228D01*
X143378Y298813D02*
X145150D01*
X143378Y298890D02*
X145073D01*
X143224Y299044D02*
X144996D01*
X143686Y298428D02*
X145382D01*
X142068Y300586D02*
X143994D01*
X142453Y300123D02*
X144303D01*
X141760Y301048D02*
X143609D01*
X142530Y300046D02*
X144303D01*
X142376Y300200D02*
X144226D01*
X141837Y300971D02*
X143686D01*
X141837Y300894D02*
X143763D01*
X142299Y300355D02*
X144149D01*
X142145Y300432D02*
X144071D01*
X141991Y300663D02*
X143917D01*
X142530Y299969D02*
X144380D01*
X141914Y300817D02*
X143763D01*
X142145Y300509D02*
X143994D01*
X141991Y300740D02*
X143840D01*
X142607Y299892D02*
X144457D01*
X140681Y302358D02*
X142607D01*
X140372Y302666D02*
X142376D01*
X140604Y302435D02*
X142530D01*
X141066Y301896D02*
X142993D01*
X140912Y302050D02*
X142839D01*
X140835Y302204D02*
X142761D01*
X140604Y302512D02*
X142530D01*
X140835Y302127D02*
X142839D01*
X140989Y301973D02*
X142915D01*
X141143Y301819D02*
X143070D01*
X144149Y297580D02*
X145921D01*
X143917Y297966D02*
X145690D01*
X144071Y297811D02*
X145767D01*
X144226Y297503D02*
X145921D01*
X144071Y297734D02*
X145844D01*
X144457Y297118D02*
X146152D01*
X144149Y297657D02*
X145844D01*
X144380Y297272D02*
X146075D01*
X144303Y297426D02*
X145998D01*
X144303Y297349D02*
X146075D01*
X144380Y297195D02*
X146152D01*
X144765Y296578D02*
X146460D01*
X144919Y296270D02*
X146615D01*
X144842Y296424D02*
X146538D01*
X144534Y296964D02*
X146229D01*
X144919Y296347D02*
X146615D01*
X144765Y296501D02*
X146538D01*
X144765Y296655D02*
X146460D01*
X144611Y296886D02*
X146306D01*
X144457Y297041D02*
X146229D01*
X146846Y292417D02*
X148464D01*
X146692Y292725D02*
X148387D01*
X147231Y291646D02*
X148773D01*
X147231Y291492D02*
X148850D01*
X146615Y293033D02*
X148233D01*
X147154Y291800D02*
X148773D01*
X147000Y292186D02*
X148618D01*
X147000Y292108D02*
X148618D01*
X147231Y291569D02*
X148850D01*
X147077Y292031D02*
X148618D01*
X147154Y291723D02*
X148773D01*
X147077Y291954D02*
X148695D01*
X147000Y292263D02*
X148541D01*
X146923Y292340D02*
X148541D01*
X142684Y299815D02*
X144457D01*
X142839Y299584D02*
X144611D01*
X142839Y299507D02*
X144688D01*
X142993Y299353D02*
X144765D01*
X142993Y299430D02*
X144765D01*
X142761Y299661D02*
X144611D01*
X142684Y299738D02*
X144534D01*
X145459Y295268D02*
X147154D01*
X145536Y295191D02*
X147231D01*
X145921Y294497D02*
X147539D01*
X145613Y295037D02*
X147308D01*
X145767Y294806D02*
X147385D01*
X145613Y294960D02*
X147308D01*
X145767Y294883D02*
X147385D01*
X145459Y295345D02*
X147154D01*
X145844Y294575D02*
X147539D01*
X145767Y294729D02*
X147462D01*
X145459Y295422D02*
X147077D01*
X145382Y295499D02*
X147077D01*
X141683Y301125D02*
X143532D01*
X141297Y301588D02*
X143224D01*
X141528Y301279D02*
X143455D01*
X141451Y301433D02*
X143301D01*
X141374Y301511D02*
X143301D01*
X141451Y301356D02*
X143378D01*
X141605Y301202D02*
X143532D01*
X141220Y301665D02*
X143147D01*
X141220Y301742D02*
X143070D01*
X140295Y302821D02*
X142222D01*
X139987Y303129D02*
X141991D01*
X139910Y303283D02*
X141837D01*
X139833Y303360D02*
X141760D01*
X139756Y303437D02*
X141760D01*
X140218Y302898D02*
X142145D01*
X140064Y302975D02*
X142145D01*
X140064Y303052D02*
X142068D01*
X139910Y303206D02*
X141914D01*
X139679Y303514D02*
X141683D01*
X147694Y290413D02*
X149235D01*
X147771Y290259D02*
X149312D01*
X147848Y290028D02*
X149389D01*
X147848Y290182D02*
X149312D01*
X147848Y290105D02*
X149389D01*
X147694Y290336D02*
X149312D01*
X147848Y289951D02*
X149466D01*
X85271Y288640D02*
X129583D01*
X85733Y289103D02*
X129429D01*
X85656Y289026D02*
X129429D01*
X85579Y288949D02*
X129429D01*
X85348Y288718D02*
X129506D01*
X85502Y288872D02*
X129506D01*
X85425Y288795D02*
X129506D01*
X85194Y288563D02*
X129660D01*
X83498Y286714D02*
X130893D01*
X83421Y286560D02*
X131047D01*
X83884Y287176D02*
X130585D01*
X83421Y286483D02*
X131124D01*
X143686Y298351D02*
X145459D01*
X143840Y298042D02*
X145613D01*
X143609Y298505D02*
X145382D01*
X143840Y298120D02*
X145613D01*
X143686Y298274D02*
X145459D01*
X143917Y297888D02*
X145690D01*
X146846Y292494D02*
X148464D01*
X146384Y293496D02*
X148002D01*
X146460Y293419D02*
X148079D01*
X146538Y293187D02*
X148156D01*
X146460Y293265D02*
X148156D01*
X146538Y293110D02*
X148233D01*
X146306Y293727D02*
X147925D01*
X146460Y293341D02*
X148079D01*
X146229Y293881D02*
X147848D01*
X146769Y292648D02*
X148387D01*
X146306Y293650D02*
X147925D01*
X146152Y294035D02*
X147771D01*
X146769Y292802D02*
X148310D01*
X146846Y292571D02*
X148464D01*
X86041Y289334D02*
X129352D01*
X86195Y289488D02*
X129275D01*
X86735Y289796D02*
X129121D01*
X86735Y289720D02*
X129198D01*
X85964Y289257D02*
X129352D01*
X85810Y289180D02*
X129352D01*
X86349Y289565D02*
X129275D01*
X86118Y289411D02*
X129275D01*
X86427Y289642D02*
X129198D01*
X86812Y289874D02*
X129121D01*
X86889Y289951D02*
X129121D01*
X148002Y289565D02*
X149543D01*
X148233Y288795D02*
X149774D01*
X147925Y289642D02*
X149543D01*
X148002Y289488D02*
X149620D01*
X147925Y289874D02*
X149466D01*
X148079Y289334D02*
X149620D01*
X148233Y288718D02*
X149851D01*
X148310Y288563D02*
X149851D01*
X148156Y289026D02*
X149774D01*
X148310Y288640D02*
X149851D01*
X148233Y288872D02*
X149774D01*
X148002Y289411D02*
X149620D01*
X148079Y289103D02*
X149697D01*
X147925Y289796D02*
X149466D01*
X148079Y289180D02*
X149697D01*
X148233Y288949D02*
X149774D01*
X95058Y315228D02*
X99913D01*
X94287Y314920D02*
X98834D01*
X93902Y314766D02*
X98372D01*
X95289Y315305D02*
X100375D01*
X98063Y314689D02*
X98141D01*
X93362Y314534D02*
X97601D01*
X94519Y314997D02*
X99220D01*
X94133Y314843D02*
X98526D01*
X93748Y314689D02*
X97986D01*
X93054Y314380D02*
X97139D01*
X92900Y314303D02*
X96985D01*
X93208Y314458D02*
X97447D01*
X94673Y315074D02*
X99451D01*
X94904Y315151D02*
X99605D01*
X93594Y314612D02*
X97909D01*
X92669Y314226D02*
X96676D01*
X88276Y311837D02*
X91282D01*
X87968Y311683D02*
X91050D01*
X87891Y311606D02*
X90819D01*
X88122Y311760D02*
X91128D01*
X89972Y312839D02*
X93362D01*
X90126Y312916D02*
X93517D01*
X88661Y312068D02*
X91667D01*
X89818Y312762D02*
X93054D01*
X90357Y313070D02*
X93748D01*
X91590Y313687D02*
X95289D01*
X91282Y313533D02*
X94904D01*
X92207Y313995D02*
X95983D01*
X91744Y313764D02*
X95443D01*
X92515Y314149D02*
X96445D01*
X92052Y313918D02*
X95983D01*
X90974Y313379D02*
X94519D01*
X91128Y313456D02*
X94673D01*
X90280Y312993D02*
X93594D01*
X90665Y313224D02*
X94210D01*
X90819Y313301D02*
X94364D01*
X92361Y314072D02*
X96368D01*
X90511Y313147D02*
X93979D01*
X91898Y313841D02*
X95597D01*
X91436Y313610D02*
X95058D01*
X115326Y316153D02*
X122416D01*
X116097Y316076D02*
X122724D01*
X115172Y316230D02*
X122185D01*
X114093Y316307D02*
X121954D01*
X116559Y315999D02*
X122956D01*
X115788Y316076D02*
X115943D01*
X113168Y316384D02*
X121645D01*
X117407Y315845D02*
X123418D01*
X117022Y315922D02*
X123187D01*
X124266Y313918D02*
X128119D01*
X124112Y313995D02*
X127965D01*
X123187Y314303D02*
X127271D01*
X124728Y313764D02*
X128427D01*
X124959Y313687D02*
X128581D01*
X123495Y314226D02*
X127503D01*
X123880Y314072D02*
X127811D01*
X123803Y314149D02*
X127657D01*
X124574Y313841D02*
X128273D01*
X125036Y313610D02*
X128735D01*
X89278Y312454D02*
X92438D01*
X89124Y312377D02*
X92361D01*
X88893Y312223D02*
X91975D01*
X89047Y312300D02*
X92207D01*
X88507Y311991D02*
X91590D01*
X89432Y312531D02*
X92669D01*
X89663Y312685D02*
X92977D01*
X89586Y312608D02*
X92823D01*
X88739Y312145D02*
X91898D01*
X88353Y311914D02*
X91436D01*
X123033Y314380D02*
X127117D01*
X122724Y314458D02*
X126963D01*
X121877Y314766D02*
X126269D01*
X122339Y314612D02*
X126578D01*
X122031Y314689D02*
X126424D01*
X122570Y314534D02*
X126809D01*
X121723Y314843D02*
X126038D01*
X96985Y315922D02*
X103150D01*
X97447Y316076D02*
X104075D01*
X112089Y316461D02*
X121414D01*
X104229Y316076D02*
X104383D01*
X98757Y316461D02*
X108082D01*
X96753Y315845D02*
X102764D01*
X98526Y316384D02*
X107003D01*
X97216Y315999D02*
X103612D01*
X97986Y316230D02*
X105076D01*
X97755Y316153D02*
X104922D01*
X98218Y316307D02*
X106078D01*
X108544Y316538D02*
X111627D01*
X99605Y316692D02*
X120567D01*
X119025Y315536D02*
X124266D01*
X120875Y315074D02*
X125499D01*
X120490Y315151D02*
X125268D01*
X119796Y315305D02*
X124882D01*
X117792Y315768D02*
X123649D01*
X119642Y315382D02*
X124728D01*
X121337Y314920D02*
X125884D01*
X119256Y315459D02*
X124497D01*
X118563Y315613D02*
X124035D01*
X120952Y314997D02*
X125653D01*
X120258Y315228D02*
X125113D01*
X118101Y315690D02*
X123803D01*
X100221Y316846D02*
X119950D01*
X99913Y316769D02*
X120258D01*
X111781Y316538D02*
X121106D01*
X99065D02*
X108390D01*
X101609Y317155D02*
X118563D01*
X101223Y317078D02*
X118948D01*
X99296Y316615D02*
X120875D01*
X100530Y316923D02*
X119642D01*
X100915Y317001D02*
X119256D01*
X101994Y317232D02*
X118177D01*
X95906Y315536D02*
X101069D01*
X95443Y315382D02*
X100530D01*
X96368Y315690D02*
X101994D01*
X95675Y315459D02*
X100915D01*
X96137Y315613D02*
X101609D01*
X96522Y315768D02*
X102379D01*
X107157Y317925D02*
X113014D01*
X105462Y317771D02*
X114710D01*
X102379Y317309D02*
X117792D01*
X104229Y317617D02*
X115943D01*
X106232Y317848D02*
X113939D01*
X103689Y317540D02*
X116482D01*
X104845Y317694D02*
X115326D01*
X102764Y317386D02*
X117407D01*
X103227Y317463D02*
X116945D01*
X98141Y299353D02*
X117946D01*
X97678Y299199D02*
X98063D01*
X98141Y299661D02*
X117638D01*
X98218Y299815D02*
X117484D01*
X98218Y299738D02*
X117561D01*
X98141Y299507D02*
X117869D01*
X98141Y299199D02*
X118023D01*
X98141Y299584D02*
X117715D01*
X98141Y299430D02*
X117869D01*
X98141Y299276D02*
X118023D01*
X93131Y297657D02*
X121723D01*
X93440Y297888D02*
X121337D01*
X93362Y297811D02*
X121491D01*
X93517Y297966D02*
X121183D01*
X93594Y298042D02*
X121029D01*
X92900Y297426D02*
X122031D01*
X93131Y297580D02*
X121800D01*
X93285Y297734D02*
X121568D01*
X93054Y297503D02*
X121877D01*
X92361Y296886D02*
X122647D01*
X92669Y297195D02*
X122262D01*
X92515Y297041D02*
X122493D01*
X92592Y297118D02*
X122416D01*
X92438Y296964D02*
X122570D01*
X92746Y297272D02*
X122185D01*
X92823Y297349D02*
X122108D01*
X92207Y296578D02*
X123033D01*
X92284Y296732D02*
X122801D01*
X92361Y296810D02*
X122724D01*
X92207Y296501D02*
X123110D01*
X92129Y296424D02*
X123264D01*
X92052Y296347D02*
X123341D01*
X92052Y296270D02*
X123418D01*
X92284Y296655D02*
X122956D01*
X108467Y300740D02*
X108622D01*
X108776D02*
X111627D01*
X98526D02*
X102610D01*
X98603Y300817D02*
X102456D01*
X98834Y301048D02*
X102148D01*
X108236Y300740D02*
X108313D01*
X98757Y300971D02*
X102225D01*
X104537Y300740D02*
X108082D01*
X98680Y300894D02*
X102379D01*
X113477Y300740D02*
X116174D01*
X113708Y300817D02*
X115943D01*
X98988Y301125D02*
X101994D01*
X98218Y299892D02*
X117407D01*
X98295Y300046D02*
X117176D01*
X98295Y299969D02*
X117330D01*
X98372Y300200D02*
X117022D01*
X98372Y300277D02*
X116867D01*
X103150Y300355D02*
X116790D01*
X98372D02*
X102996D01*
X98372Y300123D02*
X117099D01*
X98449Y300509D02*
X102841D01*
X112706Y300432D02*
X116713D01*
X103920Y300509D02*
X112321D01*
X112860D02*
X116559D01*
X103689Y300432D02*
X112475D01*
X98526Y300663D02*
X102610D01*
X104075Y300586D02*
X112012D01*
X113322Y300663D02*
X116405D01*
X98526Y300586D02*
X102764D01*
X113168D02*
X116559D01*
X104229Y300663D02*
X111858D01*
X98449Y300432D02*
X102996D01*
X105462Y301202D02*
X107157D01*
X105308Y301125D02*
X107311D01*
X105154Y301048D02*
X107466D01*
X109546Y300971D02*
X111319D01*
X104845Y300894D02*
X107774D01*
X109854Y301125D02*
X111088D01*
X104999Y300971D02*
X107697D01*
X109315Y300894D02*
X111473D01*
X109161Y300817D02*
X111550D01*
X114478Y300971D02*
X115326D01*
X104691Y300817D02*
X107928D01*
X109777Y301048D02*
X111165D01*
X114093Y300894D02*
X115788D01*
X109932Y301202D02*
X111011D01*
X94750Y298582D02*
X118640D01*
X93902Y298197D02*
X119411D01*
X93748Y298120D02*
X119642D01*
X94364Y298351D02*
X119025D01*
X94827Y298659D02*
X118563D01*
X94596Y298505D02*
X118794D01*
X120258Y298120D02*
X120875D01*
X94133Y298274D02*
X119179D01*
X94519Y298428D02*
X118871D01*
X99296Y301433D02*
X101300D01*
X99142Y301279D02*
X101763D01*
X99065Y301202D02*
X101840D01*
X99296Y301356D02*
X101531D01*
X106155Y301433D02*
X106849D01*
X109932Y301279D02*
X110933D01*
X99913Y301588D02*
X100761D01*
X99605Y301511D02*
X101146D01*
X105616Y301279D02*
X107080D01*
X105770Y301356D02*
X106926D01*
X95906Y299044D02*
X118177D01*
X95366Y298890D02*
X118255D01*
X94981Y298736D02*
X118409D01*
X95135Y298813D02*
X118255D01*
X95520Y298967D02*
X118177D01*
X96830Y299121D02*
X118101D01*
X76100Y300432D02*
X77949D01*
X76177Y300509D02*
X78026D01*
X76254Y300663D02*
X78181D01*
X76177Y300586D02*
X78104D01*
X76023Y300355D02*
X77872D01*
X76023Y300277D02*
X77872D01*
X77025Y301665D02*
X78874D01*
X77333Y302127D02*
X79337D01*
X77102Y301742D02*
X79028D01*
X77487Y302281D02*
X79414D01*
X77410Y302204D02*
X79414D01*
X77179Y301896D02*
X79105D01*
X77333Y302050D02*
X79260D01*
X77256Y301973D02*
X79182D01*
X77102Y301819D02*
X79028D01*
X75560Y299661D02*
X77410D01*
X75252Y299199D02*
X77102D01*
X75252Y299121D02*
X77025D01*
X75406Y299430D02*
X77179D01*
X75021Y298813D02*
X76793D01*
X75406Y299353D02*
X77179D01*
X75483Y299507D02*
X77256D01*
X75098Y298967D02*
X76948D01*
X75098Y298890D02*
X76871D01*
X75175Y299044D02*
X76948D01*
X74944Y298736D02*
X76793D01*
X75560Y299584D02*
X77410D01*
X74944Y298659D02*
X76716D01*
X75329Y299276D02*
X77179D01*
X78412Y303437D02*
X80493D01*
X78566Y303591D02*
X80570D01*
X78489Y303514D02*
X80570D01*
X78720Y303745D02*
X80724D01*
X78181Y303129D02*
X80184D01*
X78335Y303283D02*
X80415D01*
X78104Y303052D02*
X80107D01*
X77949Y302821D02*
X79876D01*
X78026Y302975D02*
X80030D01*
X78026Y302898D02*
X79953D01*
X78412Y303360D02*
X80415D01*
X78258Y303206D02*
X80261D01*
X77872Y302744D02*
X79876D01*
X75714Y299892D02*
X77641D01*
X75638Y299738D02*
X77487D01*
X75869Y300123D02*
X77718D01*
X75869Y300046D02*
X77718D01*
X75792Y299969D02*
X77641D01*
X75714Y299815D02*
X77564D01*
X75946Y300200D02*
X77872D01*
X77718Y302589D02*
X79645D01*
X77641Y302512D02*
X79568D01*
X77641Y302435D02*
X79568D01*
X77564Y302358D02*
X79568D01*
X77795Y302666D02*
X79799D01*
X76948Y301588D02*
X78874D01*
X76871Y301511D02*
X78874D01*
X76485Y300971D02*
X78335D01*
X76562Y301048D02*
X78412D01*
X76793Y301356D02*
X78643D01*
X76639Y301125D02*
X78489D01*
X76331Y300740D02*
X78181D01*
X76408Y300817D02*
X78335D01*
X76716Y301279D02*
X78643D01*
X76639Y301202D02*
X78566D01*
X76408Y300894D02*
X78335D01*
X76871Y301433D02*
X78797D01*
X79028Y304131D02*
X81109D01*
X78874Y303900D02*
X80878D01*
X78643Y303668D02*
X80647D01*
X78874Y303977D02*
X80955D01*
X79182Y304285D02*
X81263D01*
X78951Y304054D02*
X81032D01*
X79105Y304208D02*
X81186D01*
X78797Y303822D02*
X80801D01*
X70937Y290567D02*
X72555D01*
X71168Y291184D02*
X72786D01*
X71091Y291030D02*
X72709D01*
X71091Y290875D02*
X72632D01*
X71013Y290721D02*
X72632D01*
X71168Y291107D02*
X72786D01*
X71013Y290798D02*
X72632D01*
X71245Y291261D02*
X72863D01*
X71013Y290644D02*
X72632D01*
X71091Y290952D02*
X72709D01*
X70937Y290490D02*
X72478D01*
X70937Y290413D02*
X72478D01*
X72863Y294960D02*
X74559D01*
X73017Y295268D02*
X74713D01*
X73017Y295345D02*
X74713D01*
X73094Y295499D02*
X74867D01*
X72940Y295114D02*
X74636D01*
X73171Y295654D02*
X74867D01*
X73171Y295576D02*
X74867D01*
X72940Y295191D02*
X74636D01*
X73094Y295422D02*
X74790D01*
X72863Y295037D02*
X74559D01*
X71322Y291492D02*
X72940D01*
X71245Y291338D02*
X72863D01*
X71399Y291646D02*
X73017D01*
X71245Y291415D02*
X72863D01*
X71322Y291569D02*
X72940D01*
X71399Y291723D02*
X73017D01*
X73711Y296578D02*
X75406D01*
X73634Y296424D02*
X75329D01*
X73557Y296347D02*
X75252D01*
X73634Y296501D02*
X75406D01*
X73557Y296270D02*
X75252D01*
X72786Y294883D02*
X74481D01*
X72709Y294729D02*
X74404D01*
X72786Y294806D02*
X74404D01*
X72709Y294652D02*
X74404D01*
X72632Y294497D02*
X74327D01*
X72632Y294575D02*
X74327D01*
X72247Y293650D02*
X73865D01*
X72247Y293804D02*
X73942D01*
X71938Y292956D02*
X73557D01*
X72092Y293341D02*
X73480D01*
X72092Y293419D02*
X73711D01*
X72015Y293187D02*
X73634D01*
X73557Y293341D02*
X73711D01*
X71938Y293110D02*
X73634D01*
X72324Y293881D02*
X74019D01*
X72324Y293958D02*
X74019D01*
X72401Y294035D02*
X74019D01*
X72170Y293496D02*
X73788D01*
X72247Y293727D02*
X73942D01*
X72015Y293265D02*
X73711D01*
X72170Y293573D02*
X73788D01*
X71938Y293033D02*
X73634D01*
X72401Y294112D02*
X74096D01*
X72478Y294266D02*
X74173D01*
X72555Y294343D02*
X74250D01*
X72478Y294189D02*
X74173D01*
X72555Y294420D02*
X74250D01*
X74713Y298274D02*
X76485D01*
X74481Y297966D02*
X76254D01*
X74559Y298120D02*
X76408D01*
X74713Y298351D02*
X76485D01*
X74481Y297888D02*
X76254D01*
X74790Y298428D02*
X76562D01*
X74404Y297811D02*
X76177D01*
X74790Y298505D02*
X76639D01*
X74559Y298042D02*
X76254D01*
X74867Y298582D02*
X76639D01*
X74636Y298197D02*
X76408D01*
X74327Y297734D02*
X76100D01*
X74250Y297503D02*
X75946D01*
X73865Y296886D02*
X75560D01*
X74327Y297657D02*
X76100D01*
X74019Y297195D02*
X75792D01*
X73711Y296655D02*
X75483D01*
X74173Y297426D02*
X75946D01*
X73942Y297041D02*
X75714D01*
X74250Y297580D02*
X76100D01*
X74096Y297349D02*
X75869D01*
X74096Y297272D02*
X75869D01*
X73942Y296964D02*
X75714D01*
X73788Y296810D02*
X75560D01*
X74019Y297118D02*
X75714D01*
X73788Y296732D02*
X75560D01*
X73403Y296039D02*
X75175D01*
X73326Y295962D02*
X75098D01*
X73326Y295885D02*
X75021D01*
X73403Y296116D02*
X75175D01*
X73248Y295731D02*
X74944D01*
X73248Y295808D02*
X74944D01*
X73480Y296193D02*
X75252D01*
X71861Y292802D02*
X73480D01*
X71553Y292108D02*
X73171D01*
X71553Y292031D02*
X73171D01*
X71553Y292186D02*
X73248D01*
X71630Y292263D02*
X73248D01*
X71707Y292571D02*
X73326D01*
X71784Y292648D02*
X73403D01*
X71707Y292417D02*
X73326D01*
X71707Y292494D02*
X73326D01*
X71476Y291877D02*
X73094D01*
X71399Y291800D02*
X73017D01*
X71784Y292725D02*
X73480D01*
X71476Y291954D02*
X73094D01*
X71630Y292340D02*
X73326D01*
X71861Y292879D02*
X73480D01*
X86195Y291954D02*
X126269D01*
X86195Y291569D02*
X126809D01*
X86195Y291646D02*
X126655D01*
X86349Y292263D02*
X125807D01*
X86195Y292031D02*
X126115D01*
X86118Y291877D02*
X126424D01*
X86118Y291800D02*
X126424D01*
X86118Y291723D02*
X126578D01*
X86195Y292108D02*
X126115D01*
X86273Y292186D02*
X125961D01*
X86812Y290721D02*
X128658D01*
X86966Y290567D02*
X128735D01*
X86889Y290644D02*
X128658D01*
X86581Y290952D02*
X128427D01*
X86735Y290875D02*
X128504D01*
X86735Y290798D02*
X128581D01*
X89355Y294266D02*
X124343D01*
X89355Y294343D02*
X124343D01*
X89432Y294420D02*
X124343D01*
X89818Y294806D02*
X124189D01*
X90049Y294883D02*
X124189D01*
X89663Y294729D02*
X124266D01*
X89586Y294652D02*
X124266D01*
X89355Y294189D02*
X124343D01*
X89509Y294497D02*
X124266D01*
X90280Y294960D02*
X124112D01*
X89586Y294575D02*
X124266D01*
X86504Y291030D02*
X128350D01*
X86349Y291184D02*
X128119D01*
X86273Y291492D02*
X127040D01*
X86427Y291107D02*
X128273D01*
X86273Y291338D02*
X127425D01*
X86349Y291261D02*
X127811D01*
X86273Y291415D02*
X127194D01*
X87428Y293187D02*
X124420D01*
X89278Y294112D02*
X124343D01*
X89047Y293804D02*
X124420D01*
X89047Y293727D02*
X124420D01*
X89201Y294035D02*
X124343D01*
X88661Y293265D02*
X124420D01*
X88816Y293496D02*
X124420D01*
X89124Y293958D02*
X124420D01*
X88893Y293573D02*
X124420D01*
X89124Y293881D02*
X124420D01*
X87506Y293265D02*
X87891D01*
X88970Y293650D02*
X124420D01*
X88816Y293419D02*
X124420D01*
X88739Y293341D02*
X124420D01*
X86889Y290028D02*
X129044D01*
X86966Y290105D02*
X129044D01*
X86966Y290182D02*
X128967D01*
X87043Y290336D02*
X128890D01*
X87043Y290413D02*
X128890D01*
X86966Y290259D02*
X128967D01*
X86966Y290490D02*
X128735D01*
X90511Y295037D02*
X124112D01*
X91205Y295268D02*
X123958D01*
X91359Y295345D02*
X123880D01*
X91590Y295422D02*
X123880D01*
X90974Y295191D02*
X123958D01*
X90742Y295114D02*
X124035D01*
X86427Y292494D02*
X125499D01*
X86349Y292340D02*
X125730D01*
X86966Y292879D02*
X124651D01*
X86427Y292417D02*
X125576D01*
X87120Y293033D02*
X124420D01*
X86812Y292802D02*
X124728D01*
X86504Y292571D02*
X125345D01*
X87043Y292956D02*
X124497D01*
X86658Y292725D02*
X124959D01*
X87274Y293110D02*
X124420D01*
X86581Y292648D02*
X125190D01*
X91590Y295499D02*
X123803D01*
X91744Y295654D02*
X123726D01*
X91898Y295962D02*
X123649D01*
X92052Y296193D02*
X123495D01*
X91821Y295885D02*
X123649D01*
X91898Y296039D02*
X123572D01*
X91667Y295576D02*
X123803D01*
X91744Y295731D02*
X123726D01*
X91975Y296116D02*
X123572D01*
X91821Y295808D02*
X123649D01*
X85425Y309911D02*
X88045D01*
X84962Y309602D02*
X87583D01*
X85271Y309834D02*
X87891D01*
X85194Y309756D02*
X87814D01*
X84654Y309371D02*
X87274D01*
X84885Y309525D02*
X87506D01*
X85116Y309679D02*
X87660D01*
X84808Y309448D02*
X87351D01*
X81417Y306597D02*
X83729D01*
X82265Y307367D02*
X84577D01*
X82111Y307213D02*
X84423D01*
X81340Y306520D02*
X83575D01*
X81572Y306751D02*
X83884D01*
X81263Y306443D02*
X83498D01*
X82188Y307290D02*
X84500D01*
X81803Y306905D02*
X83960D01*
X81957Y307059D02*
X84192D01*
X81649Y306828D02*
X83884D01*
X81880Y306982D02*
X84192D01*
X81494Y306674D02*
X83806D01*
X82034Y307136D02*
X84346D01*
X79645Y304824D02*
X81803D01*
X79722Y304901D02*
X81880D01*
X79414Y304516D02*
X81494D01*
X79337Y304439D02*
X81417D01*
X79260Y304362D02*
X81340D01*
X79568Y304670D02*
X81649D01*
X79876Y305055D02*
X82034D01*
X79953Y305133D02*
X82111D01*
X79645Y304747D02*
X81726D01*
X80184Y305364D02*
X82342D01*
X79491Y304593D02*
X81572D01*
X79799Y304978D02*
X81957D01*
X80030Y305210D02*
X82188D01*
X80107Y305287D02*
X82265D01*
X86118Y310450D02*
X88970D01*
X86581Y310758D02*
X89355D01*
X86504Y310681D02*
X89278D01*
X85502Y309988D02*
X88122D01*
X85810Y310219D02*
X88507D01*
X85733Y310142D02*
X88507D01*
X85887Y310296D02*
X88661D01*
X86812Y310912D02*
X89586D01*
X86735Y310835D02*
X89586D01*
X86273Y310527D02*
X88970D01*
X85579Y310065D02*
X88276D01*
X86041Y310373D02*
X88739D01*
X86966Y310989D02*
X89818D01*
X86349Y310604D02*
X89124D01*
X81186Y306366D02*
X83421D01*
X81109Y306289D02*
X83344D01*
X80878Y306057D02*
X83113D01*
X80801Y305980D02*
X83036D01*
X80955Y306134D02*
X83267D01*
X81032Y306211D02*
X83267D01*
X82805Y307830D02*
X85194D01*
X82342Y307445D02*
X84654D01*
X83190Y308138D02*
X85502D01*
X82419Y307522D02*
X84808D01*
X82496Y307599D02*
X84885D01*
X82959Y307984D02*
X85348D01*
X82882Y307907D02*
X85271D01*
X82650Y307676D02*
X85039D01*
X82727Y307753D02*
X85116D01*
X83036Y308061D02*
X85425D01*
X83729Y308600D02*
X86118D01*
X83267Y308215D02*
X85733D01*
X83960Y308832D02*
X86504D01*
X83421Y308369D02*
X85810D01*
X83652Y308523D02*
X86041D01*
X83498Y308446D02*
X86041D01*
X84577Y309294D02*
X87043D01*
X84115Y308909D02*
X86658D01*
X84192Y308986D02*
X86735D01*
X84269Y309063D02*
X86812D01*
X84500Y309217D02*
X87043D01*
X84346Y309140D02*
X86966D01*
X83806Y308678D02*
X86349D01*
X83344Y308292D02*
X85810D01*
X83884Y308755D02*
X86349D01*
X80647Y305826D02*
X82805D01*
X80415Y305595D02*
X82573D01*
X80570Y305749D02*
X82727D01*
X80724Y305903D02*
X82882D01*
X80338Y305518D02*
X82496D01*
X80493Y305672D02*
X82650D01*
X80261Y305441D02*
X82419D01*
X87043Y311067D02*
X89895D01*
X87737Y311529D02*
X90665D01*
X87197Y311144D02*
X90049D01*
X87660Y311452D02*
X90588D01*
X87274Y311221D02*
X90126D01*
X87506Y311375D02*
X90434D01*
X87428Y311298D02*
X90357D01*
X88276Y269528D02*
X90819D01*
X88199Y269605D02*
X91128D01*
X88276Y269451D02*
X90511D01*
X88507Y269374D02*
X90357D01*
X88970Y269297D02*
X90126D01*
X89047Y269220D02*
X89818D01*
X86966Y270222D02*
X91821D01*
X87968Y269683D02*
X91359D01*
X87043Y270145D02*
X91744D01*
X87814Y269837D02*
X91513D01*
X86581Y270376D02*
X91898D01*
X87274Y270068D02*
X91744D01*
X87583Y269914D02*
X91667D01*
X86658Y270299D02*
X91898D01*
X87891Y269759D02*
X91513D01*
X87583Y269991D02*
X91667D01*
X86504Y270453D02*
X92129D01*
X69780Y265983D02*
X71322D01*
X69858Y265906D02*
X71399D01*
X69858Y265675D02*
X71399D01*
X69935Y265598D02*
X71476D01*
X69703Y266369D02*
X71245D01*
X69703Y266523D02*
X71245D01*
X69703Y266446D02*
X71245D01*
X69703Y266292D02*
X71245D01*
X70089Y264982D02*
X71630D01*
X70166Y264827D02*
X71630D01*
X70089Y265058D02*
X71630D01*
X70166Y264673D02*
X71707D01*
X70243Y264442D02*
X71861D01*
X70243Y264519D02*
X71784D01*
X70012Y265213D02*
X71553D01*
X70166Y264596D02*
X71784D01*
X70166Y264750D02*
X71707D01*
X70012Y265136D02*
X71630D01*
X70089Y264904D02*
X71630D01*
X70243Y264365D02*
X71784D01*
X69858Y265829D02*
X71399D01*
X69780Y266060D02*
X71322D01*
X69780Y266137D02*
X71322D01*
X69858Y265752D02*
X71399D01*
X70012Y265290D02*
X71553D01*
X70012Y265367D02*
X71553D01*
X69935Y265444D02*
X71553D01*
X69935Y265521D02*
X71476D01*
X69780Y266214D02*
X71322D01*
X70474Y263748D02*
X72092D01*
X70397Y263980D02*
X71938D01*
X70320Y264134D02*
X71938D01*
X70474Y263594D02*
X72092D01*
X70474Y263671D02*
X72092D01*
X70397Y264057D02*
X71938D01*
X70320Y264211D02*
X71861D01*
X70397Y263825D02*
X72015D01*
X70397Y263903D02*
X71938D01*
X70320Y264288D02*
X71861D01*
X70782Y262824D02*
X72324D01*
X70705Y262901D02*
X72324D01*
X70551Y263363D02*
X72170D01*
X70705Y262978D02*
X72324D01*
X70551Y263517D02*
X72092D01*
X70628Y263132D02*
X72247D01*
X70551Y263440D02*
X72092D01*
X70628Y263286D02*
X72170D01*
X70628Y263209D02*
X72247D01*
X70705Y263055D02*
X72247D01*
X70782Y262747D02*
X72324D01*
X68547Y274306D02*
X70012D01*
X68547Y274692D02*
X70012D01*
X68547Y274538D02*
X70012D01*
X68547Y274461D02*
X70012D01*
X68547Y274615D02*
X70012D01*
X68547Y274769D02*
X70012D01*
X68547Y274383D02*
X70012D01*
X68547Y274846D02*
X70012D01*
X68547Y278006D02*
X70012D01*
X68547Y278237D02*
X70012D01*
X68547Y278314D02*
X70012D01*
X68547Y278160D02*
X70012D01*
X68547Y278391D02*
X70012D01*
X68547Y278468D02*
X70012D01*
X68547Y278083D02*
X70012D01*
X68547Y274075D02*
X70089D01*
X68547Y273767D02*
X70089D01*
X68547Y273613D02*
X70089D01*
X68547Y273921D02*
X70089D01*
X68547Y273844D02*
X70089D01*
X68547Y274229D02*
X70089D01*
X68547Y273536D02*
X70089D01*
X68547Y273998D02*
X70089D01*
X68547Y274152D02*
X70089D01*
X68547Y273690D02*
X70089D01*
X68625Y272765D02*
X70166D01*
X68625Y273228D02*
X70089D01*
X68625Y272919D02*
X70166D01*
X68625Y272842D02*
X70166D01*
X68625Y273382D02*
X70089D01*
X68625Y273150D02*
X70166D01*
X68625Y273305D02*
X70089D01*
X68625Y273073D02*
X70166D01*
X68625Y273459D02*
X70089D01*
X68625Y272996D02*
X70166D01*
X69164Y268835D02*
X70705D01*
X69164Y268758D02*
X70705D01*
X69241Y268681D02*
X70705D01*
X69241Y268603D02*
X70782D01*
X69626Y266754D02*
X71168D01*
X69626Y266677D02*
X71168D01*
X69626Y266831D02*
X71168D01*
X69549Y266908D02*
X71168D01*
X69549Y267216D02*
X71013D01*
X69472Y267371D02*
X70937D01*
X69549Y267139D02*
X71091D01*
X69472Y267293D02*
X71013D01*
X69549Y267062D02*
X71091D01*
X69626Y266600D02*
X71168D01*
X68470Y275000D02*
X70012D01*
X68470Y275154D02*
X70012D01*
X68470Y276002D02*
X70012D01*
X68470Y275848D02*
X70012D01*
X68470Y275462D02*
X70012D01*
X68470Y275694D02*
X70012D01*
X68470Y276156D02*
X70012D01*
X68470Y275925D02*
X70012D01*
X68470Y275308D02*
X70012D01*
X68470Y275617D02*
X70012D01*
X68470Y275539D02*
X70012D01*
X68470Y275077D02*
X70012D01*
X68470Y274923D02*
X70012D01*
X69395Y267602D02*
X70937D01*
X69395Y267756D02*
X70937D01*
X69472Y267448D02*
X70937D01*
X69395Y267833D02*
X70937D01*
X69472Y267525D02*
X70937D01*
X69395Y267679D02*
X70937D01*
X69395Y267910D02*
X70859D01*
X68933Y270222D02*
X70474D01*
X68933Y270145D02*
X70474D01*
X68933Y270453D02*
X70397D01*
X68933Y270376D02*
X70474D01*
X68933Y270299D02*
X70474D01*
X68933Y270530D02*
X70397D01*
X68933Y270068D02*
X70474D01*
X68470Y275231D02*
X70012D01*
X68470Y275385D02*
X70012D01*
X68470Y276310D02*
X70012D01*
X68470Y276464D02*
X70012D01*
X69087Y269528D02*
X70551D01*
X69087Y269143D02*
X70628D01*
X69087Y269374D02*
X70551D01*
X69010Y269759D02*
X70551D01*
X69087Y269220D02*
X70628D01*
X69164Y268912D02*
X70628D01*
X69087Y269451D02*
X70551D01*
X69010Y269683D02*
X70551D01*
X69164Y268989D02*
X70628D01*
X69010Y269837D02*
X70551D01*
X69010Y269605D02*
X70551D01*
X69087Y269297D02*
X70628D01*
X69010Y269914D02*
X70551D01*
X68470Y276927D02*
X70012D01*
X68470Y276695D02*
X70012D01*
X68470Y276850D02*
X70012D01*
X68470Y276387D02*
X70012D01*
X68470Y276772D02*
X70012D01*
X68470Y276233D02*
X70012D01*
X68470Y275771D02*
X70012D01*
X68470Y276079D02*
X70012D01*
X68470Y276541D02*
X70012D01*
X68470Y276618D02*
X70012D01*
X69318Y267987D02*
X70859D01*
X69318Y268064D02*
X70859D01*
X69318Y268141D02*
X70859D01*
X69241Y268527D02*
X70782D01*
X69241Y268449D02*
X70782D01*
X69318Y268295D02*
X70859D01*
X69549Y266985D02*
X71091D01*
X69318Y268218D02*
X70859D01*
X69241Y268372D02*
X70782D01*
X68856Y270761D02*
X70397D01*
X69010Y269991D02*
X70474D01*
X69164Y269066D02*
X70628D01*
X68856Y270684D02*
X70397D01*
X68856Y270607D02*
X70397D01*
X68856Y270838D02*
X70397D01*
X68702Y272380D02*
X70243D01*
X68625Y272688D02*
X70166D01*
X68702Y271840D02*
X70243D01*
X68702Y272072D02*
X70243D01*
X68779Y271532D02*
X70243D01*
X68779Y271686D02*
X70243D01*
X68702Y271994D02*
X70243D01*
X68702Y272534D02*
X70166D01*
X68702Y272226D02*
X70243D01*
X68702Y271917D02*
X70243D01*
X68702Y272303D02*
X70243D01*
X68702Y272148D02*
X70243D01*
X68779Y271763D02*
X70243D01*
X68779Y271609D02*
X70243D01*
X68702Y272457D02*
X70166D01*
X68625Y272611D02*
X70166D01*
X68779Y271224D02*
X70243D01*
X68779Y271378D02*
X70243D01*
X68856Y270993D02*
X70397D01*
X68779Y271301D02*
X70243D01*
X68856Y271147D02*
X70397D01*
X68856Y270916D02*
X70397D01*
X68856Y271070D02*
X70397D01*
X68779Y271455D02*
X70243D01*
X68547Y278545D02*
X70012D01*
X68470Y277851D02*
X70012D01*
X68470Y277004D02*
X70012D01*
X68470Y277312D02*
X70012D01*
X68547Y278622D02*
X70089D01*
X68470Y277620D02*
X70012D01*
X68470Y277081D02*
X70012D01*
X68470Y277928D02*
X70012D01*
X68470Y277389D02*
X70012D01*
X68470Y277466D02*
X70012D01*
X68470Y277543D02*
X70012D01*
X68470Y277235D02*
X70012D01*
X68470Y277158D02*
X70012D01*
X68470Y277697D02*
X70012D01*
X68470Y277774D02*
X70012D01*
X75946Y252651D02*
X77795D01*
X76177Y252343D02*
X77949D01*
X75714Y252959D02*
X77564D01*
X76331Y252112D02*
X77949D01*
X76254Y252189D02*
X78181D01*
X76100Y252420D02*
X77949D01*
X75792Y252882D02*
X77641D01*
X75869Y252728D02*
X77718D01*
X76023Y252497D02*
X77872D01*
X75869Y252805D02*
X77641D01*
X76023Y252574D02*
X77795D01*
X76177Y252266D02*
X78104D01*
X76408Y251957D02*
X78335D01*
X76408Y252034D02*
X78258D01*
X76562Y251803D02*
X78412D01*
X76871Y251418D02*
X78720D01*
X76639Y251726D02*
X78489D01*
X76716Y251572D02*
X78566D01*
X76871Y251341D02*
X78797D01*
X76793Y251495D02*
X78643D01*
X77102Y251033D02*
X79028D01*
X77025Y251187D02*
X78874D01*
X77102Y251110D02*
X78951D01*
X76948Y251264D02*
X78874D01*
X76639Y251649D02*
X78566D01*
X76485Y251880D02*
X78335D01*
X77410Y250647D02*
X79337D01*
X77179Y250956D02*
X79105D01*
X77333Y250801D02*
X79260D01*
X77333Y250724D02*
X79260D01*
X77256Y250879D02*
X79182D01*
X77487Y250570D02*
X79337D01*
X79568Y248181D02*
X81572D01*
X79645Y248104D02*
X81649D01*
X80107Y247565D02*
X82188D01*
X80261Y247411D02*
X82342D01*
X79722Y247950D02*
X81803D01*
X79953Y247719D02*
X82034D01*
X79876Y247796D02*
X81957D01*
X79799Y247873D02*
X81880D01*
X80184Y247488D02*
X82265D01*
X80030Y247642D02*
X82111D01*
X79645Y248027D02*
X81726D01*
X78951Y248798D02*
X80955D01*
X78874Y248875D02*
X80878D01*
X79105Y248644D02*
X81109D01*
X79260Y248489D02*
X81340D01*
X79337Y248412D02*
X81340D01*
X79028Y248721D02*
X81032D01*
X79414Y248335D02*
X81417D01*
X79182Y248567D02*
X81186D01*
X79491Y248258D02*
X81494D01*
X80878Y246794D02*
X83036D01*
X80647Y247025D02*
X82805D01*
X80415Y247256D02*
X82496D01*
X80801Y246871D02*
X82959D01*
X80338Y247334D02*
X82419D01*
X80724Y246948D02*
X82882D01*
X80493Y247179D02*
X82650D01*
X80570Y247102D02*
X82727D01*
X80955Y246717D02*
X83113D01*
X74944Y254192D02*
X76716D01*
X74867Y254269D02*
X76639D01*
X75252Y253730D02*
X77025D01*
X99605Y255040D02*
X100530D01*
X77872Y250108D02*
X79799D01*
X77718Y250262D02*
X79645D01*
X77564Y250493D02*
X79491D01*
X77641Y250416D02*
X79568D01*
X77795Y250185D02*
X79799D01*
X78026Y252112D02*
X78181D01*
X77641Y250339D02*
X79568D01*
X75560Y253190D02*
X77410D01*
X75406Y253422D02*
X77179D01*
X75098Y253884D02*
X76948D01*
X75021Y254038D02*
X76793D01*
X75483Y253345D02*
X77333D01*
X75406Y253499D02*
X77179D01*
X75638Y253113D02*
X77487D01*
X75252Y253653D02*
X77025D01*
X75329Y253576D02*
X77102D01*
X75175Y253807D02*
X76948D01*
X75560Y253268D02*
X77333D01*
X75098Y253961D02*
X76793D01*
X74944Y254115D02*
X76793D01*
X75714Y253036D02*
X77487D01*
X78874Y248952D02*
X80878D01*
X77949Y250031D02*
X79876D01*
X78720Y249106D02*
X80724D01*
X78026Y249877D02*
X80107D01*
X78181Y249723D02*
X80107D01*
X78797Y249029D02*
X80801D01*
X78643Y249183D02*
X80647D01*
X78412Y249414D02*
X80415D01*
X78335Y249568D02*
X80261D01*
X78566Y249260D02*
X80570D01*
X78489Y249337D02*
X80493D01*
X78258Y249645D02*
X80184D01*
X78412Y249491D02*
X80338D01*
X78104Y249800D02*
X80107D01*
X78026Y249954D02*
X79953D01*
X83344Y244559D02*
X85733D01*
X82959Y244867D02*
X85348D01*
X83267Y244636D02*
X85656D01*
X83498Y244405D02*
X85964D01*
X83421Y244482D02*
X85887D01*
X83190Y244713D02*
X85502D01*
X83036Y244790D02*
X85348D01*
X83652Y244328D02*
X86041D01*
X103227Y235388D02*
X116945D01*
X105462Y235080D02*
X114710D01*
X107157Y234926D02*
X113014D01*
X104845Y235157D02*
X115326D01*
X103689Y235311D02*
X116482D01*
X104229Y235234D02*
X115943D01*
X102764Y235465D02*
X117407D01*
X106232Y235003D02*
X113939D01*
X108544Y234849D02*
X111627D01*
X87197Y241708D02*
X89972D01*
X86118Y242401D02*
X88816D01*
X87428Y241554D02*
X90280D01*
X86273Y242324D02*
X88893D01*
X86349Y242247D02*
X89047D01*
X86735Y242016D02*
X89509D01*
X87043Y241785D02*
X89818D01*
X86504Y242170D02*
X89201D01*
X86581Y242093D02*
X89278D01*
X86966Y241862D02*
X89740D01*
X86812Y241939D02*
X89586D01*
X87274Y241631D02*
X90049D01*
X97216Y236853D02*
X103458D01*
X97447Y236775D02*
X103612D01*
X99065Y236313D02*
X108776D01*
X97986Y236621D02*
X104768D01*
X97755Y236699D02*
X104537D01*
X98526Y236467D02*
X106541D01*
X98757Y236390D02*
X107311D01*
X96522Y237084D02*
X102148D01*
X96985Y236930D02*
X102919D01*
X98218Y236544D02*
X105616D01*
X96368Y237161D02*
X101917D01*
X86041Y242478D02*
X88661D01*
X85502Y242864D02*
X88045D01*
X85887Y242555D02*
X88661D01*
X85425Y242941D02*
X87968D01*
X85271Y243018D02*
X87891D01*
X85733Y242710D02*
X88353D01*
X85810Y242633D02*
X88430D01*
X85579Y242787D02*
X88276D01*
X85194Y243095D02*
X87737D01*
X90819Y239550D02*
X94210D01*
X93054Y238471D02*
X96985D01*
X95675Y237392D02*
X100761D01*
X96137Y237238D02*
X101454D01*
X93208Y238394D02*
X97216D01*
X90665Y239627D02*
X94133D01*
X95906Y237315D02*
X100992D01*
X95443Y237469D02*
X100530D01*
X90974Y239473D02*
X94364D01*
X90511Y239704D02*
X93825D01*
X91898Y239010D02*
X95520D01*
X92361Y238779D02*
X96214D01*
X96753Y237007D02*
X102379D01*
X91744Y239088D02*
X95443D01*
X91436Y239242D02*
X95058D01*
X91590Y239165D02*
X95135D01*
X92515Y238702D02*
X96368D01*
X92207Y238856D02*
X95983D01*
X92052Y238933D02*
X95829D01*
X92669Y238625D02*
X96599D01*
X92900Y238548D02*
X96830D01*
X91282Y239319D02*
X94827D01*
X91128Y239396D02*
X94596D01*
X82496Y245253D02*
X84808D01*
X82265Y245484D02*
X84500D01*
X82188Y245561D02*
X84500D01*
X82882Y244945D02*
X85194D01*
X82650Y245176D02*
X84962D01*
X82805Y245022D02*
X85116D01*
X82727Y245099D02*
X85039D01*
X82419Y245330D02*
X84731D01*
X82342Y245407D02*
X84654D01*
X82111Y245638D02*
X84346D01*
X94287Y237931D02*
X98680D01*
X94133Y238009D02*
X98449D01*
X93362Y238317D02*
X97447D01*
X93594Y238240D02*
X97755D01*
X95058Y237623D02*
X99759D01*
X94519Y237855D02*
X99065D01*
X93902Y238086D02*
X98218D01*
X93748Y238163D02*
X98063D01*
X94904Y237700D02*
X99605D01*
X94673Y237777D02*
X99220D01*
X95289Y237546D02*
X100221D01*
X88507Y240860D02*
X91513D01*
X87968Y241168D02*
X90974D01*
X88893Y240629D02*
X91975D01*
X88353Y240937D02*
X91359D01*
X87737Y241322D02*
X90665D01*
X88739Y240706D02*
X91821D01*
X88122Y241091D02*
X91050D01*
X88661Y240783D02*
X91590D01*
X88276Y241014D02*
X91205D01*
X87891Y241245D02*
X90742D01*
X87660Y241400D02*
X90434D01*
X87506Y241476D02*
X90357D01*
X104460Y250570D02*
X111935D01*
X104614Y250185D02*
X111242D01*
X104460Y250416D02*
X111627D01*
X104537Y250262D02*
X111396D01*
X104460Y250493D02*
X111781D01*
X104537Y250339D02*
X111473D01*
X104383Y250647D02*
X112167D01*
X104306Y250724D02*
X112629D01*
X81032Y246640D02*
X83190D01*
X81263Y246409D02*
X83575D01*
X82034Y245715D02*
X84192D01*
X81109Y246563D02*
X83267D01*
X81186Y246486D02*
X83344D01*
X81803Y245946D02*
X84038D01*
X81957Y245792D02*
X84192D01*
X81572Y246100D02*
X83884D01*
X81880Y245869D02*
X84115D01*
X81649Y246023D02*
X83884D01*
X81494Y246178D02*
X83729D01*
X81417Y246255D02*
X83652D01*
X81340Y246332D02*
X83575D01*
X84808Y243403D02*
X87351D01*
X84115Y243943D02*
X86581D01*
X84500Y243634D02*
X87043D01*
X85116Y243172D02*
X87660D01*
X84192Y243866D02*
X86658D01*
X83884Y244097D02*
X86349D01*
X84269Y243789D02*
X86735D01*
X83729Y244251D02*
X86118D01*
X84577Y243557D02*
X87043D01*
X84654Y243480D02*
X87197D01*
X84885Y243326D02*
X87428D01*
X84346Y243711D02*
X86812D01*
X83806Y244174D02*
X86195D01*
X83960Y244020D02*
X86427D01*
X84962Y243249D02*
X87506D01*
X104845Y249800D02*
X110394D01*
X105693Y249106D02*
X108544D01*
X104768Y250031D02*
X111011D01*
X106695Y248952D02*
X107003D01*
X104845Y249877D02*
X110625D01*
X104999Y249568D02*
X109623D01*
X105154Y249414D02*
X109315D01*
X104691Y250108D02*
X111088D01*
X104922Y249645D02*
X109777D01*
X105539Y249183D02*
X108776D01*
X105308Y249337D02*
X109161D01*
X104768Y249954D02*
X110779D01*
X104845Y249723D02*
X110086D01*
X105462Y249260D02*
X108930D01*
X104999Y249491D02*
X109469D01*
X105847Y249029D02*
X108159D01*
X89972Y240012D02*
X93208D01*
X89663Y240166D02*
X92900D01*
X90357Y239781D02*
X93748D01*
X90126Y239935D02*
X93440D01*
X89818Y240089D02*
X92977D01*
X89432Y240320D02*
X92592D01*
X89278Y240398D02*
X92361D01*
X89047Y240552D02*
X92129D01*
X89124Y240475D02*
X92284D01*
X89586Y240244D02*
X92669D01*
X90280Y239858D02*
X93594D01*
X73634Y256427D02*
X75329D01*
X73480Y256658D02*
X75098D01*
X73326Y256967D02*
X75021D01*
X73557Y256581D02*
X75252D01*
X73788Y256119D02*
X75483D01*
X73711Y256196D02*
X75406D01*
X73326Y256890D02*
X75098D01*
X73711Y256273D02*
X75406D01*
X73634Y256350D02*
X75406D01*
X73403Y256813D02*
X75098D01*
X73403Y256735D02*
X75098D01*
X73557Y256504D02*
X75252D01*
X73788Y256042D02*
X75483D01*
X74559Y254732D02*
X76331D01*
X74790Y254423D02*
X76485D01*
X74559Y254809D02*
X76254D01*
X74713Y254578D02*
X76408D01*
X74481Y254963D02*
X76177D01*
X74404Y255040D02*
X76100D01*
X74636Y254655D02*
X76408D01*
X74481Y254886D02*
X76254D01*
X74713Y254501D02*
X76485D01*
X74790Y254346D02*
X76562D01*
X72940Y257660D02*
X74636D01*
X72863Y257892D02*
X74559D01*
X72940Y257737D02*
X74636D01*
X73017Y257583D02*
X74713D01*
X72786Y257968D02*
X74404D01*
X72786Y258046D02*
X74404D01*
X72709Y258123D02*
X74404D01*
X72863Y257814D02*
X74559D01*
X73017Y257506D02*
X74713D01*
X71707Y260435D02*
X73326D01*
X71630Y260589D02*
X73248D01*
X71630Y260512D02*
X73248D01*
X71707Y260357D02*
X73326D01*
X71707Y260280D02*
X73326D01*
X71784Y260203D02*
X73403D01*
X73248Y257121D02*
X74944D01*
X73248Y257044D02*
X74944D01*
X73171Y257198D02*
X74867D01*
X73171Y257275D02*
X74867D01*
X73094Y257352D02*
X74790D01*
X73094Y257429D02*
X74713D01*
X70937Y262361D02*
X72478D01*
X70937Y262284D02*
X72555D01*
X71013Y262207D02*
X72632D01*
X70937Y262438D02*
X72478D01*
X70859Y262669D02*
X72401D01*
X70859Y262592D02*
X72401D01*
X70859Y262515D02*
X72478D01*
X71476Y260897D02*
X73094D01*
X71399Y261051D02*
X73017D01*
X71476Y260974D02*
X73017D01*
X71399Y261205D02*
X72940D01*
X71553Y260743D02*
X73171D01*
X71553Y260666D02*
X73248D01*
X71553Y260820D02*
X73094D01*
X71399Y261128D02*
X73017D01*
X71322Y261282D02*
X72940D01*
X71938Y259741D02*
X73557D01*
X71861Y259972D02*
X73480D01*
X71938Y259818D02*
X73557D01*
X71938Y259895D02*
X73557D01*
X71861Y260049D02*
X73480D01*
X71784Y260126D02*
X73480D01*
X72555Y258431D02*
X74250D01*
X72478Y258662D02*
X74096D01*
X72709Y258200D02*
X74327D01*
X72632Y258277D02*
X74327D01*
X72632Y258354D02*
X74250D01*
X72555Y258508D02*
X74173D01*
X72401Y258739D02*
X74019D01*
X72478Y258585D02*
X74096D01*
X72401Y258816D02*
X74019D01*
X72092Y259510D02*
X73711D01*
X72247Y259202D02*
X73865D01*
X72170Y259356D02*
X73788D01*
X72015Y259664D02*
X73634D01*
X72170Y259279D02*
X73788D01*
X72015Y259587D02*
X73711D01*
X72092Y259433D02*
X73711D01*
X72324Y258970D02*
X73942D01*
X72247Y259124D02*
X73942D01*
X72247Y259047D02*
X73942D01*
X72324Y258893D02*
X74019D01*
X71245Y261437D02*
X72940D01*
X71245Y261513D02*
X72863D01*
X71091Y261899D02*
X72709D01*
X71091Y261822D02*
X72709D01*
X71245Y261591D02*
X72786D01*
X71013Y262130D02*
X72632D01*
X71091Y261976D02*
X72632D01*
X71168Y261668D02*
X72786D01*
X71168Y261745D02*
X72786D01*
X71013Y262053D02*
X72632D01*
X71322Y261359D02*
X72940D01*
X73865Y255965D02*
X75560D01*
X74019Y255734D02*
X75714D01*
X74327Y255117D02*
X76100D01*
X74173Y255425D02*
X75946D01*
X74327Y255194D02*
X76023D01*
X74250Y255348D02*
X75946D01*
X74096Y255502D02*
X75869D01*
X74250Y255271D02*
X76023D01*
X74096Y255579D02*
X75792D01*
X73942Y255811D02*
X75638D01*
X74019Y255657D02*
X75792D01*
X73942Y255888D02*
X75638D01*
X68547Y279316D02*
X70089D01*
X68547Y278930D02*
X70089D01*
X68547Y279162D02*
X70089D01*
X68547Y279084D02*
X70089D01*
X68547Y279007D02*
X70089D01*
X68547Y279239D02*
X70089D01*
X68625Y279393D02*
X70089D01*
X68547Y278699D02*
X70089D01*
X68625Y279470D02*
X70089D01*
X68547Y278853D02*
X70089D01*
X68547Y278776D02*
X70089D01*
X69241Y284171D02*
X70782D01*
X69241Y284248D02*
X70782D01*
X69164Y283940D02*
X70705D01*
X69241Y284325D02*
X70782D01*
X69164Y283862D02*
X70705D01*
X69164Y283785D02*
X70705D01*
X69241Y284402D02*
X70782D01*
X69164Y284017D02*
X70705D01*
X69241Y284479D02*
X70782D01*
X69164Y284094D02*
X70705D01*
X69087Y283708D02*
X70628D01*
X68856Y282167D02*
X70397D01*
X68856Y281859D02*
X70397D01*
X68856Y282013D02*
X70397D01*
X68779Y281628D02*
X70320D01*
X68856Y281782D02*
X70397D01*
X68856Y281705D02*
X70397D01*
X68856Y281936D02*
X70397D01*
X68856Y282090D02*
X70397D01*
X82496Y282398D02*
X82573D01*
X68779Y281088D02*
X70243D01*
X68702Y281011D02*
X70243D01*
X68702Y280857D02*
X70243D01*
X68702Y280626D02*
X70243D01*
X68702Y280780D02*
X70243D01*
X68702Y280703D02*
X70243D01*
X68702Y280934D02*
X70243D01*
X68702Y280549D02*
X70243D01*
X69010Y283169D02*
X70551D01*
X69087Y283631D02*
X70628D01*
X69087Y283554D02*
X70628D01*
X69087Y283323D02*
X70551D01*
X69087Y283477D02*
X70551D01*
X69087Y283400D02*
X70551D01*
X68625Y279932D02*
X70166D01*
X68625Y279624D02*
X70089D01*
X68625Y279547D02*
X70089D01*
X68625Y279778D02*
X70166D01*
X68625Y279701D02*
X70166D01*
X68625Y279855D02*
X70166D01*
X68779Y281165D02*
X70243D01*
X68779Y281396D02*
X70243D01*
X68779Y281551D02*
X70320D01*
X68779Y281473D02*
X70243D01*
X68779Y281242D02*
X70243D01*
X68779Y281319D02*
X70243D01*
X69010Y283015D02*
X70551D01*
X68933Y282321D02*
X70397D01*
X68933Y282475D02*
X70474D01*
X68933Y282706D02*
X70474D01*
X68856Y282244D02*
X70397D01*
X68933Y282552D02*
X70474D01*
X68933Y282398D02*
X70397D01*
X68933Y282784D02*
X70474D01*
X69010Y283092D02*
X70551D01*
X69010Y282861D02*
X70474D01*
X68933Y282629D02*
X70474D01*
X69010Y282938D02*
X70551D01*
X69010Y283246D02*
X70551D01*
X68625Y280163D02*
X70166D01*
X68702Y280395D02*
X70166D01*
X68625Y280240D02*
X70166D01*
X68702Y280472D02*
X70243D01*
X68625Y280086D02*
X70166D01*
X68702Y280317D02*
X70166D01*
X68625Y280009D02*
X70166D01*
X70012Y287485D02*
X71553D01*
X70012Y287639D02*
X71553D01*
X69935Y287253D02*
X71476D01*
X69935Y287407D02*
X71553D01*
X69858Y287099D02*
X71399D01*
X70012Y287562D02*
X71553D01*
X69858Y287176D02*
X71399D01*
X69935Y287330D02*
X71553D01*
X70012Y287716D02*
X71630D01*
X70089Y287793D02*
X71630D01*
X69395Y285173D02*
X70937D01*
X69318Y284710D02*
X70859D01*
X69395Y285018D02*
X70937D01*
X69395Y285250D02*
X70937D01*
X69318Y284787D02*
X70859D01*
X69472Y285481D02*
X71013D01*
X69472Y285327D02*
X70937D01*
X69472Y285558D02*
X71013D01*
X69318Y284633D02*
X70859D01*
X69318Y284556D02*
X70859D01*
X69858Y287022D02*
X71399D01*
X69780Y286791D02*
X71322D01*
X69626Y286251D02*
X71245D01*
X69858Y286945D02*
X71399D01*
X69703Y286406D02*
X71245D01*
X69703Y286560D02*
X71245D01*
X69703Y286329D02*
X71245D01*
X69780Y286714D02*
X71322D01*
X69780Y286868D02*
X71399D01*
X69626Y286174D02*
X71245D01*
X69780Y286637D02*
X71322D01*
X69703Y286483D02*
X71245D01*
X69549Y285943D02*
X71168D01*
X69626Y286097D02*
X71168D01*
X69395Y285096D02*
X70937D01*
X69472Y285404D02*
X70937D01*
X69549Y285789D02*
X71091D01*
X69395Y284941D02*
X70937D01*
X69318Y284864D02*
X70859D01*
X69549Y285635D02*
X71013D01*
X69549Y285866D02*
X71091D01*
X69549Y285712D02*
X71091D01*
X69626Y286020D02*
X71168D01*
X70166Y288255D02*
X71784D01*
X70320Y288563D02*
X71861D01*
X70320Y288718D02*
X71938D01*
X70397Y288795D02*
X71938D01*
X70320Y288640D02*
X71938D01*
X70089Y287947D02*
X71630D01*
X70166Y288178D02*
X71707D01*
X70166Y288101D02*
X71707D01*
X70089Y287870D02*
X71630D01*
X70243Y288332D02*
X71784D01*
X70243Y288409D02*
X71861D01*
X70166Y288024D02*
X71630D01*
X70243Y288486D02*
X71861D01*
X70397Y289026D02*
X72015D01*
X70474Y289257D02*
X72092D01*
X70474Y289180D02*
X72092D01*
X70397Y288949D02*
X72015D01*
X70551Y289334D02*
X72092D01*
X70551Y289488D02*
X72170D01*
X70551Y289411D02*
X72170D01*
X70474Y289103D02*
X72092D01*
X70397Y288872D02*
X71938D01*
X70782Y290028D02*
X72324D01*
X70705Y289951D02*
X72324D01*
X70628Y289720D02*
X72247D01*
X70628Y289565D02*
X72247D01*
X70628Y289642D02*
X72247D01*
X70859Y290182D02*
X72401D01*
X70705Y289874D02*
X72324D01*
X70782Y290105D02*
X72324D01*
X70705Y289796D02*
X72247D01*
X70859Y290259D02*
X72478D01*
X101994Y235620D02*
X118177D01*
X102379Y235542D02*
X117792D01*
X99296Y236236D02*
X120875D01*
X111704Y240320D02*
X130739D01*
X110548Y237546D02*
X124882D01*
X111165Y239165D02*
X128581D01*
X108544Y318003D02*
X111627D01*
X148233Y263980D02*
X149774D01*
X148233D02*
X149774D01*
X108544Y318003D02*
X111627D01*
X111165Y239165D02*
X128581D01*
X110548Y237546D02*
X124882D01*
X111704Y240320D02*
X130739D01*
X99296Y236236D02*
X120875D01*
X102379Y235542D02*
X117792D01*
X101994Y235620D02*
X118177D01*
X70859Y290259D02*
X72478D01*
X70705Y289796D02*
X72247D01*
X70782Y290105D02*
X72324D01*
X70705Y289874D02*
X72324D01*
X70859Y290182D02*
X72401D01*
X70628Y289642D02*
X72247D01*
X70628Y289565D02*
X72247D01*
X70628Y289720D02*
X72247D01*
X70705Y289951D02*
X72324D01*
X70782Y290028D02*
X72324D01*
X70397Y288872D02*
X71938D01*
X70474Y289103D02*
X72092D01*
X70551Y289411D02*
X72170D01*
X70551Y289488D02*
X72170D01*
X70551Y289334D02*
X72092D01*
X70397Y288949D02*
X72015D01*
X70474Y289180D02*
X72092D01*
X70474Y289257D02*
X72092D01*
X70397Y289026D02*
X72015D01*
X70243Y288486D02*
X71861D01*
X70166Y288024D02*
X71630D01*
X70243Y288409D02*
X71861D01*
X70243Y288332D02*
X71784D01*
X70089Y287870D02*
X71630D01*
X70166Y288101D02*
X71707D01*
X70166Y288178D02*
X71707D01*
X70089Y287947D02*
X71630D01*
X70320Y288640D02*
X71938D01*
X70397Y288795D02*
X71938D01*
X70320Y288718D02*
X71938D01*
X70320Y288563D02*
X71861D01*
X70166Y288255D02*
X71784D01*
X69626Y286020D02*
X71168D01*
X69549Y285712D02*
X71091D01*
X69549Y285866D02*
X71091D01*
X69549Y285635D02*
X71013D01*
X69318Y284864D02*
X70859D01*
X69395Y284941D02*
X70937D01*
X69549Y285789D02*
X71091D01*
X69472Y285404D02*
X70937D01*
X69395Y285096D02*
X70937D01*
X69626Y286097D02*
X71168D01*
X69549Y285943D02*
X71168D01*
X69703Y286483D02*
X71245D01*
X69780Y286637D02*
X71322D01*
X69626Y286174D02*
X71245D01*
X69780Y286868D02*
X71399D01*
X69780Y286714D02*
X71322D01*
X69703Y286329D02*
X71245D01*
X69703Y286560D02*
X71245D01*
X69703Y286406D02*
X71245D01*
X69858Y286945D02*
X71399D01*
X69626Y286251D02*
X71245D01*
X69780Y286791D02*
X71322D01*
X69858Y287022D02*
X71399D01*
X69318Y284556D02*
X70859D01*
X69318Y284633D02*
X70859D01*
X69472Y285558D02*
X71013D01*
X69472Y285327D02*
X70937D01*
X69472Y285481D02*
X71013D01*
X69318Y284787D02*
X70859D01*
X69395Y285250D02*
X70937D01*
X69395Y285018D02*
X70937D01*
X69318Y284710D02*
X70859D01*
X69395Y285173D02*
X70937D01*
X70089Y287793D02*
X71630D01*
X70012Y287716D02*
X71630D01*
X69935Y287330D02*
X71553D01*
X69858Y287176D02*
X71399D01*
X70012Y287562D02*
X71553D01*
X69858Y287099D02*
X71399D01*
X69935Y287407D02*
X71553D01*
X69935Y287253D02*
X71476D01*
X70012Y287639D02*
X71553D01*
X70012Y287485D02*
X71553D01*
X68625Y280009D02*
X70166D01*
X68702Y280317D02*
X70166D01*
X68625Y280086D02*
X70166D01*
X68702Y280472D02*
X70243D01*
X68625Y280240D02*
X70166D01*
X68702Y280395D02*
X70166D01*
X68625Y280163D02*
X70166D01*
X69010Y283246D02*
X70551D01*
X69010Y282938D02*
X70551D01*
X68933Y282629D02*
X70474D01*
X69010Y282861D02*
X70474D01*
X69010Y283092D02*
X70551D01*
X68933Y282784D02*
X70474D01*
X68933Y282398D02*
X70397D01*
X68933Y282552D02*
X70474D01*
X68856Y282244D02*
X70397D01*
X68933Y282706D02*
X70474D01*
X68933Y282475D02*
X70474D01*
X68933Y282321D02*
X70397D01*
X69010Y283015D02*
X70551D01*
X68779Y281319D02*
X70243D01*
X68779Y281242D02*
X70243D01*
X68779Y281473D02*
X70243D01*
X68779Y281551D02*
X70320D01*
X68779Y281396D02*
X70243D01*
X68779Y281165D02*
X70243D01*
X68625Y279855D02*
X70166D01*
X68625Y279701D02*
X70166D01*
X68625Y279778D02*
X70166D01*
X68625Y279547D02*
X70089D01*
X68625Y279624D02*
X70089D01*
X68625Y279932D02*
X70166D01*
X69087Y283400D02*
X70551D01*
X69087Y283477D02*
X70551D01*
X69087Y283323D02*
X70551D01*
X69087Y283554D02*
X70628D01*
X69087Y283631D02*
X70628D01*
X69010Y283169D02*
X70551D01*
X68702Y280549D02*
X70243D01*
X68702Y280934D02*
X70243D01*
X68702Y280703D02*
X70243D01*
X68702Y280780D02*
X70243D01*
X68702Y280626D02*
X70243D01*
X68702Y280857D02*
X70243D01*
X68702Y281011D02*
X70243D01*
X68779Y281088D02*
X70243D01*
X82496Y282398D02*
X82573D01*
X68856Y282090D02*
X70397D01*
X68856Y281936D02*
X70397D01*
X68856Y281705D02*
X70397D01*
X68856Y281782D02*
X70397D01*
X68779Y281628D02*
X70320D01*
X68856Y282013D02*
X70397D01*
X68856Y281859D02*
X70397D01*
X68856Y282167D02*
X70397D01*
X69087Y283708D02*
X70628D01*
X69164Y284094D02*
X70705D01*
X69241Y284479D02*
X70782D01*
X69164Y284017D02*
X70705D01*
X69241Y284402D02*
X70782D01*
X69164Y283785D02*
X70705D01*
X69164Y283862D02*
X70705D01*
X69241Y284325D02*
X70782D01*
X69164Y283940D02*
X70705D01*
X69241Y284248D02*
X70782D01*
X69241Y284171D02*
X70782D01*
X68547Y278776D02*
X70089D01*
X68547Y278853D02*
X70089D01*
X68625Y279470D02*
X70089D01*
X68547Y278699D02*
X70089D01*
X68625Y279393D02*
X70089D01*
X68547Y279239D02*
X70089D01*
X68547Y279007D02*
X70089D01*
X68547Y279084D02*
X70089D01*
X68547Y279162D02*
X70089D01*
X68547Y278930D02*
X70089D01*
X68547Y279316D02*
X70089D01*
X73942Y255888D02*
X75638D01*
X74019Y255657D02*
X75792D01*
X73942Y255811D02*
X75638D01*
X74096Y255579D02*
X75792D01*
X74250Y255271D02*
X76023D01*
X74096Y255502D02*
X75869D01*
X74250Y255348D02*
X75946D01*
X74327Y255194D02*
X76023D01*
X74173Y255425D02*
X75946D01*
X74327Y255117D02*
X76100D01*
X74019Y255734D02*
X75714D01*
X73865Y255965D02*
X75560D01*
X71322Y261359D02*
X72940D01*
X71013Y262053D02*
X72632D01*
X71168Y261745D02*
X72786D01*
X71168Y261668D02*
X72786D01*
X71091Y261976D02*
X72632D01*
X71013Y262130D02*
X72632D01*
X71245Y261591D02*
X72786D01*
X71091Y261822D02*
X72709D01*
X71091Y261899D02*
X72709D01*
X71245Y261513D02*
X72863D01*
X71245Y261437D02*
X72940D01*
X72324Y258893D02*
X74019D01*
X72247Y259047D02*
X73942D01*
X72247Y259124D02*
X73942D01*
X72324Y258970D02*
X73942D01*
X72092Y259433D02*
X73711D01*
X72015Y259587D02*
X73711D01*
X72170Y259279D02*
X73788D01*
X72015Y259664D02*
X73634D01*
X72170Y259356D02*
X73788D01*
X72247Y259202D02*
X73865D01*
X72092Y259510D02*
X73711D01*
X72401Y258816D02*
X74019D01*
X72478Y258585D02*
X74096D01*
X72401Y258739D02*
X74019D01*
X72555Y258508D02*
X74173D01*
X72632Y258354D02*
X74250D01*
X72632Y258277D02*
X74327D01*
X72709Y258200D02*
X74327D01*
X72478Y258662D02*
X74096D01*
X72555Y258431D02*
X74250D01*
X71784Y260126D02*
X73480D01*
X71861Y260049D02*
X73480D01*
X71938Y259895D02*
X73557D01*
X71938Y259818D02*
X73557D01*
X71861Y259972D02*
X73480D01*
X71938Y259741D02*
X73557D01*
X71322Y261282D02*
X72940D01*
X71399Y261128D02*
X73017D01*
X71553Y260820D02*
X73094D01*
X71553Y260666D02*
X73248D01*
X71553Y260743D02*
X73171D01*
X71399Y261205D02*
X72940D01*
X71476Y260974D02*
X73017D01*
X71399Y261051D02*
X73017D01*
X71476Y260897D02*
X73094D01*
X70859Y262515D02*
X72478D01*
X70859Y262592D02*
X72401D01*
X70859Y262669D02*
X72401D01*
X70937Y262438D02*
X72478D01*
X71013Y262207D02*
X72632D01*
X70937Y262284D02*
X72555D01*
X70937Y262361D02*
X72478D01*
X73094Y257429D02*
X74713D01*
X73094Y257352D02*
X74790D01*
X73171Y257275D02*
X74867D01*
X73171Y257198D02*
X74867D01*
X73248Y257044D02*
X74944D01*
X73248Y257121D02*
X74944D01*
X71784Y260203D02*
X73403D01*
X71707Y260280D02*
X73326D01*
X71707Y260357D02*
X73326D01*
X71630Y260512D02*
X73248D01*
X71630Y260589D02*
X73248D01*
X71707Y260435D02*
X73326D01*
X73017Y257506D02*
X74713D01*
X72863Y257814D02*
X74559D01*
X72709Y258123D02*
X74404D01*
X72786Y258046D02*
X74404D01*
X72786Y257968D02*
X74404D01*
X73017Y257583D02*
X74713D01*
X72940Y257737D02*
X74636D01*
X72863Y257892D02*
X74559D01*
X72940Y257660D02*
X74636D01*
X74790Y254346D02*
X76562D01*
X74713Y254501D02*
X76485D01*
X74481Y254886D02*
X76254D01*
X74636Y254655D02*
X76408D01*
X74404Y255040D02*
X76100D01*
X74481Y254963D02*
X76177D01*
X74713Y254578D02*
X76408D01*
X74559Y254809D02*
X76254D01*
X74790Y254423D02*
X76485D01*
X74559Y254732D02*
X76331D01*
X73788Y256042D02*
X75483D01*
X73557Y256504D02*
X75252D01*
X73403Y256735D02*
X75098D01*
X73403Y256813D02*
X75098D01*
X73634Y256350D02*
X75406D01*
X73711Y256273D02*
X75406D01*
X73326Y256890D02*
X75098D01*
X73711Y256196D02*
X75406D01*
X73788Y256119D02*
X75483D01*
X73557Y256581D02*
X75252D01*
X73326Y256967D02*
X75021D01*
X73480Y256658D02*
X75098D01*
X73634Y256427D02*
X75329D01*
X90280Y239858D02*
X93594D01*
X89586Y240244D02*
X92669D01*
X89124Y240475D02*
X92284D01*
X89047Y240552D02*
X92129D01*
X89278Y240398D02*
X92361D01*
X89432Y240320D02*
X92592D01*
X89818Y240089D02*
X92977D01*
X90126Y239935D02*
X93440D01*
X90357Y239781D02*
X93748D01*
X89663Y240166D02*
X92900D01*
X89972Y240012D02*
X93208D01*
X105847Y249029D02*
X108159D01*
X104999Y249491D02*
X109469D01*
X105462Y249260D02*
X108930D01*
X104845Y249723D02*
X110086D01*
X104768Y249954D02*
X110779D01*
X105308Y249337D02*
X109161D01*
X105539Y249183D02*
X108776D01*
X104922Y249645D02*
X109777D01*
X104691Y250108D02*
X111088D01*
X105154Y249414D02*
X109315D01*
X104999Y249568D02*
X109623D01*
X104845Y249877D02*
X110625D01*
X106695Y248952D02*
X107003D01*
X104768Y250031D02*
X111011D01*
X105693Y249106D02*
X108544D01*
X104845Y249800D02*
X110394D01*
X84962Y243249D02*
X87506D01*
X83960Y244020D02*
X86427D01*
X83806Y244174D02*
X86195D01*
X84346Y243711D02*
X86812D01*
X84885Y243326D02*
X87428D01*
X84654Y243480D02*
X87197D01*
X84577Y243557D02*
X87043D01*
X83729Y244251D02*
X86118D01*
X84269Y243789D02*
X86735D01*
X83884Y244097D02*
X86349D01*
X84192Y243866D02*
X86658D01*
X85116Y243172D02*
X87660D01*
X84500Y243634D02*
X87043D01*
X84115Y243943D02*
X86581D01*
X84808Y243403D02*
X87351D01*
X81340Y246332D02*
X83575D01*
X81417Y246255D02*
X83652D01*
X81494Y246178D02*
X83729D01*
X81649Y246023D02*
X83884D01*
X81880Y245869D02*
X84115D01*
X81572Y246100D02*
X83884D01*
X81957Y245792D02*
X84192D01*
X81803Y245946D02*
X84038D01*
X81186Y246486D02*
X83344D01*
X81109Y246563D02*
X83267D01*
X82034Y245715D02*
X84192D01*
X81263Y246409D02*
X83575D01*
X81032Y246640D02*
X83190D01*
X104306Y250724D02*
X112629D01*
X104383Y250647D02*
X112167D01*
X104537Y250339D02*
X111473D01*
X104460Y250493D02*
X111781D01*
X104537Y250262D02*
X111396D01*
X104460Y250416D02*
X111627D01*
X104614Y250185D02*
X111242D01*
X104460Y250570D02*
X111935D01*
X87506Y241476D02*
X90357D01*
X87660Y241400D02*
X90434D01*
X87891Y241245D02*
X90742D01*
X88276Y241014D02*
X91205D01*
X88661Y240783D02*
X91590D01*
X88122Y241091D02*
X91050D01*
X88739Y240706D02*
X91821D01*
X87737Y241322D02*
X90665D01*
X88353Y240937D02*
X91359D01*
X88893Y240629D02*
X91975D01*
X87968Y241168D02*
X90974D01*
X88507Y240860D02*
X91513D01*
X95289Y237546D02*
X100221D01*
X94673Y237777D02*
X99220D01*
X94904Y237700D02*
X99605D01*
X93748Y238163D02*
X98063D01*
X93902Y238086D02*
X98218D01*
X94519Y237855D02*
X99065D01*
X95058Y237623D02*
X99759D01*
X93594Y238240D02*
X97755D01*
X93362Y238317D02*
X97447D01*
X94133Y238009D02*
X98449D01*
X94287Y237931D02*
X98680D01*
X82111Y245638D02*
X84346D01*
X82342Y245407D02*
X84654D01*
X82419Y245330D02*
X84731D01*
X82727Y245099D02*
X85039D01*
X82805Y245022D02*
X85116D01*
X82650Y245176D02*
X84962D01*
X82882Y244945D02*
X85194D01*
X82188Y245561D02*
X84500D01*
X82265Y245484D02*
X84500D01*
X82496Y245253D02*
X84808D01*
X91128Y239396D02*
X94596D01*
X91282Y239319D02*
X94827D01*
X92900Y238548D02*
X96830D01*
X92669Y238625D02*
X96599D01*
X92052Y238933D02*
X95829D01*
X92207Y238856D02*
X95983D01*
X92515Y238702D02*
X96368D01*
X91590Y239165D02*
X95135D01*
X91436Y239242D02*
X95058D01*
X91744Y239088D02*
X95443D01*
X96753Y237007D02*
X102379D01*
X92361Y238779D02*
X96214D01*
X91898Y239010D02*
X95520D01*
X90511Y239704D02*
X93825D01*
X90974Y239473D02*
X94364D01*
X95443Y237469D02*
X100530D01*
X95906Y237315D02*
X100992D01*
X90665Y239627D02*
X94133D01*
X93208Y238394D02*
X97216D01*
X96137Y237238D02*
X101454D01*
X95675Y237392D02*
X100761D01*
X93054Y238471D02*
X96985D01*
X90819Y239550D02*
X94210D01*
X85194Y243095D02*
X87737D01*
X85579Y242787D02*
X88276D01*
X85810Y242633D02*
X88430D01*
X85733Y242710D02*
X88353D01*
X85271Y243018D02*
X87891D01*
X85425Y242941D02*
X87968D01*
X85887Y242555D02*
X88661D01*
X85502Y242864D02*
X88045D01*
X86041Y242478D02*
X88661D01*
X96368Y237161D02*
X101917D01*
X98218Y236544D02*
X105616D01*
X96985Y236930D02*
X102919D01*
X96522Y237084D02*
X102148D01*
X98757Y236390D02*
X107311D01*
X98526Y236467D02*
X106541D01*
X97755Y236699D02*
X104537D01*
X97986Y236621D02*
X104768D01*
X99065Y236313D02*
X108776D01*
X97447Y236775D02*
X103612D01*
X97216Y236853D02*
X103458D01*
X87274Y241631D02*
X90049D01*
X86812Y241939D02*
X89586D01*
X86966Y241862D02*
X89740D01*
X86581Y242093D02*
X89278D01*
X86504Y242170D02*
X89201D01*
X87043Y241785D02*
X89818D01*
X86735Y242016D02*
X89509D01*
X86349Y242247D02*
X89047D01*
X86273Y242324D02*
X88893D01*
X87428Y241554D02*
X90280D01*
X86118Y242401D02*
X88816D01*
X87197Y241708D02*
X89972D01*
X108544Y234849D02*
X111627D01*
X106232Y235003D02*
X113939D01*
X102764Y235465D02*
X117407D01*
X104229Y235234D02*
X115943D01*
X103689Y235311D02*
X116482D01*
X104845Y235157D02*
X115326D01*
X107157Y234926D02*
X113014D01*
X105462Y235080D02*
X114710D01*
X103227Y235388D02*
X116945D01*
X83652Y244328D02*
X86041D01*
X83036Y244790D02*
X85348D01*
X83190Y244713D02*
X85502D01*
X83421Y244482D02*
X85887D01*
X83498Y244405D02*
X85964D01*
X83267Y244636D02*
X85656D01*
X82959Y244867D02*
X85348D01*
X83344Y244559D02*
X85733D01*
X78026Y249954D02*
X79953D01*
X78104Y249800D02*
X80107D01*
X78412Y249491D02*
X80338D01*
X78258Y249645D02*
X80184D01*
X78489Y249337D02*
X80493D01*
X78566Y249260D02*
X80570D01*
X78335Y249568D02*
X80261D01*
X78412Y249414D02*
X80415D01*
X78643Y249183D02*
X80647D01*
X78797Y249029D02*
X80801D01*
X78181Y249723D02*
X80107D01*
X78026Y249877D02*
X80107D01*
X78720Y249106D02*
X80724D01*
X77949Y250031D02*
X79876D01*
X78874Y248952D02*
X80878D01*
X75714Y253036D02*
X77487D01*
X74944Y254115D02*
X76793D01*
X75098Y253961D02*
X76793D01*
X75560Y253268D02*
X77333D01*
X75175Y253807D02*
X76948D01*
X75329Y253576D02*
X77102D01*
X75252Y253653D02*
X77025D01*
X75638Y253113D02*
X77487D01*
X75406Y253499D02*
X77179D01*
X75483Y253345D02*
X77333D01*
X75021Y254038D02*
X76793D01*
X75098Y253884D02*
X76948D01*
X75406Y253422D02*
X77179D01*
X75560Y253190D02*
X77410D01*
X77641Y250339D02*
X79568D01*
X78026Y252112D02*
X78181D01*
X77795Y250185D02*
X79799D01*
X77641Y250416D02*
X79568D01*
X77564Y250493D02*
X79491D01*
X77718Y250262D02*
X79645D01*
X77872Y250108D02*
X79799D01*
X99605Y255040D02*
X100530D01*
X75252Y253730D02*
X77025D01*
X74867Y254269D02*
X76639D01*
X74944Y254192D02*
X76716D01*
X80955Y246717D02*
X83113D01*
X80570Y247102D02*
X82727D01*
X80493Y247179D02*
X82650D01*
X80724Y246948D02*
X82882D01*
X80338Y247334D02*
X82419D01*
X80801Y246871D02*
X82959D01*
X80415Y247256D02*
X82496D01*
X80647Y247025D02*
X82805D01*
X80878Y246794D02*
X83036D01*
X79491Y248258D02*
X81494D01*
X79182Y248567D02*
X81186D01*
X79414Y248335D02*
X81417D01*
X79028Y248721D02*
X81032D01*
X79337Y248412D02*
X81340D01*
X79260Y248489D02*
X81340D01*
X79105Y248644D02*
X81109D01*
X78874Y248875D02*
X80878D01*
X78951Y248798D02*
X80955D01*
X79645Y248027D02*
X81726D01*
X80030Y247642D02*
X82111D01*
X80184Y247488D02*
X82265D01*
X79799Y247873D02*
X81880D01*
X79876Y247796D02*
X81957D01*
X79953Y247719D02*
X82034D01*
X79722Y247950D02*
X81803D01*
X80261Y247411D02*
X82342D01*
X80107Y247565D02*
X82188D01*
X79645Y248104D02*
X81649D01*
X79568Y248181D02*
X81572D01*
X77487Y250570D02*
X79337D01*
X77256Y250879D02*
X79182D01*
X77333Y250724D02*
X79260D01*
X77333Y250801D02*
X79260D01*
X77179Y250956D02*
X79105D01*
X77410Y250647D02*
X79337D01*
X76485Y251880D02*
X78335D01*
X76639Y251649D02*
X78566D01*
X76948Y251264D02*
X78874D01*
X77102Y251110D02*
X78951D01*
X77025Y251187D02*
X78874D01*
X77102Y251033D02*
X79028D01*
X76793Y251495D02*
X78643D01*
X76871Y251341D02*
X78797D01*
X76716Y251572D02*
X78566D01*
X76639Y251726D02*
X78489D01*
X76871Y251418D02*
X78720D01*
X76562Y251803D02*
X78412D01*
X76408Y252034D02*
X78258D01*
X76408Y251957D02*
X78335D01*
X76177Y252266D02*
X78104D01*
X76023Y252574D02*
X77795D01*
X75869Y252805D02*
X77641D01*
X76023Y252497D02*
X77872D01*
X75869Y252728D02*
X77718D01*
X75792Y252882D02*
X77641D01*
X76100Y252420D02*
X77949D01*
X76254Y252189D02*
X78181D01*
X76331Y252112D02*
X77949D01*
X75714Y252959D02*
X77564D01*
X76177Y252343D02*
X77949D01*
X75946Y252651D02*
X77795D01*
X68470Y277774D02*
X70012D01*
X68470Y277697D02*
X70012D01*
X68470Y277158D02*
X70012D01*
X68470Y277235D02*
X70012D01*
X68470Y277543D02*
X70012D01*
X68470Y277466D02*
X70012D01*
X68470Y277389D02*
X70012D01*
X68470Y277928D02*
X70012D01*
X68470Y277081D02*
X70012D01*
X68470Y277620D02*
X70012D01*
X68547Y278622D02*
X70089D01*
X68470Y277312D02*
X70012D01*
X68470Y277004D02*
X70012D01*
X68470Y277851D02*
X70012D01*
X68547Y278545D02*
X70012D01*
X68779Y271455D02*
X70243D01*
X68856Y271070D02*
X70397D01*
X68856Y270916D02*
X70397D01*
X68856Y271147D02*
X70397D01*
X68779Y271301D02*
X70243D01*
X68856Y270993D02*
X70397D01*
X68779Y271378D02*
X70243D01*
X68779Y271224D02*
X70243D01*
X68625Y272611D02*
X70166D01*
X68702Y272457D02*
X70166D01*
X68779Y271609D02*
X70243D01*
X68779Y271763D02*
X70243D01*
X68702Y272148D02*
X70243D01*
X68702Y272303D02*
X70243D01*
X68702Y271917D02*
X70243D01*
X68702Y272226D02*
X70243D01*
X68702Y272534D02*
X70166D01*
X68702Y271994D02*
X70243D01*
X68779Y271686D02*
X70243D01*
X68779Y271532D02*
X70243D01*
X68702Y272072D02*
X70243D01*
X68702Y271840D02*
X70243D01*
X68625Y272688D02*
X70166D01*
X68702Y272380D02*
X70243D01*
X68856Y270838D02*
X70397D01*
X68856Y270607D02*
X70397D01*
X68856Y270684D02*
X70397D01*
X69164Y269066D02*
X70628D01*
X69010Y269991D02*
X70474D01*
X68856Y270761D02*
X70397D01*
X69241Y268372D02*
X70782D01*
X69318Y268218D02*
X70859D01*
X69549Y266985D02*
X71091D01*
X69318Y268295D02*
X70859D01*
X69241Y268449D02*
X70782D01*
X69241Y268527D02*
X70782D01*
X69318Y268141D02*
X70859D01*
X69318Y268064D02*
X70859D01*
X69318Y267987D02*
X70859D01*
X68470Y276618D02*
X70012D01*
X68470Y276541D02*
X70012D01*
X68470Y276079D02*
X70012D01*
X68470Y275771D02*
X70012D01*
X68470Y276233D02*
X70012D01*
X68470Y276772D02*
X70012D01*
X68470Y276387D02*
X70012D01*
X68470Y276850D02*
X70012D01*
X68470Y276695D02*
X70012D01*
X68470Y276927D02*
X70012D01*
X69010Y269914D02*
X70551D01*
X69087Y269297D02*
X70628D01*
X69010Y269605D02*
X70551D01*
X69010Y269837D02*
X70551D01*
X69164Y268989D02*
X70628D01*
X69010Y269683D02*
X70551D01*
X69087Y269451D02*
X70551D01*
X69164Y268912D02*
X70628D01*
X69087Y269220D02*
X70628D01*
X69010Y269759D02*
X70551D01*
X69087Y269374D02*
X70551D01*
X69087Y269143D02*
X70628D01*
X69087Y269528D02*
X70551D01*
X68470Y276464D02*
X70012D01*
X68470Y276310D02*
X70012D01*
X68470Y275385D02*
X70012D01*
X68470Y275231D02*
X70012D01*
X68933Y270068D02*
X70474D01*
X68933Y270530D02*
X70397D01*
X68933Y270299D02*
X70474D01*
X68933Y270376D02*
X70474D01*
X68933Y270453D02*
X70397D01*
X68933Y270145D02*
X70474D01*
X68933Y270222D02*
X70474D01*
X69395Y267910D02*
X70859D01*
X69395Y267679D02*
X70937D01*
X69472Y267525D02*
X70937D01*
X69395Y267833D02*
X70937D01*
X69472Y267448D02*
X70937D01*
X69395Y267756D02*
X70937D01*
X69395Y267602D02*
X70937D01*
X68470Y274923D02*
X70012D01*
X68470Y275077D02*
X70012D01*
X68470Y275539D02*
X70012D01*
X68470Y275617D02*
X70012D01*
X68470Y275308D02*
X70012D01*
X68470Y275925D02*
X70012D01*
X68470Y276156D02*
X70012D01*
X68470Y275694D02*
X70012D01*
X68470Y275462D02*
X70012D01*
X68470Y275848D02*
X70012D01*
X68470Y276002D02*
X70012D01*
X68470Y275154D02*
X70012D01*
X68470Y275000D02*
X70012D01*
X69626Y266600D02*
X71168D01*
X69549Y267062D02*
X71091D01*
X69472Y267293D02*
X71013D01*
X69549Y267139D02*
X71091D01*
X69472Y267371D02*
X70937D01*
X69549Y267216D02*
X71013D01*
X69549Y266908D02*
X71168D01*
X69626Y266831D02*
X71168D01*
X69626Y266677D02*
X71168D01*
X69626Y266754D02*
X71168D01*
X69241Y268603D02*
X70782D01*
X69241Y268681D02*
X70705D01*
X69164Y268758D02*
X70705D01*
X69164Y268835D02*
X70705D01*
X68625Y272996D02*
X70166D01*
X68625Y273459D02*
X70089D01*
X68625Y273073D02*
X70166D01*
X68625Y273305D02*
X70089D01*
X68625Y273150D02*
X70166D01*
X68625Y273382D02*
X70089D01*
X68625Y272842D02*
X70166D01*
X68625Y272919D02*
X70166D01*
X68625Y273228D02*
X70089D01*
X68625Y272765D02*
X70166D01*
X68547Y273690D02*
X70089D01*
X68547Y274152D02*
X70089D01*
X68547Y273998D02*
X70089D01*
X68547Y273536D02*
X70089D01*
X68547Y274229D02*
X70089D01*
X68547Y273844D02*
X70089D01*
X68547Y273921D02*
X70089D01*
X68547Y273613D02*
X70089D01*
X68547Y273767D02*
X70089D01*
X68547Y274075D02*
X70089D01*
X68547Y278083D02*
X70012D01*
X68547Y278468D02*
X70012D01*
X68547Y278391D02*
X70012D01*
X68547Y278160D02*
X70012D01*
X68547Y278314D02*
X70012D01*
X68547Y278237D02*
X70012D01*
X68547Y278006D02*
X70012D01*
X68547Y274846D02*
X70012D01*
X68547Y274383D02*
X70012D01*
X68547Y274769D02*
X70012D01*
X68547Y274615D02*
X70012D01*
X68547Y274461D02*
X70012D01*
X68547Y274538D02*
X70012D01*
X68547Y274692D02*
X70012D01*
X68547Y274306D02*
X70012D01*
X70782Y262747D02*
X72324D01*
X70705Y263055D02*
X72247D01*
X70628Y263209D02*
X72247D01*
X70628Y263286D02*
X72170D01*
X70551Y263440D02*
X72092D01*
X70628Y263132D02*
X72247D01*
X70551Y263517D02*
X72092D01*
X70705Y262978D02*
X72324D01*
X70551Y263363D02*
X72170D01*
X70705Y262901D02*
X72324D01*
X70782Y262824D02*
X72324D01*
X70320Y264288D02*
X71861D01*
X70397Y263903D02*
X71938D01*
X70397Y263825D02*
X72015D01*
X70320Y264211D02*
X71861D01*
X70397Y264057D02*
X71938D01*
X70474Y263671D02*
X72092D01*
X70474Y263594D02*
X72092D01*
X70320Y264134D02*
X71938D01*
X70397Y263980D02*
X71938D01*
X70474Y263748D02*
X72092D01*
X69780Y266214D02*
X71322D01*
X69935Y265521D02*
X71476D01*
X69935Y265444D02*
X71553D01*
X70012Y265367D02*
X71553D01*
X70012Y265290D02*
X71553D01*
X69858Y265752D02*
X71399D01*
X69780Y266137D02*
X71322D01*
X69780Y266060D02*
X71322D01*
X69858Y265829D02*
X71399D01*
X70243Y264365D02*
X71784D01*
X70089Y264904D02*
X71630D01*
X70012Y265136D02*
X71630D01*
X70166Y264750D02*
X71707D01*
X70166Y264596D02*
X71784D01*
X70012Y265213D02*
X71553D01*
X70243Y264519D02*
X71784D01*
X70243Y264442D02*
X71861D01*
X70166Y264673D02*
X71707D01*
X70089Y265058D02*
X71630D01*
X70166Y264827D02*
X71630D01*
X70089Y264982D02*
X71630D01*
X69703Y266292D02*
X71245D01*
X69703Y266446D02*
X71245D01*
X69703Y266523D02*
X71245D01*
X69703Y266369D02*
X71245D01*
X69935Y265598D02*
X71476D01*
X69858Y265675D02*
X71399D01*
X69858Y265906D02*
X71399D01*
X69780Y265983D02*
X71322D01*
X86504Y270453D02*
X92129D01*
X87583Y269991D02*
X91667D01*
X87891Y269759D02*
X91513D01*
X86658Y270299D02*
X91898D01*
X87583Y269914D02*
X91667D01*
X87274Y270068D02*
X91744D01*
X86581Y270376D02*
X91898D01*
X87814Y269837D02*
X91513D01*
X87043Y270145D02*
X91744D01*
X87968Y269683D02*
X91359D01*
X86966Y270222D02*
X91821D01*
X89047Y269220D02*
X89818D01*
X88970Y269297D02*
X90126D01*
X88507Y269374D02*
X90357D01*
X88276Y269451D02*
X90511D01*
X88199Y269605D02*
X91128D01*
X88276Y269528D02*
X90819D01*
X87428Y311298D02*
X90357D01*
X87506Y311375D02*
X90434D01*
X87274Y311221D02*
X90126D01*
X87660Y311452D02*
X90588D01*
X87197Y311144D02*
X90049D01*
X87737Y311529D02*
X90665D01*
X87043Y311067D02*
X89895D01*
X80261Y305441D02*
X82419D01*
X80493Y305672D02*
X82650D01*
X80338Y305518D02*
X82496D01*
X80724Y305903D02*
X82882D01*
X80570Y305749D02*
X82727D01*
X80415Y305595D02*
X82573D01*
X80647Y305826D02*
X82805D01*
X83884Y308755D02*
X86349D01*
X83344Y308292D02*
X85810D01*
X83806Y308678D02*
X86349D01*
X84346Y309140D02*
X86966D01*
X84500Y309217D02*
X87043D01*
X84269Y309063D02*
X86812D01*
X84192Y308986D02*
X86735D01*
X84115Y308909D02*
X86658D01*
X84577Y309294D02*
X87043D01*
X83498Y308446D02*
X86041D01*
X83652Y308523D02*
X86041D01*
X83421Y308369D02*
X85810D01*
X83960Y308832D02*
X86504D01*
X83267Y308215D02*
X85733D01*
X83729Y308600D02*
X86118D01*
X83036Y308061D02*
X85425D01*
X82727Y307753D02*
X85116D01*
X82650Y307676D02*
X85039D01*
X82882Y307907D02*
X85271D01*
X82959Y307984D02*
X85348D01*
X82496Y307599D02*
X84885D01*
X82419Y307522D02*
X84808D01*
X83190Y308138D02*
X85502D01*
X82342Y307445D02*
X84654D01*
X82805Y307830D02*
X85194D01*
X81032Y306211D02*
X83267D01*
X80955Y306134D02*
X83267D01*
X80801Y305980D02*
X83036D01*
X80878Y306057D02*
X83113D01*
X81109Y306289D02*
X83344D01*
X81186Y306366D02*
X83421D01*
X86349Y310604D02*
X89124D01*
X86966Y310989D02*
X89818D01*
X86041Y310373D02*
X88739D01*
X85579Y310065D02*
X88276D01*
X86273Y310527D02*
X88970D01*
X86735Y310835D02*
X89586D01*
X86812Y310912D02*
X89586D01*
X85887Y310296D02*
X88661D01*
X85733Y310142D02*
X88507D01*
X85810Y310219D02*
X88507D01*
X85502Y309988D02*
X88122D01*
X86504Y310681D02*
X89278D01*
X86581Y310758D02*
X89355D01*
X86118Y310450D02*
X88970D01*
X80107Y305287D02*
X82265D01*
X80030Y305210D02*
X82188D01*
X79799Y304978D02*
X81957D01*
X79491Y304593D02*
X81572D01*
X80184Y305364D02*
X82342D01*
X79645Y304747D02*
X81726D01*
X79953Y305133D02*
X82111D01*
X79876Y305055D02*
X82034D01*
X79568Y304670D02*
X81649D01*
X79260Y304362D02*
X81340D01*
X79337Y304439D02*
X81417D01*
X79414Y304516D02*
X81494D01*
X79722Y304901D02*
X81880D01*
X79645Y304824D02*
X81803D01*
X82034Y307136D02*
X84346D01*
X81494Y306674D02*
X83806D01*
X81880Y306982D02*
X84192D01*
X81649Y306828D02*
X83884D01*
X81957Y307059D02*
X84192D01*
X81803Y306905D02*
X83960D01*
X82188Y307290D02*
X84500D01*
X81263Y306443D02*
X83498D01*
X81572Y306751D02*
X83884D01*
X81340Y306520D02*
X83575D01*
X82111Y307213D02*
X84423D01*
X82265Y307367D02*
X84577D01*
X81417Y306597D02*
X83729D01*
X84808Y309448D02*
X87351D01*
X85116Y309679D02*
X87660D01*
X84885Y309525D02*
X87506D01*
X84654Y309371D02*
X87274D01*
X85194Y309756D02*
X87814D01*
X85271Y309834D02*
X87891D01*
X84962Y309602D02*
X87583D01*
X85425Y309911D02*
X88045D01*
X91821Y295808D02*
X123649D01*
X91975Y296116D02*
X123572D01*
X91744Y295731D02*
X123726D01*
X91667Y295576D02*
X123803D01*
X91898Y296039D02*
X123572D01*
X91821Y295885D02*
X123649D01*
X92052Y296193D02*
X123495D01*
X91898Y295962D02*
X123649D01*
X91744Y295654D02*
X123726D01*
X91590Y295499D02*
X123803D01*
X86581Y292648D02*
X125190D01*
X87274Y293110D02*
X124420D01*
X86658Y292725D02*
X124959D01*
X87043Y292956D02*
X124497D01*
X86504Y292571D02*
X125345D01*
X86812Y292802D02*
X124728D01*
X87120Y293033D02*
X124420D01*
X86427Y292417D02*
X125576D01*
X86966Y292879D02*
X124651D01*
X86349Y292340D02*
X125730D01*
X86427Y292494D02*
X125499D01*
X90742Y295114D02*
X124035D01*
X90974Y295191D02*
X123958D01*
X91590Y295422D02*
X123880D01*
X91359Y295345D02*
X123880D01*
X91205Y295268D02*
X123958D01*
X90511Y295037D02*
X124112D01*
X86966Y290490D02*
X128735D01*
X86966Y290259D02*
X128967D01*
X87043Y290413D02*
X128890D01*
X87043Y290336D02*
X128890D01*
X86966Y290182D02*
X128967D01*
X86966Y290105D02*
X129044D01*
X86889Y290028D02*
X129044D01*
X88739Y293341D02*
X124420D01*
X88816Y293419D02*
X124420D01*
X88970Y293650D02*
X124420D01*
X87506Y293265D02*
X87891D01*
X89124Y293881D02*
X124420D01*
X88893Y293573D02*
X124420D01*
X89124Y293958D02*
X124420D01*
X88816Y293496D02*
X124420D01*
X88661Y293265D02*
X124420D01*
X89201Y294035D02*
X124343D01*
X89047Y293727D02*
X124420D01*
X89047Y293804D02*
X124420D01*
X89278Y294112D02*
X124343D01*
X87428Y293187D02*
X124420D01*
X86273Y291415D02*
X127194D01*
X86349Y291261D02*
X127811D01*
X86273Y291338D02*
X127425D01*
X86427Y291107D02*
X128273D01*
X86273Y291492D02*
X127040D01*
X86349Y291184D02*
X128119D01*
X86504Y291030D02*
X128350D01*
X89586Y294575D02*
X124266D01*
X90280Y294960D02*
X124112D01*
X89509Y294497D02*
X124266D01*
X89355Y294189D02*
X124343D01*
X89586Y294652D02*
X124266D01*
X89663Y294729D02*
X124266D01*
X90049Y294883D02*
X124189D01*
X89818Y294806D02*
X124189D01*
X89432Y294420D02*
X124343D01*
X89355Y294343D02*
X124343D01*
X89355Y294266D02*
X124343D01*
X86735Y290798D02*
X128581D01*
X86735Y290875D02*
X128504D01*
X86581Y290952D02*
X128427D01*
X86889Y290644D02*
X128658D01*
X86966Y290567D02*
X128735D01*
X86812Y290721D02*
X128658D01*
X86273Y292186D02*
X125961D01*
X86195Y292108D02*
X126115D01*
X86118Y291723D02*
X126578D01*
X86118Y291800D02*
X126424D01*
X86118Y291877D02*
X126424D01*
X86195Y292031D02*
X126115D01*
X86349Y292263D02*
X125807D01*
X86195Y291646D02*
X126655D01*
X86195Y291569D02*
X126809D01*
X86195Y291954D02*
X126269D01*
X71861Y292879D02*
X73480D01*
X71630Y292340D02*
X73326D01*
X71476Y291954D02*
X73094D01*
X71784Y292725D02*
X73480D01*
X71399Y291800D02*
X73017D01*
X71476Y291877D02*
X73094D01*
X71707Y292494D02*
X73326D01*
X71707Y292417D02*
X73326D01*
X71784Y292648D02*
X73403D01*
X71707Y292571D02*
X73326D01*
X71630Y292263D02*
X73248D01*
X71553Y292186D02*
X73248D01*
X71553Y292031D02*
X73171D01*
X71553Y292108D02*
X73171D01*
X71861Y292802D02*
X73480D01*
Y296193D02*
X75252D01*
X73248Y295808D02*
X74944D01*
X73248Y295731D02*
X74944D01*
X73403Y296116D02*
X75175D01*
X73326Y295885D02*
X75021D01*
X73326Y295962D02*
X75098D01*
X73403Y296039D02*
X75175D01*
X73788Y296732D02*
X75560D01*
X74019Y297118D02*
X75714D01*
X73788Y296810D02*
X75560D01*
X73942Y296964D02*
X75714D01*
X74096Y297272D02*
X75869D01*
X74096Y297349D02*
X75869D01*
X74250Y297580D02*
X76100D01*
X73942Y297041D02*
X75714D01*
X74173Y297426D02*
X75946D01*
X73711Y296655D02*
X75483D01*
X74019Y297195D02*
X75792D01*
X74327Y297657D02*
X76100D01*
X73865Y296886D02*
X75560D01*
X74250Y297503D02*
X75946D01*
X74327Y297734D02*
X76100D01*
X74636Y298197D02*
X76408D01*
X74867Y298582D02*
X76639D01*
X74559Y298042D02*
X76254D01*
X74790Y298505D02*
X76639D01*
X74404Y297811D02*
X76177D01*
X74790Y298428D02*
X76562D01*
X74481Y297888D02*
X76254D01*
X74713Y298351D02*
X76485D01*
X74559Y298120D02*
X76408D01*
X74481Y297966D02*
X76254D01*
X74713Y298274D02*
X76485D01*
X72555Y294420D02*
X74250D01*
X72478Y294189D02*
X74173D01*
X72555Y294343D02*
X74250D01*
X72478Y294266D02*
X74173D01*
X72401Y294112D02*
X74096D01*
X71938Y293033D02*
X73634D01*
X72170Y293573D02*
X73788D01*
X72015Y293265D02*
X73711D01*
X72247Y293727D02*
X73942D01*
X72170Y293496D02*
X73788D01*
X72401Y294035D02*
X74019D01*
X72324Y293958D02*
X74019D01*
X72324Y293881D02*
X74019D01*
X71938Y293110D02*
X73634D01*
X73557Y293341D02*
X73711D01*
X72015Y293187D02*
X73634D01*
X72092Y293419D02*
X73711D01*
X72092Y293341D02*
X73480D01*
X71938Y292956D02*
X73557D01*
X72247Y293804D02*
X73942D01*
X72247Y293650D02*
X73865D01*
X72632Y294575D02*
X74327D01*
X72632Y294497D02*
X74327D01*
X72709Y294652D02*
X74404D01*
X72786Y294806D02*
X74404D01*
X72709Y294729D02*
X74404D01*
X72786Y294883D02*
X74481D01*
X73557Y296270D02*
X75252D01*
X73634Y296501D02*
X75406D01*
X73557Y296347D02*
X75252D01*
X73634Y296424D02*
X75329D01*
X73711Y296578D02*
X75406D01*
X71399Y291723D02*
X73017D01*
X71322Y291569D02*
X72940D01*
X71245Y291415D02*
X72863D01*
X71399Y291646D02*
X73017D01*
X71245Y291338D02*
X72863D01*
X71322Y291492D02*
X72940D01*
X72863Y295037D02*
X74559D01*
X73094Y295422D02*
X74790D01*
X72940Y295191D02*
X74636D01*
X73171Y295576D02*
X74867D01*
X73171Y295654D02*
X74867D01*
X72940Y295114D02*
X74636D01*
X73094Y295499D02*
X74867D01*
X73017Y295345D02*
X74713D01*
X73017Y295268D02*
X74713D01*
X72863Y294960D02*
X74559D01*
X70937Y290413D02*
X72478D01*
X70937Y290490D02*
X72478D01*
X71091Y290952D02*
X72709D01*
X71013Y290644D02*
X72632D01*
X71245Y291261D02*
X72863D01*
X71013Y290798D02*
X72632D01*
X71168Y291107D02*
X72786D01*
X71013Y290721D02*
X72632D01*
X71091Y290875D02*
X72632D01*
X71091Y291030D02*
X72709D01*
X71168Y291184D02*
X72786D01*
X70937Y290567D02*
X72555D01*
X78797Y303822D02*
X80801D01*
X79105Y304208D02*
X81186D01*
X78951Y304054D02*
X81032D01*
X79182Y304285D02*
X81263D01*
X78874Y303977D02*
X80955D01*
X78643Y303668D02*
X80647D01*
X78874Y303900D02*
X80878D01*
X79028Y304131D02*
X81109D01*
X76871Y301433D02*
X78797D01*
X76408Y300894D02*
X78335D01*
X76639Y301202D02*
X78566D01*
X76716Y301279D02*
X78643D01*
X76408Y300817D02*
X78335D01*
X76331Y300740D02*
X78181D01*
X76639Y301125D02*
X78489D01*
X76793Y301356D02*
X78643D01*
X76562Y301048D02*
X78412D01*
X76485Y300971D02*
X78335D01*
X76871Y301511D02*
X78874D01*
X76948Y301588D02*
X78874D01*
X77795Y302666D02*
X79799D01*
X77564Y302358D02*
X79568D01*
X77641Y302435D02*
X79568D01*
X77641Y302512D02*
X79568D01*
X77718Y302589D02*
X79645D01*
X75946Y300200D02*
X77872D01*
X75714Y299815D02*
X77564D01*
X75792Y299969D02*
X77641D01*
X75869Y300046D02*
X77718D01*
X75869Y300123D02*
X77718D01*
X75638Y299738D02*
X77487D01*
X75714Y299892D02*
X77641D01*
X77872Y302744D02*
X79876D01*
X78258Y303206D02*
X80261D01*
X78412Y303360D02*
X80415D01*
X78026Y302898D02*
X79953D01*
X78026Y302975D02*
X80030D01*
X77949Y302821D02*
X79876D01*
X78104Y303052D02*
X80107D01*
X78335Y303283D02*
X80415D01*
X78181Y303129D02*
X80184D01*
X78720Y303745D02*
X80724D01*
X78489Y303514D02*
X80570D01*
X78566Y303591D02*
X80570D01*
X78412Y303437D02*
X80493D01*
X75329Y299276D02*
X77179D01*
X74944Y298659D02*
X76716D01*
X75560Y299584D02*
X77410D01*
X74944Y298736D02*
X76793D01*
X75175Y299044D02*
X76948D01*
X75098Y298890D02*
X76871D01*
X75098Y298967D02*
X76948D01*
X75483Y299507D02*
X77256D01*
X75406Y299353D02*
X77179D01*
X75021Y298813D02*
X76793D01*
X75406Y299430D02*
X77179D01*
X75252Y299121D02*
X77025D01*
X75252Y299199D02*
X77102D01*
X75560Y299661D02*
X77410D01*
X77102Y301819D02*
X79028D01*
X77256Y301973D02*
X79182D01*
X77333Y302050D02*
X79260D01*
X77179Y301896D02*
X79105D01*
X77410Y302204D02*
X79414D01*
X77487Y302281D02*
X79414D01*
X77102Y301742D02*
X79028D01*
X77333Y302127D02*
X79337D01*
X77025Y301665D02*
X78874D01*
X76023Y300277D02*
X77872D01*
X76023Y300355D02*
X77872D01*
X76177Y300586D02*
X78104D01*
X76254Y300663D02*
X78181D01*
X76177Y300509D02*
X78026D01*
X76100Y300432D02*
X77949D01*
X96830Y299121D02*
X118101D01*
X95520Y298967D02*
X118177D01*
X95135Y298813D02*
X118255D01*
X94981Y298736D02*
X118409D01*
X95366Y298890D02*
X118255D01*
X95906Y299044D02*
X118177D01*
X105770Y301356D02*
X106926D01*
X105616Y301279D02*
X107080D01*
X99605Y301511D02*
X101146D01*
X99913Y301588D02*
X100761D01*
X109932Y301279D02*
X110933D01*
X106155Y301433D02*
X106849D01*
X99296Y301356D02*
X101531D01*
X99065Y301202D02*
X101840D01*
X99142Y301279D02*
X101763D01*
X99296Y301433D02*
X101300D01*
X94519Y298428D02*
X118871D01*
X94133Y298274D02*
X119179D01*
X120258Y298120D02*
X120875D01*
X94596Y298505D02*
X118794D01*
X94827Y298659D02*
X118563D01*
X94364Y298351D02*
X119025D01*
X93748Y298120D02*
X119642D01*
X93902Y298197D02*
X119411D01*
X94750Y298582D02*
X118640D01*
X109932Y301202D02*
X111011D01*
X114093Y300894D02*
X115788D01*
X109777Y301048D02*
X111165D01*
X104691Y300817D02*
X107928D01*
X114478Y300971D02*
X115326D01*
X109161Y300817D02*
X111550D01*
X109315Y300894D02*
X111473D01*
X104999Y300971D02*
X107697D01*
X109854Y301125D02*
X111088D01*
X104845Y300894D02*
X107774D01*
X109546Y300971D02*
X111319D01*
X105154Y301048D02*
X107466D01*
X105308Y301125D02*
X107311D01*
X105462Y301202D02*
X107157D01*
X98449Y300432D02*
X102996D01*
X104229Y300663D02*
X111858D01*
X113168Y300586D02*
X116559D01*
X98526D02*
X102764D01*
X113322Y300663D02*
X116405D01*
X104075Y300586D02*
X112012D01*
X98526Y300663D02*
X102610D01*
X103689Y300432D02*
X112475D01*
X112860Y300509D02*
X116559D01*
X103920D02*
X112321D01*
X112706Y300432D02*
X116713D01*
X98449Y300509D02*
X102841D01*
X98372Y300123D02*
X117099D01*
X98372Y300355D02*
X102996D01*
X103150D02*
X116790D01*
X98372Y300277D02*
X116867D01*
X98372Y300200D02*
X117022D01*
X98295Y299969D02*
X117330D01*
X98295Y300046D02*
X117176D01*
X98218Y299892D02*
X117407D01*
X98988Y301125D02*
X101994D01*
X113708Y300817D02*
X115943D01*
X113477Y300740D02*
X116174D01*
X98680Y300894D02*
X102379D01*
X104537Y300740D02*
X108082D01*
X98757Y300971D02*
X102225D01*
X108236Y300740D02*
X108313D01*
X98834Y301048D02*
X102148D01*
X98603Y300817D02*
X102456D01*
X98526Y300740D02*
X102610D01*
X108776D02*
X111627D01*
X108467D02*
X108622D01*
X92284Y296655D02*
X122956D01*
X92052Y296270D02*
X123418D01*
X92052Y296347D02*
X123341D01*
X92129Y296424D02*
X123264D01*
X92207Y296501D02*
X123110D01*
X92361Y296810D02*
X122724D01*
X92284Y296732D02*
X122801D01*
X92207Y296578D02*
X123033D01*
X92823Y297349D02*
X122108D01*
X92746Y297272D02*
X122185D01*
X92438Y296964D02*
X122570D01*
X92592Y297118D02*
X122416D01*
X92515Y297041D02*
X122493D01*
X92669Y297195D02*
X122262D01*
X92361Y296886D02*
X122647D01*
X93054Y297503D02*
X121877D01*
X93285Y297734D02*
X121568D01*
X93131Y297580D02*
X121800D01*
X92900Y297426D02*
X122031D01*
X93594Y298042D02*
X121029D01*
X93517Y297966D02*
X121183D01*
X93362Y297811D02*
X121491D01*
X93440Y297888D02*
X121337D01*
X93131Y297657D02*
X121723D01*
X98141Y299276D02*
X118023D01*
X98141Y299430D02*
X117869D01*
X98141Y299584D02*
X117715D01*
X98141Y299199D02*
X118023D01*
X98141Y299507D02*
X117869D01*
X98218Y299738D02*
X117561D01*
X98218Y299815D02*
X117484D01*
X98141Y299661D02*
X117638D01*
X97678Y299199D02*
X98063D01*
X98141Y299353D02*
X117946D01*
X103227Y317463D02*
X116945D01*
X102764Y317386D02*
X117407D01*
X104845Y317694D02*
X115326D01*
X103689Y317540D02*
X116482D01*
X106232Y317848D02*
X113939D01*
X104229Y317617D02*
X115943D01*
X102379Y317309D02*
X117792D01*
X105462Y317771D02*
X114710D01*
X107157Y317925D02*
X113014D01*
X96522Y315768D02*
X102379D01*
X96137Y315613D02*
X101609D01*
X95675Y315459D02*
X100915D01*
X96368Y315690D02*
X101994D01*
X95443Y315382D02*
X100530D01*
X95906Y315536D02*
X101069D01*
X101994Y317232D02*
X118177D01*
X100915Y317001D02*
X119256D01*
X100530Y316923D02*
X119642D01*
X99296Y316615D02*
X120875D01*
X101223Y317078D02*
X118948D01*
X101609Y317155D02*
X118563D01*
X99065Y316538D02*
X108390D01*
X111781D02*
X121106D01*
X99913Y316769D02*
X120258D01*
X100221Y316846D02*
X119950D01*
X118101Y315690D02*
X123803D01*
X120258Y315228D02*
X125113D01*
X120952Y314997D02*
X125653D01*
X118563Y315613D02*
X124035D01*
X119256Y315459D02*
X124497D01*
X121337Y314920D02*
X125884D01*
X119642Y315382D02*
X124728D01*
X117792Y315768D02*
X123649D01*
X119796Y315305D02*
X124882D01*
X120490Y315151D02*
X125268D01*
X120875Y315074D02*
X125499D01*
X119025Y315536D02*
X124266D01*
X99605Y316692D02*
X120567D01*
X108544Y316538D02*
X111627D01*
X98218Y316307D02*
X106078D01*
X97755Y316153D02*
X104922D01*
X97986Y316230D02*
X105076D01*
X97216Y315999D02*
X103612D01*
X98526Y316384D02*
X107003D01*
X96753Y315845D02*
X102764D01*
X98757Y316461D02*
X108082D01*
X104229Y316076D02*
X104383D01*
X112089Y316461D02*
X121414D01*
X97447Y316076D02*
X104075D01*
X96985Y315922D02*
X103150D01*
X121723Y314843D02*
X126038D01*
X122570Y314534D02*
X126809D01*
X122031Y314689D02*
X126424D01*
X122339Y314612D02*
X126578D01*
X121877Y314766D02*
X126269D01*
X122724Y314458D02*
X126963D01*
X123033Y314380D02*
X127117D01*
X88353Y311914D02*
X91436D01*
X88739Y312145D02*
X91898D01*
X89586Y312608D02*
X92823D01*
X89663Y312685D02*
X92977D01*
X89432Y312531D02*
X92669D01*
X88507Y311991D02*
X91590D01*
X89047Y312300D02*
X92207D01*
X88893Y312223D02*
X91975D01*
X89124Y312377D02*
X92361D01*
X89278Y312454D02*
X92438D01*
X125036Y313610D02*
X128735D01*
X124574Y313841D02*
X128273D01*
X123803Y314149D02*
X127657D01*
X123880Y314072D02*
X127811D01*
X123495Y314226D02*
X127503D01*
X124959Y313687D02*
X128581D01*
X124728Y313764D02*
X128427D01*
X123187Y314303D02*
X127271D01*
X124112Y313995D02*
X127965D01*
X124266Y313918D02*
X128119D01*
X117022Y315922D02*
X123187D01*
X117407Y315845D02*
X123418D01*
X113168Y316384D02*
X121645D01*
X115788Y316076D02*
X115943D01*
X116559Y315999D02*
X122956D01*
X114093Y316307D02*
X121954D01*
X115172Y316230D02*
X122185D01*
X116097Y316076D02*
X122724D01*
X115326Y316153D02*
X122416D01*
X91436Y313610D02*
X95058D01*
X91898Y313841D02*
X95597D01*
X90511Y313147D02*
X93979D01*
X92361Y314072D02*
X96368D01*
X90819Y313301D02*
X94364D01*
X90665Y313224D02*
X94210D01*
X90280Y312993D02*
X93594D01*
X91128Y313456D02*
X94673D01*
X90974Y313379D02*
X94519D01*
X92052Y313918D02*
X95983D01*
X92515Y314149D02*
X96445D01*
X91744Y313764D02*
X95443D01*
X92207Y313995D02*
X95983D01*
X91282Y313533D02*
X94904D01*
X91590Y313687D02*
X95289D01*
X90357Y313070D02*
X93748D01*
X89818Y312762D02*
X93054D01*
X88661Y312068D02*
X91667D01*
X90126Y312916D02*
X93517D01*
X89972Y312839D02*
X93362D01*
X88122Y311760D02*
X91128D01*
X87891Y311606D02*
X90819D01*
X87968Y311683D02*
X91050D01*
X88276Y311837D02*
X91282D01*
X92669Y314226D02*
X96676D01*
X93594Y314612D02*
X97909D01*
X94904Y315151D02*
X99605D01*
X94673Y315074D02*
X99451D01*
X93208Y314458D02*
X97447D01*
X92900Y314303D02*
X96985D01*
X93054Y314380D02*
X97139D01*
X93748Y314689D02*
X97986D01*
X94133Y314843D02*
X98526D01*
X94519Y314997D02*
X99220D01*
X93362Y314534D02*
X97601D01*
X98063Y314689D02*
X98141D01*
X95289Y315305D02*
X100375D01*
X93902Y314766D02*
X98372D01*
X94287Y314920D02*
X98834D01*
X95058Y315228D02*
X99913D01*
X148233Y288949D02*
X149774D01*
X148079Y289180D02*
X149697D01*
X147925Y289796D02*
X149466D01*
X148079Y289103D02*
X149697D01*
X148002Y289411D02*
X149620D01*
X148233Y288872D02*
X149774D01*
X148310Y288640D02*
X149851D01*
X148156Y289026D02*
X149774D01*
X148310Y288563D02*
X149851D01*
X148233Y288718D02*
X149851D01*
X148079Y289334D02*
X149620D01*
X147925Y289874D02*
X149466D01*
X148002Y289488D02*
X149620D01*
X147925Y289642D02*
X149543D01*
X148233Y288795D02*
X149774D01*
X148002Y289565D02*
X149543D01*
X86889Y289951D02*
X129121D01*
X86812Y289874D02*
X129121D01*
X86427Y289642D02*
X129198D01*
X86118Y289411D02*
X129275D01*
X86349Y289565D02*
X129275D01*
X85810Y289180D02*
X129352D01*
X85964Y289257D02*
X129352D01*
X86735Y289720D02*
X129198D01*
X86735Y289796D02*
X129121D01*
X86195Y289488D02*
X129275D01*
X86041Y289334D02*
X129352D01*
X146846Y292571D02*
X148464D01*
X146769Y292802D02*
X148310D01*
X146152Y294035D02*
X147771D01*
X146306Y293650D02*
X147925D01*
X146769Y292648D02*
X148387D01*
X146229Y293881D02*
X147848D01*
X146460Y293341D02*
X148079D01*
X146306Y293727D02*
X147925D01*
X146538Y293110D02*
X148233D01*
X146460Y293265D02*
X148156D01*
X146538Y293187D02*
X148156D01*
X146460Y293419D02*
X148079D01*
X146384Y293496D02*
X148002D01*
X146846Y292494D02*
X148464D01*
X143917Y297888D02*
X145690D01*
X143686Y298274D02*
X145459D01*
X143840Y298120D02*
X145613D01*
X143609Y298505D02*
X145382D01*
X143840Y298042D02*
X145613D01*
X143686Y298351D02*
X145459D01*
X83421Y286483D02*
X131124D01*
X83884Y287176D02*
X130585D01*
X83421Y286560D02*
X131047D01*
X83498Y286714D02*
X130893D01*
X85194Y288563D02*
X129660D01*
X85425Y288795D02*
X129506D01*
X85502Y288872D02*
X129506D01*
X85348Y288718D02*
X129506D01*
X85579Y288949D02*
X129429D01*
X85656Y289026D02*
X129429D01*
X85733Y289103D02*
X129429D01*
X85271Y288640D02*
X129583D01*
X147848Y289951D02*
X149466D01*
X147694Y290336D02*
X149312D01*
X147848Y290105D02*
X149389D01*
X147848Y290182D02*
X149312D01*
X147848Y290028D02*
X149389D01*
X147771Y290259D02*
X149312D01*
X147694Y290413D02*
X149235D01*
X139679Y303514D02*
X141683D01*
X139910Y303206D02*
X141914D01*
X140064Y303052D02*
X142068D01*
X140064Y302975D02*
X142145D01*
X140218Y302898D02*
X142145D01*
X139756Y303437D02*
X141760D01*
X139833Y303360D02*
X141760D01*
X139910Y303283D02*
X141837D01*
X139987Y303129D02*
X141991D01*
X140295Y302821D02*
X142222D01*
X141220Y301742D02*
X143070D01*
X141220Y301665D02*
X143147D01*
X141605Y301202D02*
X143532D01*
X141451Y301356D02*
X143378D01*
X141374Y301511D02*
X143301D01*
X141451Y301433D02*
X143301D01*
X141528Y301279D02*
X143455D01*
X141297Y301588D02*
X143224D01*
X141683Y301125D02*
X143532D01*
X145382Y295499D02*
X147077D01*
X145459Y295422D02*
X147077D01*
X145767Y294729D02*
X147462D01*
X145844Y294575D02*
X147539D01*
X145459Y295345D02*
X147154D01*
X145767Y294883D02*
X147385D01*
X145613Y294960D02*
X147308D01*
X145767Y294806D02*
X147385D01*
X145613Y295037D02*
X147308D01*
X145921Y294497D02*
X147539D01*
X145536Y295191D02*
X147231D01*
X145459Y295268D02*
X147154D01*
X142684Y299738D02*
X144534D01*
X142761Y299661D02*
X144611D01*
X142993Y299430D02*
X144765D01*
X142993Y299353D02*
X144765D01*
X142839Y299507D02*
X144688D01*
X142839Y299584D02*
X144611D01*
X142684Y299815D02*
X144457D01*
X146923Y292340D02*
X148541D01*
X147000Y292263D02*
X148541D01*
X147077Y291954D02*
X148695D01*
X147154Y291723D02*
X148773D01*
X147077Y292031D02*
X148618D01*
X147231Y291569D02*
X148850D01*
X147000Y292108D02*
X148618D01*
X147000Y292186D02*
X148618D01*
X147154Y291800D02*
X148773D01*
X146615Y293033D02*
X148233D01*
X147231Y291492D02*
X148850D01*
X147231Y291646D02*
X148773D01*
X146692Y292725D02*
X148387D01*
X146846Y292417D02*
X148464D01*
X144457Y297041D02*
X146229D01*
X144611Y296886D02*
X146306D01*
X144765Y296655D02*
X146460D01*
X144765Y296501D02*
X146538D01*
X144919Y296347D02*
X146615D01*
X144534Y296964D02*
X146229D01*
X144842Y296424D02*
X146538D01*
X144919Y296270D02*
X146615D01*
X144765Y296578D02*
X146460D01*
X144380Y297195D02*
X146152D01*
X144303Y297349D02*
X146075D01*
X144303Y297426D02*
X145998D01*
X144380Y297272D02*
X146075D01*
X144149Y297657D02*
X145844D01*
X144457Y297118D02*
X146152D01*
X144071Y297734D02*
X145844D01*
X144226Y297503D02*
X145921D01*
X144071Y297811D02*
X145767D01*
X143917Y297966D02*
X145690D01*
X144149Y297580D02*
X145921D01*
X141143Y301819D02*
X143070D01*
X140989Y301973D02*
X142915D01*
X140835Y302127D02*
X142839D01*
X140604Y302512D02*
X142530D01*
X140835Y302204D02*
X142761D01*
X140912Y302050D02*
X142839D01*
X141066Y301896D02*
X142993D01*
X140604Y302435D02*
X142530D01*
X140372Y302666D02*
X142376D01*
X140681Y302358D02*
X142607D01*
Y299892D02*
X144457D01*
X141991Y300740D02*
X143840D01*
X142145Y300509D02*
X143994D01*
X141914Y300817D02*
X143763D01*
X142530Y299969D02*
X144380D01*
X141991Y300663D02*
X143917D01*
X142145Y300432D02*
X144071D01*
X142299Y300355D02*
X144149D01*
X141837Y300894D02*
X143763D01*
X141837Y300971D02*
X143686D01*
X142376Y300200D02*
X144226D01*
X142530Y300046D02*
X144303D01*
X141760Y301048D02*
X143609D01*
X142453Y300123D02*
X144303D01*
X142068Y300586D02*
X143994D01*
X143686Y298428D02*
X145382D01*
X143224Y299044D02*
X144996D01*
X143378Y298890D02*
X145073D01*
X143378Y298813D02*
X145150D01*
X143455Y298659D02*
X145228D01*
X143070Y299199D02*
X144919D01*
X143070Y299276D02*
X144842D01*
X143455Y298736D02*
X145228D01*
X143147Y299121D02*
X144919D01*
X143224Y298967D02*
X145073D01*
X143532Y298582D02*
X145305D01*
X143763Y298197D02*
X145536D01*
X147617Y290644D02*
X149158D01*
X147385Y291107D02*
X149004D01*
X147308Y291415D02*
X148927D01*
X147539Y290875D02*
X149081D01*
X147385Y291030D02*
X149081D01*
X147385Y291184D02*
X149004D01*
X147308Y291338D02*
X148927D01*
X147462Y290952D02*
X149081D01*
X147694Y290567D02*
X149235D01*
X147539Y290721D02*
X149158D01*
X147385Y291261D02*
X148927D01*
X147539Y290798D02*
X149158D01*
X145305Y295576D02*
X147000D01*
X145073Y295962D02*
X146846D01*
X145305Y295654D02*
X147000D01*
X145150Y295885D02*
X146846D01*
X145228Y295808D02*
X146923D01*
X145073Y296116D02*
X146769D01*
X145228Y295731D02*
X146923D01*
X145073Y296193D02*
X146692D01*
X145073Y296039D02*
X146769D01*
X146384Y293573D02*
X148002D01*
X146152Y294112D02*
X147771D01*
X145998Y294266D02*
X147694D01*
X146229Y293804D02*
X147925D01*
X146152Y293958D02*
X147848D01*
X146075Y294189D02*
X147694D01*
X85116Y288486D02*
X129660D01*
X84346Y287870D02*
X129969D01*
X84269Y287793D02*
X130123D01*
X84269Y287716D02*
X130123D01*
X84192Y287639D02*
X130200D01*
X84962Y288409D02*
X129660D01*
X84654Y288178D02*
X129814D01*
X84423Y287947D02*
X129969D01*
X84500Y288024D02*
X129892D01*
X84577Y288101D02*
X129892D01*
X84885Y288332D02*
X129737D01*
X84808Y288255D02*
X129737D01*
X148310Y288486D02*
X149928D01*
X148541Y287947D02*
X150083D01*
X148618Y287716D02*
X150160D01*
X148541Y287793D02*
X150083D01*
X148541Y287870D02*
X150083D01*
X148387Y288255D02*
X150006D01*
X148618Y287562D02*
X150160D01*
X148541Y288024D02*
X150006D01*
X148618Y287639D02*
X150160D01*
X148387Y288409D02*
X149928D01*
X148618Y287485D02*
X150160D01*
X148387Y288332D02*
X149928D01*
X148464Y288178D02*
X150006D01*
X148541Y288101D02*
X150006D01*
X83498Y286637D02*
X130970D01*
X83729Y287022D02*
X130662D01*
X83652Y286945D02*
X130739D01*
X83652Y286868D02*
X130816D01*
X83960Y287407D02*
X130354D01*
X84038Y287485D02*
X130277D01*
X83806Y287099D02*
X130585D01*
X84115Y287562D02*
X130277D01*
X83960Y287330D02*
X130431D01*
X83575Y286791D02*
X130816D01*
X83884Y287253D02*
X130508D01*
X148773Y287099D02*
X150314D01*
X148695Y287330D02*
X150237D01*
X148695Y287407D02*
X150237D01*
X148773Y287176D02*
X150314D01*
X148695Y287253D02*
X150237D01*
X148773Y287022D02*
X150314D01*
X148927Y286560D02*
X150468D01*
X125653Y313379D02*
X129198D01*
X125807Y313301D02*
X129352D01*
X126269Y313147D02*
X129660D01*
X126424Y313070D02*
X129814D01*
X126655Y312916D02*
X130046D01*
X125961Y313224D02*
X129506D01*
X125268Y313533D02*
X128890D01*
X125499Y313456D02*
X129044D01*
X127117Y312762D02*
X130354D01*
X126578Y312993D02*
X129892D01*
X126886Y312839D02*
X130200D01*
X131587Y310296D02*
X134284D01*
X132820Y309448D02*
X135363D01*
X133359Y309063D02*
X135903D01*
X132126Y309911D02*
X134747D01*
X132281Y309834D02*
X134901D01*
X133282Y309140D02*
X135826D01*
X133514Y308986D02*
X135980D01*
X133745Y308832D02*
X136211D01*
X132049Y309988D02*
X134669D01*
X131741Y310142D02*
X134438D01*
X133976Y308678D02*
X136365D01*
X133051Y309294D02*
X135594D01*
X131664Y310219D02*
X134361D01*
X131433Y310373D02*
X134130D01*
X134207Y308446D02*
X136673D01*
X134438Y308292D02*
X136827D01*
X134669Y308138D02*
X136981D01*
X134747Y308061D02*
X137136D01*
X135209Y307676D02*
X137521D01*
X134284Y308369D02*
X136750D01*
X134901Y307907D02*
X137290D01*
X135286Y307599D02*
X137675D01*
X134978Y307830D02*
X137367D01*
X134824Y307984D02*
X137213D01*
X134515Y308215D02*
X136904D01*
X135132Y307753D02*
X137444D01*
X137136Y306057D02*
X139294D01*
X137290Y305903D02*
X139448D01*
X137444Y305749D02*
X139602D01*
X137367Y305826D02*
X139525D01*
X137213Y305980D02*
X139371D01*
X130739Y310758D02*
X133591D01*
X128119Y312223D02*
X131279D01*
X130431Y310989D02*
X133205D01*
X130046Y311221D02*
X132897D01*
X130970Y310681D02*
X133668D01*
X131202Y310527D02*
X133899D01*
X131047Y310604D02*
X133822D01*
X131279Y310450D02*
X134053D01*
X139602Y303591D02*
X141605D01*
X139139Y304054D02*
X141220D01*
X138908Y304285D02*
X140989D01*
X138831Y304439D02*
X140835D01*
X138908Y304362D02*
X140912D01*
X139062Y304131D02*
X141143D01*
X139448Y303745D02*
X141451D01*
X138985Y304208D02*
X141066D01*
X139371Y303822D02*
X141374D01*
X139216Y303977D02*
X141297D01*
X139294Y303900D02*
X141297D01*
X139525Y303668D02*
X141528D01*
X137598Y305595D02*
X139756D01*
X132974Y309371D02*
X135517D01*
X131895Y310065D02*
X134592D01*
X136673Y306443D02*
X138908D01*
X133591Y308909D02*
X136057D01*
X134130Y308523D02*
X136519D01*
X136981Y306134D02*
X139216D01*
X132743Y309525D02*
X135286D01*
X132589Y309602D02*
X135209D01*
X132512Y309679D02*
X135055D01*
X135363Y307522D02*
X137752D01*
X135517Y307445D02*
X137829D01*
X127348Y312608D02*
X130585D01*
X127965Y312300D02*
X131124D01*
X127811Y312377D02*
X131047D01*
X127503Y312531D02*
X130739D01*
X127734Y312454D02*
X130893D01*
X127194Y312685D02*
X130508D01*
X130662Y310835D02*
X133437D01*
X130123Y310912D02*
X130200D01*
X130354Y311067D02*
X133128D01*
X130123Y311144D02*
X132974D01*
X130585Y310912D02*
X133359D01*
X136596Y306520D02*
X138831D01*
X135594Y307367D02*
X137906D01*
X136288Y306751D02*
X138600D01*
X135749Y307213D02*
X138060D01*
X135980Y307059D02*
X138215D01*
X136519Y306597D02*
X138754D01*
X136442Y306674D02*
X138677D01*
X135903Y307136D02*
X138137D01*
X136211Y306905D02*
X138369D01*
X136057Y306982D02*
X138292D01*
X136288Y306828D02*
X138523D01*
X135671Y307290D02*
X137983D01*
X128273Y312145D02*
X131433D01*
X129352Y311606D02*
X132281D01*
X128890Y311837D02*
X131895D01*
X129429Y311529D02*
X132435D01*
X129198Y311683D02*
X132203D01*
X128581Y311991D02*
X131664D01*
X129814Y311375D02*
X132666D01*
X129121Y311760D02*
X132049D01*
X128504Y312068D02*
X131510D01*
X128735Y311914D02*
X131818D01*
X129814Y311298D02*
X132743D01*
X129583Y311452D02*
X132512D01*
X132358Y309756D02*
X134978D01*
X134053Y308600D02*
X136442D01*
X133822Y308755D02*
X136288D01*
X133128Y309217D02*
X135671D01*
X137983Y305210D02*
X140141D01*
X136827Y306289D02*
X139062D01*
X136750Y306366D02*
X138985D01*
X138215Y305055D02*
X140295D01*
X136904Y306211D02*
X139139D01*
X137521Y305672D02*
X139679D01*
X138754Y304516D02*
X140758D01*
X137906Y305287D02*
X140064D01*
X138369Y304901D02*
X140449D01*
X138446Y304824D02*
X140526D01*
X137752Y305441D02*
X139910D01*
X137675Y305518D02*
X139833D01*
X137829Y305364D02*
X139987D01*
X138523Y304747D02*
X140526D01*
X138600Y304670D02*
X140604D01*
X138677Y304593D02*
X140681D01*
X138137Y305133D02*
X140218D01*
X138292Y304978D02*
X140372D01*
X101609Y235697D02*
X118563D01*
X110240Y236775D02*
X122724D01*
X109546Y236313D02*
X121106D01*
X110317Y236930D02*
X123187D01*
X110240Y236699D02*
X122416D01*
X110086Y236467D02*
X121645D01*
X99913Y236082D02*
X120258D01*
X100915Y235851D02*
X119256D01*
X100530Y235928D02*
X119642D01*
X110240Y236853D02*
X122956D01*
X110163Y236621D02*
X122185D01*
X100221Y236005D02*
X119950D01*
X112012Y240860D02*
X131664D01*
X111781Y240398D02*
X130893D01*
X111858Y240552D02*
X131124D01*
X112012Y240783D02*
X131510D01*
X111935Y240706D02*
X131433D01*
X111704Y240244D02*
X130585D01*
X111858Y240629D02*
X131279D01*
X111781Y240475D02*
X131047D01*
X111627Y240166D02*
X130508D01*
X112089Y240937D02*
X131818D01*
X111550Y240089D02*
X130354D01*
X114632Y244482D02*
X136750D01*
X114632Y244405D02*
X136673D01*
X114478Y244097D02*
X136288D01*
X113939Y243095D02*
X134978D01*
X114247Y243634D02*
X135671D01*
X114093Y243326D02*
X135286D01*
X113785Y242941D02*
X134747D01*
X114247Y243480D02*
X135517D01*
X114401Y244020D02*
X136211D01*
X113708Y242864D02*
X134669D01*
X113631Y242710D02*
X134438D01*
X113631Y242787D02*
X134592D01*
X114324Y243711D02*
X135826D01*
X111550Y240012D02*
X130200D01*
X110163Y236544D02*
X121954D01*
X110394Y237161D02*
X123803D01*
X99605Y236159D02*
X120567D01*
X115018Y249337D02*
X141683D01*
X115557Y248335D02*
X140758D01*
X115634Y247950D02*
X140449D01*
X115634Y248258D02*
X140681D01*
X115634Y248027D02*
X140526D01*
X115095Y249183D02*
X141528D01*
X115711Y247873D02*
X140372D01*
X115557Y248412D02*
X140835D01*
X114864Y249491D02*
X141760D01*
X115480Y248644D02*
X141066D01*
X115326Y248952D02*
X141297D01*
X115711Y247719D02*
X140218D01*
X142761Y253113D02*
X144534D01*
X142684Y252959D02*
X144457D01*
X142222Y252343D02*
X143994D01*
X141837Y251880D02*
X143686D01*
X142453Y252728D02*
X144303D01*
X141760Y251803D02*
X143609D01*
X142299Y252497D02*
X144149D01*
X142684Y253036D02*
X144457D01*
X142376Y252574D02*
X144149D01*
X142222Y252420D02*
X144071D01*
X101377Y253268D02*
X137059D01*
X101377Y253036D02*
X137367D01*
X101531Y252651D02*
X138060D01*
X101454Y252728D02*
X137906D01*
X101377Y252959D02*
X137521D01*
X101531Y252497D02*
X138292D01*
X101609Y252420D02*
X138369D01*
X101377Y253190D02*
X137136D01*
X101454Y252805D02*
X137752D01*
X101377Y253113D02*
X137290D01*
X101686Y252189D02*
X138677D01*
X103766Y251495D02*
X139448D01*
X104152Y251187D02*
X139833D01*
X141374Y251341D02*
X143301D01*
X104229Y250879D02*
X140064D01*
X103689Y251572D02*
X139371D01*
X103843Y251418D02*
X139602D01*
X141374Y251264D02*
X143224D01*
X104152Y251110D02*
X139910D01*
X103458Y251726D02*
X139216D01*
X141143Y251033D02*
X143070D01*
X141066Y250956D02*
X142993D01*
X110394Y237238D02*
X124035D01*
X110086Y236390D02*
X121414D01*
X101223Y235774D02*
X118948D01*
X111396Y239704D02*
X129660D01*
X110317Y237007D02*
X123418D01*
X110471Y237392D02*
X124497D01*
X110317Y237084D02*
X123649D01*
X110471Y237315D02*
X124266D01*
X114093Y250262D02*
X142453D01*
X113939Y250339D02*
X142530D01*
X140758Y250570D02*
X142684D01*
X113785Y250493D02*
X140449D01*
X140835Y250647D02*
X142761D01*
X113554D02*
X140295D01*
X140912Y250724D02*
X142839D01*
X113862Y250416D02*
X140526D01*
X113477Y250724D02*
X140218D01*
X114324Y250031D02*
X142222D01*
X113631Y250570D02*
X140372D01*
X114324Y250108D02*
X142299D01*
X112243Y241168D02*
X132203D01*
X112243Y241245D02*
X132281D01*
X112475Y241554D02*
X132743D01*
X112629Y241785D02*
X133128D01*
X112167Y241091D02*
X132049D01*
X112475Y241476D02*
X132666D01*
X112167Y241014D02*
X131895D01*
X112398Y241400D02*
X132512D01*
X112706Y241862D02*
X133205D01*
X112321Y241322D02*
X132435D01*
X112629Y241708D02*
X132974D01*
X112552Y241631D02*
X132897D01*
X114864Y244790D02*
X137136D01*
X114864Y244867D02*
X137213D01*
X115711Y246871D02*
X139371D01*
X115018Y245099D02*
X137444D01*
X115249Y245407D02*
X137829D01*
X114941Y244945D02*
X137290D01*
X115634Y246486D02*
X138985D01*
X115480Y245946D02*
X138369D01*
X115788Y247256D02*
X139756D01*
X115403Y245869D02*
X138292D01*
X115711Y247025D02*
X139525D01*
X114787Y244713D02*
X136981D01*
X111550Y239935D02*
X130046D01*
X111396Y239627D02*
X129506D01*
X111088Y239010D02*
X128273D01*
X110702Y237931D02*
X125884D01*
X111319Y239550D02*
X129352D01*
X111242Y239473D02*
X129198D01*
X111473Y239858D02*
X129892D01*
X111473Y239781D02*
X129814D01*
X111011Y238856D02*
X127965D01*
X111011Y238779D02*
X127811D01*
X111242Y239396D02*
X129044D01*
X111088Y239088D02*
X128427D01*
X111242Y239319D02*
X128890D01*
X111088Y238933D02*
X128119D01*
X111165Y239242D02*
X128735D01*
X110471Y237469D02*
X124728D01*
X110779Y238317D02*
X126809D01*
X110702Y238009D02*
X126038D01*
X110702Y238086D02*
X126269D01*
X110856Y238394D02*
X126963D01*
X110779Y238240D02*
X126578D01*
X110856Y238471D02*
X127117D01*
X110548Y237700D02*
X125268D01*
X110625Y237777D02*
X125499D01*
X110933Y238702D02*
X127657D01*
X110779Y238163D02*
X126424D01*
X110933Y238625D02*
X127503D01*
X110933Y238548D02*
X127271D01*
X110548Y237623D02*
X125113D01*
X110625Y237855D02*
X125653D01*
X149389Y268295D02*
X150853D01*
X149235Y267679D02*
X150776D01*
X149235Y267602D02*
X150776D01*
X149235Y267756D02*
X150776D01*
X149235Y267371D02*
X150699D01*
X149158Y267293D02*
X150699D01*
X149312Y267910D02*
X150776D01*
X149158Y267216D02*
X150622D01*
X149312Y268064D02*
X150853D01*
X149389Y268141D02*
X150853D01*
X149389Y268218D02*
X150853D01*
X149312Y267987D02*
X150853D01*
X149312Y267833D02*
X150776D01*
X149235Y267448D02*
X150699D01*
X149235Y267525D02*
X150699D01*
X147617Y262207D02*
X149158D01*
X147539Y262053D02*
X149158D01*
X147385Y261513D02*
X148927D01*
X147308Y261437D02*
X148927D01*
X147462Y261822D02*
X149081D01*
X147539Y261976D02*
X149081D01*
X147539Y262130D02*
X149158D01*
X147385Y261745D02*
X149004D01*
X147385Y261668D02*
X149004D01*
X147539Y261899D02*
X149081D01*
X147385Y261591D02*
X148927D01*
X148850Y266060D02*
X150391D01*
X148773Y265752D02*
X150314D01*
X148773Y265598D02*
X150237D01*
X148773Y265675D02*
X150314D01*
X148618Y265290D02*
X150160D01*
X148618Y265136D02*
X150160D01*
X148850Y265983D02*
X150391D01*
X148618Y265213D02*
X150160D01*
X148773Y265829D02*
X150314D01*
X148695Y265521D02*
X150237D01*
X148850Y265906D02*
X150314D01*
X148618Y265444D02*
X150237D01*
X148618Y265367D02*
X150160D01*
X146152Y258893D02*
X147848D01*
X146152Y258739D02*
X147771D01*
X146075Y258585D02*
X147694D01*
X146152Y258816D02*
X147771D01*
X148156Y263671D02*
X149697D01*
X148079Y263440D02*
X149620D01*
X148002Y263286D02*
X149543D01*
X148079Y263517D02*
X149620D01*
X148156Y263594D02*
X149697D01*
X148002Y263209D02*
X149543D01*
X147925Y263132D02*
X149543D01*
X148079Y263363D02*
X149620D01*
X148156Y263748D02*
X149697D01*
X146923Y260512D02*
X148541D01*
X146846Y260203D02*
X148387D01*
X146846Y260357D02*
X148464D01*
X146769Y260126D02*
X148387D01*
X146846Y260435D02*
X148464D01*
X146846Y260280D02*
X148464D01*
X144765Y256273D02*
X146460D01*
X144765Y256196D02*
X146460D01*
X144534Y255811D02*
X146229D01*
X144380Y255579D02*
X146075D01*
X144688Y256119D02*
X146384D01*
X144688Y256042D02*
X146384D01*
X144611Y255965D02*
X146306D01*
X144380Y255502D02*
X146075D01*
X144457Y255657D02*
X146152D01*
X144457Y255734D02*
X146152D01*
X148927Y266292D02*
X150468D01*
X149004Y266677D02*
X150545D01*
X148927Y266446D02*
X150468D01*
X149081Y267062D02*
X150622D01*
X149004Y266754D02*
X150545D01*
X148927Y266369D02*
X150468D01*
X149004Y266831D02*
X150545D01*
X148927Y266523D02*
X150468D01*
X148927Y266137D02*
X150391D01*
X149081Y267139D02*
X150622D01*
X149004Y266600D02*
X150545D01*
X148927Y266214D02*
X150391D01*
X149081Y266985D02*
X150622D01*
X149081Y266908D02*
X150622D01*
X148233Y263903D02*
X149774D01*
X148387Y264288D02*
X149851D01*
X148310Y264211D02*
X149851D01*
X148310Y264134D02*
X149851D01*
X148233Y264057D02*
X149774D01*
X148233Y263825D02*
X149774D01*
X148310Y264365D02*
X149928D01*
X148387Y264442D02*
X149928D01*
X148541Y264904D02*
X150083D01*
X148464Y264673D02*
X150006D01*
X148387Y264519D02*
X149928D01*
X148541Y264750D02*
X150006D01*
X148541Y264827D02*
X150006D01*
X148541Y264982D02*
X150083D01*
X148464Y264596D02*
X150006D01*
X148541Y265058D02*
X150083D01*
X144919Y256504D02*
X146615D01*
X145305Y257198D02*
X147000D01*
X145073Y256735D02*
X146769D01*
X144996Y256581D02*
X146615D01*
X145073Y256658D02*
X146692D01*
X145305Y257121D02*
X146923D01*
X144919Y256427D02*
X146538D01*
X144842Y256350D02*
X146538D01*
X145228Y257044D02*
X146923D01*
X145073Y256813D02*
X146769D01*
X145150Y256890D02*
X146846D01*
X145382Y257275D02*
X147000D01*
X145150Y256967D02*
X146846D01*
X147000Y260589D02*
X148541D01*
X147154Y260974D02*
X148695D01*
X147154Y260897D02*
X148695D01*
X147154Y261128D02*
X148773D01*
X147077Y260743D02*
X148618D01*
X147231Y261282D02*
X148850D01*
X147231Y261205D02*
X148773D01*
X147000Y260666D02*
X148618D01*
X147077Y260820D02*
X148618D01*
X147308Y261359D02*
X148850D01*
X147154Y261051D02*
X148773D01*
X146229Y258970D02*
X147848D01*
X146229Y259047D02*
X147925D01*
X146538Y259587D02*
X148156D01*
X146538Y259664D02*
X148156D01*
X146692Y259895D02*
X148233D01*
X146306Y259124D02*
X147925D01*
X146692Y259972D02*
X148310D01*
X146460Y259433D02*
X148079D01*
X146615Y259818D02*
X148233D01*
X146306Y259202D02*
X147925D01*
X146460Y259356D02*
X148002D01*
X146692Y260049D02*
X148310D01*
X146538Y259510D02*
X148079D01*
X146615Y259741D02*
X148233D01*
X147694Y262284D02*
X149235D01*
X147771Y262592D02*
X149312D01*
X147925Y262978D02*
X149466D01*
X147848Y262747D02*
X149389D01*
X147694Y262515D02*
X149312D01*
X147694Y262361D02*
X149235D01*
X147925Y263055D02*
X149466D01*
X147694Y262438D02*
X149235D01*
X147771Y262669D02*
X149312D01*
X147848Y262824D02*
X149389D01*
X147848Y262901D02*
X149466D01*
X145459Y257352D02*
X147077D01*
X145767Y257968D02*
X147385D01*
X145613Y257814D02*
X147308D01*
X145536Y257583D02*
X147154D01*
X145844Y258200D02*
X147462D01*
X145459Y257506D02*
X147154D01*
X145459Y257429D02*
X147077D01*
X145613Y257737D02*
X147231D01*
X145844Y258277D02*
X147539D01*
X145690Y257892D02*
X147308D01*
X145921Y258354D02*
X147539D01*
X145921Y258431D02*
X147617D01*
X145536Y257660D02*
X147231D01*
X143994Y254886D02*
X145690D01*
X143994Y254963D02*
X145690D01*
X144071Y255117D02*
X145844D01*
X144226Y255271D02*
X145921D01*
X144149Y255194D02*
X145844D01*
X144226Y255348D02*
X145921D01*
X144071Y255040D02*
X145767D01*
X149928Y281088D02*
X151393D01*
X149928Y280934D02*
X151470D01*
X149928Y281011D02*
X151470D01*
X149928Y280780D02*
X151470D01*
X149928Y280857D02*
X151470D01*
X150006Y280703D02*
X151470D01*
X149928Y281165D02*
X151393D01*
X140372Y302744D02*
X142299D01*
X144688Y296810D02*
X146384D01*
X145536Y295114D02*
X147231D01*
X140526Y302589D02*
X142453D01*
X145844Y294652D02*
X147462D01*
X140758Y302281D02*
X142684D01*
X142376Y300277D02*
X144149D01*
X145998Y294343D02*
X147617D01*
X145921Y294420D02*
X147617D01*
X144688Y296732D02*
X146384D01*
X144303Y255425D02*
X145998D01*
Y258508D02*
X147617D01*
X145767Y258046D02*
X147385D01*
X145767Y258123D02*
X147462D01*
X144611Y255888D02*
X146229D01*
X146075Y258662D02*
X147694D01*
X146384Y259279D02*
X148002D01*
X98449Y256042D02*
X133282D01*
X98680Y255811D02*
X133437D01*
X98526Y255965D02*
X133359D01*
X98603Y255888D02*
X133437D01*
X143917Y254809D02*
X145613D01*
X149620Y269451D02*
X151084D01*
X149543Y268989D02*
X151007D01*
X149620Y269297D02*
X151084D01*
X149543Y269066D02*
X151007D01*
X149543Y268912D02*
X151007D01*
X149543Y269143D02*
X151084D01*
X149620Y269528D02*
X151084D01*
X149620Y269374D02*
X151084D01*
X149543Y269220D02*
X151084D01*
X149543Y268835D02*
X151007D01*
X149389Y268372D02*
X150930D01*
X149466Y268681D02*
X150930D01*
X149466Y268603D02*
X150930D01*
X149466Y268758D02*
X151007D01*
X149389Y268449D02*
X150930D01*
X149466Y268527D02*
X150930D01*
X149774Y270684D02*
X151316D01*
X149697Y269914D02*
X151162D01*
X149697Y269991D02*
X151162D01*
X149697Y270145D02*
X151239D01*
X149774Y270453D02*
X151239D01*
X149697Y270222D02*
X151239D01*
X149774Y270607D02*
X151316D01*
X149774Y270299D02*
X151239D01*
X149774Y270530D02*
X151239D01*
X149774Y270376D02*
X151239D01*
X149620Y269683D02*
X151162D01*
X149697Y269837D02*
X151162D01*
X149620Y269605D02*
X151162D01*
X149620Y269759D02*
X151162D01*
X149697Y270068D02*
X151239D01*
X149774Y270761D02*
X151316D01*
X150006Y272303D02*
X151470D01*
X149928Y271994D02*
X151470D01*
X149928Y271224D02*
X151393D01*
X149851Y270993D02*
X151316D01*
X149851Y270916D02*
X151316D01*
X149774Y270838D02*
X151316D01*
X149928Y271532D02*
X151393D01*
X149851Y271070D02*
X151316D01*
X149928Y271147D02*
X151316D01*
X149928Y271378D02*
X151393D01*
X149928Y271455D02*
X151393D01*
X149928Y271301D02*
X151393D01*
X146692Y292879D02*
X148310D01*
X148079Y289257D02*
X149697D01*
X146692Y292956D02*
X148233D01*
X147154Y291877D02*
X148695D01*
X147925Y289720D02*
X149543D01*
X147694Y290490D02*
X149235D01*
X149928Y271763D02*
X151393D01*
X150006Y272226D02*
X151470D01*
X150006Y272072D02*
X151470D01*
X149928Y271840D02*
X151470D01*
X150006Y272688D02*
X151547D01*
X150006Y272457D02*
X151470D01*
X149928Y271686D02*
X151393D01*
X149928Y271917D02*
X151470D01*
X150006Y272148D02*
X151470D01*
X149928Y271609D02*
X151393D01*
X150006Y272380D02*
X151470D01*
X84577Y273690D02*
X133822D01*
X84577Y273613D02*
X133822D01*
X84731Y273073D02*
X134053D01*
X84731Y273228D02*
X134053D01*
X84731Y273305D02*
X133976D01*
X84654Y273459D02*
X133899D01*
X84808Y272611D02*
X134130D01*
X84808Y272919D02*
X134130D01*
X84808Y272842D02*
X134130D01*
X84731Y273150D02*
X134053D01*
X84577Y273536D02*
X133899D01*
X84808Y272765D02*
X134130D01*
X84808Y272996D02*
X134130D01*
X84731Y273382D02*
X133899D01*
X85579Y271609D02*
X133745D01*
X84962Y272457D02*
X134130D01*
X84962Y272380D02*
X134053D01*
X85502Y271686D02*
X133822D01*
X84962Y272226D02*
X134053D01*
X85039Y272148D02*
X134053D01*
X85425Y271763D02*
X133822D01*
X85194Y271994D02*
X133976D01*
X85348Y271840D02*
X133976D01*
X85348Y271917D02*
X133976D01*
X84962Y272534D02*
X134130D01*
X84962Y272303D02*
X134053D01*
X150006Y272534D02*
X151470D01*
X150083Y273613D02*
X151624D01*
X150006Y272765D02*
X151547D01*
X150006Y272996D02*
X151547D01*
X150006Y272919D02*
X151547D01*
X150083Y273382D02*
X151547D01*
X150083Y273073D02*
X151547D01*
X150006Y272842D02*
X151547D01*
X98757Y255734D02*
X133514D01*
X99142Y255348D02*
X133822D01*
X99296Y255194D02*
X133976D01*
X98834Y255657D02*
X133591D01*
X98834Y255579D02*
X133668D01*
X98988Y255502D02*
X133745D01*
X98988Y255425D02*
X133822D01*
X99528Y255117D02*
X134130D01*
X100684Y255040D02*
X134130D01*
X99220Y255271D02*
X133899D01*
X143763Y254655D02*
X145536D01*
X101146Y254501D02*
X134592D01*
X101146Y254423D02*
X134669D01*
X143686D02*
X145382D01*
X101300Y254192D02*
X134978D01*
X101300Y254115D02*
X135055D01*
X101069Y254578D02*
X134515D01*
X101300Y254269D02*
X134901D01*
X101300Y254038D02*
X135132D01*
X143763Y254578D02*
X145459D01*
X143686Y254501D02*
X145459D01*
X143609Y254346D02*
X145382D01*
X101223D02*
X134747D01*
X101069Y254655D02*
X134438D01*
X101531Y252574D02*
X138137D01*
X103150Y251803D02*
X139139D01*
X103920Y251341D02*
X139602D01*
X104306Y250801D02*
X140218D01*
X101609Y252343D02*
X138446D01*
X101609Y252266D02*
X138600D01*
X104229Y250956D02*
X139987D01*
X101994Y251957D02*
X138985D01*
X104229Y251033D02*
X139987D01*
X101686Y252112D02*
X138754D01*
X101763Y252034D02*
X138908D01*
X103998Y251264D02*
X139756D01*
X102379Y251880D02*
X139062D01*
X103612Y251649D02*
X139371D01*
X140681Y250493D02*
X142607D01*
X114478Y249954D02*
X142145D01*
X115172Y249106D02*
X141451D01*
X115634Y248104D02*
X140526D01*
X115403Y248798D02*
X141220D01*
X115711Y247642D02*
X140141D01*
X114787Y249568D02*
X141837D01*
X114710Y249723D02*
X141991D01*
X140604Y250416D02*
X142530D01*
X114556Y249877D02*
X142145D01*
X115711Y247796D02*
X140295D01*
X114941Y249414D02*
X141760D01*
X114170Y250185D02*
X142376D01*
X115249Y249029D02*
X141374D01*
X114710Y249645D02*
X141914D01*
X114632Y249800D02*
X142068D01*
X115788Y247179D02*
X139679D01*
X115711Y247102D02*
X139602D01*
X115711Y246948D02*
X139448D01*
X115711Y246717D02*
X139216D01*
X142839Y253190D02*
X144611D01*
X142145Y252266D02*
X143994D01*
X142607Y252882D02*
X144380D01*
X141991Y252112D02*
X143840D01*
X142068Y252189D02*
X143917D01*
X141914Y252034D02*
X143763D01*
X142376Y252651D02*
X144226D01*
X142530Y252805D02*
X144303D01*
X141837Y251957D02*
X143763D01*
X114787Y244636D02*
X136904D01*
X114556Y244174D02*
X136365D01*
X114632Y244328D02*
X136519D01*
X114247Y243557D02*
X135594D01*
X114016Y243249D02*
X135209D01*
X114324Y243789D02*
X135903D01*
X113939Y243172D02*
X135055D01*
X114401Y243943D02*
X136057D01*
X114556Y244251D02*
X136442D01*
X114401Y243866D02*
X135980D01*
X114093Y243403D02*
X135363D01*
X114710Y244559D02*
X136827D01*
X113862Y243018D02*
X134901D01*
X100761Y254963D02*
X134207D01*
X100915Y254809D02*
X134284D01*
X100838Y254886D02*
X134284D01*
X100992Y254732D02*
X134361D01*
X143840D02*
X145613D01*
X114941Y245022D02*
X137367D01*
X115095Y245253D02*
X137675D01*
X115172Y245330D02*
X137752D01*
X115095Y245176D02*
X137521D01*
X143378Y254038D02*
X145150D01*
X143532Y254269D02*
X145305D01*
X143455Y254192D02*
X145228D01*
X101300Y253961D02*
X135286D01*
X143378D02*
X145073D01*
X143455Y254115D02*
X145228D01*
X115403Y248721D02*
X141143D01*
X115711Y247488D02*
X139987D01*
X115095Y249260D02*
X141605D01*
X115711Y247565D02*
X140064D01*
X115788Y247334D02*
X139833D01*
X115480Y248567D02*
X140989D01*
X115326Y248875D02*
X141297D01*
X115634Y248181D02*
X140604D01*
X115788Y247411D02*
X139910D01*
X115480Y248489D02*
X140912D01*
X101377Y253884D02*
X135440D01*
X101377Y253653D02*
X136057D01*
X101377Y253807D02*
X135671D01*
X101377Y253730D02*
X135826D01*
X143147Y253653D02*
X144919D01*
X143224Y253730D02*
X144919D01*
X143301Y253884D02*
X145073D01*
X143070Y253576D02*
X144842D01*
X143224Y253807D02*
X144996D01*
X101377Y253576D02*
X136288D01*
X112783Y241939D02*
X133359D01*
X113245Y242401D02*
X134053D01*
X113168Y242324D02*
X133899D01*
X112937Y242170D02*
X133668D01*
X113014Y242247D02*
X133822D01*
X112860Y242093D02*
X133591D01*
X113322Y242478D02*
X134130D01*
X112860Y242016D02*
X133437D01*
X113477Y242633D02*
X134361D01*
X113400Y242555D02*
X134284D01*
X101454Y252882D02*
X137675D01*
X142839Y253268D02*
X144611D01*
X101377Y253422D02*
X136750D01*
X101377Y253499D02*
X136442D01*
X142993Y253422D02*
X144765D01*
X101377Y253345D02*
X136904D01*
X142993Y253499D02*
X144765D01*
X142839Y253345D02*
X144688D01*
X140989Y250801D02*
X142839D01*
X141220Y251110D02*
X143070D01*
X140989Y250879D02*
X142915D01*
X141605Y251572D02*
X143455D01*
X141605Y251495D02*
X143378D01*
X141297Y251187D02*
X143147D01*
X141605Y251649D02*
X143532D01*
X141451Y251418D02*
X143301D01*
X141683Y251726D02*
X143532D01*
X115249Y245484D02*
X137906D01*
X115557Y246255D02*
X138754D01*
X115403Y245792D02*
X138215D01*
X115711Y246563D02*
X139062D01*
X115634Y246409D02*
X138908D01*
X115634Y246332D02*
X138831D01*
X115480Y246023D02*
X138523D01*
X115711Y246640D02*
X139139D01*
X115326Y245561D02*
X137983D01*
X115403Y245715D02*
X138137D01*
X115480Y246100D02*
X138600D01*
X115711Y246794D02*
X139294D01*
X115557Y246178D02*
X138677D01*
X115326Y245638D02*
X138060D01*
X150006Y280626D02*
X151470D01*
X150083Y279316D02*
X151624D01*
X150006Y280240D02*
X151547D01*
X150083Y279701D02*
X151547D01*
X150083Y279239D02*
X151624D01*
X150083Y279547D02*
X151547D01*
X150006Y280317D02*
X151470D01*
X150083Y279393D02*
X151547D01*
X150006Y280395D02*
X151470D01*
X150006Y280472D02*
X151470D01*
X150006Y280009D02*
X151547D01*
X150083Y279470D02*
X151547D01*
X150083Y279624D02*
X151547D01*
X82265Y280472D02*
X133205D01*
X82419Y280009D02*
X133437D01*
X82573Y279701D02*
X133514D01*
X82573Y279624D02*
X133514D01*
X82342Y280240D02*
X133282D01*
X82573Y279393D02*
X133514D01*
X82419Y280086D02*
X133359D01*
X82573Y279470D02*
X133514D01*
X82342Y280317D02*
X133282D01*
X82419Y280163D02*
X133359D01*
X82496Y279855D02*
X133437D01*
X82496Y279932D02*
X133437D01*
X82496Y279778D02*
X133514D01*
X82342Y280395D02*
X133205D01*
X82573Y279547D02*
X133514D01*
X82265Y277620D02*
X134053D01*
X82265Y277081D02*
X134207D01*
X82265Y277466D02*
X134130D01*
X82265Y277158D02*
X134207D01*
X82419Y276772D02*
X134207D01*
X82265Y277543D02*
X134130D01*
X82342Y276927D02*
X134207D01*
X82265Y277389D02*
X134130D01*
X82265Y277312D02*
X134207D01*
X82419Y276695D02*
X134207D01*
X82419Y276618D02*
X134207D01*
X83652Y275462D02*
X133514D01*
X83806Y275154D02*
X133437D01*
X83806Y275000D02*
X133359D01*
X83806Y275077D02*
X133359D01*
X83652Y275231D02*
X133437D01*
X83652Y275385D02*
X133514D01*
X83806Y274846D02*
X133437D01*
X83652Y275308D02*
X133437D01*
X83806Y274923D02*
X133359D01*
X83806Y274615D02*
X133437D01*
X83806Y274769D02*
X133437D01*
X83806Y274692D02*
X133437D01*
X82573Y279316D02*
X133514D01*
X82496Y278930D02*
X133514D01*
X82496Y279084D02*
X133514D01*
X82496Y278776D02*
X133514D01*
X82573Y279239D02*
X133514D01*
X82496Y278622D02*
X133591D01*
X82496Y278699D02*
X133591D01*
X82496Y279007D02*
X133514D01*
X82496Y279162D02*
X133514D01*
X150160Y277851D02*
X151701D01*
X150160Y278006D02*
X151624D01*
X150160Y277928D02*
X151701D01*
X150006Y280549D02*
X151470D01*
X83652Y275539D02*
X133591D01*
X82496Y276464D02*
X134130D01*
X82573Y276387D02*
X134053D01*
X83575Y275617D02*
X133591D01*
X82650Y276233D02*
X133899D01*
X82959Y276079D02*
X133822D01*
X83498Y275694D02*
X133591D01*
X82650Y276156D02*
X133899D01*
X82650Y276310D02*
X133976D01*
X83344Y275848D02*
X133668D01*
X82496Y276541D02*
X134207D01*
X83190Y276002D02*
X133822D01*
X83421Y275771D02*
X133668D01*
X82342Y276850D02*
X134207D01*
X82265Y277004D02*
X134207D01*
X82265Y277235D02*
X134207D01*
X82265Y278006D02*
X133899D01*
X84269Y274075D02*
X133668D01*
X84038Y274306D02*
X133591D01*
X83960Y274383D02*
X133591D01*
X84192Y274152D02*
X133668D01*
X84115Y274229D02*
X133591D01*
X83884Y274461D02*
X133514D01*
X82265Y277697D02*
X134053D01*
X82342Y278237D02*
X133745D01*
X82419Y278468D02*
X133668D01*
X82265Y277928D02*
X133976D01*
X82265Y277851D02*
X133976D01*
X82265Y278083D02*
X133822D01*
X82265Y277774D02*
X133976D01*
X82342Y278160D02*
X133822D01*
X82419Y278545D02*
X133591D01*
X82496Y278853D02*
X133514D01*
X82342Y278314D02*
X133745D01*
X82419Y278391D02*
X133668D01*
X82188Y281165D02*
X133051D01*
X82188Y281011D02*
X133051D01*
X83267Y275925D02*
X133745D01*
X82188Y280780D02*
X133128D01*
X82188Y280857D02*
X133128D01*
X82188Y280626D02*
X133128D01*
X82188Y280549D02*
X133205D01*
X82188Y280703D02*
X133128D01*
X82188Y280934D02*
X133051D01*
X82111Y281088D02*
X133051D01*
X84423Y273921D02*
X133745D01*
X84500Y273767D02*
X133822D01*
X84500Y273844D02*
X133745D01*
X84346Y273998D02*
X133668D01*
X83806Y274538D02*
X133514D01*
X93748Y268218D02*
X133668D01*
X93671Y268603D02*
X133668D01*
X93671Y268681D02*
X133668D01*
X93671Y268527D02*
X133668D01*
X93671Y268372D02*
X133668D01*
X93748Y268295D02*
X133668D01*
X93671Y268449D02*
X133668D01*
X93594Y268912D02*
X133514D01*
X93594Y268989D02*
X133514D01*
X93594Y268835D02*
X133591D01*
X93517Y269297D02*
X133359D01*
X93440Y269374D02*
X133282D01*
X93440Y269451D02*
X133282D01*
X93594Y268758D02*
X133591D01*
X93517Y269066D02*
X133437D01*
X93517Y269143D02*
X133437D01*
X93517Y269220D02*
X133359D01*
X93362Y269914D02*
X133128D01*
X93440Y269528D02*
X133205D01*
X93440Y269605D02*
X133205D01*
X93362Y269837D02*
X133128D01*
X93362Y269759D02*
X133205D01*
X93440Y269683D02*
X133205D01*
X93285Y270068D02*
X133128D01*
X93285Y269991D02*
X133128D01*
X92592Y270453D02*
X133128D01*
X93208Y270222D02*
X133128D01*
X93285Y270145D02*
X133128D01*
X92900Y270376D02*
X133128D01*
X92977Y270299D02*
X133128D01*
X84808Y272688D02*
X134130D01*
X85116Y272072D02*
X134053D01*
X85964Y271224D02*
X133514D01*
X86273Y270916D02*
X133359D01*
X86349Y270684D02*
X133205D01*
X85964Y271301D02*
X133591D01*
X86195Y271070D02*
X133437D01*
X86195Y270993D02*
X133359D01*
X85733Y271455D02*
X133668D01*
X86118Y271147D02*
X133437D01*
X86349Y270761D02*
X133282D01*
X85656Y271532D02*
X133745D01*
X85810Y271378D02*
X133591D01*
X93748Y268141D02*
X133668D01*
X86504Y270530D02*
X133128D01*
X86349Y270607D02*
X133205D01*
X86349Y270838D02*
X133359D01*
X82419Y281628D02*
X133051D01*
X82419Y281705D02*
X133051D01*
X82419Y281859D02*
X133051D01*
X82496Y282013D02*
X133128D01*
X82496Y281936D02*
X133051D01*
X82419Y281782D02*
X133051D01*
X149543Y283785D02*
X151007D01*
X149620Y283554D02*
X151084D01*
X83421Y283631D02*
X133282D01*
X83267Y283323D02*
X133359D01*
X83190Y283246D02*
X133437D01*
X83421Y283554D02*
X133282D01*
X149620Y283477D02*
X151084D01*
X83421Y283785D02*
X133282D01*
X149620Y283323D02*
X151084D01*
X149620Y283631D02*
X151084D01*
X83344Y283477D02*
X133359D01*
X83344Y283400D02*
X133359D01*
X83421Y283708D02*
X133282D01*
X149620Y283246D02*
X151162D01*
X149620Y283400D02*
X151084D01*
X83113Y285096D02*
X132126D01*
X83113Y284941D02*
X132203D01*
X83113Y285018D02*
X132203D01*
X83113Y284633D02*
X132589D01*
X83113Y284864D02*
X132358D01*
X83113Y284710D02*
X132512D01*
X83190Y284479D02*
X132743D01*
X83113Y284556D02*
X132666D01*
X83267Y284325D02*
X132897D01*
X83113Y284787D02*
X132358D01*
X83190Y284402D02*
X132820D01*
X149004Y286251D02*
X150545D01*
X149004Y286174D02*
X150545D01*
X149158Y285635D02*
X150622D01*
X149081Y285789D02*
X150622D01*
X149081Y285712D02*
X150622D01*
X149235Y285327D02*
X150699D01*
X149004Y286097D02*
X150545D01*
X149158Y285558D02*
X150699D01*
X149235Y285173D02*
X150776D01*
X149081Y285943D02*
X150622D01*
X149235Y285250D02*
X150776D01*
X149235Y285404D02*
X150699D01*
X149081Y285866D02*
X150622D01*
X149235Y285481D02*
X150699D01*
X149235Y285096D02*
X150776D01*
X149004Y286020D02*
X150545D01*
X70859Y290336D02*
X72478D01*
X83190Y285789D02*
X131664D01*
X83190Y286097D02*
X131433D01*
X83190Y285943D02*
X131510D01*
X149620Y283169D02*
X151162D01*
X149620Y283092D02*
X151162D01*
X149697Y282706D02*
X151239D01*
X149697Y282861D02*
X151162D01*
X149697Y282629D02*
X151239D01*
X149697Y282784D02*
X151239D01*
X82496Y282244D02*
X133205D01*
X82805Y282938D02*
X133359D01*
X82727Y282861D02*
X133359D01*
X82650Y282706D02*
X133359D01*
X82496Y282321D02*
X133282D01*
X82650Y282629D02*
X133359D01*
X149697Y282938D02*
X151162D01*
X82650Y282475D02*
X133282D01*
X82650Y282784D02*
X133359D01*
X149697Y282552D02*
X151239D01*
X149697Y283015D02*
X151162D01*
X82650Y282398D02*
X133282D01*
X82650Y282552D02*
X133282D01*
X82882Y283015D02*
X133359D01*
X82265Y281242D02*
X133051D01*
X82265Y281396D02*
X132974D01*
X82496Y282167D02*
X133205D01*
X82265Y281473D02*
X133051D01*
X82496Y282090D02*
X133128D01*
X82342Y281551D02*
X133051D01*
X82959Y283092D02*
X133437D01*
X83113Y283169D02*
X133437D01*
X82265Y281319D02*
X132974D01*
X149543Y283708D02*
X151084D01*
X149312Y284864D02*
X150853D01*
X149543Y283862D02*
X151007D01*
X149312Y285018D02*
X150776D01*
X149543Y283940D02*
X151007D01*
X149466Y284171D02*
X150930D01*
X148850Y286791D02*
X150391D01*
X148927Y286329D02*
X150468D01*
X148927Y286406D02*
X150468D01*
X148927Y286637D02*
X150391D01*
X148927Y286714D02*
X150391D01*
X148850Y286868D02*
X150391D01*
X148850Y286945D02*
X150314D01*
X148927Y286483D02*
X150468D01*
X149466Y284017D02*
X151007D01*
X149389Y284325D02*
X150930D01*
X149389Y284479D02*
X150930D01*
X149312Y284633D02*
X150853D01*
X149312Y284941D02*
X150776D01*
X149312Y284787D02*
X150853D01*
X149389Y284402D02*
X150930D01*
X149466Y284094D02*
X151007D01*
X149389Y284556D02*
X150853D01*
X149466Y284248D02*
X150930D01*
X149312Y284710D02*
X150853D01*
X149697Y282475D02*
X151239D01*
X149774Y282244D02*
X151316D01*
X149774Y281859D02*
X151316D01*
X149774Y282321D02*
X151239D01*
X149774Y282398D02*
X151239D01*
X149774Y281936D02*
X151316D01*
X149774Y282167D02*
X151316D01*
X149774Y282013D02*
X151316D01*
X149774Y282090D02*
X151316D01*
X149851Y281782D02*
X151316D01*
X149928Y281242D02*
X151393D01*
X149928Y281396D02*
X151393D01*
X149928Y281319D02*
X151393D01*
X149928Y281473D02*
X151393D01*
X149928Y281551D02*
X151393D01*
X149928Y281705D02*
X151316D01*
X149928Y281628D02*
X151393D01*
X83113Y285173D02*
X132049D01*
X83421Y286406D02*
X131202D01*
X83267Y286251D02*
X131279D01*
X83113Y285558D02*
X131818D01*
X83113Y285327D02*
X131972D01*
X83267Y286174D02*
X131356D01*
X83113Y285404D02*
X131895D01*
X83113Y285712D02*
X131664D01*
X83113Y285635D02*
X131741D01*
X83113Y285481D02*
X131895D01*
X83344Y286329D02*
X131202D01*
X83190Y285866D02*
X131587D01*
X83113Y285250D02*
X132049D01*
X83190Y286020D02*
X131433D01*
X83421Y283862D02*
X133205D01*
X83421Y283940D02*
X133205D01*
X83421Y284094D02*
X133128D01*
X83344Y284171D02*
X132974D01*
X83344Y284248D02*
X132974D01*
X83421Y284017D02*
X133128D01*
X150160Y274615D02*
X151624D01*
X150160Y273921D02*
X151624D01*
X150160Y274306D02*
X151624D01*
X150083Y273767D02*
X151624D01*
X150083Y273690D02*
X151624D01*
X150160Y274075D02*
X151624D01*
X150160Y273998D02*
X151624D01*
X150083Y273844D02*
X151624D01*
X150160Y274229D02*
X151624D01*
X150160Y274152D02*
X151624D01*
X150160Y274461D02*
X151624D01*
X150160Y274383D02*
X151624D01*
X150006Y280163D02*
X151547D01*
X150160Y278391D02*
X151624D01*
X150006Y280086D02*
X151547D01*
X150006Y279932D02*
X151547D01*
X150006Y279855D02*
X151547D01*
X150083Y279162D02*
X151624D01*
X150160Y278622D02*
X151624D01*
X150160Y278083D02*
X151624D01*
X150083Y279084D02*
X151624D01*
X150160Y278314D02*
X151624D01*
X150160Y278853D02*
X151624D01*
X150160Y278160D02*
X151624D01*
X150160Y278468D02*
X151624D01*
X150083Y279007D02*
X151624D01*
X150160Y278776D02*
X151624D01*
X150160Y278237D02*
X151624D01*
X150160Y278930D02*
X151624D01*
X150160Y278699D02*
X151624D01*
X150160Y278545D02*
X151624D01*
X150160Y277774D02*
X151701D01*
X150160Y277389D02*
X151701D01*
X150160Y277543D02*
X151701D01*
X150237Y277081D02*
X151701D01*
X150237Y277235D02*
X151701D01*
X150237Y276927D02*
X151701D01*
X150160Y277466D02*
X151701D01*
X150237Y277312D02*
X151701D01*
X150160Y277697D02*
X151701D01*
X150237Y277004D02*
X151701D01*
X150237Y277158D02*
X151701D01*
X150160Y277620D02*
X151701D01*
X150237Y275617D02*
X151701D01*
X150237Y276387D02*
X151701D01*
X150237Y275694D02*
X151701D01*
X150237Y276695D02*
X151701D01*
X150237Y276079D02*
X151701D01*
X150237Y276618D02*
X151701D01*
X150237Y276233D02*
X151701D01*
X150237Y275771D02*
X151701D01*
X150237Y275848D02*
X151701D01*
X150237Y276310D02*
X151701D01*
X150237Y276541D02*
X151701D01*
X150237Y276464D02*
X151701D01*
X150237Y276002D02*
X151701D01*
X150237Y275925D02*
X151701D01*
X150237Y276156D02*
X151701D01*
X150237Y276850D02*
X151701D01*
X150237Y276772D02*
X151701D01*
X150083Y279778D02*
X151547D01*
X150006Y272611D02*
X151547D01*
X150160Y274538D02*
X151624D01*
X150160Y275231D02*
X151701D01*
X150160Y274692D02*
X151624D01*
X150160Y275000D02*
X151701D01*
X150160Y275154D02*
X151701D01*
X150237Y275539D02*
X151701D01*
X150160Y275077D02*
X151701D01*
X150160Y275385D02*
X151701D01*
X150160Y274846D02*
X151624D01*
X150160Y274923D02*
X151701D01*
X150160Y275462D02*
X151701D01*
X150160Y274769D02*
X151624D01*
X150160Y275308D02*
X151701D01*
X150083Y273150D02*
X151547D01*
X150083Y273305D02*
X151547D01*
X150083Y273459D02*
X151547D01*
X150083Y273536D02*
X151624D01*
X150083Y273228D02*
X151547D01*
X95366Y263671D02*
X132589D01*
X95366Y263980D02*
X132820D01*
X95366Y263748D02*
X132589D01*
X95366Y264057D02*
X132820D01*
X95366Y263825D02*
X132666D01*
X95366Y263903D02*
X132743D01*
X95366Y264134D02*
X132820D01*
X95366Y264211D02*
X132820D01*
X93825Y268064D02*
X133745D01*
X94287Y267448D02*
X133745D01*
X94056Y267679D02*
X133745D01*
X93902Y267987D02*
X133745D01*
X94210Y267525D02*
X133745D01*
X93902Y267910D02*
X133745D01*
X94056Y267756D02*
X133745D01*
X93979Y267833D02*
X133745D01*
X95366Y264982D02*
X132897D01*
X95366Y265136D02*
X132974D01*
X95366Y265213D02*
X132974D01*
X95366Y265058D02*
X132974D01*
X95366Y264904D02*
X132897D01*
X95212Y266060D02*
X133205D01*
X95366Y265444D02*
X133051D01*
X95366Y265521D02*
X133051D01*
X95289Y265829D02*
X133128D01*
X95289Y265752D02*
X133128D01*
X95366Y265367D02*
X132974D01*
X95366Y265675D02*
X133128D01*
X95366Y265598D02*
X133051D01*
X95366Y265290D02*
X132974D01*
X95289Y265906D02*
X133205D01*
X95212Y265983D02*
X133205D01*
X94133Y267602D02*
X133745D01*
X94364Y267293D02*
X133668D01*
X94441Y267139D02*
X133668D01*
X94287Y267371D02*
X133745D01*
X94596Y266908D02*
X133591D01*
X94364Y267216D02*
X133668D01*
X94519Y267062D02*
X133591D01*
X94596Y266985D02*
X133591D01*
X95366Y264827D02*
X132897D01*
X95366Y264442D02*
X132897D01*
X95366Y264750D02*
X132897D01*
X95366Y264519D02*
X132897D01*
X95366Y264365D02*
X132897D01*
X95366Y264596D02*
X132897D01*
X95366Y264673D02*
X132897D01*
X95366Y264288D02*
X132897D01*
X95135Y266214D02*
X133282D01*
X95058Y266369D02*
X133359D01*
X94750Y266831D02*
X133514D01*
X94904Y266600D02*
X133437D01*
X94981Y266523D02*
X133359D01*
X94750Y266754D02*
X133514D01*
X94981Y266446D02*
X133359D01*
X94827Y266677D02*
X133437D01*
X95058Y266292D02*
X133282D01*
X95135Y266137D02*
X133282D01*
X95135Y262669D02*
X131047D01*
X95058Y262515D02*
X130200D01*
X95289Y263517D02*
X132512D01*
X95135Y262824D02*
X131433D01*
X95058Y262438D02*
X130200D01*
X95135Y262901D02*
X131664D01*
X95212Y263209D02*
X132358D01*
X95289Y263363D02*
X132435D01*
X95289Y263286D02*
X132358D01*
X95135Y262747D02*
X131433D01*
X95289Y263440D02*
X132435D01*
X95366Y263594D02*
X132589D01*
X95212Y263132D02*
X132126D01*
X95135Y262592D02*
X130277D01*
X95212Y263055D02*
X131895D01*
X95212Y262978D02*
X131895D01*
X94827Y261051D02*
X130046D01*
X94904Y261437D02*
X129969D01*
X94904Y261282D02*
X129969D01*
X94904Y261513D02*
X129969D01*
X94904Y261591D02*
X129969D01*
X94904Y261205D02*
X130046D01*
X94904Y261359D02*
X129969D01*
X94904Y261668D02*
X129969D01*
X94827Y261128D02*
X130046D01*
X95983Y257583D02*
X132126D01*
X96830Y257429D02*
X132281D01*
X95675Y257660D02*
X132126D01*
X97216Y257352D02*
X132281D01*
X96368Y257506D02*
X132203D01*
X97370Y257275D02*
X132358D01*
X95058Y262361D02*
X130123D01*
X94904Y261899D02*
X129892D01*
X94904Y261822D02*
X129892D01*
X94904Y261745D02*
X129969D01*
X94981Y262284D02*
X130123D01*
X94904Y261976D02*
X129969D01*
X94981Y262207D02*
X130046D01*
X94981Y262053D02*
X129969D01*
X94981Y262130D02*
X130046D01*
X98295Y256427D02*
X133051D01*
X98218Y256504D02*
X133051D01*
X98218Y256581D02*
X132974D01*
X98372Y256196D02*
X133205D01*
X98449Y256119D02*
X133205D01*
X98295Y256350D02*
X133128D01*
X98372Y256273D02*
X133205D01*
X95058Y258123D02*
X131741D01*
X95135Y258046D02*
X131818D01*
X94981Y258200D02*
X131741D01*
X94827Y258277D02*
X131664D01*
X94673Y259433D02*
X130893D01*
X94673Y259202D02*
X131047D01*
X94673Y259279D02*
X130970D01*
X94596Y259587D02*
X130816D01*
X94596Y259818D02*
X130739D01*
X94673Y259356D02*
X130970D01*
X94673Y259510D02*
X130893D01*
X94596Y259664D02*
X130816D01*
X94519Y259895D02*
X130662D01*
X94673Y259124D02*
X131047D01*
X94596Y259741D02*
X130739D01*
X97986Y256890D02*
X132666D01*
X97832Y256967D02*
X132666D01*
X97601Y257121D02*
X132435D01*
X98063Y256658D02*
X132897D01*
X97755Y257044D02*
X132589D01*
X97447Y257198D02*
X132435D01*
X98063Y256735D02*
X132820D01*
X98063Y256813D02*
X132820D01*
X94750Y260820D02*
X130123D01*
X94673Y260666D02*
X130277D01*
X94750Y260743D02*
X130123D01*
X94596Y260512D02*
X130277D01*
X94750Y260897D02*
X130123D01*
X94750Y260974D02*
X130123D01*
X94673Y260589D02*
X130277D01*
X94673Y258970D02*
X131124D01*
X94750Y258431D02*
X131510D01*
X94673Y258739D02*
X131279D01*
X94673Y259047D02*
X131047D01*
X94750Y258585D02*
X131433D01*
X94673Y258662D02*
X131356D01*
X94827Y258354D02*
X131587D01*
X94673Y258893D02*
X131202D01*
X94750Y258508D02*
X131433D01*
X94673Y258816D02*
X131279D01*
X94519Y260049D02*
X130662D01*
X94519Y260280D02*
X130431D01*
X94519Y259972D02*
X130662D01*
X94519Y260126D02*
X130508D01*
X94519Y260203D02*
X130508D01*
X94596Y260357D02*
X130431D01*
X94596Y260435D02*
X130354D01*
X95520Y257737D02*
X132049D01*
X95366Y257892D02*
X131972D01*
X95289Y257968D02*
X131895D01*
X95443Y257814D02*
X132049D01*
M02*
