G04*
G04 #@! TF.GenerationSoftware,Altium Limited,Altium Designer,22.6.1 (34)*
G04*
G04 Layer_Color=152*
%FSLAX25Y25*%
%MOIN*%
G70*
G04*
G04 #@! TF.SameCoordinates,8414C9FA-97DA-49A9-B933-D5EF8910B524*
G04*
G04*
G04 #@! TF.FilePolarity,Positive*
G04*
G01*
G75*
%ADD19R,0.04194X0.03494*%
%ADD20R,0.04764X0.03543*%
%ADD21R,0.03150X0.05512*%
%ADD22R,0.05512X0.03150*%
%ADD23R,0.02717X0.05158*%
%ADD24R,0.04528X0.02559*%
%ADD25R,0.07874X0.07874*%
%ADD26R,0.08661X0.06693*%
%ADD27R,0.01968X0.05709*%
%ADD28R,0.03494X0.04194*%
%ADD29R,0.09252X0.06102*%
%ADD30R,0.05194X0.01594*%
%ADD31R,0.01594X0.05194*%
%ADD32R,0.06299X0.02362*%
G04:AMPARAMS|DCode=33|XSize=66.93mil|YSize=53.15mil|CornerRadius=0mil|HoleSize=0mil|Usage=FLASHONLY|Rotation=45.000|XOffset=0mil|YOffset=0mil|HoleType=Round|Shape=Rectangle|*
%AMROTATEDRECTD33*
4,1,4,-0.00487,-0.04245,-0.04245,-0.00487,0.00487,0.04245,0.04245,0.00487,-0.00487,-0.04245,0.0*
%
%ADD33ROTATEDRECTD33*%

%ADD34R,0.15748X0.24803*%
%ADD35R,0.13386X0.17717*%
%ADD36R,0.04331X0.02362*%
%ADD37R,0.02559X0.04528*%
%ADD38R,0.06496X0.05118*%
%ADD39R,0.06693X0.06693*%
%ADD40R,0.04331X0.03543*%
%ADD41R,0.03150X0.06299*%
%ADD42R,0.03937X0.08268*%
%ADD43R,0.08268X0.03937*%
%ADD44R,0.05630X0.05630*%
%ADD45R,0.05512X0.13780*%
%ADD46R,0.08894X0.11193*%
%ADD47R,0.24803X0.15748*%
%ADD48R,0.17717X0.13386*%
%ADD49R,0.13386X0.06693*%
%ADD50R,0.05118X0.06693*%
%ADD51R,0.12205X0.08268*%
D19*
X319774Y56998D02*
D03*
X326074D02*
D03*
X324213Y75197D02*
D03*
X317913D02*
D03*
X253150Y235630D02*
D03*
X246850D02*
D03*
X238189D02*
D03*
X231889D02*
D03*
X248032Y147441D02*
D03*
X241732D02*
D03*
X244882Y155709D02*
D03*
X251182D02*
D03*
X244882Y160236D02*
D03*
X251182D02*
D03*
X235826Y165157D02*
D03*
X242126D02*
D03*
X259843Y83071D02*
D03*
X253543D02*
D03*
X234449Y131693D02*
D03*
X228149D02*
D03*
X173229Y133661D02*
D03*
X166929D02*
D03*
X173229Y138583D02*
D03*
X166929D02*
D03*
X164567Y147244D02*
D03*
X158267D02*
D03*
X199803Y177362D02*
D03*
X193503D02*
D03*
X167913Y169882D02*
D03*
X174213D02*
D03*
X70079Y11220D02*
D03*
X63779D02*
D03*
X105512Y125000D02*
D03*
X99212D02*
D03*
D20*
X326071Y61705D02*
D03*
X318236Y65445D02*
D03*
X326071Y69185D02*
D03*
X236528Y249515D02*
D03*
X244362Y245775D02*
D03*
X236528Y242035D02*
D03*
X219969Y242216D02*
D03*
X212134Y245957D02*
D03*
X219969Y249697D02*
D03*
X57264Y11220D02*
D03*
X49429Y14961D02*
D03*
X57264Y18701D02*
D03*
X53150Y122244D02*
D03*
X45315Y118504D02*
D03*
X53150Y114764D02*
D03*
D21*
X317913Y83661D02*
D03*
X325394D02*
D03*
X248819Y24016D02*
D03*
X241339D02*
D03*
X140157Y138583D02*
D03*
X147638D02*
D03*
X31693Y5118D02*
D03*
X39173D02*
D03*
X39173Y11909D02*
D03*
X31693D02*
D03*
X39173Y18602D02*
D03*
X31693D02*
D03*
D22*
X257677Y37205D02*
D03*
Y44685D02*
D03*
X250394Y37205D02*
D03*
Y44685D02*
D03*
X243110Y37205D02*
D03*
Y44685D02*
D03*
X261811Y98032D02*
D03*
Y90551D02*
D03*
X253740Y98032D02*
D03*
Y90551D02*
D03*
X189173Y106102D02*
D03*
Y113583D02*
D03*
X182480D02*
D03*
Y106102D02*
D03*
X156693Y156102D02*
D03*
Y163583D02*
D03*
X185827Y184744D02*
D03*
Y177264D02*
D03*
X177953Y184843D02*
D03*
Y177362D02*
D03*
X117323Y159055D02*
D03*
Y166535D02*
D03*
X79921Y135236D02*
D03*
Y142717D02*
D03*
X73032D02*
D03*
Y135039D02*
D03*
X45472Y130709D02*
D03*
Y138189D02*
D03*
D23*
X223425Y30492D02*
D03*
X219685D02*
D03*
X215945D02*
D03*
Y40374D02*
D03*
X219685D02*
D03*
X223425D02*
D03*
D24*
X230315Y30709D02*
D03*
X241339D02*
D03*
X262992Y245775D02*
D03*
X251969D02*
D03*
X193898Y245957D02*
D03*
X204921D02*
D03*
D25*
X223031Y8711D02*
D03*
X213583D02*
D03*
X203150D02*
D03*
X233465D02*
D03*
D26*
X206102Y18750D02*
D03*
X230512D02*
D03*
D27*
X213189Y19242D02*
D03*
X215748D02*
D03*
X218307D02*
D03*
X220866D02*
D03*
X223425D02*
D03*
D28*
X231299Y250197D02*
D03*
Y243897D02*
D03*
X225984Y243110D02*
D03*
Y249410D02*
D03*
X217323Y118307D02*
D03*
Y112007D02*
D03*
X212205D02*
D03*
Y118307D02*
D03*
X207087Y112007D02*
D03*
Y118307D02*
D03*
X201969Y112007D02*
D03*
Y118307D02*
D03*
X203937Y80118D02*
D03*
Y86418D02*
D03*
X203920Y91399D02*
D03*
Y97698D02*
D03*
X188779Y143111D02*
D03*
Y136811D02*
D03*
X209842Y197245D02*
D03*
Y190945D02*
D03*
X123228Y159645D02*
D03*
Y165945D02*
D03*
X111614Y27559D02*
D03*
Y21260D02*
D03*
X76378Y14370D02*
D03*
Y8071D02*
D03*
X43701Y12303D02*
D03*
Y18603D02*
D03*
X59055Y121851D02*
D03*
Y115551D02*
D03*
D29*
X234055Y184724D02*
D03*
Y194724D02*
D03*
Y204724D02*
D03*
Y214724D02*
D03*
Y224724D02*
D03*
D30*
X196063Y165157D02*
D03*
D03*
Y163189D02*
D03*
Y161221D02*
D03*
Y159252D02*
D03*
Y157283D02*
D03*
Y155315D02*
D03*
Y153347D02*
D03*
Y151378D02*
D03*
Y149409D02*
D03*
Y147441D02*
D03*
Y145472D02*
D03*
X229528D02*
D03*
Y147441D02*
D03*
Y149409D02*
D03*
Y151378D02*
D03*
Y153347D02*
D03*
Y155315D02*
D03*
Y157283D02*
D03*
Y159252D02*
D03*
Y161221D02*
D03*
Y163189D02*
D03*
Y165157D02*
D03*
Y143504D02*
D03*
X196063D02*
D03*
D31*
X215748Y137598D02*
D03*
X217717D02*
D03*
X219685D02*
D03*
X221654D02*
D03*
X201969D02*
D03*
X203937D02*
D03*
X205906D02*
D03*
X223622D02*
D03*
X207874D02*
D03*
X211811D02*
D03*
X213779D02*
D03*
X209842D02*
D03*
X207874Y171063D02*
D03*
X205906D02*
D03*
X201969D02*
D03*
X211811D02*
D03*
X203937D02*
D03*
X223622D02*
D03*
X221654D02*
D03*
X219685D02*
D03*
X217717D02*
D03*
X215748D02*
D03*
X213779D02*
D03*
X209842D02*
D03*
D32*
X223031Y98051D02*
D03*
Y93051D02*
D03*
Y88051D02*
D03*
Y83051D02*
D03*
X244685D02*
D03*
Y88051D02*
D03*
Y93051D02*
D03*
Y98051D02*
D03*
X167717Y101398D02*
D03*
Y96398D02*
D03*
Y91398D02*
D03*
Y86398D02*
D03*
X189370D02*
D03*
Y91398D02*
D03*
Y96398D02*
D03*
Y101398D02*
D03*
X91535Y130098D02*
D03*
Y135098D02*
D03*
Y140098D02*
D03*
Y145098D02*
D03*
X113189D02*
D03*
Y140098D02*
D03*
Y135098D02*
D03*
Y130098D02*
D03*
D33*
X176455Y148874D02*
D03*
X170331Y154999D02*
D03*
X186756Y159175D02*
D03*
X180631Y165299D02*
D03*
D34*
X135827Y27461D02*
D03*
X186614D02*
D03*
D35*
X163779Y62697D02*
D03*
D36*
X159055Y96850D02*
D03*
Y101181D02*
D03*
D37*
X147638Y119291D02*
D03*
Y130315D02*
D03*
X79528Y183268D02*
D03*
Y194291D02*
D03*
D38*
X105118Y205512D02*
D03*
Y185433D02*
D03*
X140551Y205512D02*
D03*
Y185433D02*
D03*
D39*
X93701Y204930D02*
D03*
X79528Y204912D02*
D03*
D40*
X82677Y3150D02*
D03*
X111417Y11417D02*
D03*
Y3150D02*
D03*
X82677Y11417D02*
D03*
D41*
X88189Y14370D02*
D03*
X100000D02*
D03*
X105905D02*
D03*
D42*
X31831Y27293D02*
D03*
X36831D02*
D03*
X41831D02*
D03*
X46831D02*
D03*
X51831D02*
D03*
X56831D02*
D03*
X61831D02*
D03*
X66831D02*
D03*
X71831D02*
D03*
X76831D02*
D03*
X81831D02*
D03*
X86831D02*
D03*
X91831D02*
D03*
X96831D02*
D03*
Y94222D02*
D03*
X91831D02*
D03*
X86831D02*
D03*
X81831D02*
D03*
X76831D02*
D03*
X71831D02*
D03*
X66831D02*
D03*
X61831D02*
D03*
X56831D02*
D03*
X51831D02*
D03*
X46831D02*
D03*
X41831D02*
D03*
X36831D02*
D03*
X31831D02*
D03*
D43*
X100768Y38258D02*
D03*
Y43258D02*
D03*
Y48258D02*
D03*
Y53258D02*
D03*
Y58258D02*
D03*
Y63258D02*
D03*
Y68258D02*
D03*
Y73258D02*
D03*
Y78258D02*
D03*
Y83258D02*
D03*
D44*
X54134Y49596D02*
D03*
Y56821D02*
D03*
Y64045D02*
D03*
X61358Y49596D02*
D03*
Y56821D02*
D03*
Y64045D02*
D03*
X68583Y49596D02*
D03*
Y56821D02*
D03*
Y64045D02*
D03*
D45*
X98228Y114764D02*
D03*
X106496D02*
D03*
D46*
X87638D02*
D03*
X70236D02*
D03*
D47*
X27657Y204331D02*
D03*
Y153543D02*
D03*
D48*
X62894Y176378D02*
D03*
D49*
X139173Y173425D02*
D03*
D50*
X130118Y148228D02*
D03*
X148228D02*
D03*
X139173D02*
D03*
D51*
X82284Y162795D02*
D03*
X105905D02*
D03*
M02*
