G04*
G04 #@! TF.GenerationSoftware,Altium Limited,Altium Designer,22.6.1 (34)*
G04*
G04 Layer_Color=2752767*
%FSLAX25Y25*%
%MOIN*%
G70*
G04*
G04 #@! TF.SameCoordinates,8414C9FA-97DA-49A9-B933-D5EF8910B524*
G04*
G04*
G04 #@! TF.FilePolarity,Positive*
G04*
G01*
G75*
%ADD182C,0.00200*%
%ADD183C,0.00267*%
%ADD184C,0.00133*%
D182*
X212750Y349403D02*
Y349003D01*
X213550D01*
Y349403D01*
X213950D01*
Y350203D01*
X213550D01*
Y350603D01*
X212750D01*
Y350203D01*
X212350D01*
Y349403D01*
X212750D01*
X192750D02*
Y349003D01*
X193550D01*
Y349403D01*
X193950D01*
Y350203D01*
X193550D01*
Y350603D01*
X192750D01*
Y350203D01*
X192350D01*
Y349403D01*
X192750D01*
X264128D02*
Y349003D01*
X264928D01*
Y349403D01*
X265328D01*
Y350203D01*
X264928D01*
Y350603D01*
X264128D01*
Y350203D01*
X263728D01*
Y349403D01*
X264128D01*
X244128D02*
Y349003D01*
X244928D01*
Y349403D01*
X245328D01*
Y350203D01*
X244928D01*
Y350603D01*
X244128D01*
Y350203D01*
X243728D01*
Y349403D01*
X244128D01*
X24206Y348970D02*
Y348570D01*
X25006D01*
Y348970D01*
X25406D01*
Y349770D01*
X25006D01*
Y350170D01*
X24206D01*
Y349770D01*
X23806D01*
Y348970D01*
X24206D01*
Y328970D02*
Y328570D01*
X25006D01*
Y328970D01*
X25406D01*
Y329770D01*
X25006D01*
Y330170D01*
X24206D01*
Y329770D01*
X23806D01*
Y328970D01*
X24206D01*
X294476Y43098D02*
Y44698D01*
X296076D01*
Y43098D01*
X294476D01*
Y37192D02*
Y38792D01*
X296076D01*
Y37192D01*
X294476D01*
Y31287D02*
Y32887D01*
X296076D01*
Y31287D01*
X294476D01*
Y25381D02*
Y26981D01*
X296076D01*
Y25381D01*
X294476D01*
Y19476D02*
Y21076D01*
X296076D01*
Y19476D01*
X294476D01*
Y13570D02*
Y15170D01*
X296076D01*
Y13570D01*
X294476D01*
X266523D02*
Y15170D01*
X268123D01*
Y13570D01*
X266523D01*
Y19476D02*
Y21076D01*
X268123D01*
Y19476D01*
X266523D01*
Y25381D02*
Y26981D01*
X268123D01*
Y25381D01*
X266523D01*
Y31287D02*
Y32887D01*
X268123D01*
Y31287D01*
X266523D01*
Y37192D02*
Y38792D01*
X268123D01*
Y37192D01*
X266523D01*
Y43098D02*
Y44698D01*
X268123D01*
Y43098D01*
X266523D01*
X267743Y318885D02*
X268143Y319685D01*
X267743Y320485D01*
X268543Y320085D01*
X269343Y320485D01*
X268943Y319685D01*
X269343Y318885D01*
X268543Y319285D01*
X267743Y318885D01*
X238137Y328885D02*
X238537Y329685D01*
X238137Y330485D01*
X238937Y330085D01*
X239737Y330485D01*
X239337Y329685D01*
X239737Y328885D01*
X238937Y329285D01*
X238137Y328885D01*
X267743Y258885D02*
X268143Y259685D01*
X267743Y260485D01*
X268543Y260085D01*
X269343Y260485D01*
X268943Y259685D01*
X269343Y258885D01*
X268543Y259285D01*
X267743Y258885D01*
X238137Y298885D02*
X238537Y299685D01*
X238137Y300485D01*
X238937Y300085D01*
X239737Y300485D01*
X239337Y299685D01*
X239737Y298885D01*
X238937Y299285D01*
X238137Y298885D01*
X237743Y258885D02*
X238143Y259685D01*
X237743Y260485D01*
X238543Y260085D01*
X239343Y260485D01*
X238943Y259685D01*
X239343Y258885D01*
X238543Y259285D01*
X237743Y258885D01*
X216562Y318885D02*
X216962Y319685D01*
X216562Y320485D01*
X217362Y320085D01*
X218162Y320485D01*
X217762Y319685D01*
X218162Y318885D01*
X217362Y319285D01*
X216562Y318885D01*
X186956Y328885D02*
X187356Y329685D01*
X186956Y330485D01*
X187756Y330085D01*
X188556Y330485D01*
X188156Y329685D01*
X188556Y328885D01*
X187756Y329285D01*
X186956Y328885D01*
X216562Y258885D02*
X216962Y259685D01*
X216562Y260485D01*
X217362Y260085D01*
X218162Y260485D01*
X217762Y259685D01*
X218162Y258885D01*
X217362Y259285D01*
X216562Y258885D01*
X186956Y298885D02*
X187356Y299685D01*
X186956Y300485D01*
X187756Y300085D01*
X188556Y300485D01*
X188156Y299685D01*
X188556Y298885D01*
X187756Y299285D01*
X186956Y298885D01*
X186562Y258885D02*
X186962Y259685D01*
X186562Y260485D01*
X187362Y260085D01*
X188162Y260485D01*
X187762Y259685D01*
X188162Y258885D01*
X187362Y259285D01*
X186562Y258885D01*
X156090Y54220D02*
X156490D01*
X156890Y54620D01*
X157290Y54220D01*
X157690D01*
Y54620D01*
X157290Y55020D01*
X157690Y55420D01*
Y55820D01*
X157290D01*
X156890Y55420D01*
X156490Y55820D01*
X156090D01*
Y55420D01*
X156490Y55020D01*
X156090Y54620D01*
Y54220D01*
X179318Y42815D02*
X180118Y43615D01*
X180918Y42815D01*
X180118Y42015D01*
X179318Y42815D01*
X160421Y29417D02*
Y31017D01*
X162021D01*
Y29417D01*
X160421D01*
X160820Y29817D02*
Y30617D01*
X161620D01*
Y29817D01*
X160820D01*
X126308Y83382D02*
X126708Y83782D01*
X127108D01*
X126708Y84182D01*
X127108Y84582D01*
X126708D01*
X126308Y84982D01*
X125908Y84582D01*
X125508D01*
X125908Y84182D01*
X125508Y83782D01*
X125908D01*
X126308Y83382D01*
X140227Y97301D02*
X140627Y97701D01*
X141027D01*
X140627Y98101D01*
X141027Y98501D01*
X140627D01*
X140227Y98901D01*
X139827Y98501D01*
X139427D01*
X139827Y98101D01*
X139427Y97701D01*
X139827D01*
X140227Y97301D01*
X90342Y6483D02*
X90742Y7283D01*
X90342Y8083D01*
X91142Y7683D01*
X91942Y8083D01*
X91542Y7283D01*
X91942Y6483D01*
X91142Y6883D01*
X90342Y6483D01*
X90742Y6883D02*
X90942Y7283D01*
X90742Y7683D01*
X91142Y7484D01*
X91542Y7683D01*
X91342Y7283D01*
X91542Y6883D01*
X91142Y7084D01*
X90742Y6883D01*
X102153Y6483D02*
X102553Y7283D01*
X102153Y8083D01*
X102953Y7683D01*
X103753Y8083D01*
X103353Y7283D01*
X103753Y6483D01*
X102953Y6883D01*
X102153Y6483D01*
X102553Y6883D02*
X102753Y7283D01*
X102553Y7683D01*
X102953Y7484D01*
X103353Y7683D01*
X103153Y7283D01*
X103353Y6883D01*
X102953Y7084D01*
X102553Y6883D01*
X54134Y52409D02*
X53334Y54009D01*
X54934D01*
X54134Y52409D01*
Y52809D02*
X53734Y53609D01*
X54534D01*
X54134Y52809D01*
Y59633D02*
X53334Y61233D01*
X54934D01*
X54134Y59633D01*
Y60033D02*
X53734Y60833D01*
X54534D01*
X54134Y60033D01*
X57746Y48796D02*
X56946Y50396D01*
X58546D01*
X57746Y48796D01*
Y49196D02*
X57346Y49996D01*
X58146D01*
X57746Y49196D01*
Y56021D02*
X56946Y57621D01*
X58546D01*
X57746Y56021D01*
Y56421D02*
X57346Y57221D01*
X58146D01*
X57746Y56421D01*
Y63245D02*
X56946Y64845D01*
X58546D01*
X57746Y63245D01*
Y63645D02*
X57346Y64445D01*
X58146D01*
X57746Y63645D01*
X61358Y52409D02*
X60558Y54009D01*
X62158D01*
X61358Y52409D01*
Y52809D02*
X60958Y53609D01*
X61758D01*
X61358Y52809D01*
Y59633D02*
X60558Y61233D01*
X62158D01*
X61358Y59633D01*
Y60033D02*
X60958Y60833D01*
X61758D01*
X61358Y60033D01*
X64970Y48796D02*
X64170Y50396D01*
X65771D01*
X64970Y48796D01*
Y49196D02*
X64570Y49996D01*
X65371D01*
X64970Y49196D01*
Y56021D02*
X64170Y57621D01*
X65771D01*
X64970Y56021D01*
Y56421D02*
X64570Y57221D01*
X65371D01*
X64970Y56421D01*
Y63245D02*
X64170Y64845D01*
X65771D01*
X64970Y63245D01*
Y63645D02*
X64570Y64445D01*
X65371D01*
X64970Y63645D01*
X68583Y52409D02*
X67783Y54009D01*
X69383D01*
X68583Y52409D01*
Y52809D02*
X68183Y53609D01*
X68983D01*
X68583Y52809D01*
Y59633D02*
X67783Y61233D01*
X69383D01*
X68583Y59633D01*
Y60033D02*
X68183Y60833D01*
X68983D01*
X68583Y60033D01*
X21063Y113964D02*
X21463Y114364D01*
X21863D01*
X21463Y114764D01*
X21863Y115164D01*
X21463D01*
X21063Y115564D01*
X20663Y115164D01*
X20263D01*
X20663Y114764D01*
X20263Y114364D01*
X20663D01*
X21063Y113964D01*
Y114364D02*
X21263Y114564D01*
X21463D01*
X21263Y114764D01*
X21463Y114964D01*
X21263D01*
X21063Y115164D01*
X20863Y114964D01*
X20663D01*
X20863Y114764D01*
X20663Y114564D01*
X20863D01*
X21063Y114364D01*
Y133649D02*
X21463Y134049D01*
X21863D01*
X21463Y134449D01*
X21863Y134849D01*
X21463D01*
X21063Y135249D01*
X20663Y134849D01*
X20263D01*
X20663Y134449D01*
X20263Y134049D01*
X20663D01*
X21063Y133649D01*
Y134049D02*
X21263Y134249D01*
X21463D01*
X21263Y134449D01*
X21463Y134649D01*
X21263D01*
X21063Y134849D01*
X20863Y134649D01*
X20663D01*
X20863Y134449D01*
X20663Y134249D01*
X20863D01*
X21063Y134049D01*
X54417Y182468D02*
X54817D01*
X55216Y182868D01*
X55616Y182468D01*
X56016D01*
Y182868D01*
X55616Y183268D01*
X56016Y183668D01*
Y184068D01*
X55616D01*
X55216Y183668D01*
X54817Y184068D01*
X54417D01*
Y183668D01*
X54817Y183268D01*
X54417Y182868D01*
Y182468D01*
X42212Y160039D02*
X43012Y160839D01*
X43812Y160039D01*
X43012Y159239D01*
X42212Y160039D01*
X29613Y178137D02*
Y179737D01*
X31213D01*
Y178137D01*
X29613D01*
X30013Y178537D02*
Y179337D01*
X30813D01*
Y178537D01*
X30013D01*
X34646Y234830D02*
X35046Y235230D01*
X35446D01*
X35046Y235630D01*
X35446Y236030D01*
X35046D01*
X34646Y236430D01*
X34246Y236030D01*
X33846D01*
X34246Y235630D01*
X33846Y235230D01*
X34246D01*
X34646Y234830D01*
X14961D02*
X15361Y235230D01*
X15761D01*
X15361Y235630D01*
X15761Y236030D01*
X15361D01*
X14961Y236430D01*
X14561Y236030D01*
X14161D01*
X14561Y235630D01*
X14161Y235230D01*
X14561D01*
X14961Y234830D01*
X34646Y277743D02*
X35046Y278143D01*
X35446D01*
X35046Y278543D01*
X35446Y278943D01*
X35046D01*
X34646Y279343D01*
X34246Y278943D01*
X33846D01*
X34246Y278543D01*
X33846Y278143D01*
X34246D01*
X34646Y277743D01*
X14961D02*
X15361Y278143D01*
X15761D01*
X15361Y278543D01*
X15761Y278943D01*
X15361D01*
X14961Y279343D01*
X14561Y278943D01*
X14161D01*
X14561Y278543D01*
X14161Y278143D01*
X14561D01*
X14961Y277743D01*
X131890Y230105D02*
X132290Y230505D01*
X132690D01*
X132290Y230906D01*
X132690Y231306D01*
X132290D01*
X131890Y231705D01*
X131490Y231306D01*
X131090D01*
X131490Y230906D01*
X131090Y230505D01*
X131490D01*
X131890Y230105D01*
X92520D02*
X92920Y230505D01*
X93320D01*
X92920Y230906D01*
X93320Y231306D01*
X92920D01*
X92520Y231705D01*
X92120Y231306D01*
X91720D01*
X92120Y230906D01*
X91720Y230505D01*
X92120D01*
X92520Y230105D01*
X72835Y308846D02*
X73235Y309246D01*
X73635D01*
X73235Y309646D01*
X73635Y310046D01*
X73235D01*
X72835Y310446D01*
X72435Y310046D01*
X72035D01*
X72435Y309646D01*
X72035Y309246D01*
X72435D01*
X72835Y308846D01*
X151575D02*
X151975Y309246D01*
X152375D01*
X151975Y309646D01*
X152375Y310046D01*
X151975D01*
X151575Y310446D01*
X151175Y310046D01*
X150775D01*
X151175Y309646D01*
X150775Y309246D01*
X151175D01*
X151575Y308846D01*
X51772Y348609D02*
X50972Y350209D01*
X52572D01*
X51772Y348609D01*
X169882D02*
X169082Y350209D01*
X170682D01*
X169882Y348609D01*
X247632Y184442D02*
Y184043D01*
X248431D01*
Y184442D01*
X248832D01*
Y185242D01*
X248431D01*
Y185643D01*
X247632D01*
Y185242D01*
X247232D01*
Y184442D01*
X247632D01*
X247832Y184643D02*
Y184442D01*
X248232D01*
Y184643D01*
X248431D01*
Y185043D01*
X248232D01*
Y185242D01*
X247832D01*
Y185043D01*
X247632D01*
Y184643D01*
X247832D01*
X267317Y156184D02*
Y155783D01*
X268116D01*
Y156184D01*
X268516D01*
Y156983D01*
X268116D01*
Y157384D01*
X267317D01*
Y156983D01*
X266916D01*
Y156184D01*
X267317D01*
X267516Y156384D02*
Y156184D01*
X267916D01*
Y156384D01*
X268116D01*
Y156783D01*
X267916D01*
Y156983D01*
X267516D01*
Y156783D01*
X267317D01*
Y156384D01*
X267516D01*
X267317Y158852D02*
Y158452D01*
X268116D01*
Y158852D01*
X268516D01*
Y159652D01*
X268116D01*
Y160052D01*
X267317D01*
Y159652D01*
X266916D01*
Y158852D01*
X267317D01*
X267516Y159052D02*
Y158852D01*
X267916D01*
Y159052D01*
X268116D01*
Y159452D01*
X267916D01*
Y159652D01*
X267516D01*
Y159452D01*
X267317D01*
Y159052D01*
X267516D01*
X22625Y19082D02*
X23025D01*
X23425Y19482D01*
X23825Y19082D01*
X24225D01*
Y19482D01*
X23825Y19882D01*
X24225Y20282D01*
Y20682D01*
X23825D01*
X23425Y20282D01*
X23025Y20682D01*
X22625D01*
Y20282D01*
X23025Y19882D01*
X22625Y19482D01*
Y19082D01*
X23025Y19482D02*
X23225D01*
X23425Y19682D01*
X23625Y19482D01*
X23825D01*
Y19682D01*
X23625Y19882D01*
X23825Y20082D01*
Y20282D01*
X23625D01*
X23425Y20082D01*
X23225Y20282D01*
X23025D01*
Y20082D01*
X23225Y19882D01*
X23025Y19682D01*
Y19482D01*
X307468Y31090D02*
X307868D01*
X308268Y31490D01*
X308668Y31090D01*
X309068D01*
Y31490D01*
X308668Y31890D01*
X309068Y32290D01*
Y32690D01*
X308668D01*
X308268Y32290D01*
X307868Y32690D01*
X307468D01*
Y32290D01*
X307868Y31890D01*
X307468Y31490D01*
Y31090D01*
X307868Y31490D02*
X308068D01*
X308268Y31690D01*
X308468Y31490D01*
X308668D01*
Y31690D01*
X308468Y31890D01*
X308668Y32090D01*
Y32290D01*
X308468D01*
X308268Y32090D01*
X308068Y32290D01*
X307868D01*
Y32090D01*
X308068Y31890D01*
X307868Y31690D01*
Y31490D01*
X314554Y31090D02*
X314954D01*
X315354Y31490D01*
X315754Y31090D01*
X316154D01*
Y31490D01*
X315754Y31890D01*
X316154Y32290D01*
Y32690D01*
X315754D01*
X315354Y32290D01*
X314954Y32690D01*
X314554D01*
Y32290D01*
X314954Y31890D01*
X314554Y31490D01*
Y31090D01*
X314954Y31490D02*
X315154D01*
X315354Y31690D01*
X315554Y31490D01*
X315754D01*
Y31690D01*
X315554Y31890D01*
X315754Y32090D01*
Y32290D01*
X315554D01*
X315354Y32090D01*
X315154Y32290D01*
X314954D01*
Y32090D01*
X315154Y31890D01*
X314954Y31690D01*
Y31490D01*
X303885Y51937D02*
X304285D01*
X304685Y52337D01*
X305085Y51937D01*
X305485D01*
Y52337D01*
X305085Y52737D01*
X305485Y53137D01*
Y53537D01*
X305085D01*
X304685Y53137D01*
X304285Y53537D01*
X303885D01*
Y53137D01*
X304285Y52737D01*
X303885Y52337D01*
Y51937D01*
X304285Y52337D02*
X304485D01*
X304685Y52537D01*
X304885Y52337D01*
X305085D01*
Y52537D01*
X304885Y52737D01*
X305085Y52937D01*
Y53137D01*
X304885D01*
X304685Y52937D01*
X304485Y53137D01*
X304285D01*
Y52937D01*
X304485Y52737D01*
X304285Y52537D01*
Y52337D01*
X305105Y5499D02*
X305505D01*
X305906Y5899D01*
X306306Y5499D01*
X306705D01*
Y5899D01*
X306306Y6299D01*
X306705Y6699D01*
Y7099D01*
X306306D01*
X305906Y6699D01*
X305505Y7099D01*
X305105D01*
Y6699D01*
X305505Y6299D01*
X305105Y5899D01*
Y5499D01*
X305505Y5899D02*
X305705D01*
X305906Y6099D01*
X306105Y5899D01*
X306306D01*
Y6099D01*
X306105Y6299D01*
X306306Y6499D01*
Y6699D01*
X306105D01*
X305906Y6499D01*
X305705Y6699D01*
X305505D01*
Y6499D01*
X305705Y6299D01*
X305505Y6099D01*
Y5899D01*
X235026Y169279D02*
X235426D01*
X235826Y169679D01*
X236226Y169279D01*
X236626D01*
Y169679D01*
X236226Y170079D01*
X236626Y170479D01*
Y170879D01*
X236226D01*
X235826Y170479D01*
X235426Y170879D01*
X235026D01*
Y170479D01*
X235426Y170079D01*
X235026Y169679D01*
Y169279D01*
X235426Y169679D02*
X235626D01*
X235826Y169879D01*
X236026Y169679D01*
X236226D01*
Y169879D01*
X236026Y170079D01*
X236226Y170279D01*
Y170479D01*
X236026D01*
X235826Y170279D01*
X235626Y170479D01*
X235426D01*
Y170279D01*
X235626Y170079D01*
X235426Y169879D01*
Y169679D01*
X232466Y121845D02*
X232866D01*
X233265Y122245D01*
X233665Y121845D01*
X234066D01*
Y122245D01*
X233665Y122645D01*
X234066Y123045D01*
Y123445D01*
X233665D01*
X233265Y123045D01*
X232866Y123445D01*
X232466D01*
Y123045D01*
X232866Y122645D01*
X232466Y122245D01*
Y121845D01*
X232866Y122245D02*
X233066D01*
X233265Y122445D01*
X233466Y122245D01*
X233665D01*
Y122445D01*
X233466Y122645D01*
X233665Y122845D01*
Y123045D01*
X233466D01*
X233265Y122845D01*
X233066Y123045D01*
X232866D01*
Y122845D01*
X233066Y122645D01*
X232866Y122445D01*
Y122245D01*
X42704Y8058D02*
X43104D01*
X43504Y8458D01*
X43904Y8058D01*
X44304D01*
Y8458D01*
X43904Y8858D01*
X44304Y9258D01*
Y9658D01*
X43904D01*
X43504Y9258D01*
X43104Y9658D01*
X42704D01*
Y9258D01*
X43104Y8858D01*
X42704Y8458D01*
Y8058D01*
X43104Y8458D02*
X43304D01*
X43504Y8658D01*
X43704Y8458D01*
X43904D01*
Y8658D01*
X43704Y8858D01*
X43904Y9058D01*
Y9258D01*
X43704D01*
X43504Y9058D01*
X43304Y9258D01*
X43104D01*
Y9058D01*
X43304Y8858D01*
X43104Y8658D01*
Y8458D01*
X48806Y4318D02*
X49206D01*
X49606Y4718D01*
X50006Y4318D01*
X50406D01*
Y4718D01*
X50006Y5118D01*
X50406Y5518D01*
Y5918D01*
X50006D01*
X49606Y5518D01*
X49206Y5918D01*
X48806D01*
Y5518D01*
X49206Y5118D01*
X48806Y4718D01*
Y4318D01*
X49206Y4718D02*
X49406D01*
X49606Y4918D01*
X49806Y4718D01*
X50006D01*
Y4918D01*
X49806Y5118D01*
X50006Y5318D01*
Y5518D01*
X49806D01*
X49606Y5318D01*
X49406Y5518D01*
X49206D01*
Y5318D01*
X49406Y5118D01*
X49206Y4918D01*
Y4718D01*
X43491Y3924D02*
X43891D01*
X44291Y4324D01*
X44691Y3924D01*
X45091D01*
Y4324D01*
X44691Y4724D01*
X45091Y5124D01*
Y5524D01*
X44691D01*
X44291Y5124D01*
X43891Y5524D01*
X43491D01*
Y5124D01*
X43891Y4724D01*
X43491Y4324D01*
Y3924D01*
X43891Y4324D02*
X44091D01*
X44291Y4524D01*
X44491Y4324D01*
X44691D01*
Y4524D01*
X44491Y4724D01*
X44691Y4924D01*
Y5124D01*
X44491D01*
X44291Y4924D01*
X44091Y5124D01*
X43891D01*
Y4924D01*
X44091Y4724D01*
X43891Y4524D01*
Y4324D01*
X264161Y238570D02*
X264561D01*
X264961Y238970D01*
X265361Y238570D01*
X265761D01*
Y238970D01*
X265361Y239370D01*
X265761Y239770D01*
Y240170D01*
X265361D01*
X264961Y239770D01*
X264561Y240170D01*
X264161D01*
Y239770D01*
X264561Y239370D01*
X264161Y238970D01*
Y238570D01*
X264561Y238970D02*
X264761D01*
X264961Y239170D01*
X265161Y238970D01*
X265361D01*
Y239170D01*
X265161Y239370D01*
X265361Y239570D01*
Y239770D01*
X265161D01*
X264961Y239570D01*
X264761Y239770D01*
X264561D01*
Y239570D01*
X264761Y239370D01*
X264561Y239170D01*
Y238970D01*
X229909Y250992D02*
X230309D01*
X230709Y251392D01*
X231109Y250992D01*
X231509D01*
Y251392D01*
X231109Y251792D01*
X231509Y252192D01*
Y252592D01*
X231109D01*
X230709Y252192D01*
X230309Y252592D01*
X229909D01*
Y252192D01*
X230309Y251792D01*
X229909Y251392D01*
Y250992D01*
X230309Y251392D02*
X230509D01*
X230709Y251592D01*
X230909Y251392D01*
X231109D01*
Y251592D01*
X230909Y251792D01*
X231109Y251992D01*
Y252192D01*
X230909D01*
X230709Y251992D01*
X230509Y252192D01*
X230309D01*
Y251992D01*
X230509Y251792D01*
X230309Y251592D01*
Y251392D01*
X200381Y207861D02*
X200781D01*
X201181Y208261D01*
X201581Y207861D01*
X201981D01*
Y208261D01*
X201581Y208661D01*
X201981Y209061D01*
Y209461D01*
X201581D01*
X201181Y209061D01*
X200781Y209461D01*
X200381D01*
Y209061D01*
X200781Y208661D01*
X200381Y208261D01*
Y207861D01*
X200781Y208261D02*
X200981D01*
X201181Y208461D01*
X201381Y208261D01*
X201581D01*
Y208461D01*
X201381Y208661D01*
X201581Y208861D01*
Y209061D01*
X201381D01*
X201181Y208861D01*
X200981Y209061D01*
X200781D01*
Y208861D01*
X200981Y208661D01*
X200781Y208461D01*
Y208261D01*
X91523Y191917D02*
X91923D01*
X92323Y192316D01*
X92723Y191917D01*
X93123D01*
Y192316D01*
X92723Y192717D01*
X93123Y193116D01*
Y193517D01*
X92723D01*
X92323Y193116D01*
X91923Y193517D01*
X91523D01*
Y193116D01*
X91923Y192717D01*
X91523Y192316D01*
Y191917D01*
X91923Y192316D02*
X92123D01*
X92323Y192517D01*
X92523Y192316D01*
X92723D01*
Y192517D01*
X92523Y192717D01*
X92723Y192917D01*
Y193116D01*
X92523D01*
X92323Y192917D01*
X92123Y193116D01*
X91923D01*
Y192917D01*
X92123Y192717D01*
X91923Y192517D01*
Y192316D01*
X23806Y46050D02*
X24206D01*
X24606Y46450D01*
X25006Y46050D01*
X25406D01*
Y46450D01*
X25006Y46850D01*
X25406Y47250D01*
Y47650D01*
X25006D01*
X24606Y47250D01*
X24206Y47650D01*
X23806D01*
Y47250D01*
X24206Y46850D01*
X23806Y46450D01*
Y46050D01*
X24206Y46450D02*
X24406D01*
X24606Y46650D01*
X24806Y46450D01*
X25006D01*
Y46650D01*
X24806Y46850D01*
X25006Y47050D01*
Y47250D01*
X24806D01*
X24606Y47050D01*
X24406Y47250D01*
X24206D01*
Y47050D01*
X24406Y46850D01*
X24206Y46650D01*
Y46450D01*
X39161Y59436D02*
X39561D01*
X39961Y59836D01*
X40361Y59436D01*
X40761D01*
Y59836D01*
X40361Y60236D01*
X40761Y60636D01*
Y61036D01*
X40361D01*
X39961Y60636D01*
X39561Y61036D01*
X39161D01*
Y60636D01*
X39561Y60236D01*
X39161Y59836D01*
Y59436D01*
X39561Y59836D02*
X39761D01*
X39961Y60036D01*
X40161Y59836D01*
X40361D01*
Y60036D01*
X40161Y60236D01*
X40361Y60436D01*
Y60636D01*
X40161D01*
X39961Y60436D01*
X39761Y60636D01*
X39561D01*
Y60436D01*
X39761Y60236D01*
X39561Y60036D01*
Y59836D01*
X121641Y10027D02*
X122041D01*
X122441Y10427D01*
X122841Y10027D01*
X123241D01*
Y10427D01*
X122841Y10827D01*
X123241Y11227D01*
Y11627D01*
X122841D01*
X122441Y11227D01*
X122041Y11627D01*
X121641D01*
Y11227D01*
X122041Y10827D01*
X121641Y10427D01*
Y10027D01*
X122041Y10427D02*
X122241D01*
X122441Y10627D01*
X122641Y10427D01*
X122841D01*
Y10627D01*
X122641Y10827D01*
X122841Y11027D01*
Y11227D01*
X122641D01*
X122441Y11027D01*
X122241Y11227D01*
X122041D01*
Y11027D01*
X122241Y10827D01*
X122041Y10627D01*
Y10427D01*
X118491Y24397D02*
X118891D01*
X119291Y24797D01*
X119691Y24397D01*
X120091D01*
Y24797D01*
X119691Y25197D01*
X120091Y25597D01*
Y25997D01*
X119691D01*
X119291Y25597D01*
X118891Y25997D01*
X118491D01*
Y25597D01*
X118891Y25197D01*
X118491Y24797D01*
Y24397D01*
X118891Y24797D02*
X119091D01*
X119291Y24997D01*
X119491Y24797D01*
X119691D01*
Y24997D01*
X119491Y25197D01*
X119691Y25397D01*
Y25597D01*
X119491D01*
X119291Y25397D01*
X119091Y25597D01*
X118891D01*
Y25397D01*
X119091Y25197D01*
X118891Y24997D01*
Y24797D01*
X168688Y109830D02*
X169088D01*
X169488Y110230D01*
X169888Y109830D01*
X170288D01*
Y110230D01*
X169888Y110630D01*
X170288Y111030D01*
Y111430D01*
X169888D01*
X169488Y111030D01*
X169088Y111430D01*
X168688D01*
Y111030D01*
X169088Y110630D01*
X168688Y110230D01*
Y109830D01*
X169088Y110230D02*
X169288D01*
X169488Y110430D01*
X169688Y110230D01*
X169888D01*
Y110430D01*
X169688Y110630D01*
X169888Y110830D01*
Y111030D01*
X169688D01*
X169488Y110830D01*
X169288Y111030D01*
X169088D01*
Y110830D01*
X169288Y110630D01*
X169088Y110430D01*
Y110230D01*
X201759Y162783D02*
X202159D01*
X202559Y163183D01*
X202959Y162783D01*
X203359D01*
Y163183D01*
X202959Y163583D01*
X203359Y163983D01*
Y164383D01*
X202959D01*
X202559Y163983D01*
X202159Y164383D01*
X201759D01*
Y163983D01*
X202159Y163583D01*
X201759Y163183D01*
Y162783D01*
X202159Y163183D02*
X202359D01*
X202559Y163383D01*
X202759Y163183D01*
X202959D01*
Y163383D01*
X202759Y163583D01*
X202959Y163783D01*
Y163983D01*
X202759D01*
X202559Y163783D01*
X202359Y163983D01*
X202159D01*
Y163783D01*
X202359Y163583D01*
X202159Y163383D01*
Y163183D01*
X216916Y161011D02*
X217317D01*
X217717Y161411D01*
X218116Y161011D01*
X218516D01*
Y161411D01*
X218116Y161811D01*
X218516Y162211D01*
Y162611D01*
X218116D01*
X217717Y162211D01*
X217317Y162611D01*
X216916D01*
Y162211D01*
X217317Y161811D01*
X216916Y161411D01*
Y161011D01*
X217317Y161411D02*
X217516D01*
X217717Y161611D01*
X217916Y161411D01*
X218116D01*
Y161611D01*
X217916Y161811D01*
X218116Y162011D01*
Y162211D01*
X217916D01*
X217717Y162011D01*
X217516Y162211D01*
X217317D01*
Y162011D01*
X217516Y161811D01*
X217317Y161611D01*
Y161411D01*
X215932Y150775D02*
X216332D01*
X216732Y151175D01*
X217132Y150775D01*
X217532D01*
Y151175D01*
X217132Y151575D01*
X217532Y151975D01*
Y152375D01*
X217132D01*
X216732Y151975D01*
X216332Y152375D01*
X215932D01*
Y151975D01*
X216332Y151575D01*
X215932Y151175D01*
Y150775D01*
X216332Y151175D02*
X216532D01*
X216732Y151375D01*
X216932Y151175D01*
X217132D01*
Y151375D01*
X216932Y151575D01*
X217132Y151775D01*
Y151975D01*
X216932D01*
X216732Y151775D01*
X216532Y151975D01*
X216332D01*
Y151775D01*
X216532Y151575D01*
X216332Y151375D01*
Y151175D01*
X18688Y221050D02*
X19088D01*
X19488Y221450D01*
X19888Y221050D01*
X20288D01*
Y221450D01*
X19888Y221850D01*
X20288Y222250D01*
Y222650D01*
X19888D01*
X19488Y222250D01*
X19088Y222650D01*
X18688D01*
Y222250D01*
X19088Y221850D01*
X18688Y221450D01*
Y221050D01*
X19088Y221450D02*
X19288D01*
X19488Y221650D01*
X19688Y221450D01*
X19888D01*
Y221650D01*
X19688Y221850D01*
X19888Y222050D01*
Y222250D01*
X19688D01*
X19488Y222050D01*
X19288Y222250D01*
X19088D01*
Y222050D01*
X19288Y221850D01*
X19088Y221650D01*
Y221450D01*
X59436Y154515D02*
X59836D01*
X60236Y154915D01*
X60636Y154515D01*
X61036D01*
Y154915D01*
X60636Y155315D01*
X61036Y155715D01*
Y156115D01*
X60636D01*
X60236Y155715D01*
X59836Y156115D01*
X59436D01*
Y155715D01*
X59836Y155315D01*
X59436Y154915D01*
Y154515D01*
X59836Y154915D02*
X60036D01*
X60236Y155115D01*
X60436Y154915D01*
X60636D01*
Y155115D01*
X60436Y155315D01*
X60636Y155515D01*
Y155715D01*
X60436D01*
X60236Y155515D01*
X60036Y155715D01*
X59836D01*
Y155515D01*
X60036Y155315D01*
X59836Y155115D01*
Y154915D01*
X36208Y104515D02*
X36608D01*
X37008Y104915D01*
X37408Y104515D01*
X37808D01*
Y104915D01*
X37408Y105315D01*
X37808Y105715D01*
Y106115D01*
X37408D01*
X37008Y105715D01*
X36608Y106115D01*
X36208D01*
Y105715D01*
X36608Y105315D01*
X36208Y104915D01*
Y104515D01*
X36608Y104915D02*
X36808D01*
X37008Y105115D01*
X37208Y104915D01*
X37408D01*
Y105115D01*
X37208Y105315D01*
X37408Y105515D01*
Y105715D01*
X37208D01*
X37008Y105515D01*
X36808Y105715D01*
X36608D01*
Y105515D01*
X36808Y105315D01*
X36608Y105115D01*
Y104915D01*
X8649Y123216D02*
X9049D01*
X9449Y123616D01*
X9849Y123216D01*
X10249D01*
Y123616D01*
X9849Y124016D01*
X10249Y124416D01*
Y124816D01*
X9849D01*
X9449Y124416D01*
X9049Y124816D01*
X8649D01*
Y124416D01*
X9049Y124016D01*
X8649Y123616D01*
Y123216D01*
X9049Y123616D02*
X9249D01*
X9449Y123816D01*
X9649Y123616D01*
X9849D01*
Y123816D01*
X9649Y124016D01*
X9849Y124216D01*
Y124416D01*
X9649D01*
X9449Y124216D01*
X9249Y124416D01*
X9049D01*
Y124216D01*
X9249Y124016D01*
X9049Y123816D01*
Y123616D01*
X35617Y48413D02*
X36017D01*
X36417Y48813D01*
X36817Y48413D01*
X37217D01*
Y48813D01*
X36817Y49213D01*
X37217Y49613D01*
Y50013D01*
X36817D01*
X36417Y49613D01*
X36017Y50013D01*
X35617D01*
Y49613D01*
X36017Y49213D01*
X35617Y48813D01*
Y48413D01*
X36017Y48813D02*
X36217D01*
X36417Y49013D01*
X36617Y48813D01*
X36817D01*
Y49013D01*
X36617Y49213D01*
X36817Y49413D01*
Y49613D01*
X36617D01*
X36417Y49413D01*
X36217Y49613D01*
X36017D01*
Y49413D01*
X36217Y49213D01*
X36017Y49013D01*
Y48813D01*
X28334Y56484D02*
X28734D01*
X29134Y56884D01*
X29534Y56484D01*
X29934D01*
Y56884D01*
X29534Y57284D01*
X29934Y57683D01*
Y58083D01*
X29534D01*
X29134Y57683D01*
X28734Y58083D01*
X28334D01*
Y57683D01*
X28734Y57284D01*
X28334Y56884D01*
Y56484D01*
X28734Y56884D02*
X28934D01*
X29134Y57083D01*
X29334Y56884D01*
X29534D01*
Y57083D01*
X29334Y57284D01*
X29534Y57484D01*
Y57683D01*
X29334D01*
X29134Y57484D01*
X28934Y57683D01*
X28734D01*
Y57484D01*
X28934Y57284D01*
X28734Y57083D01*
Y56884D01*
X140735Y5893D02*
X141135D01*
X141535Y6293D01*
X141935Y5893D01*
X142335D01*
Y6293D01*
X141935Y6693D01*
X142335Y7093D01*
Y7493D01*
X141935D01*
X141535Y7093D01*
X141135Y7493D01*
X140735D01*
Y7093D01*
X141135Y6693D01*
X140735Y6293D01*
Y5893D01*
X141135Y6293D02*
X141335D01*
X141535Y6493D01*
X141735Y6293D01*
X141935D01*
Y6493D01*
X141735Y6693D01*
X141935Y6893D01*
Y7093D01*
X141735D01*
X141535Y6893D01*
X141335Y7093D01*
X141135D01*
Y6893D01*
X141335Y6693D01*
X141135Y6493D01*
Y6293D01*
X181090Y6287D02*
X181490D01*
X181890Y6687D01*
X182290Y6287D01*
X182690D01*
Y6687D01*
X182290Y7087D01*
X182690Y7487D01*
Y7887D01*
X182290D01*
X181890Y7487D01*
X181490Y7887D01*
X181090D01*
Y7487D01*
X181490Y7087D01*
X181090Y6687D01*
Y6287D01*
X181490Y6687D02*
X181690D01*
X181890Y6887D01*
X182090Y6687D01*
X182290D01*
Y6887D01*
X182090Y7087D01*
X182290Y7287D01*
Y7487D01*
X182090D01*
X181890Y7287D01*
X181690Y7487D01*
X181490D01*
Y7287D01*
X181690Y7087D01*
X181490Y6887D01*
Y6687D01*
X249397Y8649D02*
X249797D01*
X250197Y9049D01*
X250597Y8649D01*
X250997D01*
Y9049D01*
X250597Y9449D01*
X250997Y9849D01*
Y10249D01*
X250597D01*
X250197Y9849D01*
X249797Y10249D01*
X249397D01*
Y9849D01*
X249797Y9449D01*
X249397Y9049D01*
Y8649D01*
X249797Y9049D02*
X249997D01*
X250197Y9249D01*
X250397Y9049D01*
X250597D01*
Y9249D01*
X250397Y9449D01*
X250597Y9649D01*
Y9849D01*
X250397D01*
X250197Y9649D01*
X249997Y9849D01*
X249797D01*
Y9649D01*
X249997Y9449D01*
X249797Y9249D01*
Y9049D01*
X203924Y37980D02*
X204324D01*
X204724Y38379D01*
X205124Y37980D01*
X205524D01*
Y38379D01*
X205124Y38780D01*
X205524Y39180D01*
Y39579D01*
X205124D01*
X204724Y39180D01*
X204324Y39579D01*
X203924D01*
Y39180D01*
X204324Y38780D01*
X203924Y38379D01*
Y37980D01*
X204324Y38379D02*
X204524D01*
X204724Y38579D01*
X204924Y38379D01*
X205124D01*
Y38579D01*
X204924Y38780D01*
X205124Y38980D01*
Y39180D01*
X204924D01*
X204724Y38980D01*
X204524Y39180D01*
X204324D01*
Y38980D01*
X204524Y38780D01*
X204324Y38579D01*
Y38379D01*
X230893Y53137D02*
X231293D01*
X231693Y53537D01*
X232093Y53137D01*
X232493D01*
Y53537D01*
X232093Y53937D01*
X232493Y54337D01*
Y54737D01*
X232093D01*
X231693Y54337D01*
X231293Y54737D01*
X230893D01*
Y54337D01*
X231293Y53937D01*
X230893Y53537D01*
Y53137D01*
X231293Y53537D02*
X231493D01*
X231693Y53737D01*
X231893Y53537D01*
X232093D01*
Y53737D01*
X231893Y53937D01*
X232093Y54137D01*
Y54337D01*
X231893D01*
X231693Y54137D01*
X231493Y54337D01*
X231293D01*
Y54137D01*
X231493Y53937D01*
X231293Y53737D01*
Y53537D01*
X237586Y64358D02*
X237986D01*
X238386Y64758D01*
X238786Y64358D01*
X239186D01*
Y64758D01*
X238786Y65158D01*
X239186Y65557D01*
Y65957D01*
X238786D01*
X238386Y65557D01*
X237986Y65957D01*
X237586D01*
Y65557D01*
X237986Y65158D01*
X237586Y64758D01*
Y64358D01*
X237986Y64758D02*
X238186D01*
X238386Y64957D01*
X238586Y64758D01*
X238786D01*
Y64957D01*
X238586Y65158D01*
X238786Y65358D01*
Y65557D01*
X238586D01*
X238386Y65358D01*
X238186Y65557D01*
X237986D01*
Y65358D01*
X238186Y65158D01*
X237986Y64957D01*
Y64758D01*
X251956Y65539D02*
X252356D01*
X252756Y65939D01*
X253156Y65539D01*
X253556D01*
Y65939D01*
X253156Y66339D01*
X253556Y66739D01*
Y67139D01*
X253156D01*
X252756Y66739D01*
X252356Y67139D01*
X251956D01*
Y66739D01*
X252356Y66339D01*
X251956Y65939D01*
Y65539D01*
X252356Y65939D02*
X252556D01*
X252756Y66139D01*
X252956Y65939D01*
X253156D01*
Y66139D01*
X252956Y66339D01*
X253156Y66539D01*
Y66739D01*
X252956D01*
X252756Y66539D01*
X252556Y66739D01*
X252356D01*
Y66539D01*
X252556Y66339D01*
X252356Y66139D01*
Y65939D01*
X262389Y59633D02*
X262789D01*
X263189Y60033D01*
X263589Y59633D01*
X263989D01*
Y60033D01*
X263589Y60433D01*
X263989Y60833D01*
Y61233D01*
X263589D01*
X263189Y60833D01*
X262789Y61233D01*
X262389D01*
Y60833D01*
X262789Y60433D01*
X262389Y60033D01*
Y59633D01*
X262789Y60033D02*
X262989D01*
X263189Y60233D01*
X263389Y60033D01*
X263589D01*
Y60233D01*
X263389Y60433D01*
X263589Y60633D01*
Y60833D01*
X263389D01*
X263189Y60633D01*
X262989Y60833D01*
X262789D01*
Y60633D01*
X262989Y60433D01*
X262789Y60233D01*
Y60033D01*
X262389Y71838D02*
X262789D01*
X263189Y72238D01*
X263589Y71838D01*
X263989D01*
Y72238D01*
X263589Y72638D01*
X263989Y73038D01*
Y73438D01*
X263589D01*
X263189Y73038D01*
X262789Y73438D01*
X262389D01*
Y73038D01*
X262789Y72638D01*
X262389Y72238D01*
Y71838D01*
X262789Y72238D02*
X262989D01*
X263189Y72438D01*
X263389Y72238D01*
X263589D01*
Y72438D01*
X263389Y72638D01*
X263589Y72838D01*
Y73038D01*
X263389D01*
X263189Y72838D01*
X262989Y73038D01*
X262789D01*
Y72838D01*
X262989Y72638D01*
X262789Y72438D01*
Y72238D01*
X250184Y134043D02*
X250584D01*
X250984Y134442D01*
X251384Y134043D01*
X251784D01*
Y134442D01*
X251384Y134843D01*
X251784Y135242D01*
Y135643D01*
X251384D01*
X250984Y135242D01*
X250584Y135643D01*
X250184D01*
Y135242D01*
X250584Y134843D01*
X250184Y134442D01*
Y134043D01*
X250584Y134442D02*
X250784D01*
X250984Y134643D01*
X251184Y134442D01*
X251384D01*
Y134643D01*
X251184Y134843D01*
X251384Y135043D01*
Y135242D01*
X251184D01*
X250984Y135043D01*
X250784Y135242D01*
X250584D01*
Y135043D01*
X250784Y134843D01*
X250584Y134643D01*
Y134442D01*
X255105Y123216D02*
X255505D01*
X255906Y123616D01*
X256306Y123216D01*
X256705D01*
Y123616D01*
X256306Y124016D01*
X256705Y124416D01*
Y124816D01*
X256306D01*
X255906Y124416D01*
X255505Y124816D01*
X255105D01*
Y124416D01*
X255505Y124016D01*
X255105Y123616D01*
Y123216D01*
X255505Y123616D02*
X255705D01*
X255906Y123816D01*
X256105Y123616D01*
X256306D01*
Y123816D01*
X256105Y124016D01*
X256306Y124216D01*
Y124416D01*
X256105D01*
X255906Y124216D01*
X255705Y124416D01*
X255505D01*
Y124216D01*
X255705Y124016D01*
X255505Y123816D01*
Y123616D01*
X243491Y123216D02*
X243891D01*
X244291Y123616D01*
X244691Y123216D01*
X245091D01*
Y123616D01*
X244691Y124016D01*
X245091Y124416D01*
Y124816D01*
X244691D01*
X244291Y124416D01*
X243891Y124816D01*
X243491D01*
Y124416D01*
X243891Y124016D01*
X243491Y123616D01*
Y123216D01*
X243891Y123616D02*
X244091D01*
X244291Y123816D01*
X244491Y123616D01*
X244691D01*
Y123816D01*
X244491Y124016D01*
X244691Y124216D01*
Y124416D01*
X244491D01*
X244291Y124216D01*
X244091Y124416D01*
X243891D01*
Y124216D01*
X244091Y124016D01*
X243891Y123816D01*
Y123616D01*
X261208Y189161D02*
X261608D01*
X262008Y189561D01*
X262408Y189161D01*
X262808D01*
Y189561D01*
X262408Y189961D01*
X262808Y190361D01*
Y190761D01*
X262408D01*
X262008Y190361D01*
X261608Y190761D01*
X261208D01*
Y190361D01*
X261608Y189961D01*
X261208Y189561D01*
Y189161D01*
X261608Y189561D02*
X261808D01*
X262008Y189761D01*
X262208Y189561D01*
X262408D01*
Y189761D01*
X262208Y189961D01*
X262408Y190161D01*
Y190361D01*
X262208D01*
X262008Y190161D01*
X261808Y190361D01*
X261608D01*
Y190161D01*
X261808Y189961D01*
X261608Y189761D01*
Y189561D01*
X261011Y202547D02*
X261411D01*
X261811Y202946D01*
X262211Y202547D01*
X262611D01*
Y202946D01*
X262211Y203346D01*
X262611Y203747D01*
Y204147D01*
X262211D01*
X261811Y203747D01*
X261411Y204147D01*
X261011D01*
Y203747D01*
X261411Y203346D01*
X261011Y202946D01*
Y202547D01*
X261411Y202946D02*
X261611D01*
X261811Y203147D01*
X262011Y202946D01*
X262211D01*
Y203147D01*
X262011Y203346D01*
X262211Y203547D01*
Y203747D01*
X262011D01*
X261811Y203547D01*
X261611Y203747D01*
X261411D01*
Y203547D01*
X261611Y203346D01*
X261411Y203147D01*
Y202946D01*
X260814Y215932D02*
X261214D01*
X261614Y216332D01*
X262014Y215932D01*
X262414D01*
Y216332D01*
X262014Y216732D01*
X262414Y217132D01*
Y217532D01*
X262014D01*
X261614Y217132D01*
X261214Y217532D01*
X260814D01*
Y217132D01*
X261214Y216732D01*
X260814Y216332D01*
Y215932D01*
X261214Y216332D02*
X261414D01*
X261614Y216532D01*
X261814Y216332D01*
X262014D01*
Y216532D01*
X261814Y216732D01*
X262014Y216932D01*
Y217132D01*
X261814D01*
X261614Y216932D01*
X261414Y217132D01*
X261214D01*
Y216932D01*
X261414Y216732D01*
X261214Y216532D01*
Y216332D01*
X128728Y68098D02*
X129128D01*
X129528Y68498D01*
X129928Y68098D01*
X130328D01*
Y68498D01*
X129928Y68898D01*
X130328Y69298D01*
Y69698D01*
X129928D01*
X129528Y69298D01*
X129128Y69698D01*
X128728D01*
Y69298D01*
X129128Y68898D01*
X128728Y68498D01*
Y68098D01*
X129128Y68498D02*
X129328D01*
X129528Y68698D01*
X129728Y68498D01*
X129928D01*
Y68698D01*
X129728Y68898D01*
X129928Y69098D01*
Y69298D01*
X129728D01*
X129528Y69098D01*
X129328Y69298D01*
X129128D01*
Y69098D01*
X129328Y68898D01*
X129128Y68698D01*
Y68498D01*
X118295Y58058D02*
X118694D01*
X119095Y58458D01*
X119494Y58058D01*
X119895D01*
Y58458D01*
X119494Y58858D01*
X119895Y59258D01*
Y59658D01*
X119494D01*
X119095Y59258D01*
X118694Y59658D01*
X118295D01*
Y59258D01*
X118694Y58858D01*
X118295Y58458D01*
Y58058D01*
X118694Y58458D02*
X118895D01*
X119095Y58658D01*
X119295Y58458D01*
X119494D01*
Y58658D01*
X119295Y58858D01*
X119494Y59058D01*
Y59258D01*
X119295D01*
X119095Y59058D01*
X118895Y59258D01*
X118694D01*
Y59058D01*
X118895Y58858D01*
X118694Y58658D01*
Y58458D01*
X181680Y121444D02*
X182080D01*
X182480Y121844D01*
X182880Y121444D01*
X183280D01*
Y121844D01*
X182880Y122244D01*
X183280Y122644D01*
Y123044D01*
X182880D01*
X182480Y122644D01*
X182080Y123044D01*
X181680D01*
Y122644D01*
X182080Y122244D01*
X181680Y121844D01*
Y121444D01*
X182080Y121844D02*
X182280D01*
X182480Y122044D01*
X182680Y121844D01*
X182880D01*
Y122044D01*
X182680Y122244D01*
X182880Y122444D01*
Y122644D01*
X182680D01*
X182480Y122444D01*
X182280Y122644D01*
X182080D01*
Y122444D01*
X182280Y122244D01*
X182080Y122044D01*
Y121844D01*
X158846Y121641D02*
X159246D01*
X159646Y122041D01*
X160046Y121641D01*
X160446D01*
Y122041D01*
X160046Y122441D01*
X160446Y122841D01*
Y123241D01*
X160046D01*
X159646Y122841D01*
X159246Y123241D01*
X158846D01*
Y122841D01*
X159246Y122441D01*
X158846Y122041D01*
Y121641D01*
X159246Y122041D02*
X159446D01*
X159646Y122241D01*
X159846Y122041D01*
X160046D01*
Y122241D01*
X159846Y122441D01*
X160046Y122641D01*
Y122841D01*
X159846D01*
X159646Y122641D01*
X159446Y122841D01*
X159246D01*
Y122641D01*
X159446Y122441D01*
X159246Y122241D01*
Y122041D01*
X88767Y174987D02*
X89167D01*
X89567Y175387D01*
X89967Y174987D01*
X90367D01*
Y175387D01*
X89967Y175787D01*
X90367Y176187D01*
Y176587D01*
X89967D01*
X89567Y176187D01*
X89167Y176587D01*
X88767D01*
Y176187D01*
X89167Y175787D01*
X88767Y175387D01*
Y174987D01*
X89167Y175387D02*
X89367D01*
X89567Y175587D01*
X89767Y175387D01*
X89967D01*
Y175587D01*
X89767Y175787D01*
X89967Y175987D01*
Y176187D01*
X89767D01*
X89567Y175987D01*
X89367Y176187D01*
X89167D01*
Y175987D01*
X89367Y175787D01*
X89167Y175587D01*
Y175387D01*
X119279Y176759D02*
X119679D01*
X120079Y177159D01*
X120479Y176759D01*
X120879D01*
Y177159D01*
X120479Y177559D01*
X120879Y177959D01*
Y178359D01*
X120479D01*
X120079Y177959D01*
X119679Y178359D01*
X119279D01*
Y177959D01*
X119679Y177559D01*
X119279Y177159D01*
Y176759D01*
X119679Y177159D02*
X119879D01*
X120079Y177359D01*
X120279Y177159D01*
X120479D01*
Y177359D01*
X120279Y177559D01*
X120479Y177759D01*
Y177959D01*
X120279D01*
X120079Y177759D01*
X119879Y177959D01*
X119679D01*
Y177759D01*
X119879Y177559D01*
X119679Y177359D01*
Y177159D01*
X119476Y187586D02*
X119876D01*
X120276Y187986D01*
X120676Y187586D01*
X121076D01*
Y187986D01*
X120676Y188386D01*
X121076Y188786D01*
Y189186D01*
X120676D01*
X120276Y188786D01*
X119876Y189186D01*
X119476D01*
Y188786D01*
X119876Y188386D01*
X119476Y187986D01*
Y187586D01*
X119876Y187986D02*
X120076D01*
X120276Y188186D01*
X120476Y187986D01*
X120676D01*
Y188186D01*
X120476Y188386D01*
X120676Y188586D01*
Y188786D01*
X120476D01*
X120276Y188586D01*
X120076Y188786D01*
X119876D01*
Y188586D01*
X120076Y188386D01*
X119876Y188186D01*
Y187986D01*
X183255Y208255D02*
X183655D01*
X184055Y208655D01*
X184455Y208255D01*
X184855D01*
Y208655D01*
X184455Y209055D01*
X184855Y209455D01*
Y209855D01*
X184455D01*
X184055Y209455D01*
X183655Y209855D01*
X183255D01*
Y209455D01*
X183655Y209055D01*
X183255Y208655D01*
Y208255D01*
X183655Y208655D02*
X183855D01*
X184055Y208855D01*
X184255Y208655D01*
X184455D01*
Y208855D01*
X184255Y209055D01*
X184455Y209255D01*
Y209455D01*
X184255D01*
X184055Y209255D01*
X183855Y209455D01*
X183655D01*
Y209255D01*
X183855Y209055D01*
X183655Y208855D01*
Y208655D01*
X185617Y195066D02*
X186017D01*
X186417Y195466D01*
X186817Y195066D01*
X187217D01*
Y195466D01*
X186817Y195866D01*
X187217Y196266D01*
Y196666D01*
X186817D01*
X186417Y196266D01*
X186017Y196666D01*
X185617D01*
Y196266D01*
X186017Y195866D01*
X185617Y195466D01*
Y195066D01*
X186017Y195466D02*
X186217D01*
X186417Y195666D01*
X186617Y195466D01*
X186817D01*
Y195666D01*
X186617Y195866D01*
X186817Y196066D01*
Y196266D01*
X186617D01*
X186417Y196066D01*
X186217Y196266D01*
X186017D01*
Y196066D01*
X186217Y195866D01*
X186017Y195666D01*
Y195466D01*
X171247Y195066D02*
X171647D01*
X172047Y195466D01*
X172447Y195066D01*
X172847D01*
Y195466D01*
X172447Y195866D01*
X172847Y196266D01*
Y196666D01*
X172447D01*
X172047Y196266D01*
X171647Y196666D01*
X171247D01*
Y196266D01*
X171647Y195866D01*
X171247Y195466D01*
Y195066D01*
X171647Y195466D02*
X171847D01*
X172047Y195666D01*
X172247Y195466D01*
X172447D01*
Y195666D01*
X172247Y195866D01*
X172447Y196066D01*
Y196266D01*
X172247D01*
X172047Y196066D01*
X171847Y196266D01*
X171647D01*
Y196066D01*
X171847Y195866D01*
X171647Y195666D01*
Y195466D01*
X200578Y222232D02*
X200978D01*
X201378Y222632D01*
X201778Y222232D01*
X202178D01*
Y222632D01*
X201778Y223031D01*
X202178Y223431D01*
Y223832D01*
X201778D01*
X201378Y223431D01*
X200978Y223832D01*
X200578D01*
Y223431D01*
X200978Y223031D01*
X200578Y222632D01*
Y222232D01*
X200978Y222632D02*
X201178D01*
X201378Y222832D01*
X201578Y222632D01*
X201778D01*
Y222832D01*
X201578Y223031D01*
X201778Y223232D01*
Y223431D01*
X201578D01*
X201378Y223232D01*
X201178Y223431D01*
X200978D01*
Y223232D01*
X201178Y223031D01*
X200978Y222832D01*
Y222632D01*
X184436Y222232D02*
X184836D01*
X185236Y222632D01*
X185636Y222232D01*
X186036D01*
Y222632D01*
X185636Y223031D01*
X186036Y223431D01*
Y223832D01*
X185636D01*
X185236Y223431D01*
X184836Y223832D01*
X184436D01*
Y223431D01*
X184836Y223031D01*
X184436Y222632D01*
Y222232D01*
X184836Y222632D02*
X185036D01*
X185236Y222832D01*
X185436Y222632D01*
X185636D01*
Y222832D01*
X185436Y223031D01*
X185636Y223232D01*
Y223431D01*
X185436D01*
X185236Y223232D01*
X185036Y223431D01*
X184836D01*
Y223232D01*
X185036Y223031D01*
X184836Y222832D01*
Y222632D01*
X241916Y234830D02*
X242317D01*
X242717Y235230D01*
X243116Y234830D01*
X243516D01*
Y235230D01*
X243116Y235630D01*
X243516Y236030D01*
Y236430D01*
X243116D01*
X242717Y236030D01*
X242317Y236430D01*
X241916D01*
Y236030D01*
X242317Y235630D01*
X241916Y235230D01*
Y234830D01*
X242317Y235230D02*
X242516D01*
X242717Y235430D01*
X242916Y235230D01*
X243116D01*
Y235430D01*
X242916Y235630D01*
X243116Y235830D01*
Y236030D01*
X242916D01*
X242717Y235830D01*
X242516Y236030D01*
X242317D01*
Y235830D01*
X242516Y235630D01*
X242317Y235430D01*
Y235230D01*
X227940Y259830D02*
X228340D01*
X228740Y260230D01*
X229140Y259830D01*
X229540D01*
Y260230D01*
X229140Y260630D01*
X229540Y261030D01*
Y261430D01*
X229140D01*
X228740Y261030D01*
X228340Y261430D01*
X227940D01*
Y261030D01*
X228340Y260630D01*
X227940Y260230D01*
Y259830D01*
X228340Y260230D02*
X228540D01*
X228740Y260430D01*
X228940Y260230D01*
X229140D01*
Y260430D01*
X228940Y260630D01*
X229140Y260830D01*
Y261030D01*
X228940D01*
X228740Y260830D01*
X228540Y261030D01*
X228340D01*
Y260830D01*
X228540Y260630D01*
X228340Y260430D01*
Y260230D01*
X146838Y153924D02*
X147238D01*
X147638Y154324D01*
X148038Y153924D01*
X148438D01*
Y154324D01*
X148038Y154724D01*
X148438Y155124D01*
Y155524D01*
X148038D01*
X147638Y155124D01*
X147238Y155524D01*
X146838D01*
Y155124D01*
X147238Y154724D01*
X146838Y154324D01*
Y153924D01*
X147238Y154324D02*
X147438D01*
X147638Y154524D01*
X147838Y154324D01*
X148038D01*
Y154524D01*
X147838Y154724D01*
X148038Y154924D01*
Y155124D01*
X147838D01*
X147638Y154924D01*
X147438Y155124D01*
X147238D01*
Y154924D01*
X147438Y154724D01*
X147238Y154524D01*
Y154324D01*
X146641Y160224D02*
X147041D01*
X147441Y160624D01*
X147841Y160224D01*
X148241D01*
Y160624D01*
X147841Y161024D01*
X148241Y161424D01*
Y161824D01*
X147841D01*
X147441Y161424D01*
X147041Y161824D01*
X146641D01*
Y161424D01*
X147041Y161024D01*
X146641Y160624D01*
Y160224D01*
X147041Y160624D02*
X147241D01*
X147441Y160824D01*
X147641Y160624D01*
X147841D01*
Y160824D01*
X147641Y161024D01*
X147841Y161224D01*
Y161424D01*
X147641D01*
X147441Y161224D01*
X147241Y161424D01*
X147041D01*
Y161224D01*
X147241Y161024D01*
X147041Y160824D01*
Y160624D01*
X149594Y166326D02*
X149994D01*
X150394Y166726D01*
X150794Y166326D01*
X151194D01*
Y166726D01*
X150794Y167126D01*
X151194Y167526D01*
Y167926D01*
X150794D01*
X150394Y167526D01*
X149994Y167926D01*
X149594D01*
Y167526D01*
X149994Y167126D01*
X149594Y166726D01*
Y166326D01*
X149994Y166726D02*
X150194D01*
X150394Y166926D01*
X150594Y166726D01*
X150794D01*
Y166926D01*
X150594Y167126D01*
X150794Y167326D01*
Y167526D01*
X150594D01*
X150394Y167326D01*
X150194Y167526D01*
X149994D01*
Y167326D01*
X150194Y167126D01*
X149994Y166926D01*
Y166726D01*
X158058Y177153D02*
X158458D01*
X158858Y177553D01*
X159258Y177153D01*
X159658D01*
Y177553D01*
X159258Y177953D01*
X159658Y178353D01*
Y178753D01*
X159258D01*
X158858Y178353D01*
X158458Y178753D01*
X158058D01*
Y178353D01*
X158458Y177953D01*
X158058Y177553D01*
Y177153D01*
X158458Y177553D02*
X158658D01*
X158858Y177753D01*
X159058Y177553D01*
X159258D01*
Y177753D01*
X159058Y177953D01*
X159258Y178153D01*
Y178353D01*
X159058D01*
X158858Y178153D01*
X158658Y178353D01*
X158458D01*
Y178153D01*
X158658Y177953D01*
X158458Y177753D01*
Y177553D01*
X157468Y164948D02*
X157868D01*
X158268Y165348D01*
X158668Y164948D01*
X159068D01*
Y165348D01*
X158668Y165748D01*
X159068Y166148D01*
Y166548D01*
X158668D01*
X158268Y166148D01*
X157868Y166548D01*
X157468D01*
Y166148D01*
X157868Y165748D01*
X157468Y165348D01*
Y164948D01*
X157868Y165348D02*
X158068D01*
X158268Y165548D01*
X158468Y165348D01*
X158668D01*
Y165548D01*
X158468Y165748D01*
X158668Y165948D01*
Y166148D01*
X158468D01*
X158268Y165948D01*
X158068Y166148D01*
X157868D01*
Y165948D01*
X158068Y165748D01*
X157868Y165548D01*
Y165348D01*
X267507Y91917D02*
X267907D01*
X268307Y92317D01*
X268707Y91917D01*
X269107D01*
Y92317D01*
X268707Y92716D01*
X269107Y93116D01*
Y93516D01*
X268707D01*
X268307Y93116D01*
X267907Y93516D01*
X267507D01*
Y93116D01*
X267907Y92716D01*
X267507Y92317D01*
Y91917D01*
X267907Y92317D02*
X268107D01*
X268307Y92516D01*
X268507Y92317D01*
X268707D01*
Y92516D01*
X268507Y92716D01*
X268707Y92917D01*
Y93116D01*
X268507D01*
X268307Y92917D01*
X268107Y93116D01*
X267907D01*
Y92917D01*
X268107Y92716D01*
X267907Y92516D01*
Y92317D01*
X183255Y142310D02*
X183655D01*
X184055Y142710D01*
X184455Y142310D01*
X184855D01*
Y142710D01*
X184455Y143110D01*
X184855Y143510D01*
Y143910D01*
X184455D01*
X184055Y143510D01*
X183655Y143910D01*
X183255D01*
Y143510D01*
X183655Y143110D01*
X183255Y142710D01*
Y142310D01*
X183655Y142710D02*
X183855D01*
X184055Y142910D01*
X184255Y142710D01*
X184455D01*
Y142910D01*
X184255Y143110D01*
X184455Y143310D01*
Y143510D01*
X184255D01*
X184055Y143310D01*
X183855Y143510D01*
X183655D01*
Y143310D01*
X183855Y143110D01*
X183655Y142910D01*
Y142710D01*
X219285Y44876D02*
Y44476D01*
X220085D01*
Y44876D01*
X220485D01*
Y45676D01*
X220085D01*
Y46076D01*
X219285D01*
Y45676D01*
X218885D01*
Y44876D01*
X219285D01*
X219485Y45076D02*
Y44876D01*
X219885D01*
Y45076D01*
X220085D01*
Y45476D01*
X219885D01*
Y45676D01*
X219485D01*
Y45476D01*
X219285D01*
Y45076D01*
X219485D01*
X219285Y25190D02*
Y24791D01*
X220085D01*
Y25190D01*
X220485D01*
Y25991D01*
X220085D01*
Y26391D01*
X219285D01*
Y25991D01*
X218885D01*
Y25190D01*
X219285D01*
X219485Y25390D02*
Y25190D01*
X219885D01*
Y25390D01*
X220085D01*
Y25791D01*
X219885D01*
Y25991D01*
X219485D01*
Y25791D01*
X219285D01*
Y25390D01*
X219485D01*
X23056Y5233D02*
X23456D01*
X23856Y5633D01*
X24256Y5233D01*
X24656D01*
Y5633D01*
X24256Y6033D01*
X24656Y6433D01*
Y6833D01*
X24256D01*
X23856Y6433D01*
X23456Y6833D01*
X23056D01*
Y6433D01*
X23456Y6033D01*
X23056Y5633D01*
Y5233D01*
X23456Y5633D02*
X23656D01*
X23856Y5833D01*
X24056Y5633D01*
X24256D01*
Y5833D01*
X24056Y6033D01*
X24256Y6233D01*
Y6433D01*
X24056D01*
X23856Y6233D01*
X23656Y6433D01*
X23456D01*
Y6233D01*
X23656Y6033D01*
X23456Y5833D01*
Y5633D01*
X23019Y12192D02*
X23419D01*
X23819Y12592D01*
X24219Y12192D01*
X24619D01*
Y12592D01*
X24219Y12992D01*
X24619Y13392D01*
Y13792D01*
X24219D01*
X23819Y13392D01*
X23419Y13792D01*
X23019D01*
Y13392D01*
X23419Y12992D01*
X23019Y12592D01*
Y12192D01*
X23419Y12592D02*
X23619D01*
X23819Y12792D01*
X24019Y12592D01*
X24219D01*
Y12792D01*
X24019Y12992D01*
X24219Y13192D01*
Y13392D01*
X24019D01*
X23819Y13192D01*
X23619Y13392D01*
X23419D01*
Y13192D01*
X23619Y12992D01*
X23419Y12792D01*
Y12592D01*
X22428Y26238D02*
X22828D01*
X23228Y26638D01*
X23628Y26238D01*
X24028D01*
Y26638D01*
X23628Y27038D01*
X24028Y27438D01*
Y27838D01*
X23628D01*
X23228Y27438D01*
X22828Y27838D01*
X22428D01*
Y27438D01*
X22828Y27038D01*
X22428Y26638D01*
Y26238D01*
X22828Y26638D02*
X23028D01*
X23228Y26838D01*
X23428Y26638D01*
X23628D01*
Y26838D01*
X23428Y27038D01*
X23628Y27238D01*
Y27438D01*
X23428D01*
X23228Y27238D01*
X23028Y27438D01*
X22828D01*
Y27238D01*
X23028Y27038D01*
X22828Y26838D01*
Y26638D01*
X64358Y17901D02*
X64758D01*
X65158Y18301D01*
X65557Y17901D01*
X65957D01*
Y18301D01*
X65557Y18701D01*
X65957Y19101D01*
Y19501D01*
X65557D01*
X65158Y19101D01*
X64758Y19501D01*
X64358D01*
Y19101D01*
X64758Y18701D01*
X64358Y18301D01*
Y17901D01*
X64758Y18301D02*
X64957D01*
X65158Y18501D01*
X65358Y18301D01*
X65557D01*
Y18501D01*
X65358Y18701D01*
X65557Y18901D01*
Y19101D01*
X65358D01*
X65158Y18901D01*
X64957Y19101D01*
X64758D01*
Y18901D01*
X64957Y18701D01*
X64758Y18501D01*
Y18301D01*
X71641Y130893D02*
X72041D01*
X72441Y131293D01*
X72841Y130893D01*
X73241D01*
Y131293D01*
X72841Y131693D01*
X73241Y132093D01*
Y132493D01*
X72841D01*
X72441Y132093D01*
X72041Y132493D01*
X71641D01*
Y132093D01*
X72041Y131693D01*
X71641Y131293D01*
Y130893D01*
X72041Y131293D02*
X72241D01*
X72441Y131493D01*
X72641Y131293D01*
X72841D01*
Y131493D01*
X72641Y131693D01*
X72841Y131893D01*
Y132093D01*
X72641D01*
X72441Y131893D01*
X72241Y132093D01*
X72041D01*
Y131893D01*
X72241Y131693D01*
X72041Y131493D01*
Y131293D01*
X74594Y130893D02*
X74994D01*
X75394Y131293D01*
X75794Y130893D01*
X76194D01*
Y131293D01*
X75794Y131693D01*
X76194Y132093D01*
Y132493D01*
X75794D01*
X75394Y132093D01*
X74994Y132493D01*
X74594D01*
Y132093D01*
X74994Y131693D01*
X74594Y131293D01*
Y130893D01*
X74994Y131293D02*
X75194D01*
X75394Y131493D01*
X75594Y131293D01*
X75794D01*
Y131493D01*
X75594Y131693D01*
X75794Y131893D01*
Y132093D01*
X75594D01*
X75394Y131893D01*
X75194Y132093D01*
X74994D01*
Y131893D01*
X75194Y131693D01*
X74994Y131493D01*
Y131293D01*
X77940Y130893D02*
X78340D01*
X78740Y131293D01*
X79140Y130893D01*
X79540D01*
Y131293D01*
X79140Y131693D01*
X79540Y132093D01*
Y132493D01*
X79140D01*
X78740Y132093D01*
X78340Y132493D01*
X77940D01*
Y132093D01*
X78340Y131693D01*
X77940Y131293D01*
Y130893D01*
X78340Y131293D02*
X78540D01*
X78740Y131493D01*
X78940Y131293D01*
X79140D01*
Y131493D01*
X78940Y131693D01*
X79140Y131893D01*
Y132093D01*
X78940D01*
X78740Y131893D01*
X78540Y132093D01*
X78340D01*
Y131893D01*
X78540Y131693D01*
X78340Y131493D01*
Y131293D01*
X81090Y130893D02*
X81490D01*
X81890Y131293D01*
X82290Y130893D01*
X82690D01*
Y131293D01*
X82290Y131693D01*
X82690Y132093D01*
Y132493D01*
X82290D01*
X81890Y132093D01*
X81490Y132493D01*
X81090D01*
Y132093D01*
X81490Y131693D01*
X81090Y131293D01*
Y130893D01*
X81490Y131293D02*
X81690D01*
X81890Y131493D01*
X82090Y131293D01*
X82290D01*
Y131493D01*
X82090Y131693D01*
X82290Y131893D01*
Y132093D01*
X82090D01*
X81890Y131893D01*
X81690Y132093D01*
X81490D01*
Y131893D01*
X81690Y131693D01*
X81490Y131493D01*
Y131293D01*
X61995Y145657D02*
X62395D01*
X62795Y146057D01*
X63195Y145657D01*
X63595D01*
Y146057D01*
X63195Y146457D01*
X63595Y146857D01*
Y147257D01*
X63195D01*
X62795Y146857D01*
X62395Y147257D01*
X61995D01*
Y146857D01*
X62395Y146457D01*
X61995Y146057D01*
Y145657D01*
X62395Y146057D02*
X62595D01*
X62795Y146257D01*
X62995Y146057D01*
X63195D01*
Y146257D01*
X62995Y146457D01*
X63195Y146657D01*
Y146857D01*
X62995D01*
X62795Y146657D01*
X62595Y146857D01*
X62395D01*
Y146657D01*
X62595Y146457D01*
X62395Y146257D01*
Y146057D01*
X52356Y130309D02*
Y129909D01*
X53156D01*
Y130309D01*
X53556D01*
Y131109D01*
X53156D01*
Y131509D01*
X52356D01*
Y131109D01*
X51956D01*
Y130309D01*
X52356D01*
X52556Y130509D02*
Y130309D01*
X52956D01*
Y130509D01*
X53156D01*
Y130909D01*
X52956D01*
Y131109D01*
X52556D01*
Y130909D01*
X52356D01*
Y130509D01*
X52556D01*
X221444Y114554D02*
X221844D01*
X222244Y114954D01*
X222644Y114554D01*
X223044D01*
Y114954D01*
X222644Y115354D01*
X223044Y115754D01*
Y116154D01*
X222644D01*
X222244Y115754D01*
X221844Y116154D01*
X221444D01*
Y115754D01*
X221844Y115354D01*
X221444Y114954D01*
Y114554D01*
X221844Y114954D02*
X222044D01*
X222244Y115154D01*
X222444Y114954D01*
X222644D01*
Y115154D01*
X222444Y115354D01*
X222644Y115554D01*
Y115754D01*
X222444D01*
X222244Y115554D01*
X222044Y115754D01*
X221844D01*
Y115554D01*
X222044Y115354D01*
X221844Y115154D01*
Y114954D01*
X220472Y69082D02*
Y68682D01*
X221272D01*
Y69082D01*
X221672D01*
Y69882D01*
X221272D01*
Y70282D01*
X220472D01*
Y69882D01*
X220072D01*
Y69082D01*
X220472D01*
X220672Y69282D02*
Y69082D01*
X221072D01*
Y69282D01*
X221272D01*
Y69682D01*
X221072D01*
Y69882D01*
X220672D01*
Y69682D01*
X220472D01*
Y69282D01*
X220672D01*
X208058Y79318D02*
X208458D01*
X208858Y79718D01*
X209258Y79318D01*
X209658D01*
Y79718D01*
X209258Y80118D01*
X209658Y80518D01*
Y80918D01*
X209258D01*
X208858Y80518D01*
X208458Y80918D01*
X208058D01*
Y80518D01*
X208458Y80118D01*
X208058Y79718D01*
Y79318D01*
X208458Y79718D02*
X208658D01*
X208858Y79918D01*
X209058Y79718D01*
X209258D01*
Y79918D01*
X209058Y80118D01*
X209258Y80318D01*
Y80518D01*
X209058D01*
X208858Y80318D01*
X208658Y80518D01*
X208458D01*
Y80318D01*
X208658Y80118D01*
X208458Y79918D01*
Y79718D01*
X208058Y85618D02*
X208458D01*
X208858Y86018D01*
X209258Y85618D01*
X209658D01*
Y86018D01*
X209258Y86418D01*
X209658Y86818D01*
Y87218D01*
X209258D01*
X208858Y86818D01*
X208458Y87218D01*
X208058D01*
Y86818D01*
X208458Y86418D01*
X208058Y86018D01*
Y85618D01*
X208458Y86018D02*
X208658D01*
X208858Y86218D01*
X209058Y86018D01*
X209258D01*
Y86218D01*
X209058Y86418D01*
X209258Y86618D01*
Y86818D01*
X209058D01*
X208858Y86618D01*
X208658Y86818D01*
X208458D01*
Y86618D01*
X208658Y86418D01*
X208458Y86218D01*
Y86018D01*
X211411Y178143D02*
Y177743D01*
X212211D01*
Y178143D01*
X212611D01*
Y178943D01*
X212211D01*
Y179343D01*
X211411D01*
Y178943D01*
X211011D01*
Y178143D01*
X211411D01*
X211611Y178343D02*
Y178143D01*
X212011D01*
Y178343D01*
X212211D01*
Y178743D01*
X212011D01*
Y178943D01*
X211611D01*
Y178743D01*
X211411D01*
Y178343D01*
X211611D01*
X205505Y176568D02*
Y176169D01*
X206306D01*
Y176568D01*
X206705D01*
Y177368D01*
X206306D01*
Y177769D01*
X205505D01*
Y177368D01*
X205105D01*
Y176568D01*
X205505D01*
X205705Y176769D02*
Y176568D01*
X206105D01*
Y176769D01*
X206306D01*
Y177169D01*
X206105D01*
Y177368D01*
X205705D01*
Y177169D01*
X205505D01*
Y176769D01*
X205705D01*
X212198Y183655D02*
Y183255D01*
X212998D01*
Y183655D01*
X213398D01*
Y184455D01*
X212998D01*
Y184855D01*
X212198D01*
Y184455D01*
X211798D01*
Y183655D01*
X212198D01*
X212398Y183855D02*
Y183655D01*
X212798D01*
Y183855D01*
X212998D01*
Y184255D01*
X212798D01*
Y184455D01*
X212398D01*
Y184255D01*
X212198D01*
Y183855D01*
X212398D01*
X209246Y55102D02*
Y54702D01*
X210046D01*
Y55102D01*
X210446D01*
Y55902D01*
X210046D01*
Y56302D01*
X209246D01*
Y55902D01*
X208846D01*
Y55102D01*
X209246D01*
X209446Y55302D02*
Y55102D01*
X209846D01*
Y55302D01*
X210046D01*
Y55702D01*
X209846D01*
Y55902D01*
X209446D01*
Y55702D01*
X209246D01*
Y55302D01*
X209446D01*
X209246Y57770D02*
Y57370D01*
X210046D01*
Y57770D01*
X210446D01*
Y58570D01*
X210046D01*
Y58970D01*
X209246D01*
Y58570D01*
X208846D01*
Y57770D01*
X209246D01*
X209446Y57970D02*
Y57770D01*
X209846D01*
Y57970D01*
X210046D01*
Y58370D01*
X209846D01*
Y58570D01*
X209446D01*
Y58370D01*
X209246D01*
Y57970D01*
X209446D01*
X209061Y90402D02*
X209461D01*
X209861Y90802D01*
X210261Y90402D01*
X210661D01*
Y90802D01*
X210261Y91202D01*
X210661Y91602D01*
Y92002D01*
X210261D01*
X209861Y91602D01*
X209461Y92002D01*
X209061D01*
Y91602D01*
X209461Y91202D01*
X209061Y90802D01*
Y90402D01*
X209461Y90802D02*
X209661D01*
X209861Y91002D01*
X210061Y90802D01*
X210261D01*
Y91002D01*
X210061Y91202D01*
X210261Y91402D01*
Y91602D01*
X210061D01*
X209861Y91402D01*
X209661Y91602D01*
X209461D01*
Y91402D01*
X209661Y91202D01*
X209461Y91002D01*
Y90802D01*
X260624Y147041D02*
Y146641D01*
X261424D01*
Y147041D01*
X261824D01*
Y147841D01*
X261424D01*
Y148241D01*
X260624D01*
Y147841D01*
X260224D01*
Y147041D01*
X260624D01*
X260824Y147241D02*
Y147041D01*
X261224D01*
Y147241D01*
X261424D01*
Y147641D01*
X261224D01*
Y147841D01*
X260824D01*
Y147641D01*
X260624D01*
Y147241D01*
X260824D01*
X198199Y96701D02*
X198599D01*
X198999Y97101D01*
X199399Y96701D01*
X199799D01*
Y97101D01*
X199399Y97501D01*
X199799Y97901D01*
Y98301D01*
X199399D01*
X198999Y97901D01*
X198599Y98301D01*
X198199D01*
Y97901D01*
X198599Y97501D01*
X198199Y97101D01*
Y96701D01*
X198599Y97101D02*
X198799D01*
X198999Y97301D01*
X199199Y97101D01*
X199399D01*
Y97301D01*
X199199Y97501D01*
X199399Y97701D01*
Y97901D01*
X199199D01*
X198999Y97701D01*
X198799Y97901D01*
X198599D01*
Y97701D01*
X198799Y97501D01*
X198599Y97301D01*
Y97101D01*
X256877Y49791D02*
X257277D01*
X257677Y50191D01*
X258077Y49791D01*
X258477D01*
Y50191D01*
X258077Y50591D01*
X258477Y50991D01*
Y51390D01*
X258077D01*
X257677Y50991D01*
X257277Y51390D01*
X256877D01*
Y50991D01*
X257277Y50591D01*
X256877Y50191D01*
Y49791D01*
X257277Y50191D02*
X257477D01*
X257677Y50391D01*
X257877Y50191D01*
X258077D01*
Y50391D01*
X257877Y50591D01*
X258077Y50791D01*
Y50991D01*
X257877D01*
X257677Y50791D01*
X257477Y50991D01*
X257277D01*
Y50791D01*
X257477Y50591D01*
X257277Y50391D01*
Y50191D01*
X249594Y49791D02*
X249994D01*
X250394Y50191D01*
X250794Y49791D01*
X251194D01*
Y50191D01*
X250794Y50591D01*
X251194Y50991D01*
Y51390D01*
X250794D01*
X250394Y50991D01*
X249994Y51390D01*
X249594D01*
Y50991D01*
X249994Y50591D01*
X249594Y50191D01*
Y49791D01*
X249994Y50191D02*
X250194D01*
X250394Y50391D01*
X250594Y50191D01*
X250794D01*
Y50391D01*
X250594Y50591D01*
X250794Y50791D01*
Y50991D01*
X250594D01*
X250394Y50791D01*
X250194Y50991D01*
X249994D01*
Y50791D01*
X250194Y50591D01*
X249994Y50391D01*
Y50191D01*
X242310Y49791D02*
X242710D01*
X243110Y50191D01*
X243510Y49791D01*
X243910D01*
Y50191D01*
X243510Y50591D01*
X243910Y50991D01*
Y51390D01*
X243510D01*
X243110Y50991D01*
X242710Y51390D01*
X242310D01*
Y50991D01*
X242710Y50591D01*
X242310Y50191D01*
Y49791D01*
X242710Y50191D02*
X242910D01*
X243110Y50391D01*
X243310Y50191D01*
X243510D01*
Y50391D01*
X243310Y50591D01*
X243510Y50791D01*
Y50991D01*
X243310D01*
X243110Y50791D01*
X242910Y50991D01*
X242710D01*
Y50791D01*
X242910Y50591D01*
X242710Y50391D01*
Y50191D01*
X240539Y16326D02*
X240939D01*
X241339Y16726D01*
X241739Y16326D01*
X242139D01*
Y16726D01*
X241739Y17126D01*
X242139Y17526D01*
Y17926D01*
X241739D01*
X241339Y17526D01*
X240939Y17926D01*
X240539D01*
Y17526D01*
X240939Y17126D01*
X240539Y16726D01*
Y16326D01*
X240939Y16726D02*
X241139D01*
X241339Y16926D01*
X241539Y16726D01*
X241739D01*
Y16926D01*
X241539Y17126D01*
X241739Y17326D01*
Y17526D01*
X241539D01*
X241339Y17326D01*
X241139Y17526D01*
X240939D01*
Y17326D01*
X241139Y17126D01*
X240939Y16926D01*
Y16726D01*
X117310Y113373D02*
X117710D01*
X118110Y113773D01*
X118510Y113373D01*
X118910D01*
Y113773D01*
X118510Y114173D01*
X118910Y114573D01*
Y114973D01*
X118510D01*
X118110Y114573D01*
X117710Y114973D01*
X117310D01*
Y114573D01*
X117710Y114173D01*
X117310Y113773D01*
Y113373D01*
X117710Y113773D02*
X117910D01*
X118110Y113973D01*
X118310Y113773D01*
X118510D01*
Y113973D01*
X118310Y114173D01*
X118510Y114373D01*
Y114573D01*
X118310D01*
X118110Y114373D01*
X117910Y114573D01*
X117710D01*
Y114373D01*
X117910Y114173D01*
X117710Y113973D01*
Y113773D01*
X113373Y109436D02*
X113773D01*
X114173Y109836D01*
X114573Y109436D01*
X114973D01*
Y109836D01*
X114573Y110236D01*
X114973Y110636D01*
Y111036D01*
X114573D01*
X114173Y110636D01*
X113773Y111036D01*
X113373D01*
Y110636D01*
X113773Y110236D01*
X113373Y109836D01*
Y109436D01*
X113773Y109836D02*
X113973D01*
X114173Y110036D01*
X114373Y109836D01*
X114573D01*
Y110036D01*
X114373Y110236D01*
X114573Y110436D01*
Y110636D01*
X114373D01*
X114173Y110436D01*
X113973Y110636D01*
X113773D01*
Y110436D01*
X113973Y110236D01*
X113773Y110036D01*
Y109836D01*
X113373Y117310D02*
X113773D01*
X114173Y117710D01*
X114573Y117310D01*
X114973D01*
Y117710D01*
X114573Y118110D01*
X114973Y118510D01*
Y118910D01*
X114573D01*
X114173Y118510D01*
X113773Y118910D01*
X113373D01*
Y118510D01*
X113773Y118110D01*
X113373Y117710D01*
Y117310D01*
X113773Y117710D02*
X113973D01*
X114173Y117910D01*
X114373Y117710D01*
X114573D01*
Y117910D01*
X114373Y118110D01*
X114573Y118310D01*
Y118510D01*
X114373D01*
X114173Y118310D01*
X113973Y118510D01*
X113773D01*
Y118310D01*
X113973Y118110D01*
X113773Y117910D01*
Y117710D01*
X61503Y165932D02*
X61903D01*
X62303Y166332D01*
X62703Y165932D01*
X63103D01*
Y166332D01*
X62703Y166732D01*
X63103Y167132D01*
Y167532D01*
X62703D01*
X62303Y167132D01*
X61903Y167532D01*
X61503D01*
Y167132D01*
X61903Y166732D01*
X61503Y166332D01*
Y165932D01*
X61903Y166332D02*
X62103D01*
X62303Y166532D01*
X62503Y166332D01*
X62703D01*
Y166532D01*
X62503Y166732D01*
X62703Y166932D01*
Y167132D01*
X62503D01*
X62303Y166932D01*
X62103Y167132D01*
X61903D01*
Y166932D01*
X62103Y166732D01*
X61903Y166532D01*
Y166332D01*
X65243Y165932D02*
X65643D01*
X66043Y166332D01*
X66443Y165932D01*
X66843D01*
Y166332D01*
X66443Y166732D01*
X66843Y167132D01*
Y167532D01*
X66443D01*
X66043Y167132D01*
X65643Y167532D01*
X65243D01*
Y167132D01*
X65643Y166732D01*
X65243Y166332D01*
Y165932D01*
X65643Y166332D02*
X65843D01*
X66043Y166532D01*
X66243Y166332D01*
X66443D01*
Y166532D01*
X66243Y166732D01*
X66443Y166932D01*
Y167132D01*
X66243D01*
X66043Y166932D01*
X65843Y167132D01*
X65643D01*
Y166932D01*
X65843Y166732D01*
X65643Y166532D01*
Y166332D01*
X57763Y165932D02*
X58163D01*
X58563Y166332D01*
X58963Y165932D01*
X59363D01*
Y166332D01*
X58963Y166732D01*
X59363Y167132D01*
Y167532D01*
X58963D01*
X58563Y167132D01*
X58163Y167532D01*
X57763D01*
Y167132D01*
X58163Y166732D01*
X57763Y166332D01*
Y165932D01*
X58163Y166332D02*
X58363D01*
X58563Y166532D01*
X58763Y166332D01*
X58963D01*
Y166532D01*
X58763Y166732D01*
X58963Y166932D01*
Y167132D01*
X58763D01*
X58563Y166932D01*
X58363Y167132D01*
X58163D01*
Y166932D01*
X58363Y166732D01*
X58163Y166532D01*
Y166332D01*
X61995Y192901D02*
X62395D01*
X62795Y193301D01*
X63195Y192901D01*
X63595D01*
Y193301D01*
X63195Y193701D01*
X63595Y194101D01*
Y194501D01*
X63195D01*
X62795Y194101D01*
X62395Y194501D01*
X61995D01*
Y194101D01*
X62395Y193701D01*
X61995Y193301D01*
Y192901D01*
X62395Y193301D02*
X62595D01*
X62795Y193501D01*
X62995Y193301D01*
X63195D01*
Y193501D01*
X62995Y193701D01*
X63195Y193901D01*
Y194101D01*
X62995D01*
X62795Y193901D01*
X62595Y194101D01*
X62395D01*
Y193901D01*
X62595Y193701D01*
X62395Y193501D01*
Y193301D01*
X54515Y192901D02*
X54915D01*
X55315Y193301D01*
X55715Y192901D01*
X56115D01*
Y193301D01*
X55715Y193701D01*
X56115Y194101D01*
Y194501D01*
X55715D01*
X55315Y194101D01*
X54915Y194501D01*
X54515D01*
Y194101D01*
X54915Y193701D01*
X54515Y193301D01*
Y192901D01*
X54915Y193301D02*
X55115D01*
X55315Y193501D01*
X55515Y193301D01*
X55715D01*
Y193501D01*
X55515Y193701D01*
X55715Y193901D01*
Y194101D01*
X55515D01*
X55315Y193901D01*
X55115Y194101D01*
X54915D01*
Y193901D01*
X55115Y193701D01*
X54915Y193501D01*
Y193301D01*
X58255Y192901D02*
X58655D01*
X59055Y193301D01*
X59455Y192901D01*
X59855D01*
Y193301D01*
X59455Y193701D01*
X59855Y194101D01*
Y194501D01*
X59455D01*
X59055Y194101D01*
X58655Y194501D01*
X58255D01*
Y194101D01*
X58655Y193701D01*
X58255Y193301D01*
Y192901D01*
X58655Y193301D02*
X58855D01*
X59055Y193501D01*
X59255Y193301D01*
X59455D01*
Y193501D01*
X59255Y193701D01*
X59455Y193901D01*
Y194101D01*
X59255D01*
X59055Y193901D01*
X58855Y194101D01*
X58655D01*
Y193901D01*
X58855Y193701D01*
X58655Y193501D01*
Y193301D01*
D183*
X328746Y113037D02*
G03*
X328746Y113037I-800J0D01*
G01*
X328847Y98797D02*
G03*
X328847Y98797I-800J0D01*
G01*
X314673Y112970D02*
G03*
X314673Y112970I-800J0D01*
G01*
X162021Y12500D02*
G03*
X162021Y12500I-800J0D01*
G01*
X13497Y178937D02*
G03*
X13497Y178937I-800J0D01*
G01*
D184*
X161620Y12500D02*
G03*
X161620Y12500I-400J0D01*
G01*
X13097Y178937D02*
G03*
X13097Y178937I-400J0D01*
G01*
M02*
