M48
;Layer_Color=9474304
;FILE_FORMAT=2:5
INCH,LZ
;TYPE=PLATED
T1F00S00C0.00787
T2F00S00C0.01181
T3F00S00C0.01378
T4F00S00C0.01968
T5F00S00C0.03150
T6F00S00C0.03500
T7F00S00C0.03543
T8F00S00C0.03937
T10F00S00C0.04331
T12F00S00C0.05118
T13F00S00C0.06890
;TYPE=NON_PLATED
T14F00S00C0.08268
%
T01
X0057746Y0049596
Y0056821
Y0064045
X0061358Y0060433
X006497Y0064045
Y0056821
X0061358Y0053209
X006497Y0049596
X0068583Y0053209
Y0060433
X0054134
Y0053209
T02
X0219685Y0025591
Y0045276
X0220872Y0069482
X0261024Y0147441
X0267717Y0156583
Y0159252
X0248031Y0184843
X0212598Y0184055
X0211811Y0178543
X0205906Y0176969
X0209646Y005817
Y0055502
X0052756Y0130709
T03
X0023856Y0006033
X0023819Y0012992
X0023425Y0019882
X0023228Y0027038
X0043504Y0008858
X0044291Y0004724
X0049606Y0005118
X0065158Y0018701
X0119291Y0025197
X0122441Y0010827
X0141535Y0006693
X018189Y0007087
X0241339Y0017126
X0250197Y0009449
X0305906Y0006299
X0308268Y003189
X0315354
X0304685Y0052737
X0257677Y0050591
X0250394
X024311
X0231693Y0053937
X0238386Y0065158
X0252756Y0066339
X0263189Y0060433
Y0072638
X0268307Y0092716
X0255906Y0124016
X0244291
X0233265Y0122645
X0222244Y0115354
X0216732Y0151575
X0217717Y0161811
X0235826Y0170079
X0262008Y0189961
X0250984Y0134843
X0184055Y014311
X018248Y0122244
X0159646Y0122441
X0169488Y011063
X0198999Y0097501
X0209861Y0091202
X0208858Y0086418
Y0080118
X0204724Y003878
X0129528Y0068898
X0119095Y0058858
X011811Y0114173
X0114173Y0110236
Y011811
X008189Y0131693
X007874
X0075394
X0072441
X0062795Y0146457
X0060236Y0155315
X0058563Y0166732
X0062303
X0066043
X0089567Y0175787
X0120079Y0177559
X0120276Y0188386
X0158858Y0177953
X0158268Y0165748
X0150394Y0167126
X0147441Y0161024
X0147638Y0154724
X0202559Y0163583
X0037008Y0105315
X0009449Y0124016
X0029134Y0057284
X0039961Y0060236
X0036417Y0049213
X0024606Y004685
X0055315Y0193701
X0019488Y022185
X0059055Y0193701
X0062795
X0092323Y0192717
X0172047Y0195866
X0186417
X0184055Y0209055
X0185236Y0223031
X0201378
X0201181Y0208661
X0261811Y0203346
X0261614Y0216732
X0264961Y023937
X0242717Y023563
X0230709Y0251792
X022874Y026063
T04
X0328046Y0098797
X0327946Y0113037
X0313873Y011297
T05
X0021063Y0114764
Y0134449
T06
X0091142Y0007283
X0102953
T07
X0267323Y001437
Y0020276
Y0026181
Y0032087
X0295276
Y0026181
Y0020276
Y001437
Y0037992
Y0043898
X0267323
Y0037992
T08
X0126308Y0084182
X0140227Y0098101
X0034646Y023563
X0014961
Y0278543
X0034646
X0072835Y0309646
X0151575
X013189Y0230906
X009252
T10
X0169882Y034941
X0051772
T12
X0187362Y0259685
X0187756Y0299685
Y0329685
X0217362Y0319685
X0238937Y0329685
Y0299685
X0238543Y0259685
X0217362
X0268543
Y0319685
T13
X0024606Y032937
X021315Y0349803
X0244528
X0264528
X019315
X0024606Y034937
T14
X0161221Y00125
X0012697Y0178937
M30
