G04*
G04 #@! TF.GenerationSoftware,Altium Limited,Altium Designer,22.6.1 (34)*
G04*
G04 Layer_Physical_Order=4*
G04 Layer_Color=16711680*
%FSLAX25Y25*%
%MOIN*%
G70*
G04*
G04 #@! TF.SameCoordinates,8414C9FA-97DA-49A9-B933-D5EF8910B524*
G04*
G04*
G04 #@! TF.FilePolarity,Positive*
G04*
G01*
G75*
%ADD60C,0.08268*%
%ADD62C,0.03937*%
%ADD66R,0.03800X0.03100*%
%ADD68R,0.02756X0.05118*%
%ADD69R,0.05118X0.02756*%
%ADD75R,0.03100X0.03800*%
%ADD99C,0.01100*%
%ADD100C,0.06000*%
%ADD101C,0.01470*%
%ADD102C,0.01500*%
%ADD103C,0.02000*%
%ADD104C,0.02500*%
%ADD106C,0.03000*%
%ADD110C,0.11811*%
%ADD111O,0.06693X0.04724*%
%ADD112C,0.09843*%
%ADD113O,0.14173X0.07087*%
%ADD114O,0.07874X0.15748*%
%ADD115O,0.15748X0.07874*%
%ADD116C,0.07874*%
%ADD117P,0.11136X4X270.0*%
%ADD118C,0.03543*%
%ADD119C,0.01181*%
%ADD120O,0.07087X0.14173*%
%ADD121R,0.07874X0.07874*%
%ADD122C,0.01968*%
%ADD123C,0.02362*%
%ADD124C,0.01772*%
%ADD171R,0.06299X0.03543*%
%ADD172R,0.04331X0.02362*%
%ADD173R,0.03543X0.06299*%
%ADD174R,0.04646X0.02284*%
%ADD175C,0.05000*%
G36*
X23228Y282874D02*
Y224409D01*
X35827Y211811D01*
X157677D01*
X172047Y226181D01*
X184789D01*
X184821Y225681D01*
X184536Y225644D01*
X183884Y225373D01*
X183324Y224944D01*
X182894Y224384D01*
X182645Y223781D01*
X187828D01*
X187578Y224384D01*
X187148Y224944D01*
X186588Y225373D01*
X185936Y225644D01*
X185651Y225681D01*
X185684Y226181D01*
X200930D01*
X200963Y225681D01*
X200678Y225644D01*
X200026Y225373D01*
X199466Y224944D01*
X199036Y224384D01*
X198787Y223781D01*
X203969D01*
X203720Y224384D01*
X203290Y224944D01*
X202730Y225373D01*
X202078Y225644D01*
X201793Y225681D01*
X201826Y226181D01*
X272047Y226181D01*
X276378Y221850D01*
Y10827D01*
X267913Y2362D01*
X45402D01*
X45250Y2862D01*
X45792Y3224D01*
X46252Y3912D01*
X46413Y4724D01*
X46252Y5536D01*
X45792Y6225D01*
X45103Y6685D01*
X44944Y6716D01*
X44839Y7247D01*
X45004Y7358D01*
X45464Y8046D01*
X45626Y8858D01*
X45464Y9670D01*
X45004Y10359D01*
X44316Y10819D01*
X43504Y10980D01*
X42692Y10819D01*
X42004Y10359D01*
X41544Y9670D01*
X41382Y8858D01*
X41544Y8046D01*
X42004Y7358D01*
X42692Y6898D01*
X42851Y6866D01*
X42957Y6335D01*
X42791Y6225D01*
X42331Y5536D01*
X42169Y4724D01*
X42331Y3912D01*
X42791Y3224D01*
X43332Y2862D01*
X43181Y2362D01*
X23031D01*
X21769Y3624D01*
X22100Y4001D01*
X22175Y3943D01*
X22504Y3691D01*
X23106Y3441D01*
Y5283D01*
X21265D01*
X21514Y4681D01*
X21767Y4352D01*
X21825Y4276D01*
X21448Y3946D01*
X18701Y6693D01*
Y18701D01*
X20267Y20267D01*
X20741Y20034D01*
X20721Y19882D01*
X20813Y19182D01*
X21083Y18530D01*
X21513Y17970D01*
X22073Y17540D01*
X22675Y17290D01*
Y19882D01*
X23425D01*
Y20632D01*
X26017D01*
X25767Y21234D01*
X25337Y21794D01*
X25146Y21941D01*
X25316Y22441D01*
X22441D01*
X18701Y18701D01*
Y31526D01*
X23169Y35994D01*
X30413D01*
X50177Y55758D01*
Y70718D01*
X53681Y74222D01*
X72815D01*
X75925Y71112D01*
Y44301D01*
X80413Y39813D01*
X106240D01*
X108917Y42490D01*
X109114Y42293D01*
Y34498D01*
X106752Y36860D01*
X78957D01*
X73839Y41978D01*
X39390D01*
X28346Y30935D01*
Y22441D01*
X104921D01*
X109252Y26772D01*
Y94291D01*
X98819Y104724D01*
X55905Y104724D01*
X46850Y113779D01*
Y137008D01*
X41929Y141929D01*
X30512Y141929D01*
X12205Y141929D01*
X4528Y149606D01*
X4528Y198622D01*
Y283858D01*
X8071Y287402D01*
X18701D01*
X23228Y282874D01*
D02*
G37*
G36*
X359449Y120866D02*
Y10630D01*
X351181Y2362D01*
X290563D01*
X283268Y9657D01*
Y119280D01*
X293122Y129134D01*
X351181D01*
X359449Y120866D01*
D02*
G37*
%LPC*%
G36*
X15711Y283928D02*
Y279293D01*
X20346D01*
X20258Y279963D01*
X19710Y281285D01*
X18838Y282421D01*
X17703Y283293D01*
X16380Y283840D01*
X15711Y283928D01*
D02*
G37*
G36*
X14211D02*
X13541Y283840D01*
X12219Y283293D01*
X11083Y282421D01*
X10211Y281285D01*
X9664Y279963D01*
X9575Y279293D01*
X14211D01*
Y283928D01*
D02*
G37*
G36*
X20346Y277793D02*
X15711D01*
Y273158D01*
X16380Y273246D01*
X17703Y273794D01*
X18838Y274666D01*
X19710Y275801D01*
X20258Y277124D01*
X20346Y277793D01*
D02*
G37*
G36*
X14211D02*
X9575D01*
X9664Y277124D01*
X10211Y275801D01*
X11083Y274666D01*
X12219Y273794D01*
X13541Y273246D01*
X14211Y273158D01*
Y277793D01*
D02*
G37*
G36*
X15711Y241015D02*
Y236380D01*
X20346D01*
X20258Y237049D01*
X19710Y238372D01*
X18838Y239508D01*
X17703Y240379D01*
X16380Y240927D01*
X15711Y241015D01*
D02*
G37*
G36*
X14211D02*
X13541Y240927D01*
X12219Y240379D01*
X11083Y239508D01*
X10211Y238372D01*
X9664Y237049D01*
X9575Y236380D01*
X14211D01*
Y241015D01*
D02*
G37*
G36*
X20346Y234880D02*
X15711D01*
Y230245D01*
X16380Y230333D01*
X17703Y230881D01*
X18838Y231752D01*
X19710Y232888D01*
X20258Y234211D01*
X20346Y234880D01*
D02*
G37*
G36*
X14211D02*
X9575D01*
X9664Y234211D01*
X10211Y232888D01*
X11083Y231752D01*
X12219Y230881D01*
X13541Y230333D01*
X14211Y230245D01*
Y234880D01*
D02*
G37*
G36*
X20238Y224442D02*
Y222600D01*
X22080D01*
X21830Y223202D01*
X21400Y223763D01*
X20840Y224192D01*
X20238Y224442D01*
D02*
G37*
G36*
X18738D02*
X18136Y224192D01*
X17576Y223763D01*
X17146Y223202D01*
X16897Y222600D01*
X18738D01*
Y224442D01*
D02*
G37*
G36*
X203969Y222282D02*
X202128D01*
Y220440D01*
X202730Y220690D01*
X203290Y221119D01*
X203720Y221679D01*
X203969Y222282D01*
D02*
G37*
G36*
X200628D02*
X198787D01*
X199036Y221679D01*
X199466Y221119D01*
X200026Y220690D01*
X200628Y220440D01*
Y222282D01*
D02*
G37*
G36*
X187828D02*
X185986D01*
Y220440D01*
X186588Y220690D01*
X187148Y221119D01*
X187578Y221679D01*
X187828Y222282D01*
D02*
G37*
G36*
X184486D02*
X182645D01*
X182894Y221679D01*
X183324Y221119D01*
X183884Y220690D01*
X184486Y220440D01*
Y222282D01*
D02*
G37*
G36*
X22080Y221100D02*
X20238D01*
Y219259D01*
X20840Y219508D01*
X21400Y219938D01*
X21830Y220498D01*
X22080Y221100D01*
D02*
G37*
G36*
X18738D02*
X16897D01*
X17146Y220498D01*
X17576Y219938D01*
X18136Y219508D01*
X18738Y219259D01*
Y221100D01*
D02*
G37*
G36*
X262364Y219324D02*
Y217482D01*
X264206D01*
X263956Y218084D01*
X263526Y218644D01*
X262966Y219074D01*
X262364Y219324D01*
D02*
G37*
G36*
X260864D02*
X260262Y219074D01*
X259702Y218644D01*
X259272Y218084D01*
X259023Y217482D01*
X260864D01*
Y219324D01*
D02*
G37*
G36*
X264206Y215982D02*
X262364D01*
Y214141D01*
X262966Y214390D01*
X263526Y214820D01*
X263956Y215380D01*
X264206Y215982D01*
D02*
G37*
G36*
X260864D02*
X259023D01*
X259272Y215380D01*
X259702Y214820D01*
X260262Y214390D01*
X260864Y214141D01*
Y215982D01*
D02*
G37*
G36*
X184805Y211647D02*
Y209805D01*
X186646D01*
X186397Y210407D01*
X185967Y210967D01*
X185407Y211397D01*
X184805Y211647D01*
D02*
G37*
G36*
X183305D02*
X182703Y211397D01*
X182143Y210967D01*
X181713Y210407D01*
X181464Y209805D01*
X183305D01*
Y211647D01*
D02*
G37*
G36*
X201931Y211253D02*
Y209411D01*
X203772D01*
X203523Y210014D01*
X203093Y210574D01*
X202533Y211003D01*
X201931Y211253D01*
D02*
G37*
G36*
X200431D02*
X199829Y211003D01*
X199269Y210574D01*
X198839Y210014D01*
X198590Y209411D01*
X200431D01*
Y211253D01*
D02*
G37*
G36*
X186646Y208305D02*
X184805D01*
Y206464D01*
X185407Y206713D01*
X185967Y207143D01*
X186397Y207703D01*
X186646Y208305D01*
D02*
G37*
G36*
X183305D02*
X181464D01*
X181713Y207703D01*
X182143Y207143D01*
X182703Y206713D01*
X183305Y206464D01*
Y208305D01*
D02*
G37*
G36*
X203772Y207911D02*
X201931D01*
Y206070D01*
X202533Y206319D01*
X203093Y206749D01*
X203523Y207309D01*
X203772Y207911D01*
D02*
G37*
G36*
X200431D02*
X198590D01*
X198839Y207309D01*
X199269Y206749D01*
X199829Y206319D01*
X200431Y206070D01*
Y207911D01*
D02*
G37*
G36*
X262561Y205938D02*
Y204097D01*
X264402D01*
X264153Y204699D01*
X263723Y205259D01*
X263163Y205688D01*
X262561Y205938D01*
D02*
G37*
G36*
X261061D02*
X260459Y205688D01*
X259899Y205259D01*
X259469Y204699D01*
X259220Y204097D01*
X261061D01*
Y205938D01*
D02*
G37*
G36*
X264402Y202596D02*
X262561D01*
Y200755D01*
X263163Y201005D01*
X263723Y201434D01*
X264153Y201994D01*
X264402Y202596D01*
D02*
G37*
G36*
X261061D02*
X259220D01*
X259469Y201994D01*
X259899Y201434D01*
X260459Y201005D01*
X261061Y200755D01*
Y202596D01*
D02*
G37*
G36*
X185667Y198458D02*
X185065Y198208D01*
X184505Y197778D01*
X184075Y197218D01*
X183826Y196616D01*
X185667D01*
Y198458D01*
D02*
G37*
G36*
X172797D02*
Y196616D01*
X174639D01*
X174389Y197218D01*
X173959Y197778D01*
X173399Y198208D01*
X172797Y198458D01*
D02*
G37*
G36*
X171297D02*
X170695Y198208D01*
X170135Y197778D01*
X169705Y197218D01*
X169456Y196616D01*
X171297D01*
Y198458D01*
D02*
G37*
G36*
X62795Y195823D02*
X61983Y195661D01*
X61295Y195201D01*
X61175Y195022D01*
X60675D01*
X60555Y195201D01*
X59867Y195661D01*
X59055Y195823D01*
X58243Y195661D01*
X57555Y195201D01*
X57435Y195022D01*
X56935D01*
X56815Y195201D01*
X56127Y195661D01*
X55315Y195823D01*
X54503Y195661D01*
X53815Y195201D01*
X53355Y194513D01*
X53193Y193701D01*
X53355Y192889D01*
X53815Y192200D01*
X54503Y191740D01*
X54616Y191718D01*
X54599Y191211D01*
X54057Y191140D01*
X52976Y190692D01*
X52047Y189980D01*
X51335Y189052D01*
X50888Y187971D01*
X50735Y186811D01*
Y179724D01*
X50888Y178565D01*
X51335Y177484D01*
X52047Y176555D01*
X52976Y175843D01*
X54057Y175396D01*
X55216Y175243D01*
X56376Y175396D01*
X57457Y175843D01*
X58385Y176555D01*
X59098Y177484D01*
X59545Y178565D01*
X59698Y179724D01*
Y186811D01*
X59545Y187971D01*
X59098Y189052D01*
X58385Y189980D01*
X57457Y190692D01*
X56376Y191140D01*
X55952Y191196D01*
X55935Y191702D01*
X56127Y191740D01*
X56815Y192200D01*
X56935Y192379D01*
X57435D01*
X57555Y192200D01*
X58243Y191740D01*
X59055Y191579D01*
X59867Y191740D01*
X60555Y192200D01*
X60675Y192379D01*
X61175D01*
X61295Y192200D01*
X61983Y191740D01*
X62795Y191579D01*
X63607Y191740D01*
X64296Y192200D01*
X64756Y192889D01*
X64917Y193701D01*
X64756Y194513D01*
X64296Y195201D01*
X63607Y195661D01*
X62795Y195823D01*
D02*
G37*
G36*
X93073Y195308D02*
Y193466D01*
X94914D01*
X94665Y194069D01*
X94235Y194629D01*
X93675Y195059D01*
X93073Y195308D01*
D02*
G37*
G36*
X91573D02*
X90971Y195059D01*
X90411Y194629D01*
X89981Y194069D01*
X89732Y193466D01*
X91573D01*
Y195308D01*
D02*
G37*
G36*
X174639Y195116D02*
X172797D01*
Y193275D01*
X173399Y193524D01*
X173959Y193954D01*
X174389Y194514D01*
X174639Y195116D01*
D02*
G37*
G36*
X171297D02*
X169456D01*
X169705Y194514D01*
X170135Y193954D01*
X170695Y193524D01*
X171297Y193275D01*
Y195116D01*
D02*
G37*
G36*
X262758Y192552D02*
Y190711D01*
X264599D01*
X264350Y191313D01*
X263920Y191873D01*
X263360Y192303D01*
X262758Y192552D01*
D02*
G37*
G36*
X261258D02*
X260656Y192303D01*
X260096Y191873D01*
X259666Y191313D01*
X259417Y190711D01*
X261258D01*
Y192552D01*
D02*
G37*
G36*
X94914Y191966D02*
X93073D01*
Y190125D01*
X93675Y190375D01*
X94235Y190804D01*
X94665Y191364D01*
X94914Y191966D01*
D02*
G37*
G36*
X91573D02*
X89732D01*
X89981Y191364D01*
X90411Y190804D01*
X90971Y190375D01*
X91573Y190125D01*
Y191966D01*
D02*
G37*
G36*
X121026Y190977D02*
Y189136D01*
X122867D01*
X122617Y189738D01*
X122188Y190298D01*
X121628Y190728D01*
X121026Y190977D01*
D02*
G37*
G36*
X119526D02*
X118923Y190728D01*
X118363Y190298D01*
X117934Y189738D01*
X117684Y189136D01*
X119526D01*
Y190977D01*
D02*
G37*
G36*
X264599Y189211D02*
X262758D01*
Y187369D01*
X263360Y187619D01*
X263920Y188048D01*
X264350Y188609D01*
X264599Y189211D01*
D02*
G37*
G36*
X261258D02*
X259417D01*
X259666Y188609D01*
X260096Y188048D01*
X260656Y187619D01*
X261258Y187369D01*
Y189211D01*
D02*
G37*
G36*
X122867Y187636D02*
X121026D01*
Y185794D01*
X121628Y186044D01*
X122188Y186474D01*
X122617Y187034D01*
X122867Y187636D01*
D02*
G37*
G36*
X119526D02*
X117684D01*
X117934Y187034D01*
X118363Y186474D01*
X118923Y186044D01*
X119526Y185794D01*
Y187636D01*
D02*
G37*
G36*
X31163Y188259D02*
Y179687D01*
X35897D01*
Y182874D01*
X35710Y184293D01*
X35163Y185616D01*
X34291Y186752D01*
X33155Y187623D01*
X31833Y188171D01*
X31163Y188259D01*
D02*
G37*
G36*
X29663D02*
X28994Y188171D01*
X27671Y187623D01*
X26536Y186752D01*
X25664Y185616D01*
X25116Y184293D01*
X24929Y182874D01*
Y179687D01*
X29663D01*
Y188259D01*
D02*
G37*
G36*
X212598Y185976D02*
X211863Y185830D01*
X211240Y185414D01*
X210823Y184790D01*
X210791Y184627D01*
X208187Y182023D01*
X207822Y181477D01*
X207694Y180833D01*
Y178583D01*
X207475Y178453D01*
X207194Y178373D01*
X206641Y178743D01*
X205906Y178890D01*
X205170Y178743D01*
X204547Y178327D01*
X204131Y177704D01*
X203984Y176969D01*
X204001Y176884D01*
X203752Y176512D01*
X203640Y175946D01*
Y166508D01*
X203309Y166311D01*
Y163583D01*
Y160854D01*
X203640Y160657D01*
Y78937D01*
X203752Y78371D01*
X204073Y77892D01*
X208554Y73410D01*
X209034Y73090D01*
X209600Y72977D01*
X216271D01*
X219086Y70161D01*
X218951Y69482D01*
X219097Y68747D01*
X219514Y68124D01*
X219835Y67909D01*
X219914Y67280D01*
X218679Y66045D01*
X208858D01*
X208293Y65933D01*
X207813Y65612D01*
X204663Y62463D01*
X204343Y61983D01*
X204230Y61417D01*
Y43307D01*
X204343Y42741D01*
X204663Y42262D01*
X204969Y41956D01*
X204736Y41482D01*
X204724Y41484D01*
X204025Y41392D01*
X203372Y41122D01*
X202812Y40692D01*
X202382Y40132D01*
X202133Y39529D01*
X204724D01*
Y38780D01*
X205474D01*
Y36188D01*
X206077Y36438D01*
X206637Y36867D01*
X207066Y37427D01*
X207336Y38080D01*
X207429Y38780D01*
X207427Y38791D01*
X207901Y39024D01*
X219167Y27758D01*
X219038Y27331D01*
X218962Y27255D01*
X218397Y26878D01*
X218003Y26287D01*
X217864Y25591D01*
X218003Y24894D01*
X218397Y24303D01*
X218988Y23908D01*
X219685Y23770D01*
X220382Y23908D01*
X220973Y24303D01*
X221350Y24868D01*
X221420Y24937D01*
X221909Y25056D01*
X222269Y24815D01*
X222835Y24703D01*
X263420D01*
X263489Y24536D01*
X264012Y23855D01*
X264431Y23533D01*
Y22924D01*
X264012Y22602D01*
X263489Y21921D01*
X263160Y21127D01*
X263048Y20276D01*
X263160Y19424D01*
X263489Y18630D01*
X263984Y17985D01*
X264011Y17922D01*
X263989Y17407D01*
X263960Y17358D01*
X262438Y15837D01*
X262239Y15539D01*
X262169Y15188D01*
Y13577D01*
X262239Y13226D01*
X262438Y12928D01*
X266522Y8845D01*
X266522Y8845D01*
X266820Y8646D01*
X267171Y8576D01*
X267522Y8646D01*
X267820Y8845D01*
X272061Y13086D01*
X272260Y13384D01*
X272330Y13735D01*
Y15188D01*
X272260Y15539D01*
X272061Y15837D01*
X270603Y17295D01*
X270560Y17674D01*
X270604Y17926D01*
X270634Y17949D01*
X271157Y18630D01*
X271485Y19424D01*
X271597Y20276D01*
X271485Y21127D01*
X271157Y21921D01*
X270634Y22602D01*
X270215Y22924D01*
Y23533D01*
X270634Y23855D01*
X271157Y24536D01*
X271485Y25330D01*
X271597Y26181D01*
X271485Y27033D01*
X271157Y27826D01*
X270634Y28508D01*
X270215Y28829D01*
Y29438D01*
X270634Y29760D01*
X271157Y30441D01*
X271485Y31235D01*
X271597Y32087D01*
X271485Y32938D01*
X271157Y33732D01*
X270699Y34329D01*
X270634Y34686D01*
Y34909D01*
X271062Y35238D01*
X271681Y36044D01*
X272070Y36984D01*
X272104Y37242D01*
X267323D01*
X262542D01*
X262576Y36984D01*
X262965Y36044D01*
X263584Y35238D01*
X264012Y34909D01*
Y34686D01*
X263947Y34329D01*
X263489Y33732D01*
X263160Y32938D01*
X263048Y32087D01*
X263160Y31235D01*
X263489Y30441D01*
X264012Y29760D01*
X264431Y29438D01*
Y28829D01*
X264012Y28508D01*
X263489Y27826D01*
X263420Y27659D01*
X223447D01*
X207187Y43920D01*
Y60805D01*
X209471Y63089D01*
X219291D01*
X219857Y63201D01*
X220337Y63521D01*
X226589Y69774D01*
X226910Y70254D01*
X227023Y70820D01*
Y91353D01*
X226910Y91919D01*
X226589Y92399D01*
X223723Y95266D01*
Y113839D01*
X223745Y113854D01*
X224204Y114542D01*
X224366Y115354D01*
X224204Y116166D01*
X223745Y116855D01*
X223056Y117315D01*
X222244Y117476D01*
X221432Y117315D01*
X220744Y116855D01*
X220284Y116166D01*
X220122Y115354D01*
X220284Y114542D01*
X220744Y113854D01*
X220766Y113839D01*
Y94653D01*
X220878Y94088D01*
X221199Y93608D01*
X224066Y90741D01*
Y71432D01*
X223074Y70440D01*
X222446Y70519D01*
X222288Y70754D01*
X222232Y71038D01*
X221912Y71518D01*
X217928Y75501D01*
X217449Y75821D01*
X216883Y75934D01*
X210212D01*
X208611Y77535D01*
X208857Y77996D01*
X208858Y77996D01*
X209670Y78157D01*
X210359Y78617D01*
X210819Y79306D01*
X210980Y80118D01*
X210819Y80930D01*
X210359Y81618D01*
X209670Y82078D01*
X208858Y82240D01*
X208046Y82078D01*
X207358Y81618D01*
X207097Y81227D01*
X206596Y81379D01*
Y85157D01*
X207097Y85308D01*
X207358Y84917D01*
X208046Y84457D01*
X208858Y84296D01*
X209670Y84457D01*
X210359Y84917D01*
X210819Y85606D01*
X210867Y85850D01*
X213698Y88681D01*
X214063Y89227D01*
X214191Y89871D01*
Y134001D01*
X214063Y134645D01*
X213698Y135191D01*
X213493Y135396D01*
Y177670D01*
X213586Y177808D01*
X213732Y178543D01*
X213586Y179279D01*
X213170Y179902D01*
X212546Y180318D01*
X212047Y180418D01*
X211870Y180947D01*
X213170Y182248D01*
X213334Y182280D01*
X213957Y182697D01*
X214373Y183320D01*
X214520Y184055D01*
X214373Y184790D01*
X213957Y185414D01*
X213334Y185830D01*
X212598Y185976D01*
D02*
G37*
G36*
X120829Y180150D02*
Y178309D01*
X122670D01*
X122421Y178911D01*
X121991Y179471D01*
X121431Y179901D01*
X120829Y180150D01*
D02*
G37*
G36*
X119329D02*
X118727Y179901D01*
X118167Y179471D01*
X117737Y178911D01*
X117487Y178309D01*
X119329D01*
Y180150D01*
D02*
G37*
G36*
X90317Y178379D02*
Y176537D01*
X92158D01*
X91909Y177139D01*
X91479Y177700D01*
X90919Y178129D01*
X90317Y178379D01*
D02*
G37*
G36*
X88817D02*
X88215Y178129D01*
X87655Y177700D01*
X87225Y177139D01*
X86976Y176537D01*
X88817D01*
Y178379D01*
D02*
G37*
G36*
X158858Y180075D02*
X158046Y179913D01*
X157358Y179453D01*
X156898Y178765D01*
X156736Y177953D01*
X156898Y177141D01*
X157358Y176452D01*
X158046Y175992D01*
X158858Y175831D01*
X159670Y175992D01*
X160359Y176452D01*
X160819Y177141D01*
X160980Y177953D01*
X160819Y178765D01*
X160359Y179453D01*
X159670Y179913D01*
X158858Y180075D01*
D02*
G37*
G36*
X12697Y184014D02*
X11383Y183841D01*
X10158Y183334D01*
X9107Y182527D01*
X8300Y181476D01*
X7793Y180251D01*
X7620Y178937D01*
X7793Y177623D01*
X8300Y176398D01*
X9107Y175347D01*
X10158Y174540D01*
X11383Y174033D01*
X12697Y173860D01*
X14011Y174033D01*
X15236Y174540D01*
X16287Y175347D01*
X17094Y176398D01*
X17601Y177623D01*
X17774Y178937D01*
X17601Y180251D01*
X17094Y181476D01*
X16287Y182527D01*
X15236Y183334D01*
X14011Y183841D01*
X12697Y184014D01*
D02*
G37*
G36*
X35897Y178187D02*
X31163D01*
Y169615D01*
X31833Y169703D01*
X33155Y170251D01*
X34291Y171122D01*
X35163Y172258D01*
X35710Y173581D01*
X35897Y175000D01*
Y178187D01*
D02*
G37*
G36*
X29663D02*
X24929D01*
Y175000D01*
X25116Y173581D01*
X25664Y172258D01*
X26536Y171122D01*
X27671Y170251D01*
X28994Y169703D01*
X29663Y169615D01*
Y178187D01*
D02*
G37*
G36*
X66043Y168854D02*
X65231Y168693D01*
X64543Y168233D01*
X64423Y168053D01*
X63923D01*
X63803Y168233D01*
X63115Y168693D01*
X62303Y168854D01*
X61491Y168693D01*
X60803Y168233D01*
X60683Y168053D01*
X60183D01*
X60063Y168233D01*
X59375Y168693D01*
X58563Y168854D01*
X57751Y168693D01*
X57063Y168233D01*
X56603Y167544D01*
X56441Y166732D01*
X56603Y165920D01*
X57063Y165232D01*
X57751Y164772D01*
X58563Y164610D01*
X59375Y164772D01*
X60063Y165232D01*
X60183Y165411D01*
X60683D01*
X60803Y165232D01*
X61491Y164772D01*
X62303Y164610D01*
X63115Y164772D01*
X63803Y165232D01*
X63923Y165411D01*
X64423D01*
X64543Y165232D01*
X65231Y164772D01*
X66043Y164610D01*
X66855Y164772D01*
X67544Y165232D01*
X68004Y165920D01*
X68165Y166732D01*
X68004Y167544D01*
X67544Y168233D01*
X66855Y168693D01*
X66043Y168854D01*
D02*
G37*
G36*
X235826Y172201D02*
X235014Y172039D01*
X234326Y171579D01*
X233866Y170891D01*
X233704Y170079D01*
X233866Y169267D01*
X234326Y168578D01*
X235014Y168118D01*
X235826Y167957D01*
X236638Y168118D01*
X237327Y168578D01*
X237787Y169267D01*
X237948Y170079D01*
X237787Y170891D01*
X237327Y171579D01*
X236638Y172039D01*
X235826Y172201D01*
D02*
G37*
G36*
X150394Y169248D02*
X149582Y169086D01*
X148893Y168626D01*
X148433Y167938D01*
X148272Y167126D01*
X148433Y166314D01*
X148893Y165626D01*
X149582Y165166D01*
X150394Y165004D01*
X151206Y165166D01*
X151894Y165626D01*
X152354Y166314D01*
X152516Y167126D01*
X152354Y167938D01*
X151894Y168626D01*
X151206Y169086D01*
X150394Y169248D01*
D02*
G37*
G36*
X201809Y166174D02*
X201207Y165925D01*
X200647Y165495D01*
X200217Y164935D01*
X199968Y164333D01*
X201809D01*
Y166174D01*
D02*
G37*
G36*
X158268Y167870D02*
X157456Y167708D01*
X156767Y167248D01*
X156307Y166560D01*
X156146Y165748D01*
X156307Y164936D01*
X156767Y164248D01*
X157456Y163788D01*
X158268Y163626D01*
X159080Y163788D01*
X159768Y164248D01*
X160228Y164936D01*
X160390Y165748D01*
X160228Y166560D01*
X159768Y167248D01*
X159080Y167708D01*
X158268Y167870D01*
D02*
G37*
G36*
X218466Y164402D02*
Y162561D01*
X220308D01*
X220058Y163163D01*
X219629Y163723D01*
X219069Y164153D01*
X218466Y164402D01*
D02*
G37*
G36*
X216967D02*
X216364Y164153D01*
X215804Y163723D01*
X215375Y163163D01*
X215125Y162561D01*
X216967D01*
Y164402D01*
D02*
G37*
G36*
X201809Y162833D02*
X199968D01*
X200217Y162231D01*
X200647Y161670D01*
X201207Y161241D01*
X201809Y160991D01*
Y162833D01*
D02*
G37*
G36*
X46949Y165523D02*
X43762D01*
Y160789D01*
X52334D01*
X52246Y161459D01*
X51698Y162781D01*
X50827Y163917D01*
X49691Y164789D01*
X48368Y165336D01*
X46949Y165523D01*
D02*
G37*
G36*
X42262D02*
X39075D01*
X37655Y165336D01*
X36333Y164789D01*
X35197Y163917D01*
X34326Y162781D01*
X33778Y161459D01*
X33690Y160789D01*
X42262D01*
Y165523D01*
D02*
G37*
G36*
X220308Y161061D02*
X218466D01*
Y159220D01*
X219069Y159469D01*
X219629Y159899D01*
X220058Y160459D01*
X220308Y161061D01*
D02*
G37*
G36*
X216967D02*
X215125D01*
X215375Y160459D01*
X215804Y159899D01*
X216364Y159469D01*
X216967Y159220D01*
Y161061D01*
D02*
G37*
G36*
X147441Y163145D02*
X146629Y162984D01*
X145941Y162524D01*
X145481Y161836D01*
X145319Y161024D01*
X145481Y160212D01*
X145941Y159523D01*
X146629Y159063D01*
X147441Y158902D01*
X148253Y159063D01*
X148941Y159523D01*
X149401Y160212D01*
X149563Y161024D01*
X149401Y161836D01*
X148941Y162524D01*
X148253Y162984D01*
X147441Y163145D01*
D02*
G37*
G36*
X60986Y157906D02*
Y156065D01*
X62828D01*
X62578Y156667D01*
X62148Y157227D01*
X61588Y157657D01*
X60986Y157906D01*
D02*
G37*
G36*
X59486D02*
X58884Y157657D01*
X58324Y157227D01*
X57894Y156667D01*
X57645Y156065D01*
X59486D01*
Y157906D01*
D02*
G37*
G36*
X52334Y159289D02*
X43762D01*
Y154555D01*
X46949D01*
X48368Y154742D01*
X49691Y155290D01*
X50827Y156162D01*
X51698Y157297D01*
X52246Y158620D01*
X52334Y159289D01*
D02*
G37*
G36*
X42262D02*
X33690D01*
X33778Y158620D01*
X34326Y157297D01*
X35197Y156162D01*
X36333Y155290D01*
X37655Y154742D01*
X39075Y154555D01*
X42262D01*
Y159289D01*
D02*
G37*
G36*
X62828Y154565D02*
X60986D01*
Y152724D01*
X61588Y152973D01*
X62148Y153403D01*
X62578Y153963D01*
X62828Y154565D01*
D02*
G37*
G36*
X59486D02*
X57645D01*
X57894Y153963D01*
X58324Y153403D01*
X58884Y152973D01*
X59486Y152724D01*
Y154565D01*
D02*
G37*
G36*
X147638Y156846D02*
X146826Y156685D01*
X146137Y156225D01*
X145677Y155536D01*
X145516Y154724D01*
X145677Y153912D01*
X146137Y153224D01*
X146826Y152764D01*
X147638Y152603D01*
X148450Y152764D01*
X149138Y153224D01*
X149598Y153912D01*
X149760Y154724D01*
X149598Y155536D01*
X149138Y156225D01*
X148450Y156685D01*
X147638Y156846D01*
D02*
G37*
G36*
X217482Y154166D02*
Y152325D01*
X219324D01*
X219074Y152927D01*
X218644Y153487D01*
X218084Y153917D01*
X217482Y154166D01*
D02*
G37*
G36*
X215982D02*
X215380Y153917D01*
X214820Y153487D01*
X214390Y152927D01*
X214141Y152325D01*
X215982D01*
Y154166D01*
D02*
G37*
G36*
X219324Y150825D02*
X217482D01*
Y148983D01*
X218084Y149233D01*
X218644Y149663D01*
X219074Y150223D01*
X219324Y150825D01*
D02*
G37*
G36*
X215982D02*
X214141D01*
X214390Y150223D01*
X214820Y149663D01*
X215380Y149233D01*
X215982Y148983D01*
Y150825D01*
D02*
G37*
G36*
X187167Y198458D02*
Y195866D01*
X186417D01*
Y195116D01*
X183826D01*
X184075Y194514D01*
X184505Y193954D01*
X185065Y193524D01*
X185190Y193472D01*
X185288Y192982D01*
X166823Y174517D01*
X121047D01*
X120948Y175017D01*
X121431Y175217D01*
X121991Y175647D01*
X122421Y176207D01*
X122670Y176809D01*
X117487D01*
X117737Y176207D01*
X118167Y175647D01*
X118727Y175217D01*
X119210Y175017D01*
X119110Y174517D01*
X92393D01*
X92115Y174933D01*
X92158Y175037D01*
X86976D01*
X87225Y174435D01*
X87655Y173875D01*
X87666Y173706D01*
X62474Y148515D01*
X61983Y148417D01*
X61295Y147957D01*
X60835Y147269D01*
X60673Y146457D01*
X60835Y145645D01*
X61295Y144956D01*
X61983Y144496D01*
X62795Y144335D01*
X63607Y144496D01*
X64296Y144956D01*
X64756Y145645D01*
X64853Y146135D01*
X89870Y171152D01*
X167520D01*
X168164Y171280D01*
X168709Y171645D01*
X190067Y193003D01*
X240935D01*
X246950Y186987D01*
X246887Y186344D01*
X246673Y186201D01*
X246257Y185578D01*
X246110Y184843D01*
X246257Y184107D01*
X246673Y183484D01*
X247296Y183068D01*
X248031Y182921D01*
X248767Y183068D01*
X249390Y183484D01*
X249533Y183698D01*
X250176Y183761D01*
X259538Y174399D01*
Y148609D01*
X259249Y148176D01*
X259103Y147441D01*
X259249Y146706D01*
X259665Y146082D01*
X260288Y145666D01*
X261024Y145520D01*
X261759Y145666D01*
X262382Y146082D01*
X262799Y146706D01*
X262945Y147441D01*
X262903Y147652D01*
Y175096D01*
X262903Y175096D01*
X262775Y175740D01*
X262410Y176286D01*
X242821Y195875D01*
X242275Y196239D01*
X241632Y196367D01*
X189370D01*
X189370Y196367D01*
X189321Y196358D01*
X189029Y196566D01*
X188759Y197218D01*
X188330Y197778D01*
X187769Y198208D01*
X187167Y198458D01*
D02*
G37*
G36*
X184055Y145232D02*
X183243Y145071D01*
X182555Y144611D01*
X182095Y143922D01*
X181933Y143110D01*
X182095Y142298D01*
X182555Y141610D01*
X183243Y141150D01*
X184055Y140988D01*
X184867Y141150D01*
X185556Y141610D01*
X186015Y142298D01*
X186177Y143110D01*
X186015Y143922D01*
X185556Y144611D01*
X184867Y145071D01*
X184055Y145232D01*
D02*
G37*
G36*
X251734Y137434D02*
Y135592D01*
X253576D01*
X253326Y136195D01*
X252896Y136755D01*
X252336Y137185D01*
X251734Y137434D01*
D02*
G37*
G36*
X250234D02*
X249632Y137185D01*
X249072Y136755D01*
X248642Y136195D01*
X248393Y135592D01*
X250234D01*
Y137434D01*
D02*
G37*
G36*
X81890Y133815D02*
X81078Y133653D01*
X80702Y133402D01*
X80315Y133227D01*
X79928Y133402D01*
X79552Y133653D01*
X78740Y133815D01*
X77928Y133653D01*
X77240Y133193D01*
X76894D01*
X76206Y133653D01*
X75394Y133815D01*
X74582Y133653D01*
X73917Y133209D01*
X73253Y133653D01*
X72441Y133815D01*
X71629Y133653D01*
X70941Y133193D01*
X70481Y132505D01*
X70319Y131693D01*
X70481Y130881D01*
X70941Y130192D01*
X71629Y129733D01*
X72441Y129571D01*
X73253Y129733D01*
X73917Y130176D01*
X74582Y129733D01*
X75394Y129571D01*
X76206Y129733D01*
X76894Y130192D01*
X77240D01*
X77928Y129733D01*
X78740Y129571D01*
X79552Y129733D01*
X79928Y129983D01*
X80315Y130159D01*
X80702Y129983D01*
X81078Y129733D01*
X81890Y129571D01*
X82702Y129733D01*
X83390Y130192D01*
X83850Y130881D01*
X84012Y131693D01*
X83850Y132505D01*
X83390Y133193D01*
X82702Y133653D01*
X81890Y133815D01*
D02*
G37*
G36*
X195669Y136370D02*
X194934Y136224D01*
X194490Y135927D01*
X181116D01*
X180550Y135815D01*
X180070Y135494D01*
X155110Y110533D01*
X134843D01*
X134277Y110421D01*
X133797Y110100D01*
X132465Y108769D01*
X131942Y108665D01*
X131319Y108248D01*
X130902Y107625D01*
X130756Y106890D01*
X130902Y106155D01*
X131319Y105531D01*
X131942Y105115D01*
X132677Y104969D01*
X133412Y105115D01*
X134036Y105531D01*
X134452Y106155D01*
X134556Y106678D01*
X135455Y107577D01*
X136722D01*
X136914Y107115D01*
X131868Y102069D01*
X122242D01*
X121798Y102366D01*
X121063Y102512D01*
X120328Y102366D01*
X119704Y101949D01*
X119288Y101326D01*
X119142Y100591D01*
X119288Y99855D01*
X119704Y99232D01*
X120328Y98816D01*
X121063Y98669D01*
X121798Y98816D01*
X122242Y99112D01*
X132480D01*
X133046Y99225D01*
X133526Y99545D01*
X139392Y105411D01*
X140153D01*
X140197Y104911D01*
X139887Y104601D01*
X133387Y98101D01*
X140227Y91261D01*
X147068Y98101D01*
X140580Y104590D01*
X140258Y104911D01*
X140302Y105411D01*
X156102D01*
X156668Y105524D01*
X157148Y105844D01*
X178171Y126868D01*
X191144D01*
X191588Y126572D01*
X192323Y126425D01*
X193058Y126572D01*
X193681Y126988D01*
X194098Y127611D01*
X194244Y128347D01*
X194098Y129082D01*
X193681Y129705D01*
X193058Y130121D01*
X192323Y130268D01*
X191588Y130121D01*
X191144Y129825D01*
X179236D01*
X179045Y130287D01*
X181728Y132970D01*
X194490D01*
X194934Y132674D01*
X195669Y132528D01*
X196405Y132674D01*
X197028Y133090D01*
X197444Y133714D01*
X197590Y134449D01*
X197444Y135184D01*
X197028Y135807D01*
X196405Y136224D01*
X195669Y136370D01*
D02*
G37*
G36*
X253576Y134092D02*
X251734D01*
Y132251D01*
X252336Y132501D01*
X252896Y132930D01*
X253326Y133490D01*
X253576Y134092D01*
D02*
G37*
G36*
X250234D02*
X248393D01*
X248642Y133490D01*
X249072Y132930D01*
X249632Y132501D01*
X250234Y132251D01*
Y134092D01*
D02*
G37*
G36*
X256656Y126607D02*
Y124766D01*
X258497D01*
X258247Y125368D01*
X257818Y125928D01*
X257258Y126358D01*
X256656Y126607D01*
D02*
G37*
G36*
X255155D02*
X254553Y126358D01*
X253993Y125928D01*
X253564Y125368D01*
X253314Y124766D01*
X255155D01*
Y126607D01*
D02*
G37*
G36*
X245041D02*
Y124766D01*
X246883D01*
X246633Y125368D01*
X246203Y125928D01*
X245643Y126358D01*
X245041Y126607D01*
D02*
G37*
G36*
X243541D02*
X242939Y126358D01*
X242379Y125928D01*
X241949Y125368D01*
X241700Y124766D01*
X243541D01*
Y126607D01*
D02*
G37*
G36*
X160396Y125032D02*
Y123191D01*
X162237D01*
X161988Y123793D01*
X161558Y124353D01*
X160998Y124783D01*
X160396Y125032D01*
D02*
G37*
G36*
X158896D02*
X158294Y124783D01*
X157734Y124353D01*
X157304Y123793D01*
X157054Y123191D01*
X158896D01*
Y125032D01*
D02*
G37*
G36*
X183230Y124835D02*
Y122994D01*
X185072D01*
X184822Y123596D01*
X184392Y124156D01*
X183832Y124586D01*
X183230Y124835D01*
D02*
G37*
G36*
X181730D02*
X181128Y124586D01*
X180568Y124156D01*
X180138Y123596D01*
X179889Y122994D01*
X181730D01*
Y124835D01*
D02*
G37*
G36*
X258497Y123266D02*
X256656D01*
Y121424D01*
X257258Y121674D01*
X257818Y122104D01*
X258247Y122664D01*
X258497Y123266D01*
D02*
G37*
G36*
X255155D02*
X253314D01*
X253564Y122664D01*
X253993Y122104D01*
X254553Y121674D01*
X255155Y121424D01*
Y123266D01*
D02*
G37*
G36*
X246883D02*
X245041D01*
Y121424D01*
X245643Y121674D01*
X246203Y122104D01*
X246633Y122664D01*
X246883Y123266D01*
D02*
G37*
G36*
X243541D02*
X241700D01*
X241949Y122664D01*
X242379Y122104D01*
X242939Y121674D01*
X243541Y121424D01*
Y123266D01*
D02*
G37*
G36*
X233265Y124767D02*
X232453Y124606D01*
X231765Y124146D01*
X231305Y123457D01*
X231144Y122645D01*
X231305Y121833D01*
X231765Y121145D01*
X232453Y120685D01*
X233265Y120523D01*
X234078Y120685D01*
X234766Y121145D01*
X235226Y121833D01*
X235387Y122645D01*
X235226Y123457D01*
X234766Y124146D01*
X234078Y124606D01*
X233265Y124767D01*
D02*
G37*
G36*
X162237Y121691D02*
X160396D01*
Y119850D01*
X160998Y120099D01*
X161558Y120529D01*
X161988Y121089D01*
X162237Y121691D01*
D02*
G37*
G36*
X158896D02*
X157054D01*
X157304Y121089D01*
X157734Y120529D01*
X158294Y120099D01*
X158896Y119850D01*
Y121691D01*
D02*
G37*
G36*
X185072Y121494D02*
X183230D01*
Y119653D01*
X183832Y119902D01*
X184392Y120332D01*
X184822Y120892D01*
X185072Y121494D01*
D02*
G37*
G36*
X181730D02*
X179889D01*
X180138Y120892D01*
X180568Y120332D01*
X181128Y119902D01*
X181730Y119653D01*
Y121494D01*
D02*
G37*
G36*
X170238Y113221D02*
Y111380D01*
X172080D01*
X171830Y111982D01*
X171400Y112542D01*
X170840Y112972D01*
X170238Y113221D01*
D02*
G37*
G36*
X168738D02*
X168136Y112972D01*
X167576Y112542D01*
X167146Y111982D01*
X166897Y111380D01*
X168738D01*
Y113221D01*
D02*
G37*
G36*
X172080Y109880D02*
X170238D01*
Y108039D01*
X170840Y108288D01*
X171400Y108718D01*
X171830Y109278D01*
X172080Y109880D01*
D02*
G37*
G36*
X168738D02*
X166897D01*
X167146Y109278D01*
X167576Y108718D01*
X168136Y108288D01*
X168738Y108039D01*
Y109880D01*
D02*
G37*
G36*
X198999Y99623D02*
X198187Y99462D01*
X197498Y99002D01*
X197038Y98313D01*
X196877Y97501D01*
X197038Y96689D01*
X197498Y96001D01*
X198187Y95541D01*
X198999Y95379D01*
X199811Y95541D01*
X200499Y96001D01*
X200959Y96689D01*
X201121Y97501D01*
X200959Y98313D01*
X200499Y99002D01*
X199811Y99462D01*
X198999Y99623D01*
D02*
G37*
G36*
X268307Y94838D02*
X267495Y94677D01*
X266807Y94217D01*
X266347Y93528D01*
X266185Y92716D01*
X266347Y91904D01*
X266807Y91216D01*
X267495Y90756D01*
X268307Y90595D01*
X269119Y90756D01*
X269808Y91216D01*
X270267Y91904D01*
X270429Y92716D01*
X270267Y93528D01*
X269808Y94217D01*
X269119Y94677D01*
X268307Y94838D01*
D02*
G37*
G36*
X126308Y89666D02*
X124889Y89479D01*
X123566Y88931D01*
X123030Y88520D01*
X126308Y85243D01*
X129586Y88520D01*
X129050Y88931D01*
X127727Y89479D01*
X126308Y89666D01*
D02*
G37*
G36*
X121970Y87460D02*
X121559Y86924D01*
X121011Y85601D01*
X120824Y84182D01*
X121011Y82763D01*
X121559Y81440D01*
X121970Y80905D01*
X125247Y84182D01*
X121970Y87460D01*
D02*
G37*
G36*
X130646Y87460D02*
X127369Y84182D01*
X130646Y80904D01*
X131057Y81440D01*
X131605Y82763D01*
X131792Y84182D01*
X131605Y85601D01*
X131057Y86924D01*
X130646Y87460D01*
D02*
G37*
G36*
X126308Y83121D02*
X123030Y79844D01*
X123566Y79433D01*
X124889Y78885D01*
X126308Y78698D01*
X127727Y78885D01*
X129050Y79433D01*
X129586Y79844D01*
X126308Y83121D01*
D02*
G37*
G36*
X263939Y75229D02*
Y73388D01*
X265780D01*
X265531Y73990D01*
X265101Y74550D01*
X264541Y74980D01*
X263939Y75229D01*
D02*
G37*
G36*
X262439D02*
X261837Y74980D01*
X261277Y74550D01*
X260847Y73990D01*
X260598Y73388D01*
X262439D01*
Y75229D01*
D02*
G37*
G36*
X265780Y71888D02*
X263939D01*
Y70047D01*
X264541Y70296D01*
X265101Y70726D01*
X265531Y71286D01*
X265780Y71888D01*
D02*
G37*
G36*
X262439D02*
X260598D01*
X260847Y71286D01*
X261277Y70726D01*
X261837Y70296D01*
X262439Y70047D01*
Y71888D01*
D02*
G37*
G36*
X130278Y71489D02*
Y69648D01*
X132119D01*
X131869Y70250D01*
X131440Y70810D01*
X130880Y71240D01*
X130278Y71489D01*
D02*
G37*
G36*
X253506Y68930D02*
Y67089D01*
X255347D01*
X255098Y67691D01*
X254668Y68251D01*
X254108Y68681D01*
X253506Y68930D01*
D02*
G37*
G36*
X252006D02*
X251404Y68681D01*
X250844Y68251D01*
X250414Y67691D01*
X250165Y67089D01*
X252006D01*
Y68930D01*
D02*
G37*
G36*
X239136Y67749D02*
Y65908D01*
X240977D01*
X240728Y66510D01*
X240298Y67070D01*
X239738Y67499D01*
X239136Y67749D01*
D02*
G37*
G36*
X237636D02*
X237034Y67499D01*
X236474Y67070D01*
X236044Y66510D01*
X235794Y65908D01*
X237636D01*
Y67749D01*
D02*
G37*
G36*
X255347Y65589D02*
X253506D01*
Y63747D01*
X254108Y63997D01*
X254668Y64426D01*
X255098Y64986D01*
X255347Y65589D01*
D02*
G37*
G36*
X252006D02*
X250165D01*
X250414Y64986D01*
X250844Y64426D01*
X251404Y63997D01*
X252006Y63747D01*
Y65589D01*
D02*
G37*
G36*
X240977Y64407D02*
X239136D01*
Y62566D01*
X239738Y62815D01*
X240298Y63245D01*
X240728Y63805D01*
X240977Y64407D01*
D02*
G37*
G36*
X237636D02*
X235794D01*
X236044Y63805D01*
X236474Y63245D01*
X237034Y62815D01*
X237636Y62566D01*
Y64407D01*
D02*
G37*
G36*
X263939Y63024D02*
Y61183D01*
X265780D01*
X265531Y61785D01*
X265101Y62345D01*
X264541Y62775D01*
X263939Y63024D01*
D02*
G37*
G36*
X262439D02*
X261837Y62775D01*
X261277Y62345D01*
X260847Y61785D01*
X260598Y61183D01*
X262439D01*
Y63024D01*
D02*
G37*
G36*
X267717Y161173D02*
X266981Y161027D01*
X266358Y160610D01*
X265942Y159987D01*
X265795Y159252D01*
X265942Y158517D01*
X266342Y157918D01*
X265942Y157319D01*
X265795Y156583D01*
X265942Y155848D01*
X266358Y155225D01*
X266981Y154808D01*
X267717Y154662D01*
X268452Y154808D01*
X268756Y155012D01*
X269630D01*
Y151120D01*
X269276D01*
X269149Y151095D01*
X268567Y151018D01*
X267905Y150744D01*
X267337Y150308D01*
X266901Y149740D01*
X266627Y149078D01*
X266533Y148368D01*
X266627Y147658D01*
X266901Y146997D01*
X267337Y146429D01*
X267905Y145993D01*
X268567Y145719D01*
X269149Y145642D01*
X269276Y145616D01*
X269630D01*
Y145079D01*
Y111554D01*
X217913Y59837D01*
X210542D01*
X210381Y59945D01*
X209646Y60091D01*
X208910Y59945D01*
X208287Y59529D01*
X207871Y58906D01*
X207724Y58170D01*
X207871Y57435D01*
X208271Y56836D01*
X207871Y56237D01*
X207724Y55502D01*
X207871Y54767D01*
X208287Y54143D01*
X208910Y53727D01*
X209646Y53581D01*
X210381Y53727D01*
X210542Y53835D01*
X219427D01*
X220065Y53962D01*
X220606Y54323D01*
X274945Y108662D01*
X275306Y109203D01*
X275433Y109841D01*
Y156841D01*
X275306Y157479D01*
X274945Y158020D01*
X272534Y160431D01*
X271993Y160792D01*
X271355Y160919D01*
X268613D01*
X268452Y161027D01*
X267717Y161173D01*
D02*
G37*
G36*
X119844Y61450D02*
Y59608D01*
X121686D01*
X121436Y60210D01*
X121007Y60770D01*
X120447Y61200D01*
X119844Y61450D01*
D02*
G37*
G36*
X118344D02*
X117742Y61200D01*
X117182Y60770D01*
X116753Y60210D01*
X116503Y59608D01*
X118344D01*
Y61450D01*
D02*
G37*
G36*
X265780Y59683D02*
X263939D01*
Y57842D01*
X264541Y58091D01*
X265101Y58521D01*
X265531Y59081D01*
X265780Y59683D01*
D02*
G37*
G36*
X262439D02*
X260598D01*
X260847Y59081D01*
X261277Y58521D01*
X261837Y58091D01*
X262439Y57842D01*
Y59683D01*
D02*
G37*
G36*
X121686Y58108D02*
X119844D01*
Y56267D01*
X120447Y56516D01*
X121007Y56946D01*
X121436Y57506D01*
X121686Y58108D01*
D02*
G37*
G36*
X118344D02*
X116503D01*
X116753Y57506D01*
X117182Y56946D01*
X117742Y56516D01*
X118344Y56267D01*
Y58108D01*
D02*
G37*
G36*
X232443Y56528D02*
Y54687D01*
X234284D01*
X234035Y55289D01*
X233605Y55849D01*
X233045Y56279D01*
X232443Y56528D01*
D02*
G37*
G36*
X230943D02*
X230341Y56279D01*
X229781Y55849D01*
X229351Y55289D01*
X229102Y54687D01*
X230943D01*
Y56528D01*
D02*
G37*
G36*
X234284Y53187D02*
X232443D01*
Y51346D01*
X233045Y51595D01*
X233605Y52025D01*
X234035Y52585D01*
X234284Y53187D01*
D02*
G37*
G36*
X230943D02*
X229102D01*
X229351Y52585D01*
X229781Y52025D01*
X230341Y51595D01*
X230943Y51346D01*
Y53187D01*
D02*
G37*
G36*
X257677Y52712D02*
X256865Y52551D01*
X256177Y52091D01*
X255717Y51402D01*
X255555Y50591D01*
X255717Y49779D01*
X256177Y49090D01*
X256865Y48630D01*
X257677Y48469D01*
X258489Y48630D01*
X259178Y49090D01*
X259637Y49779D01*
X259799Y50591D01*
X259637Y51402D01*
X259178Y52091D01*
X258489Y52551D01*
X257677Y52712D01*
D02*
G37*
G36*
X250394D02*
X249582Y52551D01*
X248893Y52091D01*
X248433Y51402D01*
X248272Y50591D01*
X248433Y49779D01*
X248893Y49090D01*
X249582Y48630D01*
X250394Y48469D01*
X251206Y48630D01*
X251894Y49090D01*
X252354Y49779D01*
X252516Y50591D01*
X252354Y51402D01*
X251894Y52091D01*
X251206Y52551D01*
X250394Y52712D01*
D02*
G37*
G36*
X243110D02*
X242298Y52551D01*
X241610Y52091D01*
X241150Y51402D01*
X240988Y50591D01*
X241150Y49779D01*
X241610Y49090D01*
X242298Y48630D01*
X243110Y48469D01*
X243922Y48630D01*
X244611Y49090D01*
X245071Y49779D01*
X245232Y50591D01*
X245071Y51402D01*
X244611Y52091D01*
X243922Y52551D01*
X243110Y52712D01*
D02*
G37*
G36*
X220435Y47559D02*
Y46026D01*
X221968D01*
X221932Y46207D01*
X221405Y46996D01*
X220616Y47523D01*
X220435Y47559D01*
D02*
G37*
G36*
X218935D02*
X218754Y47523D01*
X217965Y46996D01*
X217438Y46207D01*
X217402Y46026D01*
X218935D01*
Y47559D01*
D02*
G37*
G36*
X180868Y52137D02*
Y43565D01*
X185602D01*
Y46752D01*
X185415Y48171D01*
X184867Y49494D01*
X183996Y50630D01*
X182860Y51501D01*
X181537Y52049D01*
X180868Y52137D01*
D02*
G37*
G36*
X179368D02*
X178699Y52049D01*
X177376Y51501D01*
X176240Y50630D01*
X175369Y49494D01*
X174821Y48171D01*
X174634Y46752D01*
Y43565D01*
X179368D01*
Y52137D01*
D02*
G37*
G36*
X221968Y44526D02*
X220435D01*
Y42992D01*
X220616Y43028D01*
X221405Y43556D01*
X221932Y44345D01*
X221968Y44526D01*
D02*
G37*
G36*
X218935D02*
X217402D01*
X217438Y44345D01*
X217965Y43556D01*
X218754Y43028D01*
X218935Y42992D01*
Y44526D01*
D02*
G37*
G36*
X267402Y49658D02*
X267050Y49588D01*
X266753Y49389D01*
X262511Y45148D01*
X262313Y44850D01*
X262243Y44499D01*
Y43046D01*
X262313Y42695D01*
X262511Y42397D01*
X263643Y41266D01*
X263610Y40767D01*
X263584Y40747D01*
X262965Y39940D01*
X262576Y39000D01*
X262542Y38742D01*
X267323D01*
X272104D01*
X272070Y39000D01*
X271681Y39940D01*
X271062Y40747D01*
X271035Y40767D01*
X271003Y41266D01*
X272134Y42397D01*
X272333Y42695D01*
X272403Y43046D01*
Y44656D01*
X272333Y45008D01*
X272134Y45305D01*
X268050Y49389D01*
X268050Y49389D01*
X267753Y49588D01*
X267402Y49658D01*
D02*
G37*
G36*
X203974Y38030D02*
X202133D01*
X202382Y37427D01*
X202812Y36867D01*
X203372Y36438D01*
X203974Y36188D01*
Y38030D01*
D02*
G37*
G36*
X179368Y42065D02*
X174634D01*
Y38878D01*
X174821Y37459D01*
X175369Y36136D01*
X176240Y35000D01*
X177376Y34129D01*
X178699Y33581D01*
X179368Y33493D01*
Y42065D01*
D02*
G37*
G36*
X185602D02*
X180868D01*
Y33493D01*
X181537Y33581D01*
X182860Y34129D01*
X183996Y35000D01*
X184867Y36136D01*
X185415Y37459D01*
X185602Y38878D01*
Y42065D01*
D02*
G37*
G36*
X165157Y35701D02*
X161970D01*
Y30967D01*
X170543D01*
X170455Y31636D01*
X169907Y32958D01*
X169035Y34094D01*
X167899Y34966D01*
X166577Y35514D01*
X165157Y35701D01*
D02*
G37*
G36*
X160470D02*
X157283D01*
X155864Y35514D01*
X154542Y34966D01*
X153406Y34094D01*
X152534Y32958D01*
X151986Y31636D01*
X151898Y30967D01*
X160470D01*
Y35701D01*
D02*
G37*
G36*
X120041Y27788D02*
Y25947D01*
X121883D01*
X121633Y26549D01*
X121203Y27109D01*
X120643Y27539D01*
X120041Y27788D01*
D02*
G37*
G36*
X118541D02*
X117939Y27539D01*
X117379Y27109D01*
X116949Y26549D01*
X116700Y25947D01*
X118541D01*
Y27788D01*
D02*
G37*
G36*
X170543Y29467D02*
X161970D01*
Y24733D01*
X165157D01*
X166577Y24919D01*
X167899Y25467D01*
X169035Y26339D01*
X169907Y27475D01*
X170455Y28797D01*
X170543Y29467D01*
D02*
G37*
G36*
X160470D02*
X151898D01*
X151986Y28797D01*
X152534Y27475D01*
X153406Y26339D01*
X154542Y25467D01*
X155864Y24919D01*
X157283Y24733D01*
X160470D01*
Y29467D01*
D02*
G37*
G36*
X121883Y24447D02*
X120041D01*
Y22605D01*
X120643Y22855D01*
X121203Y23285D01*
X121633Y23845D01*
X121883Y24447D01*
D02*
G37*
G36*
X118541D02*
X116700D01*
X116949Y23845D01*
X117379Y23285D01*
X117939Y22855D01*
X118541Y22605D01*
Y24447D01*
D02*
G37*
G36*
X65908Y21292D02*
Y19451D01*
X67749D01*
X67499Y20053D01*
X67070Y20613D01*
X66510Y21043D01*
X65908Y21292D01*
D02*
G37*
G36*
X64407D02*
X63805Y21043D01*
X63245Y20613D01*
X62815Y20053D01*
X62566Y19451D01*
X64407D01*
Y21292D01*
D02*
G37*
G36*
X26017Y19132D02*
X24175D01*
Y17290D01*
X24777Y17540D01*
X25337Y17970D01*
X25767Y18530D01*
X26017Y19132D01*
D02*
G37*
G36*
X67749Y17951D02*
X65908D01*
Y16109D01*
X66510Y16359D01*
X67070Y16789D01*
X67499Y17349D01*
X67749Y17951D01*
D02*
G37*
G36*
X64407D02*
X62566D01*
X62815Y17349D01*
X63245Y16789D01*
X63805Y16359D01*
X64407Y16109D01*
Y17951D01*
D02*
G37*
G36*
X24569Y15584D02*
Y13742D01*
X26410D01*
X26161Y14344D01*
X25731Y14904D01*
X25171Y15334D01*
X24569Y15584D01*
D02*
G37*
G36*
X23069D02*
X22467Y15334D01*
X21907Y14904D01*
X21477Y14344D01*
X21227Y13742D01*
X23069D01*
Y15584D01*
D02*
G37*
G36*
X123191Y13418D02*
Y11577D01*
X125032D01*
X124783Y12179D01*
X124353Y12739D01*
X123793Y13169D01*
X123191Y13418D01*
D02*
G37*
G36*
X121691D02*
X121089Y13169D01*
X120529Y12739D01*
X120099Y12179D01*
X119850Y11577D01*
X121691D01*
Y13418D01*
D02*
G37*
G36*
X26410Y12242D02*
X24569D01*
Y10401D01*
X25171Y10650D01*
X25731Y11080D01*
X26161Y11640D01*
X26410Y12242D01*
D02*
G37*
G36*
X23069D02*
X21227D01*
X21477Y11640D01*
X21907Y11080D01*
X22467Y10650D01*
X23069Y10401D01*
Y12242D01*
D02*
G37*
G36*
X250947Y12040D02*
Y10199D01*
X252788D01*
X252539Y10801D01*
X252109Y11361D01*
X251549Y11791D01*
X250947Y12040D01*
D02*
G37*
G36*
X249447D02*
X248845Y11791D01*
X248285Y11361D01*
X247855Y10801D01*
X247605Y10199D01*
X249447D01*
Y12040D01*
D02*
G37*
G36*
X125032Y10077D02*
X123191D01*
Y8235D01*
X123793Y8485D01*
X124353Y8915D01*
X124783Y9475D01*
X125032Y10077D01*
D02*
G37*
G36*
X121691D02*
X119850D01*
X120099Y9475D01*
X120529Y8915D01*
X121089Y8485D01*
X121691Y8235D01*
Y10077D01*
D02*
G37*
G36*
X182640Y9678D02*
Y7837D01*
X184481D01*
X184232Y8439D01*
X183802Y8999D01*
X183242Y9428D01*
X182640Y9678D01*
D02*
G37*
G36*
X181140D02*
X180538Y9428D01*
X179978Y8999D01*
X179548Y8439D01*
X179298Y7837D01*
X181140D01*
Y9678D01*
D02*
G37*
G36*
X142285Y9284D02*
Y7443D01*
X144127D01*
X143877Y8045D01*
X143448Y8605D01*
X142888Y9035D01*
X142285Y9284D01*
D02*
G37*
G36*
X140785D02*
X140183Y9035D01*
X139623Y8605D01*
X139193Y8045D01*
X138944Y7443D01*
X140785D01*
Y9284D01*
D02*
G37*
G36*
X161221Y17577D02*
X159906Y17404D01*
X158682Y16897D01*
X157630Y16090D01*
X156823Y15039D01*
X156316Y13814D01*
X156143Y12500D01*
X156316Y11186D01*
X156823Y9961D01*
X157630Y8910D01*
X158682Y8103D01*
X159906Y7596D01*
X161221Y7423D01*
X162535Y7596D01*
X163759Y8103D01*
X164811Y8910D01*
X165618Y9961D01*
X166125Y11186D01*
X166298Y12500D01*
X166125Y13814D01*
X165618Y15039D01*
X164811Y16090D01*
X163759Y16897D01*
X162535Y17404D01*
X161221Y17577D01*
D02*
G37*
G36*
X252788Y8699D02*
X250947D01*
Y6858D01*
X251549Y7107D01*
X252109Y7537D01*
X252539Y8097D01*
X252788Y8699D01*
D02*
G37*
G36*
X249447D02*
X247605D01*
X247855Y8097D01*
X248285Y7537D01*
X248845Y7107D01*
X249447Y6858D01*
Y8699D01*
D02*
G37*
G36*
X24606Y8624D02*
Y6783D01*
X26448D01*
X26198Y7385D01*
X25769Y7945D01*
X25208Y8375D01*
X24606Y8624D01*
D02*
G37*
G36*
X23106D02*
X22504Y8375D01*
X21944Y7945D01*
X21514Y7385D01*
X21265Y6783D01*
X23106D01*
Y8624D01*
D02*
G37*
G36*
X52756Y132646D02*
X52015Y132498D01*
X51386Y132079D01*
X50966Y131450D01*
X50819Y130709D01*
X50966Y129967D01*
X51386Y129339D01*
X67922Y112803D01*
X68550Y112383D01*
X69291Y112236D01*
X101427D01*
X102232Y111431D01*
Y109055D01*
X102302Y108704D01*
X102501Y108406D01*
X104076Y106831D01*
X104373Y106632D01*
X104724Y106563D01*
X109856D01*
X110744Y105675D01*
Y76772D01*
X110861Y75884D01*
X111203Y75057D01*
X111748Y74347D01*
X133500Y52595D01*
X134211Y52050D01*
X135038Y51707D01*
X135925Y51590D01*
X146128D01*
X149154Y48564D01*
X149452Y48365D01*
X149803Y48295D01*
X161417D01*
X161768Y48365D01*
X162066Y48564D01*
X166397Y52894D01*
X166397Y52895D01*
X171547Y58044D01*
X191021D01*
X194855Y54210D01*
Y14764D01*
X195022Y13925D01*
X195497Y13214D01*
X201796Y6915D01*
X202508Y6439D01*
X203346Y6272D01*
X232677D01*
X233516Y6439D01*
X234227Y6915D01*
X242889Y15576D01*
X243364Y16287D01*
X243531Y17126D01*
X243364Y17965D01*
X242889Y18676D01*
X242178Y19151D01*
X241339Y19318D01*
X240500Y19151D01*
X239789Y18676D01*
X231769Y10657D01*
X204255D01*
X199239Y15672D01*
Y55118D01*
X199073Y55957D01*
X198597Y56668D01*
X193479Y61786D01*
X192768Y62261D01*
X191929Y62428D01*
X159252D01*
X158782Y62335D01*
X150394D01*
X150042Y62265D01*
X149745Y62066D01*
X146128Y58449D01*
X137346D01*
X129992Y65802D01*
X130153Y66276D01*
X130227Y66286D01*
X130880Y66556D01*
X131440Y66985D01*
X131869Y67545D01*
X132119Y68148D01*
X129528D01*
Y68898D01*
X128778D01*
Y71489D01*
X128175Y71240D01*
X127615Y70810D01*
X127186Y70250D01*
X126916Y69598D01*
X126906Y69523D01*
X126432Y69362D01*
X117603Y78192D01*
Y105675D01*
X118490Y106563D01*
X122047D01*
X122398Y106632D01*
X122696Y106831D01*
X124271Y108406D01*
X124470Y108704D01*
X124540Y109055D01*
Y119291D01*
X124470Y119642D01*
X124271Y119940D01*
X121909Y122302D01*
X121611Y122501D01*
X121260Y122571D01*
X104724D01*
X104373Y122501D01*
X104076Y122302D01*
X102501Y120728D01*
X102302Y120430D01*
X102232Y120079D01*
Y116916D01*
X101427Y116110D01*
X70094D01*
X54126Y132079D01*
X53497Y132498D01*
X52756Y132646D01*
D02*
G37*
G36*
X102953Y9978D02*
X102255Y9886D01*
X101605Y9617D01*
X101047Y9189D01*
X100619Y8631D01*
X100350Y7981D01*
X100258Y7283D01*
X100350Y6586D01*
X100619Y5936D01*
X101047Y5378D01*
X101605Y4950D01*
X102255Y4681D01*
X102953Y4589D01*
X103650Y4681D01*
X104300Y4950D01*
X104858Y5378D01*
X105286Y5936D01*
X105556Y6586D01*
X105648Y7283D01*
X105556Y7981D01*
X105286Y8631D01*
X104858Y9189D01*
X104300Y9617D01*
X103650Y9886D01*
X102953Y9978D01*
D02*
G37*
G36*
X91142D02*
X90444Y9886D01*
X89794Y9617D01*
X89236Y9189D01*
X88808Y8631D01*
X88539Y7981D01*
X88447Y7283D01*
X88539Y6586D01*
X88808Y5936D01*
X89236Y5378D01*
X89794Y4950D01*
X90444Y4681D01*
X91142Y4589D01*
X91839Y4681D01*
X92489Y4950D01*
X93047Y5378D01*
X93475Y5936D01*
X93745Y6586D01*
X93836Y7283D01*
X93745Y7981D01*
X93475Y8631D01*
X93047Y9189D01*
X92489Y9617D01*
X91839Y9886D01*
X91142Y9978D01*
D02*
G37*
G36*
X184481Y6337D02*
X182640D01*
Y4495D01*
X183242Y4745D01*
X183802Y5174D01*
X184232Y5734D01*
X184481Y6337D01*
D02*
G37*
G36*
X181140D02*
X179298D01*
X179548Y5734D01*
X179978Y5174D01*
X180538Y4745D01*
X181140Y4495D01*
Y6337D01*
D02*
G37*
G36*
X144127Y5943D02*
X142285D01*
Y4102D01*
X142888Y4351D01*
X143448Y4781D01*
X143877Y5341D01*
X144127Y5943D01*
D02*
G37*
G36*
X140785D02*
X138944D01*
X139193Y5341D01*
X139623Y4781D01*
X140183Y4351D01*
X140785Y4102D01*
Y5943D01*
D02*
G37*
G36*
X26448Y5283D02*
X24606D01*
Y3441D01*
X25208Y3691D01*
X25769Y4121D01*
X26198Y4681D01*
X26448Y5283D01*
D02*
G37*
G36*
X49606Y7240D02*
X48794Y7079D01*
X48106Y6618D01*
X47646Y5930D01*
X47484Y5118D01*
X47646Y4306D01*
X48106Y3618D01*
X48794Y3158D01*
X49606Y2996D01*
X50418Y3158D01*
X51107Y3618D01*
X51567Y4306D01*
X51728Y5118D01*
X51567Y5930D01*
X51107Y6618D01*
X50418Y7079D01*
X49606Y7240D01*
D02*
G37*
%LPD*%
G36*
X271412Y15188D02*
Y13735D01*
X267171Y9494D01*
Y9494D01*
X263087Y13577D01*
Y15188D01*
X264637Y16738D01*
X269862D01*
X271412Y15188D01*
D02*
G37*
G36*
X267402Y48740D02*
X271485Y44656D01*
Y43046D01*
X269935Y41496D01*
X264710D01*
X263160Y43046D01*
Y44499D01*
X267402Y48740D01*
Y48740D01*
D02*
G37*
G36*
X123622Y119291D02*
Y109055D01*
X122047Y107480D01*
X118110D01*
X116535Y105905D01*
X111811D01*
X110236Y107480D01*
X104724D01*
X103150Y109055D01*
Y111811D01*
X100787Y114173D01*
X103150Y116535D01*
Y120079D01*
X104724Y121653D01*
X121260D01*
X123622Y119291D01*
D02*
G37*
G36*
X165748Y53543D02*
X161417Y49213D01*
X149803D01*
X146560Y52456D01*
Y57584D01*
X150394Y61417D01*
X173622D01*
X165748Y53543D01*
D02*
G37*
%LPC*%
G36*
X314623Y116370D02*
Y113720D01*
X317273D01*
X317252Y113875D01*
X316903Y114719D01*
X316347Y115444D01*
X315622Y116000D01*
X314779Y116349D01*
X314623Y116370D01*
D02*
G37*
G36*
X327946Y115930D02*
X327198Y115832D01*
X326500Y115543D01*
X325901Y115083D01*
X325441Y114483D01*
X325152Y113786D01*
X325053Y113037D01*
X325152Y112288D01*
X325441Y111590D01*
X325901Y110991D01*
X326264Y110712D01*
Y106726D01*
X326392Y106082D01*
X326757Y105537D01*
X330798Y101496D01*
Y100744D01*
X330298Y100575D01*
X330092Y100843D01*
X329493Y101302D01*
X328795Y101592D01*
X328046Y101690D01*
X327298Y101592D01*
X326600Y101302D01*
X326001Y100843D01*
X325541Y100243D01*
X325252Y99546D01*
X325153Y98797D01*
X325213Y98343D01*
X316724Y89853D01*
X316359Y89307D01*
X316231Y88664D01*
Y62992D01*
X316359Y62348D01*
X316724Y61803D01*
X319637Y58889D01*
X320183Y58525D01*
X320827Y58396D01*
X322054D01*
X322061Y58389D01*
X322139Y58179D01*
X321807Y57721D01*
X321807D01*
Y55829D01*
X325630D01*
Y54329D01*
X321807D01*
Y52437D01*
X323709D01*
X323840Y51778D01*
X324260Y51150D01*
X328945Y46465D01*
X329574Y46045D01*
X330315Y45897D01*
X335185D01*
X335926Y46045D01*
X336554Y46465D01*
X338435Y48345D01*
X338724Y48538D01*
X339211Y49026D01*
Y52165D01*
X340711D01*
Y49115D01*
X344722D01*
Y52165D01*
Y55215D01*
X343404D01*
Y56927D01*
X340354D01*
Y58427D01*
X343404D01*
Y61077D01*
X343263D01*
X342804Y61177D01*
Y67805D01*
X342904D01*
X343548Y67933D01*
X344094Y68298D01*
X345057Y69261D01*
X345557Y69092D01*
Y68391D01*
X353656D01*
Y73706D01*
Y79050D01*
X345557D01*
Y78549D01*
X345457Y78060D01*
X344813Y77932D01*
X344267Y77567D01*
X344170Y77470D01*
X342804D01*
Y78588D01*
X343260Y78695D01*
X344970D01*
Y84295D01*
X340070D01*
Y84295D01*
X339851D01*
Y84295D01*
X334952D01*
Y84295D01*
X334733D01*
Y84295D01*
X332483D01*
X332237Y84795D01*
X332390Y84995D01*
X334733D01*
Y84995D01*
X334952D01*
Y84995D01*
X339570D01*
X339852Y84995D01*
X340352Y84995D01*
X344970D01*
Y86113D01*
X345557D01*
Y85124D01*
X353656D01*
Y90467D01*
X345557D01*
Y89478D01*
X344970D01*
Y90595D01*
X340352D01*
X340070Y90595D01*
X339570Y90595D01*
X334952D01*
Y90595D01*
X334733D01*
Y90595D01*
X329834D01*
Y87375D01*
X329353Y86894D01*
X328853Y87081D01*
Y87120D01*
X325189D01*
X324998Y87582D01*
X333670Y96255D01*
X334035Y96801D01*
X334163Y97444D01*
Y102192D01*
X334163Y102192D01*
X334035Y102836D01*
X333670Y103382D01*
X329629Y107423D01*
Y110712D01*
X329992Y110991D01*
X330452Y111590D01*
X330741Y112288D01*
X330840Y113037D01*
X330741Y113786D01*
X330452Y114483D01*
X329992Y115083D01*
X329393Y115543D01*
X328695Y115832D01*
X327946Y115930D01*
D02*
G37*
G36*
X314391Y90946D02*
X311741D01*
Y88646D01*
X314391D01*
Y90946D01*
D02*
G37*
G36*
X289604Y69722D02*
X286954D01*
Y67422D01*
X289604D01*
Y69722D01*
D02*
G37*
G36*
X313123Y116370D02*
X312968Y116349D01*
X312124Y116000D01*
X311400Y115444D01*
X310988Y114907D01*
X302409D01*
X301668Y114760D01*
X301039Y114340D01*
X290559Y103860D01*
X290139Y103232D01*
X289992Y102490D01*
Y90605D01*
X288879D01*
Y87955D01*
X291929D01*
Y86455D01*
X288790D01*
X286377Y84043D01*
X285957Y83414D01*
X285810Y82673D01*
Y77848D01*
X285957Y77106D01*
X286377Y76478D01*
X286514Y76341D01*
X290354D01*
Y74841D01*
X286954D01*
Y72540D01*
Y71222D01*
X290354D01*
Y70472D01*
X291104D01*
Y67422D01*
X293754D01*
Y67564D01*
X293854Y68022D01*
X294254Y68022D01*
X297075D01*
X299359Y65738D01*
X299905Y65373D01*
X300549Y65245D01*
X300958D01*
X301462Y64741D01*
Y63037D01*
X307908D01*
Y67120D01*
X303841D01*
X303387Y67575D01*
X303578Y68037D01*
X307908D01*
Y72120D01*
X301462D01*
Y69100D01*
X300962Y68893D01*
X299454Y70402D01*
Y72641D01*
X299454Y73136D01*
X299828Y73444D01*
X300066Y73396D01*
X300066Y73396D01*
X301462D01*
Y73037D01*
X307908D01*
Y77121D01*
X301462D01*
Y76761D01*
X300763D01*
X300744Y76780D01*
X300198Y77145D01*
X299554Y77273D01*
X299467Y77773D01*
X299497Y78105D01*
X299497Y78857D01*
X299997Y79065D01*
X300173Y78889D01*
X300718Y78525D01*
X301362Y78396D01*
X301462Y78037D01*
X307908D01*
Y79325D01*
X308370Y79516D01*
X309422Y78464D01*
Y56890D01*
X309589Y56051D01*
X310064Y55340D01*
X316190Y49214D01*
X315998Y48752D01*
X298774D01*
X298503Y49252D01*
X298649Y49986D01*
Y52471D01*
X299257D01*
Y57171D01*
X299325D01*
Y58948D01*
X300114D01*
X300173Y58889D01*
X300173Y58889D01*
X300718Y58525D01*
X301362Y58396D01*
X301462Y58037D01*
X307908D01*
Y62120D01*
X301550D01*
X301455Y62184D01*
X300811Y62312D01*
X299325D01*
Y64089D01*
X294769D01*
Y57371D01*
X293657D01*
Y52471D01*
X294265D01*
Y50894D01*
X291165Y47794D01*
X291133Y47746D01*
X290690Y47302D01*
X290491Y47005D01*
X290421Y46654D01*
X290421Y42717D01*
X290491Y42365D01*
X290690Y42068D01*
X291377Y41380D01*
X291361Y40690D01*
X290887Y40216D01*
X290688Y39918D01*
X290618Y39567D01*
Y39216D01*
X290528Y39000D01*
X290494Y38742D01*
X291535D01*
Y39567D01*
X292323Y40354D01*
X298228D01*
X299410Y39173D01*
X322047D01*
X324902Y36319D01*
X318307Y29724D01*
X302953Y29724D01*
X300984Y31693D01*
Y33858D01*
X299409Y35433D01*
X292913Y35433D01*
X291535Y36811D01*
Y37242D01*
X290494D01*
X290528Y36984D01*
X290634Y36729D01*
X290688Y36460D01*
X290840Y36232D01*
X290918Y36044D01*
X291537Y35238D01*
X291965Y34909D01*
Y34686D01*
X291900Y34329D01*
X291442Y33732D01*
X291113Y32938D01*
X291001Y32087D01*
X291113Y31235D01*
X291442Y30441D01*
X291883Y29867D01*
X291953Y29685D01*
X291876Y29198D01*
X290887Y28208D01*
X290688Y27910D01*
X290618Y27559D01*
Y24803D01*
X290688Y24452D01*
X290887Y24154D01*
X291876Y23165D01*
X291953Y22677D01*
X291883Y22495D01*
X291442Y21921D01*
X291113Y21127D01*
X291001Y20276D01*
X291113Y19424D01*
X291442Y18630D01*
X291703Y18291D01*
X291637Y17667D01*
X290793Y16823D01*
X290594Y16525D01*
X290524Y16174D01*
Y12725D01*
X290594Y12374D01*
X290793Y12076D01*
X294394Y8475D01*
X294692Y8276D01*
X295043Y8206D01*
X295394Y8276D01*
X295692Y8475D01*
X295692Y8475D01*
X299758Y12541D01*
X299957Y12839D01*
X300027Y13190D01*
X300027Y16076D01*
X299957Y16428D01*
X299758Y16725D01*
X298906Y17578D01*
X298817Y17681D01*
X298826Y18262D01*
X299109Y18630D01*
X299438Y19424D01*
X299550Y20276D01*
X299438Y21127D01*
X299109Y21921D01*
X298668Y22495D01*
X298597Y22681D01*
X298660Y23176D01*
X300112Y24893D01*
X303628D01*
Y24297D01*
X310546D01*
X310739Y23877D01*
Y23185D01*
X315639D01*
Y23185D01*
X316054D01*
Y23185D01*
X320954D01*
Y28785D01*
X319372D01*
X319165Y29285D01*
X323115Y33235D01*
X325264Y31086D01*
X325073Y30624D01*
X322525D01*
Y22525D01*
X322593D01*
Y17629D01*
X323249D01*
X323290Y17542D01*
X322973Y17042D01*
X322525D01*
Y13902D01*
X321925D01*
Y11970D01*
X325590D01*
Y10470D01*
X321925D01*
Y9657D01*
X321906Y9621D01*
X321425Y9285D01*
X321054Y9359D01*
X320954D01*
Y10477D01*
X316164D01*
X316054Y10477D01*
X315984Y10525D01*
Y10706D01*
X316464Y11177D01*
X320954D01*
Y16777D01*
X320954D01*
Y16885D01*
X320954D01*
Y22485D01*
X316054D01*
Y22485D01*
X315639D01*
Y22485D01*
X310739D01*
Y21972D01*
X307837D01*
Y19094D01*
X307087D01*
Y18345D01*
X303028D01*
Y16217D01*
Y14136D01*
X308784D01*
Y16217D01*
X311108D01*
Y9927D01*
X315554D01*
X315664Y9927D01*
X316054Y9662D01*
Y4877D01*
X320954D01*
Y5555D01*
X321250Y5798D01*
X321251Y5798D01*
X322525D01*
Y5399D01*
X328656D01*
Y5798D01*
X330430D01*
X331073Y5926D01*
X331619Y6291D01*
X332299Y6971D01*
X332761Y6780D01*
Y5399D01*
X338692D01*
Y4877D01*
X343592D01*
Y7737D01*
X345771Y9917D01*
X346191Y10545D01*
X346339Y11287D01*
Y23512D01*
X346191Y24253D01*
X345771Y24882D01*
X342708Y27945D01*
X342080Y28365D01*
X341339Y28512D01*
X339286D01*
Y30624D01*
X338551D01*
Y32283D01*
X338404Y33025D01*
X337984Y33653D01*
X326567Y45071D01*
X326374Y45200D01*
X323659Y47914D01*
X323597Y48007D01*
X313806Y57798D01*
Y79372D01*
X313639Y80211D01*
X313164Y80922D01*
X308201Y85885D01*
Y88646D01*
X310241D01*
Y91696D01*
X310991D01*
Y92446D01*
X314391D01*
Y94746D01*
X314098D01*
Y96888D01*
X311221D01*
Y98388D01*
X314098D01*
Y101335D01*
X315243Y102480D01*
X315663Y103108D01*
X315810Y103850D01*
Y110085D01*
X316347Y110496D01*
X316903Y111221D01*
X317252Y112065D01*
X317273Y112220D01*
X313873D01*
Y112970D01*
X313123D01*
Y116370D01*
D02*
G37*
G36*
X291845Y64089D02*
X287289D01*
Y57171D01*
X287357D01*
Y52471D01*
X292957D01*
Y57371D01*
X291845D01*
Y64089D01*
D02*
G37*
G36*
X307908Y57121D02*
X301462D01*
Y53037D01*
X302317D01*
X302563Y52737D01*
X302725Y51925D01*
X303185Y51237D01*
X303873Y50777D01*
X304685Y50616D01*
X305497Y50777D01*
X306185Y51237D01*
X306645Y51925D01*
X306807Y52737D01*
X307053Y53037D01*
X307908D01*
Y57121D01*
D02*
G37*
G36*
X353656Y62317D02*
X345557D01*
Y56974D01*
X347924D01*
Y56874D01*
X348052Y56230D01*
X348396Y55715D01*
X348369Y55590D01*
X348179Y55215D01*
X346222D01*
Y52165D01*
Y49115D01*
X348872D01*
Y49257D01*
X348972Y49715D01*
X349372Y49715D01*
X354572D01*
Y54615D01*
X353454D01*
Y54715D01*
X353326Y55359D01*
X352962Y55905D01*
X352940Y55919D01*
X352347Y56512D01*
X352539Y56974D01*
X353656D01*
Y62317D01*
D02*
G37*
G36*
X306337Y21972D02*
X303028D01*
Y19845D01*
X306337D01*
Y21972D01*
D02*
G37*
G36*
X308784Y12636D02*
X303028D01*
Y9327D01*
X303713D01*
Y7847D01*
X303564Y7651D01*
X303314Y7049D01*
X308497D01*
X308247Y7651D01*
X308098Y7847D01*
Y9327D01*
X308784D01*
Y12636D01*
D02*
G37*
G36*
X308497Y5549D02*
X306656D01*
Y3708D01*
X307258Y3957D01*
X307818Y4387D01*
X308247Y4947D01*
X308497Y5549D01*
D02*
G37*
G36*
X305155D02*
X303314D01*
X303564Y4947D01*
X303993Y4387D01*
X304553Y3957D01*
X305155Y3708D01*
Y5549D01*
D02*
G37*
%LPD*%
G36*
X307283Y102756D02*
Y84842D01*
X306299Y83858D01*
X296850D01*
X295276Y85433D01*
Y103150D01*
X296457Y104331D01*
X305709D01*
X307283Y102756D01*
D02*
G37*
G36*
X328150Y42126D02*
X327362Y41339D01*
X292717Y41339D01*
X291339Y42717D01*
X291339Y46654D01*
X292520Y47835D01*
X322441D01*
X328150Y42126D01*
D02*
G37*
G36*
X300000Y26181D02*
X297835Y23622D01*
X292717D01*
X291535Y24803D01*
Y27559D01*
X292717Y28740D01*
X297835D01*
X300000Y26181D01*
D02*
G37*
D60*
X161221Y12500D02*
D03*
X12697Y178937D02*
D03*
D62*
X327946Y113037D02*
D03*
X328046Y98797D02*
D03*
X313873Y112970D02*
D03*
D66*
X339961Y52165D02*
D03*
X333661D02*
D03*
X345472D02*
D03*
X351772D02*
D03*
X325393Y20079D02*
D03*
X331693D02*
D03*
X290157Y54921D02*
D03*
X296457D02*
D03*
X296654Y70472D02*
D03*
X290354D02*
D03*
X296654Y75590D02*
D03*
X290354D02*
D03*
X310991Y91696D02*
D03*
X304691D02*
D03*
D68*
X313386Y13386D02*
D03*
X305906D02*
D03*
X297047Y60630D02*
D03*
X289567D02*
D03*
X311221Y97638D02*
D03*
X303740D02*
D03*
D69*
X307087Y43701D02*
D03*
Y36220D02*
D03*
X313779Y43701D02*
D03*
Y36220D02*
D03*
X320472Y43701D02*
D03*
Y36220D02*
D03*
X307087Y26575D02*
D03*
Y19094D02*
D03*
D75*
X334252Y63977D02*
D03*
Y57677D02*
D03*
X340354D02*
D03*
Y63977D02*
D03*
X334252Y75591D02*
D03*
Y69291D02*
D03*
X340354Y75788D02*
D03*
Y69488D02*
D03*
X337402Y81495D02*
D03*
Y87795D02*
D03*
X332283D02*
D03*
Y81495D02*
D03*
X342520D02*
D03*
Y87795D02*
D03*
X318504Y7677D02*
D03*
Y13977D02*
D03*
X313189Y19685D02*
D03*
Y25985D02*
D03*
X318504Y19685D02*
D03*
Y25985D02*
D03*
X341142Y7677D02*
D03*
Y13977D02*
D03*
X291929Y80905D02*
D03*
Y87205D02*
D03*
X297047D02*
D03*
Y80905D02*
D03*
D99*
X205709Y43307D02*
X222835Y26181D01*
X205709Y43307D02*
Y61417D01*
X222835Y26181D02*
X267323D01*
X138779Y106890D02*
X156102D01*
X177559Y128347D02*
X192323D01*
X134843Y109055D02*
X155722D01*
X181116Y134449D01*
X195669D01*
X156102Y106890D02*
X177559Y128347D01*
X132677Y106890D02*
X134843Y109055D01*
X132480Y100591D02*
X138779Y106890D01*
X121063Y100591D02*
X132480D01*
X205118Y78937D02*
Y175946D01*
X209600Y74456D02*
X216883D01*
X222244Y94653D02*
Y115354D01*
X205906Y176734D02*
Y176969D01*
X205118Y175946D02*
X205906Y176734D01*
X205118Y78937D02*
X209600Y74456D01*
X216883D02*
X220866Y70472D01*
Y69488D02*
Y70472D01*
Y69488D02*
X220872Y69482D01*
X225544Y70820D02*
Y91353D01*
X208858Y64567D02*
X219291D01*
X225544Y70820D01*
X205709Y61417D02*
X208858Y64567D01*
X222244Y94653D02*
X225544Y91353D01*
D100*
X244528Y335079D02*
Y349803D01*
X239134Y329685D02*
X244528Y335079D01*
X187756Y329685D02*
X193150Y335079D01*
Y349803D01*
D101*
X269827Y149453D02*
G03*
X271297Y150923I0J1470D01*
G01*
X269276Y149453D02*
G03*
X269276Y147283I0J-1085D01*
G01*
X271297Y145814D02*
G03*
X269827Y147283I-1470J0D01*
G01*
X267717Y159252D02*
X271355D01*
X273766Y109841D02*
Y156841D01*
X267812Y156679D02*
X270436D01*
X267717Y156583D02*
X267812Y156679D01*
X271297Y154134D02*
Y155818D01*
X270436Y156679D02*
X271297Y155818D01*
X271355Y159252D02*
X273766Y156841D01*
X271297Y110863D02*
Y145079D01*
X218603Y58170D02*
X271297Y110863D01*
X209646Y55502D02*
X219427D01*
X209646Y58170D02*
X218603D01*
X219427Y55502D02*
X273766Y109841D01*
X271297Y150923D02*
Y154134D01*
X269276Y149453D02*
X269827D01*
X269276Y147283D02*
X269827D01*
X271297Y145079D02*
Y145814D01*
D102*
X310827Y25985D02*
X318504D01*
X310237Y26575D02*
X310827Y25985D01*
X295669Y26575D02*
X310237D01*
X331826Y13366D02*
Y20079D01*
X329809Y11348D02*
X331826Y13366D01*
X332171Y20207D02*
X338993D01*
X325197Y26575D02*
X325393Y26378D01*
Y17529D02*
Y26378D01*
X331692Y82087D02*
X332283Y81495D01*
X328740Y82087D02*
X331692D01*
X325630Y80079D02*
X326811D01*
X327203Y80471D02*
Y80549D01*
X326811Y80079D02*
X327203Y80471D01*
X332283Y81495D02*
X337402D01*
X327203Y80549D02*
X328740Y82087D01*
X304685Y52737D02*
Y55079D01*
X329403Y53044D02*
X330281Y52165D01*
X333661D01*
X329403Y53044D02*
Y57487D01*
X326811Y60079D02*
X329403Y57487D01*
X320827Y60079D02*
X326811D01*
X317913Y62992D02*
X320827Y60079D01*
X317913Y62992D02*
Y88664D01*
X320472Y65957D02*
Y85436D01*
X321351Y65079D02*
X330600D01*
X320472Y65957D02*
X321351Y65079D01*
X327946Y106726D02*
X332480Y102192D01*
Y97444D02*
Y102192D01*
X320472Y85436D02*
X332480Y97444D01*
X317913Y88664D02*
X328046Y98797D01*
X327946Y106726D02*
Y113037D01*
X325630Y85079D02*
X329917D01*
X332283Y87445D01*
Y87795D01*
X351765Y54715D02*
X351772D01*
X349606Y56874D02*
X351765Y54715D01*
X351772Y52165D02*
Y54715D01*
X349606Y56874D02*
Y59646D01*
X334252Y63977D02*
X340354D01*
X330600Y65079D02*
X331702Y63977D01*
X334252D01*
X342904Y69488D02*
X344479Y71063D01*
X349606D01*
X340354Y69488D02*
X342904D01*
X336802Y69291D02*
X336999Y69488D01*
X340354D01*
X334252Y69291D02*
X336802D01*
X325630Y70079D02*
X330914D01*
X331702Y69291D01*
X334252D01*
X344867Y75788D02*
X345457Y76378D01*
X340354Y75788D02*
X344867D01*
X345457Y76378D02*
X349606D01*
X337608Y75591D02*
X337804Y75788D01*
X340354D01*
X334252Y75591D02*
X337608D01*
X331190Y75079D02*
X331702Y75591D01*
X325630Y75079D02*
X331190D01*
X331702Y75591D02*
X334252D01*
X337402Y81495D02*
X342520D01*
Y87795D02*
X349606D01*
X332283D02*
X337402D01*
X295276Y26181D02*
X295669Y26575D01*
X289567Y55511D02*
Y60630D01*
Y55511D02*
X290157Y54921D01*
X297047Y60630D02*
X300811D01*
X301362Y60079D01*
X304685D01*
X300549Y66928D02*
X301655D01*
X297004Y70472D02*
X300549Y66928D01*
X303504Y65079D02*
X304685D01*
X301655Y66928D02*
X303504Y65079D01*
X296654Y70472D02*
X297004D01*
X300066Y75079D02*
X304685D01*
X299554Y75590D02*
X300066Y75079D01*
X296654Y75590D02*
X299554D01*
X297047Y80905D02*
X300536D01*
X301362Y80079D01*
X304685D01*
X291929Y80905D02*
X297047D01*
X341142Y14327D02*
X341951Y15136D01*
X338993Y20207D02*
X341951Y17248D01*
Y15136D02*
Y17248D01*
X341142Y13977D02*
Y14327D01*
X325590Y11220D02*
X325718Y11348D01*
X329809D01*
X313386Y13386D02*
Y19488D01*
X313189Y19685D02*
X313386Y19488D01*
X330430Y7480D02*
X335827Y12877D01*
X325590Y7480D02*
X330430D01*
X335827Y12877D02*
Y14961D01*
X321250Y7480D02*
X325590D01*
X321054Y7677D02*
X321250Y7480D01*
X318504Y7677D02*
X321054D01*
X325590Y14961D02*
Y17332D01*
X325393Y17529D02*
X325590Y17332D01*
X318504Y13977D02*
Y19685D01*
X313189D02*
X318504D01*
X62795Y146457D02*
X89173Y172835D01*
X167520D01*
X189370Y194685D01*
X211811Y134699D02*
X212509Y134001D01*
Y89871D02*
Y134001D01*
X209878Y91535D02*
Y133521D01*
X209377Y134022D02*
X209878Y133521D01*
X208858Y86221D02*
X212509Y89871D01*
X211811Y134699D02*
Y178543D01*
X209377Y134022D02*
Y180833D01*
X189370Y194685D02*
X241632D01*
X261221Y147638D02*
Y175096D01*
X241632Y194685D02*
X261221Y175096D01*
X209377Y180833D02*
X212598Y184055D01*
X261024Y147441D02*
X261221Y147638D01*
D103*
X305906Y12008D02*
Y13386D01*
X306283Y18717D02*
X306661Y19094D01*
X307087D01*
X339961Y52165D02*
X340354Y52559D01*
Y57677D01*
X339961Y52165D02*
X345472D01*
X325630Y52520D02*
Y55079D01*
X330315Y47835D02*
X335185D01*
X325630Y52520D02*
X330315Y47835D01*
X337258Y49908D02*
X337354D01*
X335185Y47835D02*
X337258Y49908D01*
X337354D02*
X339611Y52165D01*
X339961D01*
X334252Y57677D02*
X340354D01*
X287747Y77848D02*
Y82673D01*
X290004Y75590D02*
X290354D01*
X287747Y77848D02*
X290004Y75590D01*
X287747Y82673D02*
X291929Y86855D01*
Y87205D01*
X311221Y101197D02*
X313873Y103850D01*
Y112970D01*
X311221Y97638D02*
Y101197D01*
X311024Y91732D02*
X311221Y91929D01*
Y97638D01*
X290354Y70472D02*
Y75590D01*
X291929Y102490D02*
X302409Y112970D01*
X291929Y87205D02*
Y102490D01*
X302409Y112970D02*
X313873D01*
X341692Y8227D02*
Y8577D01*
X340941Y7476D02*
X341692Y8227D01*
Y8577D02*
X344402Y11287D01*
Y23512D01*
X341339Y26575D02*
X344402Y23512D01*
X325197Y43701D02*
X336614Y32283D01*
X320325Y43701D02*
X325197D01*
X336614Y26575D02*
Y32283D01*
Y26575D02*
X341339D01*
X335827Y7480D02*
X335831Y7476D01*
X340941D01*
X52756Y130709D02*
X69291Y114173D01*
X113002D01*
X114173Y115345D02*
Y118110D01*
X113002Y114173D02*
X114173Y115345D01*
Y118110D02*
X118110Y114173D01*
D104*
X157677Y55807D02*
Y58661D01*
X156890Y55020D02*
X157677Y55807D01*
X159252Y60236D02*
X191929D01*
X157677Y58661D02*
X159252Y60236D01*
X305906Y6299D02*
Y12008D01*
X331767Y20079D02*
Y27485D01*
X328919Y30334D02*
X331767Y27485D01*
X292715Y46244D02*
X296457Y49986D01*
Y54921D01*
X292715Y46076D02*
Y46244D01*
Y46076D02*
X294893Y43898D01*
X295276D01*
X311614Y56890D02*
X322047Y46457D01*
X311614Y56890D02*
Y79372D01*
X305976Y85010D02*
X311614Y79372D01*
X304557Y85010D02*
X305976D01*
X301575Y87992D02*
X304557Y85010D01*
X323230Y36220D02*
X328919Y30532D01*
Y30334D02*
Y30532D01*
X191929Y60236D02*
X197047Y55118D01*
Y14764D02*
Y55118D01*
Y14764D02*
X203346Y8465D01*
X232677D01*
X241339Y17126D01*
D106*
X248363Y239370D02*
X264961D01*
X228740Y258993D02*
X248363Y239370D01*
X236024Y235630D02*
X242717D01*
X230709Y240945D02*
Y251792D01*
Y240945D02*
X236024Y235630D01*
X228740Y258993D02*
Y260630D01*
D110*
X213150Y349803D02*
D03*
X193150D02*
D03*
X264528D02*
D03*
X244528D02*
D03*
X24606Y349370D02*
D03*
Y329370D02*
D03*
D111*
X295276Y43898D02*
D03*
Y37992D02*
D03*
Y32087D02*
D03*
Y26181D02*
D03*
Y20276D02*
D03*
Y14370D02*
D03*
X267323D02*
D03*
Y20276D02*
D03*
Y26181D02*
D03*
Y32087D02*
D03*
Y37992D02*
D03*
Y43898D02*
D03*
D112*
X268543Y319685D02*
D03*
X238937Y329685D02*
D03*
X268543Y259685D02*
D03*
X238937Y299685D02*
D03*
X238543Y259685D02*
D03*
X217362Y319685D02*
D03*
X187756Y329685D02*
D03*
X217362Y259685D02*
D03*
X187756Y299685D02*
D03*
X187362Y259685D02*
D03*
D113*
X156890Y55020D02*
D03*
D114*
X180118Y42815D02*
D03*
X30413Y178937D02*
D03*
D115*
X161221Y30217D02*
D03*
X43012Y160039D02*
D03*
D116*
X126308Y84182D02*
D03*
X21063Y114764D02*
D03*
Y134449D02*
D03*
X14961Y235630D02*
D03*
Y278543D02*
D03*
X131890Y230906D02*
D03*
X92520D02*
D03*
X72835Y309646D02*
D03*
X151575D02*
D03*
X51772Y349410D02*
D03*
X169882D02*
D03*
D117*
X140227Y98101D02*
D03*
D118*
X91142Y7283D02*
D03*
X102953D02*
D03*
D119*
X54134Y53209D02*
D03*
Y60433D02*
D03*
X57746Y49596D02*
D03*
Y56821D02*
D03*
Y64045D02*
D03*
X61358Y53209D02*
D03*
Y60433D02*
D03*
X64970Y49596D02*
D03*
Y56821D02*
D03*
Y64045D02*
D03*
X68583Y53209D02*
D03*
Y60433D02*
D03*
D120*
X55216Y183268D02*
D03*
D121*
X34646Y235630D02*
D03*
Y278543D02*
D03*
D122*
X248031Y184843D02*
D03*
X267717Y156583D02*
D03*
Y159252D02*
D03*
X121063Y100591D02*
D03*
X132677Y106890D02*
D03*
X192323Y128347D02*
D03*
X52756Y130709D02*
D03*
X195669Y134449D02*
D03*
X220872Y69482D02*
D03*
X211811Y178543D02*
D03*
X205906Y176969D02*
D03*
X212598Y184055D02*
D03*
X209646Y55502D02*
D03*
Y58170D02*
D03*
X261024Y147441D02*
D03*
D03*
D123*
X23425Y19882D02*
D03*
X308268Y31890D02*
D03*
X315354D02*
D03*
X304685Y52737D02*
D03*
X305906Y6299D02*
D03*
X235826Y170079D02*
D03*
X233265Y122645D02*
D03*
X43504Y8858D02*
D03*
X49606Y5118D02*
D03*
X44291Y4724D02*
D03*
X264961Y239370D02*
D03*
X230709Y251792D02*
D03*
X201181Y208661D02*
D03*
X92323Y192717D02*
D03*
X24606Y46850D02*
D03*
X39961Y60236D02*
D03*
X122441Y10827D02*
D03*
X119291Y25197D02*
D03*
X169488Y110630D02*
D03*
X202559Y163583D02*
D03*
X217717Y161811D02*
D03*
X216732Y151575D02*
D03*
X19488Y221850D02*
D03*
X60236Y155315D02*
D03*
X37008Y105315D02*
D03*
X9449Y124016D02*
D03*
X36417Y49213D02*
D03*
X29134Y57284D02*
D03*
X141535Y6693D02*
D03*
X181890Y7087D02*
D03*
X250197Y9449D02*
D03*
X204724Y38780D02*
D03*
X231693Y53937D02*
D03*
X238386Y65158D02*
D03*
X252756Y66339D02*
D03*
X263189Y60433D02*
D03*
Y72638D02*
D03*
X250984Y134843D02*
D03*
X255906Y124016D02*
D03*
X244291D02*
D03*
X262008Y189961D02*
D03*
X261811Y203346D02*
D03*
X261614Y216732D02*
D03*
X129528Y68898D02*
D03*
X119095Y58858D02*
D03*
X182480Y122244D02*
D03*
X159646Y122441D02*
D03*
X89567Y175787D02*
D03*
X120079Y177559D02*
D03*
X120276Y188386D02*
D03*
X184055Y209055D02*
D03*
X186417Y195866D02*
D03*
X172047D02*
D03*
X201378Y223031D02*
D03*
X185236D02*
D03*
X242717Y235630D02*
D03*
X228740Y260630D02*
D03*
X147638Y154724D02*
D03*
X147441Y161024D02*
D03*
X150394Y167126D02*
D03*
X158858Y177953D02*
D03*
X158268Y165748D02*
D03*
X268307Y92716D02*
D03*
X184055Y143110D02*
D03*
X23856Y6033D02*
D03*
X23819Y12992D02*
D03*
X23228Y27038D02*
D03*
X65158Y18701D02*
D03*
X72441Y131693D02*
D03*
X75394D02*
D03*
X78740D02*
D03*
X81890D02*
D03*
X62795Y146457D02*
D03*
X222244Y115354D02*
D03*
X208858Y80118D02*
D03*
Y86418D02*
D03*
X209861Y91202D02*
D03*
X198999Y97501D02*
D03*
X257677Y50591D02*
D03*
X250394D02*
D03*
X243110D02*
D03*
X241339Y17126D02*
D03*
X118110Y114173D02*
D03*
X114173Y110236D02*
D03*
Y118110D02*
D03*
X62303Y166732D02*
D03*
X66043D02*
D03*
X58563D02*
D03*
X62795Y193701D02*
D03*
X55315D02*
D03*
X59055D02*
D03*
D124*
X219685Y45276D02*
D03*
Y25591D02*
D03*
D171*
X349606Y59646D02*
D03*
Y71063D02*
D03*
Y76378D02*
D03*
Y87795D02*
D03*
D172*
X335827Y14961D02*
D03*
Y7480D02*
D03*
X325590Y14961D02*
D03*
Y11220D02*
D03*
Y7480D02*
D03*
D173*
X325197Y26575D02*
D03*
X336614D02*
D03*
D174*
X304685Y85079D02*
D03*
X325630D02*
D03*
X304685Y80079D02*
D03*
X325630D02*
D03*
X304685Y75079D02*
D03*
X325630D02*
D03*
X304685Y70079D02*
D03*
X325630D02*
D03*
X304685Y65079D02*
D03*
X325630D02*
D03*
X304685Y60079D02*
D03*
X325630D02*
D03*
X304685Y55079D02*
D03*
X325630D02*
D03*
X304685D02*
D03*
X325630D02*
D03*
D175*
X114173Y76772D02*
X135925Y55020D01*
X156890D01*
X114173Y76772D02*
Y110236D01*
M02*
