G04*
G04 #@! TF.GenerationSoftware,Altium Limited,Altium Designer,22.6.1 (34)*
G04*
G04 Layer_Color=2752767*
%FSLAX25Y25*%
%MOIN*%
G70*
G04*
G04 #@! TF.SameCoordinates,8414C9FA-97DA-49A9-B933-D5EF8910B524*
G04*
G04*
G04 #@! TF.FilePolarity,Positive*
G04*
G01*
G75*
%ADD182C,0.00200*%
D182*
X120663Y100190D02*
Y99791D01*
X121463D01*
Y100190D01*
X121863D01*
Y100990D01*
X121463D01*
Y101391D01*
X120663D01*
Y100990D01*
X120263D01*
Y100190D01*
X120663D01*
X120863Y100391D02*
Y100190D01*
X121263D01*
Y100391D01*
X121463D01*
Y100791D01*
X121263D01*
Y100990D01*
X120863D01*
Y100791D01*
X120663D01*
Y100391D01*
X120863D01*
X132277Y106490D02*
Y106090D01*
X133077D01*
Y106490D01*
X133477D01*
Y107290D01*
X133077D01*
Y107690D01*
X132277D01*
Y107290D01*
X131877D01*
Y106490D01*
X132277D01*
X132477Y106690D02*
Y106490D01*
X132877D01*
Y106690D01*
X133077D01*
Y107090D01*
X132877D01*
Y107290D01*
X132477D01*
Y107090D01*
X132277D01*
Y106690D01*
X132477D01*
X191923Y127946D02*
Y127547D01*
X192723D01*
Y127946D01*
X193123D01*
Y128746D01*
X192723D01*
Y129147D01*
X191923D01*
Y128746D01*
X191523D01*
Y127946D01*
X191923D01*
X192123Y128147D02*
Y127946D01*
X192523D01*
Y128147D01*
X192723D01*
Y128547D01*
X192523D01*
Y128746D01*
X192123D01*
Y128547D01*
X191923D01*
Y128147D01*
X192123D01*
X195269Y134049D02*
Y133649D01*
X196069D01*
Y134049D01*
X196469D01*
Y134849D01*
X196069D01*
Y135249D01*
X195269D01*
Y134849D01*
X194869D01*
Y134049D01*
X195269D01*
X195469Y134249D02*
Y134049D01*
X195869D01*
Y134249D01*
X196069D01*
Y134649D01*
X195869D01*
Y134849D01*
X195469D01*
Y134649D01*
X195269D01*
Y134249D01*
X195469D01*
X260624Y147041D02*
Y146641D01*
X261424D01*
Y147041D01*
X261824D01*
Y147841D01*
X261424D01*
Y148241D01*
X260624D01*
Y147841D01*
X260224D01*
Y147041D01*
X260624D01*
X260824Y147241D02*
Y147041D01*
X261224D01*
Y147241D01*
X261424D01*
Y147641D01*
X261224D01*
Y147841D01*
X260824D01*
Y147641D01*
X260624D01*
Y147241D01*
X260824D01*
M02*
