G04*
G04 #@! TF.GenerationSoftware,Altium Limited,Altium Designer,22.6.1 (34)*
G04*
G04 Layer_Color=10964583*
%FSLAX25Y25*%
%MOIN*%
G70*
G04*
G04 #@! TF.SameCoordinates,8414C9FA-97DA-49A9-B933-D5EF8910B524*
G04*
G04*
G04 #@! TF.FilePolarity,Negative*
G04*
G01*
G75*
%ADD19R,0.04194X0.03494*%
%ADD21R,0.03150X0.05512*%
%ADD22R,0.05512X0.03150*%
%ADD28R,0.03494X0.04194*%
%ADD52C,0.12205*%
%ADD53O,0.07087X0.05118*%
%ADD54C,0.04331*%
%ADD55C,0.10236*%
%ADD56O,0.14567X0.07480*%
%ADD57O,0.08268X0.16142*%
%ADD58O,0.16142X0.08268*%
%ADD59C,0.08661*%
%ADD60C,0.08268*%
%ADD61P,0.11692X4X270.0*%
%ADD62C,0.03937*%
%ADD63C,0.01575*%
%ADD64O,0.07480X0.14567*%
%ADD65R,0.08268X0.08268*%
%ADD176R,0.06693X0.03937*%
%ADD177R,0.04724X0.02756*%
%ADD178R,0.03937X0.06693*%
%ADD179R,0.05039X0.02677*%
G36*
X263819Y14764D02*
Y12992D01*
X267008Y9803D01*
X267441D01*
X270827Y13189D01*
Y14842D01*
X263819Y14764D01*
D02*
G37*
G36*
X270827Y43504D02*
Y45276D01*
X267638Y48465D01*
X267205D01*
X263819Y45079D01*
Y43425D01*
X270827Y43504D01*
D02*
G37*
G36*
X296260Y124606D02*
X292323Y120669D01*
X292323D01*
X296260Y116732D01*
X300197Y120669D01*
X300197D01*
X296260Y124606D01*
D02*
G37*
D19*
X339961Y52165D02*
D03*
X333661D02*
D03*
X345472D02*
D03*
X351772D02*
D03*
X325393Y20079D02*
D03*
X331693D02*
D03*
X290157Y54921D02*
D03*
X296457D02*
D03*
X296654Y70472D02*
D03*
X290354D02*
D03*
X296654Y75590D02*
D03*
X290354D02*
D03*
X310991Y91696D02*
D03*
X304691D02*
D03*
D21*
X313386Y13386D02*
D03*
X305906D02*
D03*
X297047Y60630D02*
D03*
X289567D02*
D03*
X311221Y97638D02*
D03*
X303740D02*
D03*
D22*
X307087Y43701D02*
D03*
Y36220D02*
D03*
X313779Y43701D02*
D03*
Y36220D02*
D03*
X320472Y43701D02*
D03*
Y36220D02*
D03*
X307087Y26575D02*
D03*
Y19094D02*
D03*
D28*
X334252Y63977D02*
D03*
Y57677D02*
D03*
X340354D02*
D03*
Y63977D02*
D03*
X334252Y75591D02*
D03*
Y69291D02*
D03*
X340354Y75788D02*
D03*
Y69488D02*
D03*
X337402Y81495D02*
D03*
Y87795D02*
D03*
X332283D02*
D03*
Y81495D02*
D03*
X342520D02*
D03*
Y87795D02*
D03*
X318504Y7677D02*
D03*
Y13977D02*
D03*
X313189Y19685D02*
D03*
Y25985D02*
D03*
X318504Y19685D02*
D03*
Y25985D02*
D03*
X341142Y7677D02*
D03*
Y13977D02*
D03*
X291929Y80905D02*
D03*
Y87205D02*
D03*
X297047D02*
D03*
Y80905D02*
D03*
D52*
X213150Y349803D02*
D03*
X193150D02*
D03*
X264528D02*
D03*
X244528D02*
D03*
X24606Y349370D02*
D03*
Y329370D02*
D03*
D53*
X295276Y43898D02*
D03*
Y37992D02*
D03*
Y32087D02*
D03*
Y26181D02*
D03*
Y20276D02*
D03*
Y14370D02*
D03*
X267323D02*
D03*
Y20276D02*
D03*
Y26181D02*
D03*
Y32087D02*
D03*
Y37992D02*
D03*
Y43898D02*
D03*
D54*
X327946Y113037D02*
D03*
X328046Y98797D02*
D03*
X313873Y112970D02*
D03*
D55*
X268543Y319685D02*
D03*
X238937Y329685D02*
D03*
X268543Y259685D02*
D03*
X238937Y299685D02*
D03*
X238543Y259685D02*
D03*
X217362Y319685D02*
D03*
X187756Y329685D02*
D03*
X217362Y259685D02*
D03*
X187756Y299685D02*
D03*
X187362Y259685D02*
D03*
D56*
X156890Y55020D02*
D03*
D57*
X180118Y42815D02*
D03*
X30413Y178937D02*
D03*
D58*
X161221Y30217D02*
D03*
X43012Y160039D02*
D03*
D59*
X161221Y12500D02*
D03*
X12697Y178937D02*
D03*
D60*
X126308Y84182D02*
D03*
X21063Y114764D02*
D03*
Y134449D02*
D03*
X14961Y235630D02*
D03*
Y278543D02*
D03*
X131890Y230906D02*
D03*
X92520D02*
D03*
X72835Y309646D02*
D03*
X151575D02*
D03*
X51772Y349410D02*
D03*
X169882D02*
D03*
D61*
X140227Y98101D02*
D03*
D62*
X91142Y7283D02*
D03*
X102953D02*
D03*
D63*
X54134Y53209D02*
D03*
Y60433D02*
D03*
X57746Y49596D02*
D03*
Y56821D02*
D03*
Y64045D02*
D03*
X61358Y53209D02*
D03*
Y60433D02*
D03*
X64970Y49596D02*
D03*
Y56821D02*
D03*
Y64045D02*
D03*
X68583Y53209D02*
D03*
Y60433D02*
D03*
D64*
X55216Y183268D02*
D03*
D65*
X34646Y235630D02*
D03*
Y278543D02*
D03*
D176*
X349606Y59646D02*
D03*
Y71063D02*
D03*
Y76378D02*
D03*
Y87795D02*
D03*
D177*
X335827Y14961D02*
D03*
Y7480D02*
D03*
X325590Y14961D02*
D03*
Y11220D02*
D03*
Y7480D02*
D03*
D178*
X325197Y26575D02*
D03*
X336614D02*
D03*
D179*
X304685Y85079D02*
D03*
X325630D02*
D03*
X304685Y80079D02*
D03*
X325630D02*
D03*
X304685Y75079D02*
D03*
X325630D02*
D03*
X304685Y70079D02*
D03*
X325630D02*
D03*
X304685Y65079D02*
D03*
X325630D02*
D03*
X304685Y60079D02*
D03*
X325630D02*
D03*
X304685Y55079D02*
D03*
X325630D02*
D03*
X304685D02*
D03*
X325630D02*
D03*
M02*
