G04*
G04 #@! TF.GenerationSoftware,Altium Limited,Altium Designer,22.6.1 (34)*
G04*
G04 Layer_Color=32768*
%FSLAX25Y25*%
%MOIN*%
G70*
G04*
G04 #@! TF.SameCoordinates,8414C9FA-97DA-49A9-B933-D5EF8910B524*
G04*
G04*
G04 #@! TF.FilePolarity,Positive*
G04*
G01*
G75*
%ADD11C,0.01181*%
%ADD181C,0.03937*%
D11*
X280118Y118110D02*
Y118504D01*
Y115748D02*
Y116142D01*
Y113386D02*
Y113779D01*
Y111024D02*
Y111417D01*
X282874Y111024D02*
Y111417D01*
Y113386D02*
Y113779D01*
Y115748D02*
Y116142D01*
Y118110D02*
Y118504D01*
X280118Y28346D02*
Y28740D01*
Y30709D02*
Y31102D01*
Y33071D02*
Y33465D01*
Y35433D02*
Y35827D01*
X282874Y35433D02*
Y35827D01*
Y33071D02*
Y33465D01*
Y30709D02*
Y31102D01*
Y28346D02*
Y28740D01*
D181*
X-1969Y-1969D02*
X352559D01*
X-1969D02*
Y6890D01*
X281496Y122047D02*
Y135433D01*
X281496Y94095D02*
Y107480D01*
Y80709D02*
Y94095D01*
X281496Y52756D02*
Y64961D01*
Y39370D02*
Y52756D01*
X281496Y0D02*
X281496Y24803D01*
X281496Y75394D02*
Y75590D01*
X281496Y70079D02*
Y70276D01*
X281496Y135433D02*
X364173D01*
Y-1969D02*
Y135433D01*
X352559Y-1969D02*
X364173D01*
X-1969Y6890D02*
Y27756D01*
X12008D01*
Y95866D01*
X-1969D02*
X12008D01*
X-1969Y27756D02*
Y95866D01*
X1378Y27953D02*
Y95079D01*
X4331Y95669D02*
X4724D01*
Y28937D02*
Y95669D01*
X7874Y29331D02*
X8465D01*
Y93701D01*
X281496Y133858D02*
Y372047D01*
X-1969Y95866D02*
Y372047D01*
X281496D01*
M02*
